<svg id="Capa_1" data-name="Capa 1" xmlns="http://www.w3.org/2000/svg" viewBox="0 0 20 20"><defs><style>.cls-1{fill:#fff;}</style></defs><title>Button</title><path class="cls-1" d="M17.09,2.91a10,10,0,0,0-17,7,9.85,9.85,0,0,0,1.33,4.95L0,20l5.28-1.38A10,10,0,0,0,10,19.83h0A10,10,0,0,0,20,9.92,9.82,9.82,0,0,0,17.09,2.91ZM10,18.15h0A8.26,8.26,0,0,1,5.83,17l-.31-.18-3.13.82.84-3L3,14.29A8.16,8.16,0,0,1,1.76,9.91,8.29,8.29,0,0,1,15.9,4.09,8.23,8.23,0,0,1,10,18.15ZM14.58,12c-.25-.13-1.47-.73-1.7-.81s-.39-.12-.56.12a10.62,10.62,0,0,1-.79,1c-.14.17-.29.19-.54.07a7.18,7.18,0,0,1-2-1.23A7.28,7.28,0,0,1,7.61,9.39c-.15-.25,0-.37.11-.5A7.53,7.53,0,0,0,8.34,8a.46.46,0,0,0,0-.43c-.06-.13-.56-1.35-.77-1.84s-.4-.42-.56-.43H6.52a1,1,0,0,0-.67.31A2.78,2.78,0,0,0,5,7.71a4.72,4.72,0,0,0,1,2.56A10.93,10.93,0,0,0,10.25,14a14.31,14.31,0,0,0,1.42.52,3.43,3.43,0,0,0,1.56.1,2.54,2.54,0,0,0,1.68-1.18,2.08,2.08,0,0,0,.15-1.18C15,12.17,14.83,12.11,14.58,12Z"/></svg>