<svg width="24" height="25" viewBox="0 0 24 25" fill="none" xmlns="http://www.w3.org/2000/svg">
<path d="M12.0003 4.75391C7.9057 4.75391 4.57422 8.0851 4.57422 12.18C4.57422 14.9264 6.09154 17.4328 8.48002 18.7001V21.1736C8.48002 21.5993 8.82511 21.9444 9.25088 21.9444H14.7498C15.1756 21.9444 15.5207 21.5996 15.5207 21.1736V18.7191C17.9089 17.4189 19.4262 14.904 19.4262 12.18C19.4262 8.08539 16.095 4.75391 12.0003 4.75391ZM14.4273 17.544C14.1542 17.67 13.9789 17.9433 13.9789 18.2443V20.4027H10.0218V18.2186C10.0218 17.9141 9.84218 17.6378 9.56389 17.5142C7.46941 16.5833 6.11603 14.4893 6.11603 12.18C6.11603 8.9354 8.75576 6.29567 12.0004 6.29567C15.245 6.29567 17.8845 8.9354 17.8845 12.18C17.8845 14.471 16.5275 16.5766 14.4273 17.544Z" fill="#00FFFF"/>
<path d="M14.2356 22.6123H9.76451C9.33875 22.6123 8.99365 22.9574 8.99365 23.3832C8.99365 23.8089 9.33875 24.154 9.76451 24.154H14.2356C14.6613 24.154 15.0064 23.8089 15.0064 23.3832C15.0065 22.9574 14.6614 22.6123 14.2356 22.6123Z" fill="#FBFBFB"/>
<path d="M12.7708 0H11.229V3.21198H12.7708V0Z" fill="#FBFBFB"/>
<path d="M3.21198 11.2295H0V12.7713H3.21198V11.2295Z" fill="#FBFBFB"/>
<path d="M24.0001 11.2295H20.7881V12.7713H24.0001V11.2295Z" fill="#FBFBFB"/>
<path d="M4.06302 2.97201L2.979 4.06836L5.266 6.32962L6.35001 5.23328L4.06302 2.97201Z" fill="#FBFBFB"/>
<path d="M19.9379 2.97311L17.6509 5.23438L18.7349 6.33072L21.0219 4.06946L19.9379 2.97311Z" fill="#FBFBFB"/>
</svg>
