<svg id="Capa_1" data-name="Capa 1" xmlns="http://www.w3.org/2000/svg" viewBox="0 0 26 26"><defs><style>.cls-1{fill:#fcfcfb;}.cls-2{fill:aqua;}</style></defs><title>icon</title><path class="cls-1" d="M17.73,21.27a1.18,1.18,0,0,1-.84-2L23.15,13,16.89,6.74a1.18,1.18,0,0,1,1.67-1.67l7.09,7.09a1.18,1.18,0,0,1,0,1.68l-7.09,7.09A1.16,1.16,0,0,1,17.73,21.27Z"/><path class="cls-2" d="M8.27,21.27a1.16,1.16,0,0,1-.83-.34L.35,13.84a1.18,1.18,0,0,1,0-1.68L7.44,5.07A1.18,1.18,0,1,1,9.11,6.74L2.85,13l6.26,6.26a1.18,1.18,0,0,1-.84,2Z"/></svg>