<svg id="Capa_1" data-name="Capa 1" xmlns="http://www.w3.org/2000/svg" viewBox="0 0 26 26"><defs><style>.cls-1{fill:#fcfcfb;}.cls-2{fill:aqua;}</style></defs><title>icon</title><path class="cls-1" d="M13,26A13,13,0,1,1,26,13,13,13,0,0,1,13,26ZM13,2.36A10.64,10.64,0,1,0,23.64,13,10.65,10.65,0,0,0,13,2.36Z"/><path class="cls-2" d="M8,19.19a1.17,1.17,0,0,1-1.12-1.55l2.5-7.52a1.21,1.21,0,0,1,.75-.75l7.52-2.5a1.17,1.17,0,0,1,1.49,1.49l-2.5,7.52a1.21,1.21,0,0,1-.75.75l-7.52,2.5A1.19,1.19,0,0,1,8,19.19Zm3.44-7.76L9.86,16.14l4.71-1.57,1.57-4.71Z"/></svg>