<svg width="26" height="26" viewBox="0 0 26 26" fill="none" xmlns="http://www.w3.org/2000/svg">
<path d="M22.7607 11.9209V23.085C22.7607 24.2014 21.7871 25.1101 20.5798 25.1101H5.30052C4.09324 25.1101 3.11963 24.2014 3.11963 23.085V11.9209" stroke="#FBFBFB" stroke-width="1.5" stroke-linecap="round" stroke-linejoin="round"/>
<path d="M9.85693 24.7463V14.7246H16.166V24.7463" stroke="#FBFBFB" stroke-width="1.5" stroke-linecap="round" stroke-linejoin="round"/>
<path d="M12.9854 9.5838C12.9854 9.5838 12.1416 10.3627 10.2333 10.3497C10.2333 10.3497 7.88367 10.3108 7.46826 9.54486V4.36523H12.9854V9.5838Z" stroke="#FBFBFB" stroke-width="1.5" stroke-linecap="round" stroke-linejoin="round"/>
<path d="M18.5934 4.36523H22.9162L24.9154 7.75341C25.5515 9.71362 22.384 10.2069 22.384 10.2069C20.3199 10.7781 18.4116 9.59679 18.4116 9.59679L18.5934 4.36523Z" stroke="#FBFBFB" stroke-width="1.5" stroke-linecap="round" stroke-linejoin="round"/>
<path d="M3.08046 4.36565V2.19773C3.08046 2.19773 2.54821 1.00343 4.88489 1.00343H20.6445C20.6445 1.00343 23.1369 0.899581 23.1369 1.83425L22.9162 4.36565" stroke="#FBFBFB" stroke-width="1.5" stroke-linecap="round" stroke-linejoin="round"/>
<path d="M7.4035 4.36523H3.08065L1.0815 7.75341C0.458385 9.7266 3.61289 10.2069 3.61289 10.2069C5.67696 10.7781 7.58524 9.59679 7.58524 9.59679L7.4035 4.36523Z" stroke="#00FFFF" stroke-width="1.5" stroke-linecap="round" stroke-linejoin="round"/>
<path d="M18.5679 9.5838C18.5679 9.5838 17.7241 10.3627 15.8158 10.3497C15.8158 10.3497 13.4662 10.3108 13.0508 9.54486V4.36523H18.5679V9.5838Z" stroke="#00FFFF" stroke-width="1.5" stroke-linecap="round" stroke-linejoin="round"/>
</svg>
