<svg id="Capa_1" data-name="Capa 1" xmlns="http://www.w3.org/2000/svg" viewBox="0 0 26 26"><defs><style>.cls-1{fill:aqua;}</style></defs><title>Iconos</title><path class="cls-1" d="M8.36,10.29,6.83,16.17H5.1L4.16,12.3l-1,3.87H1.45L0,10.29H1.49l.85,4.28,1.05-4.28H5l1,4.28.85-4.28Z"/><path class="cls-1" d="M17.18,10.29l-1.53,5.88H13.91L13,12.3l-1,3.87H10.27l-1.5-5.88h1.54l.85,4.28,1-4.28h1.58l1,4.28.85-4.28Z"/><path class="cls-1" d="M26,10.29l-1.53,5.88H22.73l-.94-3.87-1,3.87H19.08l-1.49-5.88h1.54L20,14.57,21,10.29H22.6l1,4.28.86-4.28Z"/></svg>