<svg id="Capa_1" data-name="Capa 1" xmlns="http://www.w3.org/2000/svg" viewBox="0 0 26 26"><defs><style>.cls-1{fill:#fcfcfb;}.cls-2{fill:aqua;}</style></defs><title>Iconos</title><path class="cls-1" d="M18.38,17.09a4.35,4.35,0,1,1,4.1-5.8h.25a2.9,2.9,0,0,1,0,5.8Zm0-7.73a3,3,0,0,0-.84.11,3.38,3.38,0,0,0,.84,6.65h4.35a1.93,1.93,0,0,0,0-3.86h-.61a.49.49,0,0,1-.47-.37A3.37,3.37,0,0,0,18.38,9.36Z"/><path class="cls-1" d="M11.18,9.18H2.08A1.71,1.71,0,0,1,.37,7.48V1.79A1.71,1.71,0,0,1,2.08.09h9.1a1.7,1.7,0,0,1,1.7,1.7V7.48A1.7,1.7,0,0,1,11.18,9.18Zm-9.1-8a.57.57,0,0,0-.57.57V7.48a.57.57,0,0,0,.57.57h9.1a.57.57,0,0,0,.56-.57V1.79a.57.57,0,0,0-.56-.57Z"/><path class="cls-1" d="M8.9,11.46H4.35a.58.58,0,0,1-.57-.57.57.57,0,0,1,.57-.57H8.9a.57.57,0,0,1,.57.57A.58.58,0,0,1,8.9,11.46Z"/><path class="cls-1" d="M6.63,11.46a.57.57,0,0,1-.57-.57V8.61a.57.57,0,0,1,1.13,0v2.28A.57.57,0,0,1,6.63,11.46Z"/><path class="cls-1" d="M10.28,19.81H2.14A1.52,1.52,0,0,1,.62,18.29v-2a1.53,1.53,0,0,1,1.52-1.53h8.14a1.53,1.53,0,0,1,1.52,1.53v2A1.52,1.52,0,0,1,10.28,19.81ZM2.14,15.75a.51.51,0,0,0-.51.51v2a.51.51,0,0,0,.51.51h8.14a.5.5,0,0,0,.5-.51v-2a.5.5,0,0,0-.5-.51Z"/><path class="cls-1" d="M10.28,25.91H2.14A1.52,1.52,0,0,1,.62,24.39v-2a1.53,1.53,0,0,1,1.52-1.53h8.14a1.53,1.53,0,0,1,1.52,1.53v2A1.52,1.52,0,0,1,10.28,25.91ZM2.14,21.85a.51.51,0,0,0-.51.51v2a.51.51,0,0,0,.51.51h8.14a.5.5,0,0,0,.5-.51v-2a.5.5,0,0,0-.5-.51Z"/><path class="cls-1" d="M3.16,17.78a.51.51,0,0,1,0-1h0a.51.51,0,1,1,0,1Z"/><path class="cls-1" d="M3.16,23.88a.51.51,0,0,1,0-1h0a.51.51,0,1,1,0,1Z"/><rect class="cls-2" x="14.98" y="4.08" width="0.8" height="3.81" transform="translate(0.28 12.63) rotate(-45)"/><rect class="cls-2" x="13.48" y="19.41" width="3.81" height="0.8" transform="translate(-9.21 14.85) rotate(-40.76)"/></svg>