<svg id="Capa_1" data-name="Capa 1" xmlns="http://www.w3.org/2000/svg" viewBox="0 0 26 26"><defs><style>.cls-1{fill:aqua;}.cls-2{fill:#fcfcfb;}</style></defs><title>icon</title><path class="cls-1" d="M7.61,26.05a1.09,1.09,0,0,1-1.08-1.23l1.31-9.9a1.09,1.09,0,0,1,2.16.29L9,22.87l3.5-2.1a1.07,1.07,0,0,1,1.12,0l3.49,2.1-1-7.67a1.08,1.08,0,1,1,2.15-.29l1.31,9.91a1.08,1.08,0,0,1-1.63,1.07L13,23,8.16,25.89A1.1,1.1,0,0,1,7.61,26.05Z"/><path class="cls-2" d="M13,17.36a8.69,8.69,0,1,1,8.69-8.69A8.7,8.7,0,0,1,13,17.36ZM13,2.15a6.52,6.52,0,1,0,6.51,6.52A6.52,6.52,0,0,0,13,2.15Z"/></svg>