<svg id="Capa_1" data-name="Capa 1" xmlns="http://www.w3.org/2000/svg" viewBox="0 0 26 26"><defs><style>.cls-1{fill:#fcfcfb;}</style></defs><title>icon</title><path class="cls-1" d="M21.27,2.36H4.73A3.55,3.55,0,0,0,1.18,5.91V22.45A3.55,3.55,0,0,0,4.73,26H21.27a3.55,3.55,0,0,0,3.55-3.55V5.91A3.55,3.55,0,0,0,21.27,2.36ZM4.73,4.73H21.27a1.18,1.18,0,0,1,1.18,1.18V9.45H3.55V5.91A1.18,1.18,0,0,1,4.73,4.73ZM21.27,23.64H4.73a1.18,1.18,0,0,1-1.18-1.19V11.82h18.9V22.45A1.18,1.18,0,0,1,21.27,23.64Z"/><path class="cls-1" d="M17.73,7.09a1.18,1.18,0,0,1-1.18-1.18V1.18a1.18,1.18,0,0,1,2.36,0V5.91A1.18,1.18,0,0,1,17.73,7.09Z"/><path class="cls-1" d="M8.27,7.09A1.18,1.18,0,0,1,7.09,5.91V1.18a1.18,1.18,0,0,1,2.36,0V5.91A1.18,1.18,0,0,1,8.27,7.09Z"/></svg>