<svg id="Capa_1" data-name="Capa 1" xmlns="http://www.w3.org/2000/svg" viewBox="0 0 26 26"><defs><style>.cls-1{fill:#fcfcfb;}.cls-2{fill:aqua;}</style></defs><title>icon</title><path class="cls-1" d="M10.42,11.66H1.3A1.3,1.3,0,0,1,0,10.36V1.24A1.3,1.3,0,0,1,1.3-.06h9.12a1.3,1.3,0,0,1,1.31,1.3v9.12A1.3,1.3,0,0,1,10.42,11.66ZM2.61,9.06H9.12V2.54H2.61Z"/><path class="cls-2" d="M24.76,11.66H15.64a1.31,1.31,0,0,1-1.31-1.3V1.24a1.31,1.31,0,0,1,1.31-1.3h9.12a1.3,1.3,0,0,1,1.3,1.3v9.12A1.3,1.3,0,0,1,24.76,11.66Zm-7.82-2.6h6.52V2.54H16.94Z"/><path class="cls-1" d="M24.76,26H15.64a1.31,1.31,0,0,1-1.31-1.3V15.57a1.31,1.31,0,0,1,1.31-1.3h9.12a1.3,1.3,0,0,1,1.3,1.3V24.7A1.3,1.3,0,0,1,24.76,26Zm-7.82-2.61h6.52V16.88H16.94Z"/><path class="cls-1" d="M10.42,26H1.3A1.3,1.3,0,0,1,0,24.7V15.57a1.3,1.3,0,0,1,1.3-1.3h9.12a1.3,1.3,0,0,1,1.31,1.3V24.7A1.3,1.3,0,0,1,10.42,26ZM2.61,23.39H9.12V16.88H2.61Z"/></svg>