<svg id="Capa_1" data-name="Capa 1" xmlns="http://www.w3.org/2000/svg" viewBox="0 0 26 26"><defs><style>.cls-1{fill:#fcfcfb;}.cls-2{fill:aqua;}</style></defs><title>icon</title><path class="cls-1" d="M13,26A13,13,0,1,1,26,13,13,13,0,0,1,13,26ZM13,2.36A10.64,10.64,0,1,0,23.65,13,10.65,10.65,0,0,0,13,2.36Z"/><path class="cls-2" d="M12.92,15.36a1.18,1.18,0,0,1-.38-2.3c.71-.24,2.74-1.2,2.74-2.42A2.36,2.36,0,0,0,11.89,8.5a2.32,2.32,0,0,0-1.2,1.35,1.18,1.18,0,1,1-2.23-.79,4.72,4.72,0,0,1,6-2.89,4.72,4.72,0,0,1,3.16,4.47c0,3.12-3.91,4.51-4.35,4.66A1.24,1.24,0,0,1,12.92,15.36Z"/><path class="cls-2" d="M13,20.09a1.18,1.18,0,1,1,0-2.36h0a1.18,1.18,0,0,1,0,2.36Z"/></svg>