<svg id="Capa_1" data-name="Capa 1" xmlns="http://www.w3.org/2000/svg" viewBox="0 0 26 26"><defs><style>.cls-1{fill:#fcfcfb;}.cls-2{fill:aqua;}</style></defs><title>Iconos</title><path class="cls-1" d="M18.93,25.66a1.12,1.12,0,0,1-1.12-1.12V22.29a3.37,3.37,0,0,0-3.37-3.37h-9a3.37,3.37,0,0,0-3.37,3.37v2.25a1.12,1.12,0,0,1-2.24,0V22.29a5.62,5.62,0,0,1,5.61-5.62h9a5.62,5.62,0,0,1,5.62,5.62v2.25A1.13,1.13,0,0,1,18.93,25.66Z"/><path class="cls-1" d="M10,14.43a5.62,5.62,0,1,1,5.61-5.62A5.62,5.62,0,0,1,10,14.43Zm0-9a3.37,3.37,0,1,0,3.37,3.37A3.37,3.37,0,0,0,10,5.44Z"/><path class="cls-2" d="M16.92,16.15a1.32,1.32,0,0,1-.93-.38,1.33,1.33,0,0,1,0-1.88l2.73-2.73a3,3,0,0,1,4-3.65.42.42,0,0,1,.25.31.43.43,0,0,1-.12.37l-1.6,1.6-.3-.3,1,1,1.59-1.6a.44.44,0,0,1,.38-.11.42.42,0,0,1,.31.24,2.93,2.93,0,0,1,.07,2.27A3,3,0,0,1,20.6,13l-2.74,2.74A1.36,1.36,0,0,1,16.92,16.15Zm4.62-8.06a2.08,2.08,0,0,0-.88.19,2.12,2.12,0,0,0-1.05,2.81.43.43,0,0,1-.09.47l-2.93,2.93a.48.48,0,0,0,0,.68.48.48,0,0,0,.67,0l2.93-2.94a.45.45,0,0,1,.48-.08,2.12,2.12,0,0,0,3-2.17l-1.09,1.08a.85.85,0,0,1-1.19,0l-.68-.68a.85.85,0,0,1,0-1.2h0L21.78,8.1Z"/></svg>