<svg id="Capa_1" data-name="Capa 1" xmlns="http://www.w3.org/2000/svg" viewBox="0 0 26 26"><defs><style>.cls-1{fill:#fcfcfb;}.cls-2{fill:aqua;}</style></defs><title>Iconos</title><path class="cls-1" d="M18.93,25.66a1.12,1.12,0,0,1-1.12-1.12V22.29a3.37,3.37,0,0,0-3.37-3.37h-9a3.37,3.37,0,0,0-3.37,3.37v2.25a1.12,1.12,0,0,1-2.24,0V22.29a5.62,5.62,0,0,1,5.61-5.62h9a5.62,5.62,0,0,1,5.62,5.62v2.25A1.13,1.13,0,0,1,18.93,25.66Z"/><path class="cls-1" d="M10,14.43a5.62,5.62,0,1,1,5.61-5.62A5.62,5.62,0,0,1,10,14.43Zm0-9a3.37,3.37,0,1,0,3.37,3.37A3.37,3.37,0,0,0,10,5.44Z"/><path class="cls-2" d="M21,11.75a.79.79,0,0,1-.25-1.54c.47-.16,1.82-.8,1.82-1.61a1.57,1.57,0,0,0-3.06-.53.78.78,0,0,1-1.48-.52,3.15,3.15,0,0,1,6.12,1c0,2.08-2.61,3-2.9,3.11A1.18,1.18,0,0,1,21,11.75Z"/><path class="cls-2" d="M21.1,14.9a.79.79,0,0,1,0-1.58h0a.79.79,0,0,1,0,1.58Z"/></svg>