<svg id="Capa_1" data-name="Capa 1" xmlns="http://www.w3.org/2000/svg" viewBox="0 0 26 26"><defs><style>.cls-1{fill:aqua;}.cls-2{fill:#fcfcfb;}</style></defs><title>Iconos</title><path class="cls-1" d="M16.29,8.64H9.81A1.07,1.07,0,0,0,8.73,9.71v6.48a1.08,1.08,0,0,0,1.08,1.08h6.48a1.07,1.07,0,0,0,1.07-1.08V9.71A1.07,1.07,0,0,0,16.29,8.64Zm-1.08,6.47H10.89V10.79h4.32Z"/><path class="cls-2" d="M24.92,14H22.76V10.79h2.16a1.08,1.08,0,1,0,0-2.15H22.76V6.48a3.24,3.24,0,0,0-3.24-3.24H17.36V1.08a1.08,1.08,0,1,0-2.15,0V3.24H10.89V1.08a1.08,1.08,0,0,0-2.16,0V3.24H6.57A3.24,3.24,0,0,0,3.33,6.48V8.64H1.17a1.08,1.08,0,1,0,0,2.15H3.33V14H1.17a1.08,1.08,0,1,0,0,2.16H3.33v3.24a3.24,3.24,0,0,0,3.24,3.24H8.73v2.16a1.08,1.08,0,0,0,2.16,0V22.67h4.32v2.16a1.08,1.08,0,1,0,2.15,0V22.67h2.16a3.24,3.24,0,0,0,3.24-3.24V16.19h2.16a1.08,1.08,0,0,0,0-2.16Zm-4.32,5.4a1.08,1.08,0,0,1-1.08,1.08H6.57a1.08,1.08,0,0,1-1.08-1.08V6.48A1.08,1.08,0,0,1,6.57,5.4h13A1.08,1.08,0,0,1,20.6,6.48Z"/></svg>