<svg width="26" height="29" viewBox="0 0 26 29" fill="none" xmlns="http://www.w3.org/2000/svg">
<path d="M25 28V25C25 23.4087 24.3679 21.8826 23.2426 20.7574C22.1174 19.6321 20.5913 19 19 19H7C5.4087 19 3.88258 19.6321 2.75736 20.7574C1.63214 21.8826 1 23.4087 1 25V28" stroke="#FBFBFB" stroke-width="2" stroke-linecap="round" stroke-linejoin="round"/>
<path d="M13 13C16.3137 13 19 10.3137 19 7C19 3.68629 16.3137 1 13 1C9.68629 1 7 3.68629 7 7C7 10.3137 9.68629 13 13 13Z" stroke="#FBFBFB" stroke-width="2" stroke-linecap="round" stroke-linejoin="round"/>
<path d="M16.4602 22.5304C16.2892 22.3623 16.0861 22.2289 15.8626 22.1379C15.6391 22.0468 15.3995 22 15.1576 22C14.9156 22 14.676 22.0468 14.4525 22.1379C14.229 22.2289 14.0259 22.3623 13.8549 22.5304L13.4999 22.8793L13.1449 22.5304C12.7994 22.1909 12.3309 22.0002 11.8423 22.0002C11.3537 22.0002 10.8851 22.1909 10.5396 22.5304C10.1941 22.87 10 23.3305 10 23.8106C10 24.2908 10.1941 24.7513 10.5396 25.0908L10.8946 25.4396L13.4999 28L16.1053 25.4396L16.4602 25.0908C16.6314 24.9227 16.7671 24.7231 16.8597 24.5035C16.9523 24.2838 17 24.0484 17 23.8106C17 23.5729 16.9523 23.3374 16.8597 23.1178C16.7671 22.8981 16.6314 22.6985 16.4602 22.5304V22.5304Z" stroke="#00FFFF" stroke-linecap="round" stroke-linejoin="round"/>
</svg>
