<svg id="Capa_1" data-name="Capa 1" xmlns="http://www.w3.org/2000/svg" viewBox="0 0 26 26"><defs><style>.cls-1{fill:#fcfcfb;}.cls-2{fill:aqua;}</style></defs><title>icon</title><path class="cls-1" d="M17.33,23.74a1.08,1.08,0,0,1-1.08-1.09V20.49A3.25,3.25,0,0,0,13,17.24H5.42a3.24,3.24,0,0,0-3.25,3.25v2.16a1.09,1.09,0,1,1-2.17,0V20.49a5.42,5.42,0,0,1,5.42-5.42H13a5.42,5.42,0,0,1,5.42,5.42v2.16A1.09,1.09,0,0,1,17.33,23.74Z"/><path class="cls-1" d="M9.21,12.9a5.42,5.42,0,1,1,5.41-5.41A5.42,5.42,0,0,1,9.21,12.9Zm0-8.66a3.25,3.25,0,1,0,3.25,3.25A3.25,3.25,0,0,0,9.21,4.24Z"/><path class="cls-2" d="M24.92,10.74H22.75V8.57a1.09,1.09,0,0,0-2.17,0v2.17H18.42a1.08,1.08,0,1,0,0,2.16h2.16v2.17a1.09,1.09,0,0,0,2.17,0V12.9h2.17a1.08,1.08,0,0,0,0-2.16Z"/></svg>