<svg id="Capa_1" data-name="Capa 1" xmlns="http://www.w3.org/2000/svg" viewBox="0 0 26 26"><defs><style>.cls-1{fill:#fcfcfb;}.cls-2{fill:aqua;}</style></defs><title>Iconos</title><path class="cls-1" d="M25.79,12A4.78,4.78,0,0,0,23.71,10a12,12,0,0,0-2.78-1.2c-.17-.05-.34-.1-.28-.34A14.52,14.52,0,0,0,21,6a6,6,0,0,0-.63-3.44A2.37,2.37,0,0,0,18,1.41a7,7,0,0,0-2.66,1,12.15,12.15,0,0,0-1.9,1.46c-.36.32-.39.33-.71,0a11.93,11.93,0,0,0-1.93-1.46,5.82,5.82,0,0,0-3.2-1.05,2.18,2.18,0,0,0-1.73.88A4.55,4.55,0,0,0,5,5a12.27,12.27,0,0,0,.34,3.3c.06.26,0,.4-.27.47s-.55.18-.82.28A8.14,8.14,0,0,0,.49,11.49,2.52,2.52,0,0,0,.3,14.17,5.74,5.74,0,0,0,2,15.88,11.48,11.48,0,0,0,5,17.3a.4.4,0,0,1,.32.54A11.12,11.12,0,0,0,5,20.58a5.83,5.83,0,0,0,.28,2.09,2.68,2.68,0,0,0,1.43,1.72,2.65,2.65,0,0,0,1.69.13,6.67,6.67,0,0,0,2.3-.93A13.67,13.67,0,0,0,12.88,22a.24.24,0,0,1,.38,0c.2.2.42.39.64.58a8.15,8.15,0,0,0,4.15,2.05,2.19,2.19,0,0,0,1.38-.28,3.06,3.06,0,0,0,1.44-2.24,10,10,0,0,0-.07-3.94c-.14-.77-.14-.77.59-1a9.07,9.07,0,0,0,3.92-2.38A2.46,2.46,0,0,0,25.79,12ZM14,4.93A8.86,8.86,0,0,1,17.7,2.68a1.29,1.29,0,0,1,1.79.9,3.15,3.15,0,0,1,.2.64,5.12,5.12,0,0,1,.11,1.25,10.86,10.86,0,0,1-.28,2.47c-.06.28-.17.38-.48.33-.91-.17-1.8-.35-2.72-.43a.68.68,0,0,1-.54-.35,19.48,19.48,0,0,0-1.7-2.12C14,5.23,13.86,5.09,14,4.93ZM7,16.3c.17-.54.38-1.07.59-1.59,0-.06,0-.13.12-.14s.11.08.15.14c.39.66.74,1.34,1.17,2,0,0,.08.11,0,.17s-.11.05-.21,0l-1.63-.25C7,16.62,6.91,16.52,7,16.3Zm.17-6.88,1.59-.27c.25,0,.3.07.2.24l-1.13,2c-.08.15-.17.11-.22,0-.21-.54-.41-1.09-.61-1.64C6.92,9.53,7,9.44,7.15,9.42Zm1.89,5a13.34,13.34,0,0,1-.61-1.19.36.36,0,0,1,0-.36,25.5,25.5,0,0,1,2.1-3.66A.58.58,0,0,1,11,8.93c.68-.07,1.37,0,2.29,0a17.28,17.28,0,0,1,1.8.06.53.53,0,0,1,.45.26c.5.71.92,1.46,1.35,2.21.25.43.47.89.7,1.33a.49.49,0,0,1,0,.51,37.92,37.92,0,0,1-2.06,3.54.55.55,0,0,1-.49.28c-.94,0-1.88.09-2.82.07l-1.3-.07a.48.48,0,0,1-.37-.23A24.3,24.3,0,0,1,9,14.39Zm8,2.28c.38-.66.75-1.33,1.13-2,0-.07.08-.17.19-.15s.09.11.12.17c.19.5.38,1,.58,1.49.1.24.06.38-.22.42l-1.67.28C17,16.89,17,16.83,17,16.67Zm2-6.89c-.19.5-.38,1-.58,1.51-.08.22-.21.2-.3,0-.32-.65-.71-1.25-1.06-1.88-.1-.17-.1-.29.17-.27l1.57.28C19,9.46,19.11,9.58,19,9.78ZM12.81,6.16c.13-.16.26-.15.4,0a16.24,16.24,0,0,1,1,1.28c.13.18.05.21-.12.21H11.93c-.23,0-.27-.09-.13-.27ZM6.35,4a2.15,2.15,0,0,1,.37-.88A1.2,1.2,0,0,1,7.8,2.63,4.91,4.91,0,0,1,10,3.4a11,11,0,0,1,2,1.52c.11.11.21.2,0,.37a25.21,25.21,0,0,0-1.86,2.27.66.66,0,0,1-.48.28c-.93.1-1.84.25-2.75.43-.23.05-.36,0-.41-.26A9.74,9.74,0,0,1,6.35,4ZM5.88,15.86c-.13.41-.16.4-.57.28A9.76,9.76,0,0,1,2.73,15,4.11,4.11,0,0,1,1.36,13.6a1.39,1.39,0,0,1-.19-.72,2.21,2.21,0,0,1,.9-1.33A9.63,9.63,0,0,1,5.43,9.88a.31.31,0,0,1,.45.24,21.31,21.31,0,0,0,1,2.69.47.47,0,0,1,0,.4A24.23,24.23,0,0,0,5.88,15.86ZM12,21.08a8.71,8.71,0,0,1-3.7,2.24,2.85,2.85,0,0,1-.51,0,1.21,1.21,0,0,1-1.36-.92,5.39,5.39,0,0,1-.27-2.11,11.83,11.83,0,0,1,.28-2.21c.08-.38.1-.38.49-.32.83.13,1.65.3,2.49.36a1,1,0,0,1,.86.46A21.94,21.94,0,0,0,12,20.75C12.15,20.87,12.16,21,12,21.08Zm1.22-1.25c-.13.16-.23.18-.38,0A16,16,0,0,1,11.8,18.6c-.14-.17-.08-.25.12-.25h2.24c.07,0,.16,0,.19.08s0,.11-.08.16C13.93,19,13.59,19.41,13.26,19.83Zm6.33,2.42c-.43,1.11-.89,1.34-2.1,1a7.52,7.52,0,0,1-2.93-1.73,6.27,6.27,0,0,1-.48-.42.25.25,0,0,1,0-.39,24.72,24.72,0,0,0,1.79-2.29.61.61,0,0,1,.46-.26c.95-.11,1.9-.24,2.84-.43.25,0,.35.05.41.28a12.9,12.9,0,0,1,.29,2.39A6,6,0,0,1,19.59,22.25Zm4.3-7.79a10.62,10.62,0,0,1-3.28,1.68.26.26,0,0,1-.39-.2,26.43,26.43,0,0,0-1.1-2.76.54.54,0,0,1,0-.43,27.41,27.41,0,0,0,1-2.65.28.28,0,0,1,.41-.21A8.62,8.62,0,0,1,24.4,12a1.36,1.36,0,0,1,.39,1A1.9,1.9,0,0,1,23.89,14.46Z"/><path class="cls-2" d="M15.38,13a2.4,2.4,0,0,1-2.44,2.35A2.37,2.37,0,0,1,13,10.61,2.4,2.4,0,0,1,15.38,13Z"/></svg>