<svg width="26" height="26" viewBox="0 0 26 26" fill="none" xmlns="http://www.w3.org/2000/svg">
<path d="M13 25C19.6274 25 25 19.6274 25 13C25 6.37258 19.6274 1 13 1C6.37258 1 1 6.37258 1 13C1 19.6274 6.37258 25 13 25Z" stroke="#FBFBFB" stroke-width="2" stroke-linecap="round" stroke-linejoin="round"/>
<path d="M13.0003 20.1998C16.9767 20.1998 20.2003 16.9763 20.2003 12.9998C20.2003 9.02335 16.9767 5.7998 13.0003 5.7998C9.02384 5.7998 5.80029 9.02335 5.80029 12.9998C5.80029 16.9763 9.02384 20.1998 13.0003 20.1998Z" stroke="#00FFFF" stroke-width="2" stroke-linecap="round" stroke-linejoin="round"/>
<path d="M13.0006 15.3996C14.3261 15.3996 15.4006 14.3251 15.4006 12.9996C15.4006 11.6741 14.3261 10.5996 13.0006 10.5996C11.6751 10.5996 10.6006 11.6741 10.6006 12.9996C10.6006 14.3251 11.6751 15.3996 13.0006 15.3996Z" stroke="#FBFBFB" stroke-width="2" stroke-linecap="round" stroke-linejoin="round"/>
</svg>
