<svg id="Capa_1" data-name="Capa 1" xmlns="http://www.w3.org/2000/svg" viewBox="0 0 26 26"><defs><style>.cls-1{fill:#fcfcfb;}.cls-2{fill:aqua;}</style></defs><title>Iconos</title><g id="_6mH9cp" data-name="6mH9cp"><path class="cls-1" d="M17,26h-1a4.4,4.4,0,0,1-3.06-2.22A4.45,4.45,0,0,1,9.79,26h-1a4.56,4.56,0,0,1-2.87-1.87A.64.64,0,0,0,5.44,24a3.71,3.71,0,0,1-3.25-3.78A1.19,1.19,0,0,0,2,19.46a3.49,3.49,0,0,1-.35-3.9.71.71,0,0,0,0-.77,3.7,3.7,0,0,1,.6-4.28A.69.69,0,0,0,2.35,10,3.76,3.76,0,0,1,3.92,5.79a.82.82,0,0,0,.3-.53,3,3,0,0,1,2-2.85.93.93,0,0,0,.45-.31A4,4,0,0,1,9.33,0h.92a4,4,0,0,1,2.57,1.79A4.07,4.07,0,0,1,15.45,0h.92A4,4,0,0,1,19.06,2.1c.08.16.31.25.5.33a2.92,2.92,0,0,1,1.88,2.78.69.69,0,0,0,.37.63,3.72,3.72,0,0,1,1.55,4.08.76.76,0,0,0,.13.59,3.7,3.7,0,0,1,.59,4.28.74.74,0,0,0,0,.77,3.47,3.47,0,0,1-.35,3.89,1.17,1.17,0,0,0-.22.67A3.71,3.71,0,0,1,20.25,24a.62.62,0,0,0-.43.2A4.65,4.65,0,0,1,17,26ZM12.32,7.64c0-1.44,0-2.84,0-4.24a2.68,2.68,0,0,0-1.87-2.28,2.2,2.2,0,0,0-2.58,1.1,7.1,7.1,0,0,1,1.08.51c.32.22.85.46.52,1s-.72.08-1.05-.14a2,2,0,0,0-2.23,0,1.84,1.84,0,0,0-.93,1.71l.17,0A3.59,3.59,0,0,1,9.26,8.79.91.91,0,0,1,9,9.37a.45.45,0,0,1-.46,0,1.49,1.49,0,0,1-.26-.65A2.73,2.73,0,0,0,6.45,6.38a2.24,2.24,0,0,0-2.54.76A2.48,2.48,0,0,0,3.43,10a.72.72,0,0,1-.23,1,2.44,2.44,0,0,0-.91,2.77,2.64,2.64,0,0,0,2.28,1.93c.37,0,.66.13.63.56s-.43.48-.74.4c-.65-.16-1.29-.4-1.95-.61A2.31,2.31,0,0,0,2.93,19a1,1,0,0,1,.31.92A2.64,2.64,0,0,0,5.71,23a1,1,0,0,1,1,.57,3,3,0,0,0,3.6,1.27,3.23,3.23,0,0,0,2-3.47,3.08,3.08,0,0,0-2.9-2.59c-.37,0-.61-.15-.59-.54s.33-.46.67-.45a4,4,0,0,1,2.51,1,2.87,2.87,0,0,0,.33.24V9.71c0-.84-.19-1-1-1.28-.21-.07-.34-.38-.5-.58a2.25,2.25,0,0,1,.69-.38A2.56,2.56,0,0,1,12.32,7.64Zm1.06,0,.71-.17c.36-.08.69,0,.76.4s-.2.52-.55.59c-.69.13-.93.43-.93,1.15v9c0,.14,0,.28,0,.49a4,4,0,0,1,2.71-1.29c.34,0,.7-.05.75.41s-.27.55-.67.58a3.13,3.13,0,0,0-.3,6.19,3,3,0,0,0,3.17-1.51,1,1,0,0,1,.69-.45,2.68,2.68,0,0,0,2.71-3,1.2,1.2,0,0,1,.38-1.11,2.2,2.2,0,0,0,.33-2.8c-.73.21-1.4.42-2.07.58-.31.07-.6-.05-.61-.43s.18-.53.53-.53l.23,0a2.62,2.62,0,0,0,2.15-2A2.38,2.38,0,0,0,22.52,11,.74.74,0,0,1,22.27,10a2.53,2.53,0,0,0-.54-2.88,2.2,2.2,0,0,0-2.51-.69,2.61,2.61,0,0,0-1.8,2.39c0,.37-.13.68-.54.65s-.5-.36-.47-.72a3.66,3.66,0,0,1,3.76-3.44,2.06,2.06,0,0,0,.26,0A1.92,1.92,0,0,0,19.3,3.42a2,2,0,0,0-2.12.24c-.3.23-.62.5-.93.08s0-.69.34-.89a13.13,13.13,0,0,1,1.29-.68A2.35,2.35,0,0,0,15.34,1.1a2.68,2.68,0,0,0-1.95,2.2C13.33,4.74,13.38,6.17,13.38,7.64Z"/><path class="cls-2" d="M8.17,12.57a12.45,12.45,0,0,1-1.59-.86A3.25,3.25,0,0,1,5.26,9.13c0-.35.09-.68.46-.64A.76.76,0,0,1,6.21,9c.34,2.24,2.29,3.11,4.23,1.88.18-.12.5,0,.76,0,0,.25,0,.61-.17.73a3.11,3.11,0,0,1-1.19.66,1.07,1.07,0,0,0-.8.75A2.39,2.39,0,0,1,7,14.51c-.33,0-.65,0-.69-.42s.2-.53.56-.57A1.45,1.45,0,0,0,8.17,12.57Z"/><path class="cls-2" d="M9.29,23.5c-.09.08-.25.37-.47.42-.37.09-.5-.2-.54-.56a2.66,2.66,0,0,0-2.47-2.58c-.32-.06-.57-.16-.54-.54s.31-.47.65-.47A3.76,3.76,0,0,1,9.29,23.5Z"/><path class="cls-2" d="M10.51,16.24c-.35.22-.53.43-.72.44A3.81,3.81,0,0,0,6.68,18.5c-.09.14-.45.12-.68.18,0-.22-.2-.48-.14-.66a4.42,4.42,0,0,1,3.92-2.28C10,15.76,10.16,16,10.51,16.24Z"/><path class="cls-1" d="M10.32,4.07c.22.3.49.5.46.64s-.31.35-.47.52c-.17-.18-.43-.33-.47-.53S10.08,4.37,10.32,4.07Z"/><path class="cls-2" d="M17.5,12.46a1.44,1.44,0,0,0,1.3,1.06c.38,0,.65.16.6.59s-.41.43-.75.39a2.37,2.37,0,0,1-2.06-1.61.75.75,0,0,0-.58-.53,5.81,5.81,0,0,1-1.28-.62c-.3-.19-.5-.48-.22-.82s.53-.18.81,0a2.53,2.53,0,0,0,3.24,0,2.58,2.58,0,0,0,.9-1.81c0-.36.14-.63.52-.61s.46.32.46.67a3.52,3.52,0,0,1-2.6,3.23Z"/><path class="cls-2" d="M16.39,23.47a3.8,3.8,0,0,1,3.15-3.68,1.2,1.2,0,0,1,.7.12.53.53,0,0,1,.16.48,1,1,0,0,1-.56.37,2.68,2.68,0,0,0-2.35,2.06,1.75,1.75,0,0,0-.07.51c0,.38-.16.69-.57.59C16.63,23.86,16.47,23.56,16.39,23.47Z"/><path class="cls-2" d="M16.19,15.72a4.42,4.42,0,0,1,3.58,2.2.77.77,0,0,1-.08.74c-.27.24-.57.08-.76-.23a3.51,3.51,0,0,0-2.84-1.72c-.34,0-.7-.05-.67-.52S15.82,15.71,16.19,15.72Z"/><path class="cls-1" d="M15.37,5.44c-.23-.32-.49-.54-.45-.68a.73.73,0,0,1,.49-.46c.13,0,.45.28.45.43S15.61,5.11,15.37,5.44Z"/></g></svg>