<svg id="Capa_1" data-name="Capa 1" xmlns="http://www.w3.org/2000/svg" viewBox="0 0 26 26"><defs><style>.cls-1{fill:#fcfcfb;}.cls-2{fill:aqua;}</style></defs><title>icon</title><path class="cls-1" d="M19.22,24.29a1.12,1.12,0,0,1-1.12-1.13V20.9a3.39,3.39,0,0,0-3.39-3.38h-9A3.39,3.39,0,0,0,2.29,20.9v2.26a1.13,1.13,0,0,1-2.26,0V20.9a5.65,5.65,0,0,1,5.64-5.64h9a5.65,5.65,0,0,1,5.64,5.64v2.26A1.12,1.12,0,0,1,19.22,24.29Z"/><path class="cls-1" d="M10.19,13a5.65,5.65,0,1,1,5.65-5.65A5.65,5.65,0,0,1,10.19,13Zm0-9a3.39,3.39,0,1,0,3.39,3.38A3.39,3.39,0,0,0,10.19,4Z"/><path class="cls-2" d="M24.87,24.29a1.13,1.13,0,0,1-1.13-1.13V20.9a3.37,3.37,0,0,0-2.54-3.27,1.13,1.13,0,0,1,.57-2.19A5.64,5.64,0,0,1,26,20.9v2.26A1.13,1.13,0,0,1,24.87,24.29Z"/><path class="cls-2" d="M17,12.86a1.13,1.13,0,0,1-.28-2.22,3.39,3.39,0,0,0,0-6.56,1.13,1.13,0,1,1,.56-2.19,5.65,5.65,0,0,1,0,10.94Z"/></svg>