<svg id="Capa_1" data-name="Capa 1" xmlns="http://www.w3.org/2000/svg" viewBox="0 0 26 26"><defs><style>.cls-1{fill:#fcfcfb;}.cls-2{fill:aqua;}</style></defs><title>Iconos</title><path class="cls-1" d="M18.93,25.66a1.12,1.12,0,0,1-1.12-1.12V22.29a3.37,3.37,0,0,0-3.37-3.37h-9a3.37,3.37,0,0,0-3.37,3.37v2.25a1.12,1.12,0,0,1-2.24,0V22.29a5.62,5.62,0,0,1,5.61-5.62h9a5.62,5.62,0,0,1,5.62,5.62v2.25A1.13,1.13,0,0,1,18.93,25.66Z"/><path class="cls-1" d="M10,14.43a5.62,5.62,0,1,1,5.61-5.62A5.62,5.62,0,0,1,10,14.43Zm0-9a3.37,3.37,0,1,0,3.37,3.37A3.37,3.37,0,0,0,10,5.44Z"/><path class="cls-2" d="M22,17.52a1,1,0,0,1-.7-1.7,9,9,0,0,0,0-12.69A1,1,0,1,1,22.7,1.72a11,11,0,0,1,0,15.51A1,1,0,0,1,22,17.52ZM18.47,14a1,1,0,0,1-.7-.29,1,1,0,0,1,0-1.41,4,4,0,0,0,0-5.64,1,1,0,0,1,1.41-1.41,6,6,0,0,1,0,8.46A1,1,0,0,1,18.47,14Z"/></svg>