<svg id="Capa_1" data-name="Capa 1" xmlns="http://www.w3.org/2000/svg" viewBox="0 0 26 26"><defs><style>.cls-1{fill:#fcfcfb;}.cls-2{fill:aqua;}</style></defs><title>icon</title><path class="cls-1" d="M13,26h0A13,13,0,1,1,13,0h0a12.82,12.82,0,0,1,5.28,1.13,1.18,1.18,0,1,1-1,2.15A10.58,10.58,0,0,0,13,2.36h0a10.64,10.64,0,0,0,0,21.28h0A10.64,10.64,0,0,0,23.64,13V11.92a1.18,1.18,0,0,1,2.36,0V13A13,13,0,0,1,13,26Z"/><path class="cls-2" d="M13,16.56a1.21,1.21,0,0,1-.84-.34L8.62,12.67A1.18,1.18,0,0,1,10.29,11L13,13.71l11-11a1.18,1.18,0,0,1,1.67,1.67L13.84,16.22a1.21,1.21,0,0,1-.84.34Z"/></svg>