<svg id="Capa_1" data-name="Capa 1" xmlns="http://www.w3.org/2000/svg" viewBox="0 0 26 26"><defs><style>.cls-1{fill:#fcfcfb;}.cls-2{fill:aqua;}</style></defs><title>icon</title><path class="cls-1" d="M20.56,21.28a1,1,0,0,1-.95-.94V18.45a2.84,2.84,0,0,0-2.83-2.84H9.21a2.84,2.84,0,0,0-2.84,2.84v1.89a.95.95,0,0,1-1.89,0V18.45a4.73,4.73,0,0,1,4.73-4.73h7.57a4.73,4.73,0,0,1,4.72,4.73v1.89A.94.94,0,0,1,20.56,21.28Z"/><path class="cls-1" d="M13,11.83A4.73,4.73,0,1,1,17.72,7.1,4.73,4.73,0,0,1,13,11.83Zm0-7.57A2.84,2.84,0,1,0,15.83,7.1,2.84,2.84,0,0,0,13,4.26Z"/><path class="cls-2" d="M13,26A13,13,0,1,1,26,13,13,13,0,0,1,13,26ZM13,1.9A11.11,11.11,0,1,0,24.1,13,11.12,11.12,0,0,0,13,1.9Z"/></svg>