<svg id="Capa_1" data-name="Capa 1" xmlns="http://www.w3.org/2000/svg" viewBox="0 0 33 33"><defs><style>.cls-1{fill:#fcfcfb;}</style></defs><title>icon</title><path class="cls-1" d="M16.5,33A16.5,16.5,0,1,1,33,16.5,16.52,16.52,0,0,1,16.5,33Zm0-30A13.5,13.5,0,1,0,30,16.5,13.52,13.52,0,0,0,16.5,3Z"/><path class="cls-1" d="M23.56,15.44a1.49,1.49,0,0,0-2.12,0L18,18.88V10.5a1.5,1.5,0,0,0-3,0v8.38l-3.44-3.44a1.5,1.5,0,0,0-2.12,2.12l6,6a1.51,1.51,0,0,0,.49.33h0a1.43,1.43,0,0,0,1.1,0h0a1.51,1.51,0,0,0,.49-.33l6-6A1.49,1.49,0,0,0,23.56,15.44Z"/></svg>
