<svg width="26" height="29" viewBox="0 0 26 29" fill="none" xmlns="http://www.w3.org/2000/svg">
<path d="M15.9785 27.8511H23.6381C24.3899 27.8511 24.9998 26.9008 24.9998 25.7235V18.8724V13.9929V7.12766C24.9998 5.95036 24.3899 5 23.6381 5H16.248" stroke="#FBFBFB" stroke-linecap="round" stroke-linejoin="round"/>
<path d="M20.5318 19.4258H18.7304C18.5886 19.4258 18.4751 19.5251 18.4751 19.6527V20.3761V20.8868V21.6102C18.4751 21.7378 18.5886 21.8371 18.7304 21.8371H20.5318C20.6737 21.8371 20.7872 21.7378 20.7872 21.6102V20.8868V20.3761V19.6527C20.7872 19.5251 20.6737 19.4258 20.5318 19.4258Z" stroke="#FBFBFB" stroke-width="0.8" stroke-linecap="round" stroke-linejoin="round"/>
<path d="M20.6168 15.2266H18.8154C18.6735 15.2266 18.5601 15.3259 18.5601 15.4535V16.1769V16.6876V17.411C18.5601 17.5386 18.6735 17.6379 18.8154 17.6379H20.6168C20.7586 17.6379 20.8721 17.5386 20.8721 17.411V16.6876V16.1769V15.4535C20.8721 15.3259 20.7586 15.2266 20.6168 15.2266Z" stroke="#00FFFF" stroke-width="0.8" stroke-linecap="round" stroke-linejoin="round"/>
<path d="M20.6168 11.1982H18.8154C18.6735 11.1982 18.5601 11.2975 18.5601 11.4252V12.1486V12.6592V13.3826C18.5601 13.5103 18.6735 13.6096 18.8154 13.6096H20.6168C20.7586 13.6096 20.8721 13.5103 20.8721 13.3826V12.6592V12.1486V11.4252C20.8721 11.2975 20.7586 11.1982 20.6168 11.1982Z" stroke="#FBFBFB" stroke-width="0.8" stroke-linecap="round" stroke-linejoin="round"/>
<path d="M20.6168 7.16992H18.8154C18.6735 7.16992 18.5601 7.26921 18.5601 7.39687V8.12028V8.63092V9.35432C18.5601 9.48198 18.6735 9.58127 18.8154 9.58127H20.6168C20.7586 9.58127 20.8721 9.48198 20.8721 9.35432V8.63092V8.12028V7.39687C20.8721 7.26921 20.7586 7.16992 20.6168 7.16992Z" stroke="#00FFFF" stroke-width="0.8" stroke-linecap="round" stroke-linejoin="round"/>
<path d="M13.0426 1H2.50355C1.66667 1 1 2.12057 1 3.51064V11.5674V17.2979V25.3547C1 26.7447 1.68085 27.8653 2.50355 27.8653H13.0426C13.8795 27.8653 14.5461 26.7447 14.5461 25.3547V17.2979V11.5674V3.51064C14.5461 2.13475 13.8795 1 13.0426 1Z" stroke="#FBFBFB" stroke-linecap="round" stroke-linejoin="round"/>
<path d="M6.03564 27.4255V23H8.82998V27.4255" stroke="#FBFBFB" stroke-width="0.8" stroke-linecap="round" stroke-linejoin="round"/>
<path d="M5.05662 18.5742H3.0708C2.91477 18.5742 2.78711 18.6877 2.78711 18.8154V19.6097V20.1629V20.9572C2.78711 21.099 2.91477 21.1983 3.0708 21.1983H5.05662C5.21265 21.1983 5.34031 21.0849 5.34031 20.9572V20.1629V19.6097V18.8154C5.34031 18.6735 5.21265 18.5742 5.05662 18.5742Z" stroke="#FBFBFB" stroke-width="0.8" stroke-linecap="round" stroke-linejoin="round"/>
<path d="M12.2768 18.5742H10.291C10.135 18.5742 10.0073 18.6877 10.0073 18.8154V19.6097V20.1629V20.9572C10.0073 21.099 10.135 21.1983 10.291 21.1983H12.2768C12.4329 21.1983 12.5605 21.0849 12.5605 20.9572V20.1629V19.6097V18.8154C12.5605 18.6735 12.4329 18.5742 12.2768 18.5742Z" stroke="#00FFFF" stroke-width="0.8" stroke-linecap="round" stroke-linejoin="round"/>
<path d="M5.15623 13.9648H3.17041C3.01438 13.9648 2.88672 14.0783 2.88672 14.206V15.0003V15.5535V16.3478C2.88672 16.4897 3.01438 16.589 3.17041 16.589H5.15623C5.31226 16.589 5.43992 16.4755 5.43992 16.3478V15.5535V15.0003V14.206C5.43992 14.0783 5.31226 13.9648 5.15623 13.9648Z" stroke="#00FFFF" stroke-width="0.8" stroke-linecap="round" stroke-linejoin="round"/>
<path d="M12.3618 13.9648H10.376C10.2199 13.9648 10.0923 14.0783 10.0923 14.206V15.0003V15.5535V16.3478C10.0923 16.4897 10.2199 16.589 10.376 16.589H12.3618C12.5178 16.589 12.6455 16.4755 12.6455 16.3478V15.5535V15.0003V14.206C12.6455 14.0783 12.532 13.9648 12.3618 13.9648Z" stroke="#FBFBFB" stroke-width="0.8" stroke-linecap="round" stroke-linejoin="round"/>
<path d="M5.15623 9.53906H3.17041C3.01438 9.53906 2.88672 9.65254 2.88672 9.7802V10.5745V11.1277V11.922C2.88672 12.0639 3.01438 12.1632 3.17041 12.1632H5.15623C5.31226 12.1632 5.43992 12.0497 5.43992 11.922V11.1277V10.5745V9.7802C5.43992 9.65254 5.31226 9.53906 5.15623 9.53906Z" stroke="#FBFBFB" stroke-width="0.8" stroke-linecap="round" stroke-linejoin="round"/>
<path d="M12.3618 9.53906H10.376C10.2199 9.53906 10.0923 9.65254 10.0923 9.7802V10.5745V11.1277V11.922C10.0923 12.0639 10.2199 12.1632 10.376 12.1632H12.3618C12.5178 12.1632 12.6455 12.0497 12.6455 11.922V11.1277V10.5745V9.7802C12.6455 9.65254 12.532 9.53906 12.3618 9.53906Z" stroke="#00FFFF" stroke-width="0.8" stroke-linecap="round" stroke-linejoin="round"/>
<path d="M5.15623 5.11328H3.17041C3.01438 5.11328 2.88672 5.22676 2.88672 5.35442V6.14874V6.70194V7.49627C2.88672 7.63811 3.01438 7.7374 3.17041 7.7374H5.15623C5.31226 7.7374 5.43992 7.62393 5.43992 7.49627V6.70194V6.14874V5.35442C5.43992 5.21257 5.31226 5.11328 5.15623 5.11328Z" stroke="#00FFFF" stroke-width="0.8" stroke-linecap="round" stroke-linejoin="round"/>
<path d="M12.3618 5.11328H10.376C10.2199 5.11328 10.0923 5.22676 10.0923 5.35442V6.14874V6.70194V7.49627C10.0923 7.63811 10.2199 7.7374 10.376 7.7374H12.3618C12.5178 7.7374 12.6455 7.62393 12.6455 7.49627V6.70194V6.14874V5.35442C12.6455 5.21257 12.532 5.11328 12.3618 5.11328Z" stroke="#FBFBFB" stroke-width="0.8" stroke-linecap="round" stroke-linejoin="round"/>
</svg>
