<svg id="Capa_1" data-name="Capa 1" xmlns="http://www.w3.org/2000/svg" viewBox="0 0 26 26"><defs><style>.cls-1{fill:#fcfcfb;}.cls-2{fill:aqua;}</style></defs><title>Iconos</title><path class="cls-1" d="M21.82,24H4.18A3.31,3.31,0,0,1,.87,20.72v-11A3.31,3.31,0,0,1,4.18,6.38H21.82a3.31,3.31,0,0,1,3.31,3.31v11A3.31,3.31,0,0,1,21.82,24ZM4.18,8.59a1.11,1.11,0,0,0-1.11,1.1v11a1.11,1.11,0,0,0,1.11,1.1H21.82a1.11,1.11,0,0,0,1.11-1.1v-11a1.11,1.11,0,0,0-1.11-1.1Z"/><path class="cls-2" d="M17.41,24a1.1,1.1,0,0,1-1.1-1.1V5.28a1.1,1.1,0,0,0-1.1-1.1H10.79a1.1,1.1,0,0,0-1.1,1.1V22.93a1.11,1.11,0,0,1-2.21,0V5.28A3.31,3.31,0,0,1,10.79,2h4.42a3.31,3.31,0,0,1,3.31,3.31V22.93A1.11,1.11,0,0,1,17.41,24Z"/></svg>