<svg id="Capa_1" data-name="Capa 1" xmlns="http://www.w3.org/2000/svg" viewBox="0 0 26 26"><defs><style>.cls-1{fill:aqua;}.cls-2{fill:#fcfcfb;}</style></defs><title>icon</title><path class="cls-1" d="M14.25,23.36a1.2,1.2,0,0,1-1.19-1.19V3.83a1.17,1.17,0,0,1,.7-1.08A1.2,1.2,0,0,1,15,2.93L25.71,12.1a1.17,1.17,0,0,1,0,1.8L15,23.07A1.2,1.2,0,0,1,14.25,23.36ZM15.44,6.41V19.59L23.12,13Z"/><path class="cls-2" d="M1.19,23.36a1.25,1.25,0,0,1-.5-.11A1.18,1.18,0,0,1,0,22.17V3.83A1.18,1.18,0,0,1,.69,2.75,1.2,1.2,0,0,1,2,2.93L12.65,12.1a1.19,1.19,0,0,1,0,1.8L2,23.07A1.17,1.17,0,0,1,1.19,23.36ZM2.38,6.41V19.59L10.05,13Z"/></svg>