<svg id="Capa_1" data-name="Capa 1" xmlns="http://www.w3.org/2000/svg" viewBox="0 0 26 26"><defs><style>.cls-1{fill:#fcfcfb;}.cls-2{fill:aqua;}</style></defs><title>Iconos</title><path class="cls-1" d="M.81,9.69A5.65,5.65,0,0,1,3.06,7.42,6.46,6.46,0,0,1,6.33,6.6a6.35,6.35,0,0,1,3.84,1.18A5.72,5.72,0,0,1,12.3,11H8.93a2.78,2.78,0,0,0-1.07-1.2A3,3,0,0,0,6.29,9.4a2.91,2.91,0,0,0-2.29,1A3.77,3.77,0,0,0,3.12,13,3.81,3.81,0,0,0,4,15.66a2.94,2.94,0,0,0,2.29,1,2.94,2.94,0,0,0,1.57-.41A2.67,2.67,0,0,0,8.93,15H12.3a5.66,5.66,0,0,1-2.13,3.22,6.34,6.34,0,0,1-3.84,1.17,6.55,6.55,0,0,1-3.27-.81A5.71,5.71,0,0,1,.81,16.34,6.72,6.72,0,0,1,0,13,6.78,6.78,0,0,1,.81,9.69Z"/><path class="cls-2" d="M26,6.75,21.53,19.33H17.7L13.23,6.75H16.5l3.12,9.5,3.13-9.5Z"/></svg>