<svg id="Capa_1" data-name="Capa 1" xmlns="http://www.w3.org/2000/svg" viewBox="0 0 26 26"><defs><style>.cls-1{fill:#fcfcfb;}.cls-2{fill:aqua;}</style></defs><title>Iconos</title><path class="cls-1" d="M22.1,0H3.9A3.91,3.91,0,0,0,0,3.9V22.1A3.91,3.91,0,0,0,3.9,26H22.1A3.91,3.91,0,0,0,26,22.1V3.9A3.91,3.91,0,0,0,22.1,0Zm1.3,22.1a1.3,1.3,0,0,1-1.3,1.3H10.4V9.1a1.3,1.3,0,0,0-2.6,0V23.4H3.9a1.3,1.3,0,0,1-1.3-1.3V3.9A1.3,1.3,0,0,1,3.9,2.6H22.1a1.3,1.3,0,0,1,1.3,1.3Z"/><path class="cls-2" d="M23.72,7.76l2.28,0V3.9A3.91,3.91,0,0,0,22.1,0H3.9A3.91,3.91,0,0,0,0,3.9V8a6.44,6.44,0,0,1,.76,0A1.3,1.3,0,0,0,1.3,10.4H24.7a1.3,1.3,0,1,0,0-2.6H2.6V3.9A1.3,1.3,0,0,1,3.9,2.6H22.1a1.3,1.3,0,0,1,1.3,1.3V7.79A1.66,1.66,0,0,1,23.72,7.76Z"/><rect class="cls-2" x="23.4" y="5.98" width="2.6" height="4.42"/><rect class="cls-2" y="5.98" width="2.6" height="4.42"/></svg>