<svg id="Capa_1" data-name="Capa 1" xmlns="http://www.w3.org/2000/svg" viewBox="0 0 26 26"><defs><style>.cls-1{fill:#fcfcfb;}.cls-2{fill:aqua;}</style></defs><title>Icon--Recursos adicionales</title><path class="cls-1" d="M3.68,22.53a13.11,13.11,0,1,1,18.53.13A13.12,13.12,0,0,1,3.68,22.53Zm17-16.74A10.73,10.73,0,1,0,20.54,21,10.74,10.74,0,0,0,20.65,5.79Z"/><path class="cls-2" d="M7.11,14.12a1.15,1.15,0,0,1-.35-.84A1.19,1.19,0,0,1,8,12.1l10.11.07a1.19,1.19,0,1,1,0,2.38L8,14.48A1.16,1.16,0,0,1,7.11,14.12Z"/><path class="cls-2" d="M12.13,19.22a1.19,1.19,0,0,1-.35-.85l.08-10.11a1.18,1.18,0,0,1,1.19-1.18,1.19,1.19,0,0,1,1.19,1.2l-.07,10.11a1.2,1.2,0,0,1-2,.83Z"/></svg>