<svg width="26" height="26" viewBox="0 0 26 26" fill="none" xmlns="http://www.w3.org/2000/svg">
<path d="M8.6164 9.53237C8.6164 9.53237 4.78254 7.28317 1.91992 9.35345L5.75378 13.0723C5.75378 13.0723 7.0573 13.9157 6.13717 14.8231L5.12759 16.2033C5.12759 16.2033 4.69308 16.9445 5.33206 17.5707C5.97104 18.2097 6.75059 18.9892 6.75059 18.9892L6.9934 19.232C6.9934 19.232 7.78573 20.0244 8.41193 20.6506C9.05091 21.2895 9.77934 20.855 9.77934 20.855L11.1467 19.8455C12.0669 18.9253 12.8975 20.2288 12.8975 20.2288L16.6164 24.0627C18.6867 21.2001 16.4375 17.3662 16.4375 17.3662C25.511 10.9637 24.9998 1.74963 24.9359 1.02119C24.233 0.970076 15.019 0.458895 8.6164 9.53237Z" stroke="#FBFBFB" stroke-width="1.5" stroke-linecap="round" stroke-linejoin="round"/>
<path d="M24.9743 1.94114C24.9743 1.94114 24.9487 0.995458 24.9487 1.02102C24.9743 1.02102 24.9998 1.02102 24.9998 1.02102L24.9743 1.94114Z" stroke="#FBFBFB" stroke-width="1.5" stroke-linecap="round" stroke-linejoin="round"/>
<path d="M16.2842 12.5353C17.844 12.5353 19.1085 11.2708 19.1085 9.711C19.1085 8.15119 17.844 6.88672 16.2842 6.88672C14.7244 6.88672 13.46 8.15119 13.46 9.711C13.46 11.2708 14.7244 12.5353 16.2842 12.5353Z" stroke="#00FFFF" stroke-width="1.5" stroke-linecap="round" stroke-linejoin="round"/>
<path d="M3.53035 18.5166L1 21.0469" stroke="#FBFBFB" stroke-width="1.5" stroke-linecap="round" stroke-linejoin="round"/>
<path d="M3.84968 22.2734L1.31934 24.8038" stroke="#FBFBFB" stroke-width="1.5" stroke-linecap="round" stroke-linejoin="round"/>
<path d="M7.65828 22.5547L5.12793 25.085" stroke="#FBFBFB" stroke-width="1.5" stroke-linecap="round" stroke-linejoin="round"/>
</svg>
