<svg width="24" height="25" viewBox="0 0 24 25" fill="none" xmlns="http://www.w3.org/2000/svg">
<path d="M23.9556 10.733C23.8374 10.0494 23.692 9.37418 23.3708 8.75098C22.913 7.73756 22.1891 7.03394 21.0823 6.78394C21.0391 6.7674 20.9941 6.75631 20.9482 6.75095C20.2288 6.74631 19.5136 6.7458 18.7968 6.74219C18.673 6.74219 18.6386 6.80868 18.6391 6.91951C18.6422 7.71883 18.6442 8.51833 18.6452 9.31799C18.6554 9.79309 18.5974 10.2672 18.4731 10.7257C18.1761 11.7732 17.5482 12.5113 16.497 12.8644C16.032 13.0191 15.5515 12.9974 15.0773 13.0474H10.92C10.5402 13.0474 10.1605 13.0474 9.78082 13.0423C9.35434 13.0274 8.9278 13.0702 8.51271 13.1696C7.22508 13.5026 6.43637 14.3629 6.27451 15.6835C6.18254 16.4341 6.24625 17.1923 6.2442 17.9475C6.24146 19.2248 6.23958 20.502 6.23855 21.779C6.23642 21.9673 6.27719 22.1537 6.35775 22.3238C6.65423 23.1908 7.31295 23.68 8.11502 24.0202C8.17462 24.0501 8.23166 24.0852 8.29331 24.1089C9.37234 24.5244 10.4966 24.661 11.6414 24.6831C12.7019 24.7197 13.7573 24.6744 14.8019 24.4769C15.5654 24.3311 16.3038 24.1099 16.9491 23.6522C17.4234 23.3166 17.8098 22.8919 17.8473 22.2934C17.9089 21.3078 17.8827 20.3181 17.8504 19.3305C17.8491 19.324 17.8468 19.3178 17.8437 19.3119C17.7533 19.249 17.65 19.2748 17.5523 19.2748C15.7139 19.2728 13.8755 19.2728 12.037 19.2748C11.998 19.064 12.037 18.8511 12.017 18.6403C12.0041 18.4949 12.0468 18.4459 12.2009 18.4485C12.7898 18.4578 13.3796 18.4532 13.969 18.4511C14.0332 18.4511 14.1015 18.4727 14.1611 18.4279C14.1611 18.4279 14.1611 18.4248 14.1611 18.4233C14.1872 18.4356 14.2144 18.4452 14.2423 18.4521H18.636C18.6736 18.4557 18.7115 18.4495 18.746 18.4341C18.9001 18.4779 19.0573 18.4511 19.212 18.4495C19.6744 18.4454 20.1405 18.4753 20.6039 18.4341C21.3461 18.3781 22.045 18.0619 22.578 17.5408C23.2424 16.9078 23.564 16.0887 23.804 15.2268C23.8816 14.9464 23.8764 14.648 23.9998 14.3789V10.883C23.9602 10.8407 23.9648 10.785 23.9556 10.733ZM14.3836 21.9671C14.4201 21.8924 14.4124 21.8125 14.4175 21.7321C14.4499 21.2284 14.7983 20.8836 15.3028 20.8558C15.3933 20.8501 15.4883 20.8645 15.569 20.8042C15.5968 20.8795 15.6836 20.8918 15.7488 20.9248C16.1455 21.1238 16.3752 21.5862 16.274 21.9857C16.1656 22.4135 15.8382 22.7032 15.4215 22.7398C15.0362 22.7733 14.62 22.5135 14.4514 22.1367C14.4273 22.0852 14.4155 22.0171 14.3656 21.9821L14.3836 21.9671Z" fill="#FBFBFB"/>
<path d="M17.8429 5.62171V4.30004C17.847 4.15313 17.847 4.00571 17.8568 3.85931C17.8888 3.42234 17.7808 2.98654 17.5485 2.61548C17.4644 2.44838 17.3537 2.2962 17.2207 2.16496C16.4859 1.39484 15.5415 1.06803 14.5293 0.884008C14.3238 0.817512 14.1126 0.803079 13.904 0.766481C13.6039 0.714933 13.2946 0.736583 12.9991 0.648438H10.8411C10.8097 0.689675 10.7609 0.684521 10.7178 0.695861C9.91004 0.741738 9.11516 0.861328 8.34238 1.11236C7.8635 1.267 7.40774 1.47319 7.01416 1.79227C6.59282 2.13609 6.25833 2.54744 6.23983 3.11703C6.21876 3.75158 6.23983 4.38767 6.2424 5.02428C6.2424 5.3114 6.2424 5.59903 6.23572 5.88615C6.23572 6.0078 6.26963 6.06966 6.40528 6.06914C7.39079 6.06347 8.37629 6.06296 9.3618 6.06141C10.0877 6.06347 10.8135 6.06554 11.5394 6.0676C12.0758 6.0676 12.0758 6.0676 12.0743 6.60214C12.0743 6.89957 12.0743 6.90008 11.7773 6.9006L8.36088 6.90885C8.25452 6.90627 8.14816 6.90112 8.04179 6.90112C6.67658 6.90112 5.31084 6.9207 3.94614 6.89493C2.80135 6.87277 1.88521 7.29958 1.1787 8.18619C0.598086 8.9161 0.319596 9.77694 0.160826 10.6821C0.0981398 11.0429 0.0534373 11.4038 0 11.7646V13.6115C0.0488129 13.6672 0.0349398 13.7368 0.0426471 13.8017C0.0940291 14.2368 0.11972 14.675 0.237899 15.0997C0.374061 15.8631 0.631484 16.5796 1.06669 17.2245C1.33336 17.6198 1.65296 17.9652 2.07583 18.2003C2.38173 18.4161 2.73802 18.5489 3.11015 18.5858C3.80586 18.6596 4.50569 18.5982 5.20345 18.6214C5.39305 18.6276 5.45625 18.5699 5.4542 18.373C5.44341 17.4059 5.43262 16.4379 5.4542 15.4708C5.45985 15.1863 5.48708 14.8889 5.60372 14.6157C5.62941 14.5471 5.6551 14.4796 5.68079 14.4095C5.87861 13.8425 6.18485 13.3512 6.65705 12.9729C6.96534 12.728 7.31885 12.5785 7.68212 12.4445L8.48573 12.3172C8.76011 12.2914 9.03501 12.3131 9.30785 12.3053C9.35409 12.3089 9.40085 12.3151 9.44709 12.3151C11.1571 12.3151 12.8672 12.3151 14.5776 12.3151C14.6046 12.3148 14.6316 12.3124 14.6583 12.3079C14.6977 12.31 14.7372 12.3035 14.7739 12.2888C15.0709 12.3017 15.356 12.2332 15.6381 12.1558C16.9453 11.795 17.7797 10.8347 17.8331 9.54704C17.8866 8.24134 17.8532 6.93204 17.8429 5.62171ZM8.58593 4.48767C8.16152 4.41035 7.91796 4.13355 7.77358 3.74488L7.76587 3.73869C7.7796 3.69953 7.78486 3.65789 7.78129 3.61653C7.81931 2.9727 8.20468 2.60517 8.83924 2.61033C8.87394 2.61317 8.90886 2.60914 8.94201 2.59847L8.95537 2.61136C9.23129 2.72837 9.47844 2.87476 9.60381 3.17116C9.75025 3.51756 9.70657 3.84127 9.4846 4.13458C9.26263 4.42788 8.95639 4.55262 8.58593 4.48767Z" fill="#00FFFF"/>
</svg>
