<svg width="24" height="25" viewBox="0 0 24 25" fill="none" xmlns="http://www.w3.org/2000/svg">
<path d="M24 0.0921364C24 0.0170814 23.9829 0 23.9079 0C15.9693 0.00207048 8.03071 0.00207048 0.0921364 0C0.0170814 0 0 0.0170814 0 0.0921364C0.00207048 8.03106 0.00207048 15.9696 0 23.9079C0 23.9829 0.0170814 24 0.0921364 24C4.06056 23.9979 8.02985 23.9979 12 24C15.9701 24.0021 19.9386 24.0021 23.9053 24C23.9803 24 23.9974 23.9829 23.9974 23.9079C23.9971 15.9676 23.9979 8.02899 24 0.0921364ZM13.0715 18.6333C13.0799 19.0695 13.0292 19.5048 12.9208 19.9274C12.6046 21.0723 11.8514 21.7592 10.7023 22.0082C9.88345 22.1852 9.06664 22.1604 8.26951 21.8752C7.38696 21.5589 6.76841 20.9497 6.35069 20.1204C6.32325 20.0661 6.33309 20.0418 6.38382 20.0112C6.95182 19.6692 7.51844 19.3257 8.08368 18.9806C8.14269 18.9449 8.16805 18.9579 8.19859 19.0132C8.30307 19.2067 8.42175 19.3922 8.55368 19.5681C8.88548 20.0035 9.33011 20.1577 9.8586 20.0858C10.4197 20.0086 10.6982 19.7234 10.7789 19.1587C10.8049 18.9673 10.8171 18.7742 10.8152 18.581C10.8152 16.1085 10.8152 13.6362 10.8152 11.164C10.8152 11.0176 10.8152 11.0176 10.9591 11.0176C11.6116 11.0176 12.2645 11.0176 12.9177 11.0176C13.0689 11.0176 13.0704 10.9844 13.0704 11.1661V15.114C13.0715 16.2873 13.0718 17.4604 13.0715 18.6333ZM21.9642 20.0407C21.6785 20.8632 21.1029 21.4119 20.3176 21.7525C19.5738 22.0744 18.7907 22.1531 17.9884 22.1029C17.3785 22.0726 16.7798 21.9281 16.2233 21.6769C15.4183 21.3113 14.7559 20.691 14.3381 19.9118C14.2982 19.8383 14.2993 19.8026 14.3779 19.7565C14.9301 19.4408 15.4801 19.1213 16.0281 18.7979C16.1052 18.7529 16.1368 18.7663 16.1834 18.8378C16.422 19.2167 16.7078 19.5526 17.096 19.7881C17.5484 20.0625 18.0427 20.1473 18.5645 20.1049C18.8776 20.0795 19.1747 20.0014 19.4367 19.8197C19.5646 19.7327 19.6711 19.6177 19.7478 19.4833C19.8246 19.349 19.8697 19.1989 19.8797 19.0445C19.8897 18.8901 19.8643 18.7354 19.8055 18.5923C19.7466 18.4492 19.6559 18.3214 19.5402 18.2187C19.3614 18.0633 19.1617 17.9337 18.947 17.8336C18.449 17.5851 17.9293 17.3853 17.4236 17.1545C16.848 16.8925 16.2994 16.5877 15.8444 16.1373C15.3086 15.6068 15.04 14.9587 14.9794 14.2128C14.9354 13.6755 14.9913 13.1538 15.2129 12.66C15.5923 11.8131 16.2605 11.3022 17.1353 11.0424C17.5141 10.9339 17.9071 10.8831 18.301 10.8918C18.8512 10.8918 19.388 10.9668 19.8989 11.1889C20.5837 11.487 21.0672 12.001 21.4404 12.633C21.4683 12.6802 21.4642 12.7055 21.416 12.7366C20.8712 13.0844 20.3275 13.4336 19.785 13.7842C19.7307 13.8194 19.7084 13.808 19.6784 13.7563C19.5469 13.5306 19.3999 13.3158 19.1892 13.1553C18.7653 12.8329 18.2906 12.7697 17.7994 12.9452C17.0313 13.219 17.0313 14.2201 17.5504 14.6316C17.8253 14.8495 18.1374 14.9975 18.4542 15.1378C19.0205 15.3878 19.5971 15.6151 20.1422 15.9142C20.562 16.1436 20.9585 16.405 21.297 16.7466C21.797 17.2513 22.0532 17.8657 22.119 18.566C22.164 19.0645 22.1314 19.5604 21.9642 20.0407Z" fill="#FBFBFB"/>
</svg>
