<svg id="Capa_1" data-name="Capa 1" xmlns="http://www.w3.org/2000/svg" xmlns:xlink="http://www.w3.org/1999/xlink" viewBox="0 0 27.83 29.57"><defs><style>.cls-1{fill:none;}.cls-2{clip-path:url(#clip-path);}.cls-3{fill:#fcfcfc;}</style><clipPath id="clip-path"><rect class="cls-1" width="27.83" height="29.57"/></clipPath></defs><title>Social media</title><g class="cls-2"><path class="cls-3" d="M12.18,17.55l4.53-2.77L12.18,12Z"/><path class="cls-3" d="M13.91,0C6.23,0,0,6.62,0,14.78S6.23,29.57,13.91,29.57,27.83,23,27.83,14.78,21.6,0,13.91,0Zm8.7,14.8a25.67,25.67,0,0,1-.36,4.44,2.25,2.25,0,0,1-1.53,1.63,50,50,0,0,1-6.81.38,48.71,48.71,0,0,1-6.8-.39,2.27,2.27,0,0,1-1.53-1.63,25.71,25.71,0,0,1-.36-4.45,25.74,25.74,0,0,1,.36-4.44A2.29,2.29,0,0,1,7.11,8.7a49.82,49.82,0,0,1,6.8-.38,48.69,48.69,0,0,1,6.81.39,2.25,2.25,0,0,1,1.53,1.63A24.9,24.9,0,0,1,22.61,14.8Z"/></g></svg>