<svg id="Capa_1" data-name="Capa 1" xmlns="http://www.w3.org/2000/svg" xmlns:xlink="http://www.w3.org/1999/xlink" viewBox="0 0 27.83 29.57"><defs><style>.cls-1{fill:none;}.cls-2{clip-path:url(#clip-path);}.cls-3{fill:#fcfcfc;}</style><clipPath id="clip-path"><rect class="cls-1" width="27.83" height="29.57"/></clipPath></defs><title>Social media</title><g class="cls-2"><path class="cls-3" d="M13.92,7.19a7.37,7.37,0,0,0-7.14,7.59,7.38,7.38,0,0,0,7.14,7.59,7.37,7.37,0,0,0,7.14-7.59A7.38,7.38,0,0,0,13.92,7.19Zm0,12.51a4.79,4.79,0,0,1-4.64-4.92,4.8,4.8,0,0,1,4.64-4.93,4.79,4.79,0,0,1,4.63,4.93A4.77,4.77,0,0,1,13.92,19.7Z"/><path class="cls-3" d="M19.65.09C17.09,0,10.75,0,8.19.09a8.06,8.06,0,0,0-5.84,2.4C-.33,5.33,0,9.16,0,14.78s-.3,9.49,2.34,12.29,6.34,2.48,11.57,2.48,7.21,0,9.11-.77c2.57-1.07,4.52-3.51,4.71-7.91.12-2.72.11-9.46,0-12.18C27.51,3.5,24.89.35,19.65.09Zm4.05,25.1c-1.75,1.87-4.18,1.7-9.81,1.7-5.8,0-8.13.09-9.82-1.72-2-2.06-1.6-5.38-1.6-10.41C2.47,8,1.81,3.05,8.24,2.7c1.48-.05,1.91-.07,5.63-.07l.05,0c6.18,0,11-.68,11.32,6.15.07,1.56.08,2,.08,6C25.32,20.87,25.43,23.35,23.7,25.19Z"/><path class="cls-3" d="M21.34,8.67A1.73,1.73,0,0,0,23,6.89a1.67,1.67,0,1,0-3.34,0A1.73,1.73,0,0,0,21.34,8.67Z"/></g></svg>