<svg id="Capa_1" data-name="Capa 1" xmlns="http://www.w3.org/2000/svg" xmlns:xlink="http://www.w3.org/1999/xlink" viewBox="0 0 27.83 29.57"><defs><style>.cls-1{fill:none;}.cls-2{clip-path:url(#clip-path);}.cls-3{fill:#fcfcfc;}</style><clipPath id="clip-path"><rect class="cls-1" width="27.83" height="29.57"/></clipPath></defs><title>Social media</title><g class="cls-2"><path class="cls-3" d="M13.91,0C6.23,0,0,6.62,0,14.78S6.23,29.57,13.91,29.57,27.83,23,27.83,14.78,21.6,0,13.91,0Zm6.36,11.53c0,.14,0,.29,0,.44,0,4.48-3.22,9.65-9.09,9.65h0a8.71,8.71,0,0,1-4.9-1.52,6.51,6.51,0,0,0,.77,0,6.16,6.16,0,0,0,4-1.45,3.23,3.23,0,0,1-3-2.36,2.9,2.9,0,0,0,.6.07,3.34,3.34,0,0,0,.84-.12A3.36,3.36,0,0,1,6.92,13v0a3.1,3.1,0,0,0,1.45.42,3.55,3.55,0,0,1-1-4.53A8.94,8.94,0,0,0,14,12.35a4,4,0,0,1-.08-.78,3.3,3.3,0,0,1,3.19-3.39A3.09,3.09,0,0,1,19.4,9.25a6.11,6.11,0,0,0,2-.82A3.36,3.36,0,0,1,20,10.3a6,6,0,0,0,1.83-.53A6.87,6.87,0,0,1,20.27,11.53Z"/></g></svg>