<svg id="Capa_1" data-name="Capa 1" xmlns="http://www.w3.org/2000/svg" viewBox="0 0 27.83 29.57"><defs><style>.cls-1{fill:#fff;}</style></defs><title>Social media</title><g id="_5UR5za" data-name="5UR5za"><path class="cls-1" d="M0,28.7V.87H27.83V28.7Zm4.44-6.76H10c0-.12,0-.27-.08-.35C9.31,20.81,8.66,20,8,19.25a1,1,0,0,1-.26-.58,2.16,2.16,0,0,1,0-.36V11.37a.19.19,0,0,1,.08.1q1.42,3.12,2.86,6.24l1.89,4.14a.16.16,0,0,0,.17.11,1.82,1.82,0,0,1,.33,0,.16.16,0,0,0,.17-.11c.41-1.05.82-2.1,1.24-3.15l2.85-7.24a1.14,1.14,0,0,1,.06-.14v8.52a.51.51,0,0,1-.16.39c-.45.43-.89.88-1.35,1.3a.45.45,0,0,0-.14.46h7.33c0-.13.05-.27-.07-.38L21.6,20.22a.42.42,0,0,1-.14-.35V9.25a.39.39,0,0,1,.14-.33c.46-.44.91-.88,1.38-1.31a.46.46,0,0,0,.13-.45H18.05a.13.13,0,0,0-.14.11L14.56,15.6c-.09.24-.19.47-.29.73a1.3,1.3,0,0,0-.06-.12l-4.08-9A.16.16,0,0,0,10,7.15H4.66c0,.15,0,.28.08.41.54.65,1.07,1.31,1.62,2a1.07,1.07,0,0,1,.28.76v8.2a.94.94,0,0,1-.22.75c-.62.75-1.23,1.5-1.86,2.24A.53.53,0,0,0,4.44,21.94Z"/></g></svg>