<svg id="Capa_1" data-name="Capa 1" xmlns="http://www.w3.org/2000/svg" viewBox="0 0 27.83 29.57"><defs><style>.cls-1{fill:#fcfcfc;}</style></defs><title>Social media</title><path class="cls-1" d="M13.94,0C6.26,0,0,6.62,0,14.78S6.26,29.57,13.94,29.57,27.86,23,27.86,14.78,21.63,0,13.94,0Zm-4,22.35H6.51V11.52H9.9ZM8.21,10h0A1.81,1.81,0,0,1,6.31,8.17,1.82,1.82,0,0,1,8.23,6.29a1.81,1.81,0,0,1,1.89,1.88A1.81,1.81,0,0,1,8.21,10ZM22.12,22.35H18.73v-5.8c0-1.45-.49-2.45-1.72-2.45a1.86,1.86,0,0,0-1.73,1.32,2.6,2.6,0,0,0-.12.88v6.05H11.78s0-9.82,0-10.83h3.38v1.53a3.36,3.36,0,0,1,3.06-1.79c2.23,0,3.9,1.55,3.9,4.88Z"/></svg>