<svg id="Capa_1" data-name="Capa 1" xmlns="http://www.w3.org/2000/svg" xmlns:xlink="http://www.w3.org/1999/xlink" viewBox="0 0 27.83 29.57"><defs><style>.cls-1{fill:none;}.cls-2{clip-path:url(#clip-path);}.cls-3{fill:#fcfcfc;}</style><clipPath id="clip-path"><rect class="cls-1" width="27.83" height="29.57"/></clipPath></defs><title>Social media</title><g class="cls-2"><path class="cls-3" d="M13.91.62C6.23.62,0,7.12,0,15.14A14.5,14.5,0,0,0,9.51,28.93c.7.13,1-.31,1-.7s0-1.26,0-2.47c-3.87.88-4.69-2-4.69-2a3.75,3.75,0,0,0-1.55-2.12c-1.26-.91.1-.89.1-.89a2.92,2.92,0,0,1,2.13,1.5,2.9,2.9,0,0,0,4.05,1.21,3.15,3.15,0,0,1,.89-1.94C8.28,21.2,5,20,5,14.39a5.74,5.74,0,0,1,1.43-3.9,5.36,5.36,0,0,1,.12-3.85s1.17-.39,3.83,1.49a12.57,12.57,0,0,1,7,0C20,6.25,21.18,6.64,21.18,6.64a5.53,5.53,0,0,1,.14,3.85,5.74,5.74,0,0,1,1.43,3.9c0,5.58-3.25,6.81-6.35,7.16a3.56,3.56,0,0,1,.94,2.69c0,2,0,3.51,0,4s.25.84,1,.69a14.44,14.44,0,0,0,9.55-13.77C27.83,7.12,21.6.62,13.91.62Z"/></g></svg>