<svg id="Capa_1" data-name="Capa 1" xmlns="http://www.w3.org/2000/svg" viewBox="0 0 27.83 29.57"><defs><style>.cls-1{fill:#fff;}</style></defs><title>Social media</title><g id="I3Ng2O.tif"><path class="cls-1" d="M0,27.18V2.39a.44.44,0,0,0,0-.1A1.51,1.51,0,0,1,1.28.94l.26,0H26.3l.11,0a1.3,1.3,0,0,1,.58.17A1.51,1.51,0,0,1,27.8,2.5V26.89c0,.12,0,.25,0,.37a1.51,1.51,0,0,1-1.16,1.36l-.33.05H19.2V18.05c0-.12,0-.12.12-.12h3.41c.06,0,.09,0,.1-.07l.09-.7c0-.34.08-.67.13-1s.08-.67.13-1,.09-.69.13-1c0-.13,0-.25.05-.39h-4c-.12,0-.12,0-.12-.12,0-.84,0-1.69,0-2.53a3.5,3.5,0,0,1,.08-.85,1.37,1.37,0,0,1,1-1.05A2.55,2.55,0,0,1,21,9h2.36c.07,0,.12,0,.12-.09V5.33c0-.07,0-.09-.1-.1l-.76-.07-1.29-.07H19.94a5.72,5.72,0,0,0-1.3.17,4.63,4.63,0,0,0-3.43,3.1,6.67,6.67,0,0,0-.36,2.17c0,1,0,2,0,3.05,0,.13,0,.13-.13.13H11.24v4.09c0,.12,0,.12.12.12h3.35c.14,0,.14,0,.14.14V28.53a.61.61,0,0,0,0,.14H1.54l-.1,0A1.52,1.52,0,0,1,.07,27.42C.06,27.34,0,27.26,0,27.18Z"/></g></svg>