<svg id="gris" xmlns="http://www.w3.org/2000/svg" viewBox="0 0 792 612"><defs><style>.cls-1{fill:#1f1f1f;}.cls-2{fill:#c6c6c6;}.cls-3{fill:#fff;}.cls-4{fill:#fefefe;}.cls-5{fill:#fdfdfd;}.cls-6{fill:#fcfcfc;}.cls-7{fill:#fafafa;}.cls-8{fill:#4a4a4a;}.cls-9{fill:#3e3e3e;}.cls-10{fill:#3b3b3b;}.cls-11{fill:#1b1b1b;}.cls-12{fill:#181818;}.cls-13{fill:#202020;}.cls-14{fill:#2b2b2b;}.cls-15{fill:#272727;}.cls-16{fill:#242424;}.cls-17{fill:#434343;}.cls-18{fill:#191919;}.cls-19{fill:#2a2a2a;}.cls-20{fill:#282828;}.cls-21{fill:#353535;}.cls-22{fill:#303030;}.cls-23{fill:#1d1d1d;}.cls-24{fill:#4b4b4b;}.cls-25{fill:#474747;}.cls-26{fill:#484848;}.cls-27{fill:#4c4c4c;}.cls-28{fill:#505050;}.cls-29{fill:#2f2f2f;}.cls-30{fill:#363636;}.cls-31{fill:#1a1a1a;}.cls-32{fill:#c7c7c7;}</style></defs><title>Certificacion-01</title><path class="cls-1" d="M644.72,304.27c0,136.1-110.33,246.43-246.43,246.43S151.86,440.37,151.86,304.27"/><path class="cls-2" d="M151.86,304.27c0-136.1,110.33-246.43,246.43-246.43S644.72,168.17,644.72,304.27"/><g id="T4ufhu.tif"><path class="cls-3" d="M579.87,303.23c-.09,24.53-4,48.45-13.72,71-28.37,65.54-77,106.83-148.69,114.75-73,8.07-130.27-21.78-171.36-82.16-20.08-29.52-29.29-62.89-30.67-98.47,0-19.13,2.2-38,7.57-56.4q16.69-57.19,63.15-94.48c26.43-21.21,56.51-34,90.07-37.78,51.89-5.81,98.2,8.18,137.89,42.16,37.81,32.37,58.72,74,64.62,123.27C579.45,291.09,579.51,297.18,579.87,303.23Z"/><path class="cls-4" d="M559.27,177.25c6.62-2.23,12.42-4,18-6.17,3.62-1.41,4.43,1.34,5.81,3.22,1.71,2.32-.91,2.88-2,3.75-5.39,4.33-10.91,8.5-16.37,12.73-1.24,1-2.26,2-3.83.14s-.43-2.91,1-4a77.76,77.76,0,0,0,11.23-10c-4.95,1.61-9.89,3.25-14.86,4.8-1.65.51-3.33,1.65-4.88-.55-1.37-2-.09-3.15.77-4.53,1.94-3.11,4-6.18,5.87-9.31.47-.77,1.58-1.66.68-2.6s-1.78.22-2.48.75c-2.72,2-5.38,4.11-8,6.2-1.37,1.07-2.49,2.16-4.12,0s0-3,1.3-3.95c5.45-4.26,10.9-8.51,16.43-12.65,1-.77,2.19-3,3.79-.9,1.41,1.81,4.12,3.27,1.88,6.45-3.24,4.62-6.16,9.45-9.2,14.21A18.4,18.4,0,0,0,559.27,177.25Z"/><path class="cls-4" d="M244.86,166.25c-3.4-6-6.05-11.32-9.26-16.24-2.16-3.3-.11-4.91,1.76-6.73,2.21-2.15,3.24.48,4.41,1.47,5.16,4.38,10.19,8.91,15.25,13.41,1.13,1,2.53,1.84.94,3.76s-2.76,1.05-4.14-.18A106.7,106.7,0,0,0,241.58,152c2.72,5,5.43,9.93,8.18,14.88.76,1.38,1.58,2.56.15,4.16s-2.65,1.1-4.15.5c-4.93-2-9.87-3.92-14.8-5.88l-.58,1q5.4,4.78,10.78,9.57c1.1,1,2.58,1.76.92,3.7s-2.76,1.1-4.16-.14c-5.26-4.69-10.6-9.31-15.84-14-1-.9-3.13-1.77-1.29-3.62,1.51-1.52,2.22-4.49,5.61-3,5.15,2.28,10.44,4.26,15.68,6.35C242.58,165.67,243.12,165.77,244.86,166.25Z"/><path class="cls-5" d="M354.64,79.79c1.47-.26,2,.51,2.28,1.81a1.83,1.83,0,0,1-1.52,2.49c-3.29.77-6.56,1.65-9.87,2.3-2.69.53-2.4,2.19-1.93,4.12s.79,3.59,3.5,2.79,5.49-1.23,8.21-1.94c1.57-.41,2.74-.45,3.15,1.52.38,1.81-.79,2.18-2.07,2.48-2.74.66-5.46,1.4-8.22,1.92-3.06.57-2.34,2.55-1.9,4.51s.74,4,3.69,3.19c3.12-.85,6.29-1.51,9.43-2.27,1.53-.37,2.72-.32,3.19,1.6.52,2.11-.88,2.35-2.28,2.68-4.8,1.13-9.61,2.18-14.38,3.41-1.94.5-2.83,0-3.27-2-1.64-7.28-3.39-14.52-5.08-21.79-.27-1.19-.83-2.59,1.06-3C344,82.32,349.3,81.06,354.64,79.79Z"/><path class="cls-4" d="M265.84,134.21c.61-4.49,1.05-7.79,1.53-11.07a31.3,31.3,0,0,1,1-5.4,2.93,2.93,0,0,1,3.21-2.19c1.34.31.78,1.88.82,2.92a15.37,15.37,0,0,1-.25,2.52c-1,8.13-1,8.12,7,10.72,3.43,1.12,6.85,2.27,10.56,3.5-2.22,3-4.4,4.3-7.76,2.78a60.58,60.58,0,0,0-7.59-2.59c-1.25-.38-2.77-1.69-3.82-.14a4.42,4.42,0,0,0-.07,5.18c1,1.5,2.08,3,3.25,4.42s.95,2.39-.52,3.43-2.27,1.35-3.47-.29q-6.84-9.41-13.9-18.63c-1.22-1.59-.6-2.39.71-3.4s2.36-1.09,3.44.45C261.55,128.76,263.37,131,265.84,134.21Z"/><path class="cls-5" d="M508.55,132.88a16.61,16.61,0,0,1,10.54-15c5.22-1.87,10.55-.31,14.42,4.28a10.52,10.52,0,0,1,2.65,8.62c-.18,1.14-.23,3-1.86,2.83a3.41,3.41,0,0,1-3.14-3c-1.08-7.41-3.67-10-9-8.77-5.56,1.23-10.18,8.87-8.57,14.17a6.71,6.71,0,0,0,10.26,3.64c2.21-1.41,3.87-1.19,5,.65,1.26,2.14-1.28,2.81-2.44,3.51a10.44,10.44,0,0,1-11.23.08A12.63,12.63,0,0,1,508.55,132.88Z"/><path class="cls-5" d="M497.37,99.43c.46.24,1.1.54,1.71.88,4.79,2.69,9.57,5.4,14.37,8.08,1.47.82,2.63,1.58,1.47,3.58s-2.27.92-3.51.3c-5.24-2.63-5.24-2.63-8.17,2.57-2.35,4.17-4.74,8.32-7,12.53-.89,1.63-1.7,2.31-3.6,1.23s-1.74-2.15-.81-3.75c2.75-4.76,5.24-9.67,8.16-14.32,1.76-2.8,1.53-4.46-1.62-5.63a17.29,17.29,0,0,1-2.55-1.49c-1.11-.67-1-1.59-.45-2.54C495.76,100.17,496.09,99.3,497.37,99.43Z"/><path class="cls-6" d="M222.73,209.71c-.94,1.31-.81,4.26-3.91,2.6q-10.26-5.48-20.53-10.91c-1.78-.93-1.37-2.05-.64-3.47s1.49-1.82,3-1c6.82,3.68,13.68,7.28,20.51,10.93C221.85,208.22,222.76,208.51,222.73,209.71Z"/><path class="cls-4" d="M571.45,420.64c2.77,4,5.61,8,8.27,12,.95,1.46,3,2.6,1.38,5.1-1.81,2.72-3.78.94-5.61.56-4.51-.94-8.76-3-14.72-3.12,4.68,3.32,8.43,6,12.25,8.66,1.58,1.09,2.47,1.92,1,3.94s-2.48,1.07-3.79.13c-5.85-4.17-11.74-8.3-17.55-12.53-1-.76-3.44-1.36-1.65-3.38,1.38-1.56,1.57-4.8,5.18-3.67,6,1.9,12.15,3.48,19.51,5.56-4.17-5.84-7.67-10.78-11.23-15.67-1.13-1.56-1.83-2.74-.47-4.81,1.86-2.83,3.23-3.42,6.11-1.14,5.09,4,10.58,7.49,15.78,11.37,1.26.94,4.22,1.35,2.16,4.3s-3.62.42-5.13-.52C579.19,425.15,576,422,571.45,420.64Z"/><path class="cls-5" d="M602.62,375.66c-4.42-1.72-8.86-3.38-13.23-5.2-1.56-.65-4.25-.5-2.87-3.75s3.27-1.21,4.82-.65q9.31,3.42,18.51,7.19c1.19.49,3.55.18,2.94,2.67-.47,1.92-1.07,3.71-3.58,4.11-4.87.76-9.71,1.74-14.55,2.65-1.65.31-3.29.68-6.07,1.26L604,390c1.58.61,3.16.9,2.16,3.48s-2.41,1.68-4,1.08c-6.31-2.44-12.64-4.84-18.9-7.39-1.36-.56-3.84-.3-3.45-2.81a4.57,4.57,0,0,1,4.37-4.28c6.12-.89,12.17-2.25,18.25-3.42C602.52,376.3,602.57,376,602.62,375.66Z"/><path class="cls-4" d="M273.07,471.07c-3.7,5-6.59,9-9.54,12.91-1,1.39-1.81,3.25-4.24,1.37s-.41-3.21.48-4.46c3.93-5.49,7.94-10.94,12.06-16.29.77-1,1.14-3.36,3.33-2.14,1.7,1,3.29,2,3,4.51-.64,5.88-1.05,11.78-1.53,17.67-.06.68,0,1.37,0,3.24,3.66-4.94,6.73-9.05,9.75-13.19,1.05-1.42,1.85-2.79,4-1.19s1,2.74-.06,4.15c-4.12,5.53-8.16,11.12-12.35,16.6-.79,1-1.12,3.34-3.3,2.27-1.93-1-3.41-2.21-3.09-4.89.66-5.59,1-11.21,1.51-16.82C273.13,474,273.07,473.18,273.07,471.07Z"/><path class="cls-5" d="M373.61,504.87c3,.29,6.81.57,10.58,1.08,1.56.21,4-.46,3.57,2.72s-2.7,1.76-4.25,1.71a66.77,66.77,0,0,1-8-.8c-2.49-.39-3.2.74-3.38,3s.11,3.83,2.88,4,5.33.53,8,.79c1.49.15,2.8.27,2.52,2.41s-1.69,1.89-3.1,1.76c-2.67-.25-5.36-.4-8-.85-3.81-.66-3,2.13-3.44,4.17-.58,2.63.46,3.56,3,3.69,3.09.15,6.17.65,9.26.85,1.71.11,2.58.61,2.4,2.53s-1.35,2.11-2.94,1.93c-4.76-.52-9.53-1.06-14.31-1.39-2.57-.18-3.29-1.22-3-3.75.79-6.44,1.32-12.9,1.94-19.35C367.86,504.44,367.85,504.44,373.61,504.87Z"/><path class="cls-5" d="M492.46,485.59c0,1.4-1,1.65-1.89,2.07-2.52,1.26-5,2.59-7.6,3.69-2.39,1-3.6,1.9-2.06,4.88s2.84,2.79,5.17,1.41c2.06-1.21,4.29-2.12,6.43-3.19,1.31-.65,2.43-1.37,3.45.59s0,2.46-1.43,3.12c-2.54,1.2-5,2.65-7.6,3.69-3.43,1.36-1.45,3.2-.68,5s1.44,3.68,4.17,2.09,5.8-2.86,8.68-4.33c1.39-.7,2.49-1.17,3.45.68s.32,2.49-1.24,3.23c-4.59,2.16-9.16,4.36-13.67,6.68-1.78.91-2.74.65-3.62-1.19q-4.9-10.29-10-20.48c-.8-1.6-.64-2.44,1.08-3.23,4.73-2.19,9.4-4.5,14-6.86C491.77,482.07,491.74,484.35,492.46,485.59Z"/><path class="cls-5" d="M578.52,388.92c1.31.81,3.85.82,2.24,3.67s-2.87,5.83-4.58,8.58c-1.61,2.6,0,3.38,1.85,4.4s3.23,1.52,4.31-1,2.45-4.76,3.7-7.14c.71-1.37,1.21-2.95,3.37-1.7s.88,2.59.24,3.88c-1.2,2.4-2.35,4.83-3.76,7.11-1.82,2.94.76,3.26,2.32,4.08s3.24,2.76,4.65-.43,3.14-6,4.66-9c.74-1.49,1.47-2.16,3.25-1.25s1.45,2,.72,3.38c-2.39,4.48-4.8,8.94-7.07,13.49-.91,1.82-1.8,2-3.59,1.07-6.56-3.57-13.21-7-19.82-10.46-1.25-.65-2.65-1.07-1.55-3.07,2.58-4.69,5-9.47,7.49-14.22C577.28,389.67,577.57,389,578.52,388.92Z"/><path class="cls-5" d="M446.78,504.57c-2.59.63-5.16,1.58-7.79,1.8-4.17.33-4.08,2.53-3.18,5.62.53,1.82,1.39,2.07,3.08,1.61,2.7-.74,5.47-1.28,8.23-1.83,1.35-.27,2.72-.73,3.25,1.41s-.65,2.37-2.16,2.68c-2.89.6-5.74,1.37-8.64,1.91-3.5.65-1.58,2.9-1.38,4.54s.22,3.82,3.18,3c3.25-.87,6.6-1.36,9.88-2.14,1.59-.38,2.69-.47,3.08,1.56s-.46,2.46-2.12,2.8c-4.81,1-9.61,2.07-14.41,3.19-1.95.46-3.13.19-3.59-2.11q-2.2-10.95-4.75-21.83c-.46-2,0-2.87,1.93-3.25,5.1-1,10.19-2.05,15.28-3.08,1.07-.64,1.92-.41,2.15.81C449.14,502.93,448.81,504.33,446.78,504.57Z"/><path class="cls-5" d="M212.19,431.45a9,9,0,0,1,4-7.57c4.29-3.21,8.72-6.22,13-9.45,1.67-1.26,2.52-.93,3.72.63,1.35,1.77.72,2.59-.81,3.64q-5.58,3.84-11,7.89c-4.33,3.24-5.11,6.17-2.7,9.56s5.46,3.79,9.89.78c3.73-2.53,7.44-5.11,11-7.86,1.74-1.34,2.69-1.28,4,.54s.39,2.67-1,3.64c-3.92,2.76-7.8,5.57-11.71,8.34-3.42,2.42-7,3.63-11.06,1.53S212.15,435.6,212.19,431.45Z"/><path class="cls-5" d="M193.8,349.56a12.84,12.84,0,0,0-9.56,3.74,6.86,6.86,0,0,0-1.93,7.34c.92,2.86,2.81,4.67,5.81,4.64,2.62,0,3.88,1.3,3.56,3.51-.4,2.77-2.93,1.54-4.4,1.34-6.51-.86-10.9-7.8-9.43-14.54s8.63-11.64,16.39-11.09c7.09.49,11.72,5.17,12.38,12.55a10.34,10.34,0,0,1-2.92,8.49c-.95,1-2.25,3-3.71,1.4-1-1.1-2.06-3.13,0-4.81,2.84-2.33,2.84-5.35,1.5-8.43C200.29,351,197.53,349.57,193.8,349.56Z"/><path class="cls-6" d="M446.78,504.57c1.38-1.4,2.34-2.79-.11-4.09,7.25-2.06,7.25-2.06,11.67,3.85,2.66,3.56,5.3,7.12,8.66,11.64V498.49c0-1.13-.06-2.26,0-3.38,0-2.21,2-2.29,3.34-2.53,2.22-.39,1.51,1.59,1.52,2.61.09,7.89,0,15.78.14,23.67,0,2.16-1.07,2.89-2.81,3.54s-3,.36-4.26-1.29c-4.86-6.54-9.88-13-15.25-20C449.22,503.17,449.08,505.09,446.78,504.57Z"/><path class="cls-6" d="M350.64,521.21c3.33-5.51,6.36-10.55,9.42-15.57.69-1.14,1.09-2.76,3-2.31s3.92.65,2,3.61c-4.26,6.45-8.27,13.08-12.29,19.69-1.08,1.77-2.06,2.58-4.37,2s-2.91-1.66-3.08-3.75c-.59-7.44-1.35-14.86-1.91-22.29-.09-1.2-1.61-3.42,1.19-3.43,2,0,3.77.64,3.83,3.42.09,4.36.56,8.71.91,13.06C349.46,517.29,349.32,519,350.64,521.21Z"/><path class="cls-6" d="M591.77,363.37c-2.63-.28-3.84-.76-3.21-3,1.58-5.68,3.07-11.39,4.52-17.1.41-1.63,1-2.4,2.89-2,2.15.49,1.68,1.78,1.42,3.2-1.11,5.91-1.1,5.92,4.59,7.43,4.62,1.23,9.21,2.52,13.85,3.63,1.9.45,2.52,1.13,2,3.18s-1.67,2.26-3.37,1.81c-4.89-1.31-9.86-2.34-14.63-4-4.12-1.42-6.29-.68-6.73,3.89C593,361.69,593,363.46,591.77,363.37Z"/><path class="cls-6" d="M313.43,517.2a2.86,2.86,0,0,1-2.91-4c2.21-5.32,4.39-10.65,6.82-15.87,1.18-2.53.78-3.89-1.92-4.64a28.15,28.15,0,0,1-3.1-1.34c-1.45-.59-1.27-1.64-.8-2.77s1.14-1.91,2.56-1.3q8.71,3.74,17.44,7.43c1.44.6,1.35,1.46.86,2.67-.56,1.38-1.17,2-2.83,1.43-2.12-.7-4.29-3.27-6.34-1.67-1.56,1.22-1.95,3.94-2.83,6-1.72,4-3.4,8-5.16,12C314.86,516,314.76,517.16,313.43,517.2Z"/><path class="cls-6" d="M192.2,396.3c-1.29.17-1.53-.77-1.83-1.5-1.85-4.56-3.6-9.17-5.52-13.7-.67-1.59-.24-2.29,1.22-2.87q10.78-4.28,21.53-8.67c1.65-.67,2.53-.28,3.24,1.39.8,1.87.4,2.75-1.51,3.48-5.51,2.1-10.92,4.5-16.47,6.53-2.27.84-2.72,1.81-1.72,4,1.25,2.67,2.16,5.5,3.36,8.19S193.5,395.72,192.2,396.3Z"/><path class="cls-5" d="M509.29,503.76c-1.12-.23-1.46-1.25-2-2-4-6.14-7.9-12.32-11.89-18.46-.94-1.44-1.49-2.47.43-3.77s2.87-.72,3.95,1c2.81,4.55,6,8.88,8.55,13.57,1.9,3.52,3.68,3.41,6.45,1.21,2-1.57,4.26-2.73,6.36-4.15a1.46,1.46,0,0,1,2.41.54c.5.9,1.76,1.94.34,2.89-4.56,3.05-9.21,6-13.84,8.92A3.2,3.2,0,0,1,509.29,503.76Z"/><path class="cls-7" d="M331.51,523.83c-2.53-.61-4.57-.81-3.37-4.11,2.5-6.85,4.66-13.83,6.87-20.79.59-1.86,1.13-2.93,3.5-2.08,2.1.75,2.05,1.75,1.48,3.47-2.36,7.05-4.61,14.14-7,21.2C332.71,522.47,332.62,523.81,331.51,523.83Z"/><path class="cls-8" d="M396.53,383.39c-19,0-38.1-.09-57.14.07-3.63,0-5.09-.91-4.86-4.73.4-6.33-.33-12.7.44-19a20.23,20.23,0,0,1,17-17.55,37.08,37.08,0,0,1,5.46-.51q39.16,0,78.31,0c11.14,0,19.24,5.34,21.82,14.63,2.29,8.27.79,16.84.92,25.27,0,2.64-2.47,1.78-3.95,1.79-17.63.06-35.27,0-52.91,0Z"/><path class="cls-8" d="M345.05,279.55A51.65,51.65,0,1,1,448.33,281c-.4,28.13-24.05,51.16-52.19,50.82A51.66,51.66,0,0,1,345.05,279.55Z"/><path class="cls-9" d="M422,173.3c-5.06,0-10.12,0-15.17,0-1,0-2.53.25-2.45-1.48.06-1.36,1.33-1.24,2.27-1.24q15.14,0,30.26,0c.95,0,2.16,0,2.07,1.43s-1.31,1.27-2.24,1.28C431.83,173.31,426.91,173.29,422,173.3Z"/><path class="cls-10" d="M394.94,189.25a8.32,8.32,0,0,1-6.68,2.85c-5.9.16-11.82.1-17.73.07-1,0-2.44.3-2.47-1.45,0-1.45,1.11-1.45,2.07-1.46C378.1,189.24,386.06,189.25,394.94,189.25Z"/><path class="cls-11" d="M382.85,184.57c4.21,0,8.42,0,12.63,0,.73,0,1.85-.35,2,.89s-.8,1.68-1.9,1.68H369.86c-.84,0-1.77-.07-1.76-1.25,0-1.51,1.2-1.32,2.12-1.33C374.43,184.55,378.64,184.57,382.85,184.57Z"/><path class="cls-12" d="M382.47,164.26c-4.07,0-8.14,0-12.21,0-.93,0-2.14.19-2.15-1.3s1.21-1.33,2.14-1.33q12.4,0,24.83,0c1.16,0,2.46.15,2.34,1.69s-1.5.92-2.33.94C390.89,164.3,386.68,164.26,382.47,164.26Z"/><path class="cls-13" d="M394.1,159.43c-8.47,0-16.42,0-24.37,0-.67,0-1.44-.07-1.6-1-.12-.78.12-1.57.94-1.54,8,.27,16-1.33,23.9,1.07C393.27,158,393.44,158.54,394.1,159.43Z"/><path class="cls-14" d="M396.25,170.82c-.54,2-1.42,2.63-2.65,2.63q-9.27,0-18.54,0c-1,0-2.1-.11-2-1.5.08-1.14,1.09-1.13,1.9-1.13C382,170.81,389,170.82,396.25,170.82Z"/><path class="cls-15" d="M396.24,177.88c-7.19,0-14.08,0-21,0-.9,0-2.17.3-2.26-1.17-.06-1.14.91-1.28,1.78-1.29,6.33,0,12.66,0,19,0C395.05,175.41,395.89,176,396.24,177.88Z"/><path class="cls-11" d="M355.64,164.31c-2.82,0-5.64,0-8.45,0-1,0-2.11.07-2-1.42.07-1.19,1-1.16,1.85-1.16q8.67,0,17.32,0c1,0,2.17-.09,2,1.41s-1.36,1.16-2.28,1.18C361.27,164.34,358.45,164.31,355.64,164.31Z"/><path class="cls-11" d="M355.34,187.24c-2.82,0-5.63,0-8.45,0-.85,0-1.76-.09-1.75-1.28s.88-1.29,1.75-1.29q8.87,0,17.74,0c.87,0,1.76.13,1.76,1.29s-.91,1.27-1.76,1.28C361.53,187.25,358.44,187.24,355.34,187.24Z"/><path class="cls-16" d="M356.13,156.79h8.46c.9,0,1.75.24,1.79,1.32s-.8,1.4-1.7,1.41q-8.88,0-17.76,0c-.86,0-1.75-.2-1.76-1.33,0-1.44,1.09-1.41,2.09-1.42C350.21,156.77,353.17,156.78,356.13,156.79Z"/><path class="cls-16" d="M355.48,192.17c-2.67,0-5.35,0-8,0-.94,0-2.13.18-2.28-1.21s1-1.5,2-1.5q8.65,0,17.31,0c.83,0,1.8.06,1.88,1.19.09,1.41-1,1.5-2,1.51C361.4,192.18,358.44,192.16,355.48,192.17Z"/><path class="cls-17" d="M406.57,189.26c1.69,0,3.38,0,5.06,0,.91,0,1.66.43,1.62,1.51s-.79,1.39-1.72,1.39c-3.51,0-7,0-10.54,0-.94,0-1.62-.37-1.59-1.48s.8-1.39,1.69-1.41C402.91,189.24,404.74,189.27,406.57,189.26Z"/><path class="cls-1" d="M434.61,164.29c-2.39,0-4.79,0-7.18,0-.6,0-1.55.21-1.5-.87,0-.7.39-1.54,1.16-1.55q7.82-.12,15.61-.08c.85,0,1.19.63,1.08,1.45s-.85,1-1.56,1.05C439.69,164.3,437.15,164.29,434.61,164.29Z"/><path class="cls-18" d="M408.39,164.25c-2.38,0-4.76,0-7.14,0-.85,0-1.74-.08-1.78-1.25s.84-1.34,1.69-1.35c4.63,0,9.25,0,13.87,0,1.09,0,2,.35,2.15,1.54.17,1.79-1.33,1-2.06,1.06-2.24.12-4.48.05-6.73.05Z"/><path class="cls-12" d="M421,177.42c-1.64-.75-5.62,1.56-5.64-1.47,0-2.42,4-.68,6.14-1.08a21.25,21.25,0,0,1,4.65,0c.79,0,1.86-.08,1.77,1.18-.08,1-.94,1.35-1.83,1.38C424.56,177.45,423,177.42,421,177.42Z"/><path class="cls-19" d="M436.07,159.54c-2.11,0-4.22,0-6.33,0-.67,0-1.47-.09-1.46-1.07a1.34,1.34,0,0,1,1.2-1.48c4.35-.09,8.71-.11,13.07-.1a1.21,1.21,0,0,1,1.25,1.37,1.28,1.28,0,0,1-1.4,1.26c-2.11.05-4.22,0-6.33,0Z"/><path class="cls-20" d="M407.26,159.48c-2.1,0-4.19,0-6.29,0-.69,0-1.4-.22-1.48-1.12-.1-1.1.56-1.51,1.5-1.51,4.06,0,8.12,0,12.17,0a1.61,1.61,0,0,1,1.7,1.51c.14,1.28-1,1.13-1.72,1.15-2,.05-3.92,0-5.88,0Z"/><path class="cls-21" d="M430.79,168.82c-1.69,0-3.39,0-5.08,0-.78,0-1.89.17-1.82-1.1.05-1,.9-1.4,1.81-1.41q5.93,0,11.84,0c.76,0,1.4.36,1.42,1.23s-.67,1.19-1.4,1.21c-2.26,0-4.51,0-6.77,0Z"/><path class="cls-22" d="M412.11,168.68c-2.1,0-4.19,0-6.29,0-.74,0-1.43-.26-1.41-1.15a1.25,1.25,0,0,1,1.4-1.24q6.07,0,12.16.05a1.42,1.42,0,0,1,1.42,1.31c0,1.27-1.07,1-1.82,1.05-1.82.06-3.64,0-5.46,0Z"/><path class="cls-1" d="M406.12,187.2c-1.4,0-2.8.07-4.19,0-1-.06-2.5.44-2.44-1.38,0-1.45,1.31-1.19,2.21-1.21,3.07-.05,6.14,0,9.21,0,.92,0,2.18-.26,2.24,1.18.07,1.79-1.4,1.37-2.42,1.42C409.19,187.25,407.65,187.21,406.12,187.2Z"/><path class="cls-14" d="M436.66,192.13c-1.67,0-3.35,0-5,0-.88,0-1.73-.21-1.77-1.31s.78-1.38,1.67-1.39c3.49,0,7,0,10.48,0,.86,0,1.76.19,1.79,1.29s-.77,1.39-1.68,1.4C440.3,192.15,438.48,192.13,436.66,192.13Z"/><path class="cls-23" d="M436.93,184.63c1.68,0,3.36,0,5,0,.85,0,1.75.07,1.84,1.2s-.76,1.37-1.64,1.37c-3.49,0-7,0-10.48,0-.82,0-1.76,0-1.81-1.18-.07-1.5,1.07-1.39,2-1.4C433.58,184.6,435.25,184.63,436.93,184.63Z"/><path class="cls-24" d="M355.76,173.66c-1.77-.75-4.75.87-4.74-1.54,0-2.75,3.06-1.44,4.7-1.44s4.8-1.27,4.71,1.41S357.13,172.57,355.76,173.66Z"/><path class="cls-25" d="M355.92,174.6c1.57.69,4.46-1,4.55,1.53.1,2.7-2.83,1.55-4.32,1.45-1.79-.11-5.09,1.47-5.1-1.48C351,173.52,354.28,175.38,355.92,174.6Z"/><path class="cls-26" d="M434.76,177.67c-1.22,0-1.93,0-2.62,0-1.1-.07-2.46.07-2.32-1.64.12-1.36,1.3-1.22,2.25-1.28a6.37,6.37,0,0,1,2.09,0c1.65.46,4.74-1.32,4.67,1.64C438.77,178.85,435.75,176.93,434.76,177.67Z"/><path class="cls-27" d="M449.2,186.85c1.73-.24,3.18.06,3.18,2.19,0,1.48-.49,2.94-2.18,3.14s-3.6.46-4.34-1.59c-.62-1.69-.62-3.42,1.83-3.79l.36.17a1.16,1.16,0,0,0,.78,0Z"/><path class="cls-28" d="M376.73,165.94c1.61.61,4.21-.85,4.21,1.64s-2.58,1.43-4,1.42-4,1.1-4-1.42S375.64,166.79,376.73,165.94Z"/><path class="cls-29" d="M393.1,182.67c-1.82-.79-4.78.88-4.83-1.53-.06-2.6,2.91-1.34,4.46-1.33,1.75,0,5-1.22,5,1.26C397.74,183.88,394.42,181.45,393.1,182.67Z"/><path class="cls-30" d="M356,166.28c1,0,1.94,0,2.91,0s1.7.31,1.65,1.39-1,1.14-1.85,1.16c-1.8,0-3.6.06-5.4,0-.91,0-2.23.21-2.27-1.15,0-1.63,1.42-1.35,2.46-1.42.83-.07,1.67,0,2.5,0Z"/><path class="cls-12" d="M393.28,166.25a3.66,3.66,0,0,1,.74,0c1.32.34,3.73-.89,3.73,1.29s-2.42,1-3.76,1.31a1,1,0,0,1-.41,0c-1.76-.44-5.06,1-5.06-1.09C388.52,164.88,391.87,167,393.28,166.25Z"/><path class="cls-12" d="M409.24,182.34c-1.34,0-2.31,0-3.27,0s-1.61-.38-1.62-1.45.68-1.41,1.6-1.45a11.72,11.72,0,0,1,2.9,0c1.49.35,4.29-1.28,4.16,1.63C412.9,183.32,410.31,182,409.24,182.34Z"/><path class="cls-11" d="M421.41,179.4c1.37,0,2.21-.06,3,0s1.82-.16,1.75,1.12a1.77,1.77,0,0,1-1.51,1.74,7.74,7.74,0,0,1-2.49.09c-1.84-.33-5.13,1.18-5.06-1.8C417.2,177.87,420.42,180.42,421.41,179.4Z"/><path class="cls-12" d="M355.5,182.45a7.57,7.57,0,0,1-1.26,0c-1.23-.22-3.27.62-3.24-1.53s2.07-1.24,3.28-1.4a15.1,15.1,0,0,1,3.36,0c1.11.11,2.88-.56,2.85,1.45s-1.74,1.36-2.89,1.48A18.39,18.39,0,0,1,355.5,182.45Z"/><path class="cls-31" d="M434.48,179.46a11.63,11.63,0,0,1,1.67,0c1.11.16,2.88-.53,2.78,1.52-.09,1.9-1.79,1.33-2.93,1.43a19.72,19.72,0,0,1-3.35,0c-1.14-.1-2.86.44-2.77-1.57s1.81-1.2,2.92-1.38A10.46,10.46,0,0,1,434.48,179.46Z"/><path class="cls-12" d="M408.69,175.22c1.31.61,3.89-.81,3.84,1-.06,2.41-2.79,1.59-4.42,1.53-1.27,0-3.77,1-3.56-1.29S407.29,175.83,408.69,175.22Z"/><path class="cls-22" d="M377.11,179.63c1.35.5,3.81-.84,3.72,1.53-.09,2.11-2.46,1.21-3.81,1.21s-3.81.86-3.85-1.15C373.11,178.6,375.79,180.25,377.11,179.63Z"/><path class="cls-1" d="M421.77,184.54c.87.32,2.47-.59,2.4,1.18-.05,1.41-1.33,1.51-2.49,1.49s-2.82-.05-2.62-1.76C419.24,183.9,420.85,184.89,421.77,184.54Z"/><path class="cls-32" d="M447.69,186.8a1.25,1.25,0,0,1,1.51,0l.1.4a1.37,1.37,0,0,1-1.71,0A1.52,1.52,0,0,1,447.69,186.8Z"/><path class="cls-4" d="M315.63,91.42c-1.84.7-3.66,1.46-5.53,2.08S307.72,95,308.48,97c2.78,7.06,5.43,14.18,8.11,21.29.52,1.36,1.19,2.12,2.83,1.43,3.62-1.54,7.4-2.74,10.91-4.49,3.85-1.92,5.63-5.35,5.6-9.68C335.85,93.08,327.19,87.07,315.63,91.42Zm6,22.89c-1.31-.08-1.57-1.06-1.91-1.93-1.74-4.48-3.35-9-5.16-13.43-.8-2,0-2.67,1.72-3.4,7.5-3.21,12.2-.93,14.22,7.06a21.84,21.84,0,0,1,.39,2.39C331,109.67,325.73,114.57,321.67,114.31Z"/><path class="cls-4" d="M294.8,102a13.17,13.17,0,0,0-13.05,12.9c-.06,8.26,6.91,15.89,14.47,15.84a13.13,13.13,0,0,0,13.08-12.83C309.35,109.71,302.29,102,294.8,102Zm2.12,24.35c-5.11,0-10.28-6-10.31-12,0-4.56,3.19-7.94,7.49-7.91,5.06,0,10.22,6,10.35,12A7.6,7.6,0,0,1,296.92,126.36Z"/><path class="cls-4" d="M474.9,90.05c-7.5.08-13.87,7.4-13.82,15.86A13,13,0,0,0,474.27,119c7.47,0,13.91-7.38,13.86-15.83A13.11,13.11,0,0,0,474.9,90.05Zm-1.16,24.58c-4.53.14-7.68-3.17-7.71-8.1,0-6.25,4.42-12,9.42-12.16,4.38-.14,7.76,3.41,7.76,8.15C483.21,108.78,478.76,114.48,473.74,114.63Z"/><path class="cls-5" d="M445.15,80.69c-7.46,0-13.51,7-13.47,15.58,0,7.73,5.71,13.46,13.33,13.45s13.52-7,13.46-15.55C458.41,86.43,452.69,80.64,445.15,80.69Zm8.33,13.5c-.27,6.41-4.29,11.37-9.12,11.26s-7.91-4-7.67-9.24c.3-6.4,4.37-11.44,9.13-11.3S453.7,89,453.48,94.19Z"/><path class="cls-5" d="M548.58,138.6c-6.9,3.17-13.79,6.35-20.62,9.65-1.09.53-3.65.46-2.46,2.78,1,1.89,2.77,2.92,4.87,1.3,3.28-2.53,5.54-1.28,8.27,1.31,2.92,2.75,4.51,5.13,1.88,8.81a3,3,0,0,0-.58,2,4.34,4.34,0,0,0,2.67,3c.81.42,1.23-.38,1.5-1q5.11-12,10.2-24.05a5.47,5.47,0,0,0,.21-.82C554.42,139.11,551.17,137.42,548.58,138.6Zm-2.18,10.87c-.62,1.29-.73,3.63-2.4,3.49-1.9-.16-3-2.25-4.32-3.67-.86-.93,0-1.54.72-1.9,2.48-1.15,4.74-2.84,7.86-3.47C548.31,146.4,547.17,147.89,546.4,149.47Z"/><path class="cls-5" d="M427.24,518.81c-.43-8.6-5.17-13.29-14.37-13.08-1.85.18-4.79.59-7.75.72-2.07.09-2.64.95-2.45,2.91.44,4.64.75,9.28,1.08,13.93.78,11.23.77,11.23,12,10.17C423.91,532.69,427.69,527.86,427.24,518.81Zm-16.13,10.73c-.93-.17-1.6-.41-1.69-1.44-.49-5.31-.95-10.62-1.45-15.92-.16-1.7,1-1.65,2.15-1.87,7.86-1.57,12.08,1.9,12.15,10C422.33,526.82,417.58,530.7,411.11,529.54Z"/><path class="cls-4" d="M255.31,443.58c-1.9-2.26-4.13-4.25-6-6.56-1.7-2.15-2.92-1.85-4.69-.07-3.38,3.39-7,6.56-10.46,9.84-7.64,7.17-7.62,7.16-.12,14.8,2.55,2.6,5.37,4.52,9.15,4.65,4,0,8.72-2.79,12.29-7.34C259.59,453.71,259.57,448.64,255.31,443.58ZM244.56,461c-3.33.89-8-1.68-10.22-5.32-.9-1.49,0-2,.82-2.77,3.49-3.29,7.06-6.51,10.47-9.88,1.51-1.51,2.51-1.21,3.76.25,1.94,2.25,4,4.39,4.29,7.29C253.69,454.42,248.82,459.84,244.56,461Z"/><path class="cls-5" d="M528.42,458.28a13.27,13.27,0,0,0-12.61,13.31c.27,8,7.69,15.38,15.27,15.26,6.88-.11,13-6.32,12.86-13.12C543.82,465.7,536.13,458,528.42,458.28Zm2.87,23.81c-5.26-.23-11-6.47-10.77-11.77a7.42,7.42,0,0,1,8.1-7.3c5.26.34,10.74,6.6,10.5,12A7.26,7.26,0,0,1,531.29,482.09Z"/><path class="cls-5" d="M212.34,391.91c-8.28.19-15.45,6.79-15.49,14.28a12.9,12.9,0,0,0,13,13.14c8.45-.07,15.81-6.83,15.74-14.47A13,13,0,0,0,212.34,391.91ZM209,414.38c-4.34-.05-7.8-3.28-7.8-7.28,0-5.21,6.35-10.39,12.54-10.23a7.57,7.57,0,0,1,7.6,7.5C221.15,409.45,215,414.44,209,414.38Z"/><path class="cls-5" d="M550.25,459.32c.26-2.43,3.36-4.56,5.22-6.82a5.64,5.64,0,0,0,.46-.7c3.38-5.59-.72-12.89-8-13.05a10.18,10.18,0,0,0-2.57.79c-4.64,2.6-7.48,7.12-11.19,10.73-1.05,1-.11,1.78.6,2.44,5.74,5.38,11.53,10.71,17.21,16.14,1.55,1.49,2.36.61,3.39-.5s1.67-1.77.32-3.12C553.76,463.26,550,461.65,550.25,459.32ZM546.39,456c-.79.1-6-4.72-6-5.59-.09-1.47,5.87-6.74,7.59-6.72a4.8,4.8,0,0,1,4.37,4.4C552.33,449.63,547.71,455.82,546.39,456Z"/><path class="cls-5" d="M304.7,482.06a3.36,3.36,0,0,0-4.48.44c-6,5.15-12.06,10.13-18,15.26-.74.65-2.95,1.17-1.49,2.67,1.1,1.13,2.74,2.76,4.72.89.92-.87,1.92-1.66,2.88-2.49.76-.65,1.56-1.34,2.63-.75,2.58,1.41,5.43,2.55,7.61,4.45,1.56,1.37-.26,3.7,0,5.45-.9,3,1.45,3.78,3.16,4.11,2.22.44,1.54-1.89,1.72-3,1.17-7.64,2.13-15.31,3.32-22.95A3.43,3.43,0,0,0,304.7,482.06Zm-5.82,15.55c-1.39.37-3.88-1.22-5-3.11-.32-.52,5.5-5.82,6.26-5.72,1.47.18,1,1.39,1.2,2.47C300.27,493.24,301.89,496.8,298.88,497.61Z"/><path class="cls-3" d="M442.72,280a46.15,46.15,0,0,1-92.3.16,46.15,46.15,0,1,1,92.3-.16Z"/><path class="cls-10" d="M447.59,187.27l1.71,0A1.37,1.37,0,0,1,447.59,187.27Z"/><path class="cls-8" d="M404.19,297.27c1-3.95-2.4-5.5-4.48-7.47-2.52-2.41-2.9-4.17,0-6.25a2.87,2.87,0,0,0,.29-.31c4.61-4.79,4.68-4.85,9.23,0a7.93,7.93,0,0,0,6.9,2.93c7.79-.36,13.77,8.25,11.33,15.61-.74,2.24-1.59,2.9-3.41,1s-3.73-3.86-5.64-5.74c-1.21-1.19-2.66-1.88-4.09-.48s-1,2.87.19,4.15c1.6,1.79,3.35,3.44,4.95,5.22.79.88,2.36,1.59,1.64,3.08-.59,1.23-2.08,1.35-3.31,1.56C410.23,311.91,403.86,305.66,404.19,297.27Z"/><path class="cls-8" d="M390.59,260.77c-1.31,3.71,2.07,5.15,4,7.05,2.27,2.23,2.42,3.83-.12,5.69a2.06,2.06,0,0,0-.29.3c-4.82,5-4.91,5.09-9.53.18-1.76-1.87-3.57-2.15-6-2.08-7.88.23-13.78-7.87-11.57-15.4.74-2.53,1.67-3.11,3.61-1,1.55,1.64,3.14,3.23,4.73,4.83,1.44,1.44,3.11,3,5,1,1.59-1.68.43-3.38-1-4.78-1.58-1.6-3.08-3.29-4.73-4.82-2.51-2.33-1.49-3.48,1.24-4.17C383.69,245.59,391,252.18,390.59,260.77Z"/><path class="cls-8" d="M396.11,249c2-1.36,3.7-1.74,5.33-1.38,9.66,2.15,16.82,7.61,21.08,16.58.89,1.89.77,4.4,4,3.35a.74.74,0,0,1,.41.05,1.84,1.84,0,0,1,1.28,2.32c-.27,1.7-5.12,6.37-6.49,6.18a1.83,1.83,0,0,1-1.76-2.38c.8-3.24-1.87-3.87-3.74-4.55-2-.75-4.2-1.81-6.4.73-4.14,4.79-8.78,9.14-13.15,13.74-1.43,1.5-2.5,2.42-4.41.41-1.73-1.82-2.39-3-.22-5.07,3.8-3.57,7.11-7.66,11-11.14,8.65-7.77,4.49-16.62-4.74-18A13.68,13.68,0,0,1,396.11,249Z"/><path class="cls-8" d="M373.16,310.28c-2.64-1.26-4.61-3.71-6.35-6.2-1.32-1.87.67-3,1.84-4.14,5.44-5.12,11-10.16,16.37-15.3,1.92-1.82,3.55-2.46,5.72-.26s3,3.8.65,6.4c-5.2,5.75-10.18,11.68-15.26,17.54A4.29,4.29,0,0,1,373.16,310.28Z"/></g><path class="cls-4" d="M203.08,188.66a43.17,43.17,0,0,1,3.54-6.7c2-3.21,3.73-5,5.87-5.88a6,6,0,0,1,6.06.4c2.2,1.39,3.33,4,2.63,7.25l.09.06a7.15,7.15,0,0,1,9-1.07,7.43,7.43,0,0,1,3.48,5.42c.39,2.64-.65,5.91-3.44,10.29a47.59,47.59,0,0,1-3.73,5.17Zm12.2,1.67,1.42-2.24c1.93-3,1.57-5.62-.45-6.9-2.25-1.43-4.36-.38-6.11,2.37a14.37,14.37,0,0,0-1.4,2.62Zm11,7a16.41,16.41,0,0,0,1.59-2.23c1.77-2.79,2.32-6-.63-7.85-2.78-1.77-5.47,0-7.38,2.95l-1.38,2.18Z"/><path class="cls-4" d="M589.7,181.58a49.14,49.14,0,0,1,4.73,6.75c2,3.37,2.77,6.25,2.37,8.67a8.29,8.29,0,0,1-4.12,5.81,9,9,0,0,1-7,1.26c-2.95-.76-5.53-3.09-7.48-6.37a12.82,12.82,0,0,1-1.17-2.36L567.5,201l-2.74-4.57Zm-9.05,11.6a10.84,10.84,0,0,0,1.14,2.38c2.06,3.45,5,4.53,8,2.77,2.78-1.66,3.12-4.5,1.21-7.7a14.89,14.89,0,0,0-1.81-2.54Z"/><path class="cls-4" d="M408.07,75.11a43.74,43.74,0,0,1,7.57.36c3.77.48,6.06,1.27,7.81,2.81a6,6,0,0,1,2.22,5.66c-.33,2.58-2.24,4.73-5.45,5.46v.1a7.17,7.17,0,0,1,4.8,7.69,7.45,7.45,0,0,1-3.44,5.46c-2.22,1.47-5.62,1.92-10.77,1.26a49.23,49.23,0,0,1-6.27-1.18Zm3.67,11.75,2.63.34c3.56.46,5.75-1,6.06-3.35.34-2.64-1.51-4.1-4.74-4.52a14.51,14.51,0,0,0-3-.15Zm-1.65,12.89a16,16,0,0,0,2.7.49c3.28.42,6.39-.43,6.84-3.9.42-3.27-2.29-5-5.81-5.43l-2.56-.33Z"/><path class="cls-4" d="M363.05,78.71A45,45,0,0,1,370.62,77c4-.61,6.76-.35,8.86.93a7,7,0,0,1,3.23,5.19,7.41,7.41,0,0,1-4,7.67l0,.11c2.12.46,3.57,2.18,4.67,4.77a61.86,61.86,0,0,0,3.35,7.37l-5.18.79a36.66,36.66,0,0,1-2.86-6.24c-1.34-3.48-2.83-4.45-5.71-4.08l-2.54.38,1.73,11.36-5,.77Zm6.87,11.43,3-.45c3.42-.52,5.25-2.65,4.84-5.4-.46-3-2.8-4.09-6.06-3.61a13.34,13.34,0,0,0-3.1.74Z"/></svg>