<svg id="Capa_1" data-name="Capa 1" xmlns="http://www.w3.org/2000/svg" viewBox="0 0 792 612"><defs><style>.cls-1{fill:#595959;}</style></defs><title>programa</title><path class="cls-1" d="M264.27,272.07c-.58.53-1.27.95-2.32,1.72-.38-3.48-.67-6.24-1-9.06H244V366.14h19.2V326.72l3.27,2.62c18.12,14.41,42.81,8,51.52-13.53a42.16,42.16,0,0,0,1.13-29.17C311.27,261.67,283.53,254.37,264.27,272.07Zm15.23,50.16a20.67,20.67,0,0,1-2.81-.5c-10.38-2.7-16.67-15.27-14-27.89,2.56-12,12-18.62,23.36-16.5,9.32,1.74,15.53,10.76,15.48,22.49C301.49,314.33,292.35,323.62,279.5,322.23Z"/><path class="cls-1" d="M560.59,272.61c-2.14-1.7-3.28-2.63-4.44-3.52a32.46,32.46,0,0,0-46.8,7.72c-5.67,8.49-7.21,17.95-6.32,27.89,2.06,22.72,21.89,37.22,42.66,30.71,5.74-1.8,10.81-5.74,16.37-8.8.25,2.44.53,5.21.84,8.25h16.85V237.38H560.59Zm-21.87,49.51a17.7,17.7,0,0,1-2.79-.57c-10.41-3.2-16.1-16-12.94-29,2.63-10.88,11.69-17,22.65-15.25,9.34,1.47,15.81,10.5,15.86,22.12C561.57,314.47,552,324,538.72,322.12Z"/><path class="cls-1" d="M649.53,274.05c-1.9-1.75-3.1-2.93-4.38-4a32.58,32.58,0,0,0-42.09.15c-16.65,14.33-16.55,45.14.24,59.29A31.1,31.1,0,0,0,623.81,337c10.09.06,18.33-4.17,25.69-11.42.56,3.48,1,6.26,1.48,9.24h16.69V264.9H650.9C650.46,267.86,650.07,270.48,649.53,274.05Zm-.18,29.44c-2.17,12.79-10.31,19.84-21.67,18.78-10.46-1-17.61-10-17.65-22.37-.06-15.52,11.14-25.68,24.68-22.4C644.57,279.89,651.32,291.87,649.35,303.49Z"/><path class="cls-1" d="M390.57,273.59c-2.48-2-4.55-3.93-6.87-5.5-17.39-11.84-40.38-4.81-48.62,14.79-9.81,23.33,2.05,49.5,24.5,53.56,11.94,2.17,22.09-1.95,30.91-10.93.57,3.36,1,6.1,1.54,9.07h16.65V264.64H392.06C391.56,267.62,391.1,270.39,390.57,273.59Zm-1.15,34.51c-2.83,9.79-11.26,15.37-21.3,14.09-10.25-1.31-16.68-10-16.69-22.46,0-14.9,9-24.05,22.32-22.49a17.47,17.47,0,0,1,4.92,1.31C388.51,282.89,393.06,295.5,389.42,308.1Z"/><path class="cls-1" d="M54.13,406.81h22V254.72h-22Z"/><path class="cls-1" d="M159.44,357.07h21.95V204.85H159.44Z"/><path class="cls-1" d="M464.84,262.6c-9,1-16,5.46-22.12,12.78-.59-4-1.08-7.26-1.59-10.67h-16.9V334.8H443c.12-2,.3-3.69.3-5.36,0-11.46-.17-22.93.11-34.38.24-9.47,9.07-17,19-16.79,8.21.2,11.82,5,12.06,16,0,2.1.05,4.2.05,6.3v34.16h19.14c0-16.71,1-33.18-.28-49.47S480.53,260.86,464.84,262.6Z"/><path class="cls-1" d="M727.41,295.82c-4.2-2.13-8.86-3.37-13.34-4.95-3.22-1.15-6.76-1.72-9.61-3.45-1.77-1.07-3.78-4.09-3.42-5.75.44-2,3-4.25,5.08-5.14A14.56,14.56,0,0,1,714,276c5.93,1.11,11.75,2.78,18.37,4.41.7-2.68,1.81-5.57,2.09-8.54.14-1.44-.87-3.9-2-4.43-12-5.49-24.48-7.71-37-1.85-15.16,7.08-16.59,26.54-2.56,35.68,4,2.65,9,4,13.61,5.69,3.21,1.17,6.93,1.34,9.77,3,2.25,1.34,5.15,4.63,4.81,6.52-.45,2.45-3.79,6.1-6,6.17a97.67,97.67,0,0,1-20.21-1.92c-3.54-.66-6.8-2.87-10.57-4.56-.92,3.85-1.91,7.14-2.39,10.5a4.8,4.8,0,0,0,1.49,3.76c9.71,7.68,33.58,8.83,44.44,2.68C739.83,326.31,745.2,304.88,727.41,295.82Z"/><path class="cls-1" d="M92.24,310.74c-1,.05-2.78,2-2.8,3.11-.23,13.34-.24,26.68-.12,40,0,1.13,1.34,3.18,2.13,3.21,6.75.27,13.52.18,20.26.19,0-16,.07-30.95.1-46.63C105.07,310.62,98.64,310.47,92.24,310.74Z"/><path class="cls-1" d="M111.77,217h-22v45.56h22Z"/><path class="cls-1" d="M124.56,394.62h21.95V348.84H124.56Z"/><path class="cls-1" d="M146.32,254.62H124.63V300h21.69Z"/><rect class="cls-1" x="90.1" y="276.12" width="21.76" height="21.76" transform="translate(-186.23 387.38) rotate(-89.88)"/><path class="cls-1" d="M125.17,317.71a8.4,8.4,0,0,0,0,1.42l0,16.16,21.76,0,.05-21.76-21.76-.05Z"/></svg>