<svg id="Capa_1" data-name="Capa 1" xmlns="http://www.w3.org/2000/svg" viewBox="0 0 792 612"><defs><style>.cls-1{fill:#8d8d8d;}.cls-2{fill:#dadada;}.cls-3{fill:#494949;}.cls-4{fill:#4a4a4a;}.cls-5{fill:#4b4b4b;}.cls-6{fill:#4c4c4c;}.cls-7{fill:#5e5e5e;}.cls-8{fill:#6e6e6e;}.cls-9{fill:#fff;}.cls-10{fill:#d6d6d6;}.cls-11{fill:#666;}.cls-12{fill:#343434;}.cls-13{fill:#4f4f4f;}.cls-14{fill:#696969;}.cls-15{fill:#f8f8f8;}.cls-16{fill:#4e4e4e;}</style></defs><title>programa</title><g id="yuUWOA.tif"><path class="cls-1" d="M177.48,190.08c2.82,1.31,5.92,1.18,8.89,1.74a113.4,113.4,0,0,1,92.56,99.45,187.84,187.84,0,0,1,.75,22.88,14,14,0,0,1-.49,2.53c-.69,3.3-.65,6.71-1.41,10-3.47,17.82-10.14,34.2-21.67,48.42-18.9,23.32-43.13,37.74-72.8,42-37.72,5.38-70.48-5.45-98-32-17.3-16.7-27.12-37.17-31.15-60.65-.17-1.19-1-2.38,0-3.56a10,10,0,0,1-.95-5.28c0-1.26.28-2.58-.58-3.71-.15-3.44,0-6.88-.07-10.31a98.82,98.82,0,0,1,10.25-48.94A111.76,111.76,0,0,1,79,228.45c14.52-16.5,32.07-28.39,53.16-35,6.95-2.18,14.06-2.53,21.2-3,1.06-.08,2.18.33,3.18-.32Z"/><path class="cls-2" d="M52.27,300.87l.57,0,.18,11.3c.21.27.13.46-.18.57l-.57,0Z"/><path class="cls-1" d="M387.57,279.9c6.93,9.2,16.26,16.06,24,24.45a38.32,38.32,0,0,1,4.6,6.26c7.15,11.18,5.69,26.91-2.4,36.07-6.69,7.56-15.42,9.93-25.05,10.09a46.66,46.66,0,0,1-20.42-4.19c-6.33-5.47-6.81-9.68-2.16-16.64,1.16-1.72,2-1,3.16-.22a30.83,30.83,0,0,0,12.52,5.43c5.94,1.06,11.82.87,15.86-4.32,4.26-5.48,4.32-11.73,1.59-18-2.52-5.77-7.41-9.64-11.65-14-4.78-4.93-9.87-9.58-14.51-14.64-6.1-6.65-10-14.25-9-23.7,1.21-10.55,7-17.47,17-20.7a43.85,43.85,0,0,1,28.91.69,15,15,0,0,1,7.36,5.24c.64,2.14,0,4.1-.95,6-1.57,3.21-4,4.23-7.32,2.91A33.86,33.86,0,0,0,396,258.17c-12.17.18-13.76,8.8-11.19,17.38A8,8,0,0,0,387.57,279.9Z"/><path class="cls-1" d="M709.74,322.62c2.8-7.59,3.8-15.64,5.87-23.43,1.6-6,3.08-12,4.38-18.11.63-2.95,2.27-4.19,5.08-4.63,3.08-.49,6.09.11,9.13.27,1.89.1,2,2.81,3.91,3.06-2.65,16.44-8,32.16-12.74,48.05-3.17,10.65-6.34,21.33-10.76,31.55-3.16,7.29-6.52,14.48-12.2,20.35-5.84,6-13.27,9-23,3.1-.65-.58-1.28-1.18-2-1.73-2.07-1.7-1.77-3.75-1-6s2.56-2.43,4.26-2.18c8.78,1.32,13.14-3.45,15.58-11,.24-.73.54-1.43.81-2.15,2.22-6,2.93-11.43.51-18.12-7-19.49-12.44-39.55-19.34-59.12-1.09-3.09.31-4.57,2.81-5.55a22.57,22.57,0,0,1,10-1c2.37.19,3.41,2.44,4.89,4,4.89,13.31,8.52,27,12.13,40.69C708.33,321.54,708,322.94,709.74,322.62Z"/><path class="cls-1" d="M451.62,336.18c3.6,6,9.42,6.26,15.41,5.78a23,23,0,0,0,8.45-2.25c2.6-1.29,4.19-.95,4.95,2,1.85,3.42,1.55,6.28-1.14,9.24-3.77,4.15-8.83,5.26-14.12,5.68a46.65,46.65,0,0,1-22.13-4c-6.22-4.62-10.88-10.41-12.88-18a66,66,0,0,1-.13-35c5.71-20.63,26-30.55,45.37-22.42a16.65,16.65,0,0,1,7,5.18c-.05.78.33,1.49.33,2.26,0,6-2.63,8-8.4,6.55-4-1-7.88-2.62-12.25-1.88-5.11.87-9.07,3.2-11.22,7.94-3.6,8-4.46,16.35-3.48,25,.45,4,1,7.82,2.67,11.46A4.9,4.9,0,0,0,451.62,336.18Z"/><path class="cls-1" d="M503.42,356.06c-2,.87-4.1.51-6.14.42-1.66-.08-4.47-4.24-4.46-6.4.05-11.8.28-23.6.12-35.39-.11-8,.85-15.92,0-23.88a23.16,23.16,0,0,0-1-5.46c-1-2.68.1-4.05,2.37-5.19,3.85-1.92,7.63-3.66,11.42,0,1,1,1.82.16,2.64-.27,3.3-1.72,6.63-3.52,10.3-4.14,5.46-.91,11-1.37,14.79,4.07,2,3.84.39,7.19-1.52,10.43-.89,1.5-2.52,1.45-4.08,1.5-3.44.1-6.89-.7-10.33.21-4.55,1.2-6,2.91-6,7.58-.05,14.19,0,28.38,0,42.57,0,1.53,0,3.06-.06,4.59-.3,4.76-2.72,7.61-7.37,7.86C501.79,354.7,503.45,355.52,503.42,356.06Z"/><path class="cls-3" d="M54.18,324.41c1,1.28,1,2.85,1.43,4.31,12.94,47.88,43.57,77.5,92.35,86.41,34.73,6.33,66-3.36,92.82-26.45,19.18-16.51,31.11-37.43,36.4-62.16,1.64.19.76,1.22.65,2a105.11,105.11,0,0,1-16.61,43,113.36,113.36,0,0,1-175,18.64C69,373.2,58.52,352.52,54.4,328.68,54.17,327.33,52.74,325.89,54.18,324.41Z"/><path class="cls-3" d="M679.41,382.83c4.32,1,8.56,2.63,13.16,1.29,6.22-1.81,10.07-6.35,13.38-11.44a95.16,95.16,0,0,0,9.92-21q11.67-33.93,20.37-68.74c.31-1.23.28-2.7,1.87-3.19a7,7,0,0,1,1,6c-7,26.77-14.11,53.52-24.62,79.2A55.06,55.06,0,0,1,704.59,381c-5.66,6.32-12.87,8.05-20.79,5A8,8,0,0,1,679.41,382.83Z"/><path class="cls-4" d="M611.44,385.44c3.17,0,6.33.25,9.49-.27s4.48-2,4.4-5.32c-.18-8,0-16-.07-23.92,0-2.1.35-2.94,2.82-2.23,16.89,4.85,31.59-2.32,37.64-18.9,5.51-15.11,6.38-30.47.17-45.74a1.92,1.92,0,0,1-.11-1.87c6.48,8.67,7.35,18.73,7,29-.3,8.33-1.57,16.51-5.36,24.1-7.43,14.91-20.84,20.89-36.77,16.18-2.28-.67-2.39.22-2.38,1.91q0,11.3,0,22.6c0,6.17-.27,6.41-6.53,7.27a32.69,32.69,0,0,1-8.15-.18C611.89,387.88,611.33,387,611.44,385.44Z"/><path class="cls-5" d="M503.42,356.06c-1.85-.07-3.7-.13-5.55-.22-.67,0-1.37-.24-1.46-1-.12-1,.65-1.31,1.45-1.37,1.52-.1,3.05-.08,4.57-.18,5.48-.37,7.42-2.32,7.44-7.83.05-15.14,0-30.29,0-45.43,0-7.25,4.16-10.91,11.5-10.11.87.1,1.72.33,2.58.41,6.34.62,7.56-.3,8.79-6.61.25-1.28.46-2.57.69-3.86,2.32,1,2.79,2.89,2.45,5.12a27.89,27.89,0,0,1-.86,3.83c-1.34,4.42-2.2,5-6.83,4.47-4.15-.5-8.23-.9-12.14,1.17a5.38,5.38,0,0,0-3.26,5.41c.14,14.61.06,29.23.06,43.84,0,1,0,2,0,2.95C512.85,354.31,511.24,355.91,503.42,356.06Z"/><path class="cls-4" d="M368.32,352.58c1.26-.7,2.32.18,3.41.53a48.11,48.11,0,0,0,26.51.89c12.72-3.08,20.58-13.14,21.18-26.25.29-6-1.36-11.57-3.23-17.14,3.67,3.37,4.87,7.93,5.61,12.53a34.35,34.35,0,0,1-.58,14c-2.77,10.77-9.84,17.26-20.46,19.86a48.82,48.82,0,0,1-24.91-.6A18.53,18.53,0,0,1,368.32,352.58Z"/><path class="cls-4" d="M451.62,336.18c-1.71.2-1.82-1.36-2.3-2.3-4-7.65-4.17-15.9-3.42-24.22.47-5.22,1.42-10.35,4.38-14.88,4-6.12,10.67-8.44,18.33-6.32.52.14,1,.31,1.55.49,8.52,3,8.51,3,11.44-5.15a9.4,9.4,0,0,1,.81-1.4c2.42,2.26,2.48,5.26.37,9.44-1.43,2.82-3.68,1.7-5.68,1.24-2.54-.57-5-1.6-7.53-2.14-7.82-1.64-14.24,1.61-17.73,8.86-3,6.16-3.49,12.81-3.42,19.47A42.38,42.38,0,0,0,451.62,336.18Z"/><path class="cls-4" d="M387.57,279.9c-4.52-3.25-6.5-9.94-4.68-15.82,1.43-4.65,5.41-7.08,11.55-7.24a29.69,29.69,0,0,1,12.46,2.06c5.18,2.16,7.06,1.24,8.94-4,.4-1.12.57-2.35,1.56-3.18,2.52,2.28,2.52,4.56.16,8.66-1.59,2.77-4,2.85-6.5,1.89-4-1.52-8-2.82-12.33-2.81-11.82,0-17.14,8.66-11.78,19.28C387.14,279.14,387.36,279.51,387.57,279.9Z"/><path class="cls-6" d="M593.25,341.39c-.43.92-1,1.17-1.67.25a5.72,5.72,0,0,1-1.05-3.39c0-6.56-.15-13.12.11-19.66.46-11.45,1.35-22.89-1.75-34.15-.1-.36.16-.82.25-1.23,3.93,4.91,4.5,10.79,4.5,16.69C593.63,313.73,593.39,327.56,593.25,341.39Z"/><path class="cls-4" d="M443,352.6c1.24-.91,2.27.06,3.35.41,8.16,2.61,16.41,3.29,24.72.85,7-2.05,9.13-5,9.32-12.2,1.55-.52,1.81.59,2.18,1.67,1.87,5.46-.45,10.57-6.6,12.58C464.63,359.64,453.49,359.07,443,352.6Z"/><path class="cls-6" d="M709.74,322.62a5,5,0,0,1-.81,3.38c-.61.08-.77-.37-.86-.76-3.17-14.48-7.75-28.57-11.94-42.77-.24-.81-.69-1.63-.17-2.51,1.87,1.68,2.64,4,3.3,6.26Q704.51,304.43,709.74,322.62Z"/><path class="cls-5" d="M547.29,352.58c1.3-.62,2.27.41,3.38.72,7.71,2.13,15.27,2.5,22.39-1.91,2.5-1.55,3.57-.34,4.29,1.89C570.65,359.32,553.89,359.08,547.29,352.58Z"/><path class="cls-5" d="M547.12,294.4c6.27-2.38,12.51-4.88,19.24-5.72a6.52,6.52,0,0,1,6,1.81l-4.16,1.13c-5.06.71-9.78,2.59-14.57,4.26C551.31,296.67,548.53,298.16,547.12,294.4Z"/><path class="cls-5" d="M578.74,353.91c.75-.47,1.46-.11,2.19.07,7.43,1.87,11.74-.32,14.37-7.28a3.8,3.8,0,0,1,.56-.79c2.82,1.24,2.63,6.85-.32,9.08C590.57,358.76,584.44,358.37,578.74,353.91Z"/><path class="cls-7" d="M277.83,328.51c-.22-.66-.44-1.33-.65-2,.88-3.23.52-6.72,2-9.83A42.88,42.88,0,0,1,277.83,328.51Z"/><path class="cls-8" d="M52.84,312.7a2.7,2.7,0,0,0,.18-.57c1,2.83.5,5.85,1.17,8.72C51.83,318.45,53.39,315.4,52.84,312.7Z"/><path class="cls-9" d="M166,406c-56.58,0-102.71-46.16-102.62-102.67s46.42-102.61,102.87-102.61,102.52,46.25,102.47,102.85A102.48,102.48,0,0,1,166,406Z"/><path class="cls-1" d="M670.83,302.87c-.59-5.63-2.82-10.63-5.05-15.68-4.09-5.11-8.81-9.37-15.27-11.28-9.36-2.76-18.12-1.16-26.48,3.59-1,.55-2,1.82-3.2.65-4.06-3.9-8-2.14-12,.11-1.62.92-2.35,2.14-1.76,4.06,1.18,3.92,1.18,8,1.17,12q0,40.14,0,80.3c0,1.74.13,3.49.17,5.23,0,2,.88,3.33,3,3.57,1.78,2,4.27,1.35,6.44,1.49,6.54.41,8.92-1.92,9-8.41,0-6.12,0-12.24,0-18.36,0-5.27.4-5.66,5.51-4.33a26.76,26.76,0,0,0,10.6.54c10.53-1.49,17.61-7.88,22.39-16.87C671.47,328,672.16,315.58,670.83,302.87ZM649.48,329a22.64,22.64,0,0,1-6,10.37,12.23,12.23,0,0,1-7.27,3.41c-5.6.54-7.77-1.42-7.78-6.91q0-19.8-.07-39.59a2.11,2.11,0,0,1,.53-2.37c4-4.59,11.9-5.55,17.19-2.09,3.89,2.75,4.66,7.06,5.09,11.23C652.11,311.74,652,320.47,649.48,329Z"/><path class="cls-1" d="M595.86,345.91l-2.61-4.52c-1.4-.76-1.27-2-1.27-3.37,0-6.79.25-13.57.29-20.36.06-11.57,1.65-23.31-3.13-34.45-2.81-3.22-5.72-6.41-10.08-7.39-12-2.69-23.39-.64-34,5.44-1.24.71-2.41,1.62-2.39,3.28,0,3.95.7,7.62,4.5,9.86,2.56,1.26,4.86,0,7.12-.86a64.94,64.94,0,0,1,11.52-3.11c1.28-.24,2.06-.11,2.42,1.19,5.69.26,5-.59,5.64,5.42.23,2.17,0,4.37.21,6.54s-.74,2.82-2.85,2.78a46.15,46.15,0,0,0-17,3.05c-19,6.89-22.79,30.95-6.92,43.17a1.59,1.59,0,0,1,.93.18,25.83,25.83,0,0,0,24.48.85c1.46-.67,3-1.33,4.65-.33l1.39.63c2.44.61,4.61,2,7.27,2.07C592.32,356.18,597.13,351.38,595.86,345.91Zm-22.71-9c-.56,3.08-8.18,5.87-12.27,4.92a18.32,18.32,0,0,1-2.41-1,13.87,13.87,0,0,1-.47-14.45c2.54-4.92,7.37-6.44,12.43-7.2a2.78,2.78,0,0,1,3,1.21C574.71,325.94,574.15,331.48,573.15,336.91Z"/><path class="cls-4" d="M573.41,320.43c-1.08.11-2.18.15-3.24.35-10.24,2-14.32,8.26-12,18.48.12.53.2,1.07.29,1.61-5.83-4.77-4.79-16.19,1.88-20.34a19.23,19.23,0,0,1,11.21-2.69C573.33,317.91,574.36,318.45,573.41,320.43Z"/><path class="cls-10" d="M136.81,359.57a72.27,72.27,0,0,0-6.3,4.62c-2,1.83-3.07,1.05-4.3-.87-4-6.25-8.09-12.44-12.2-18.63-5.91-8.91-11.78-17.86-17.84-26.68-1.68-2.44-1.57-3.77,1-5.44,11.63-7.48,24.49-11.91,37.66-15.63a308.84,308.84,0,0,1,37.47-7.81c1.08-.16,2.13-.47,3.18-.72,4.07,3,7.26,6.64,8.19,11.83-.71,6.27-3.53,11.73-6.67,17a118.84,118.84,0,0,1-23.33,27.78c-2.18,2-4.08,4.24-6.54,5.88C143.89,354,140.08,356.48,136.81,359.57Z"/><path class="cls-11" d="M182.82,300.24c-1-3.3-3.7-5.43-5.46-8.21-.73-1.16-1.91-2.06-1.86-3.62Q194,273.68,212.55,259c4.89-3.87,10-7.38,16.23-8.78,3.69-.83,7.36-1,10.35,2,4.33,7,3,13.51-3.66,18.61-7.44,5.69-15.7,10-23.85,14.47-9.24,5.1-18.61,10-27.84,15.08A1,1,0,0,1,182.82,300.24Z"/><path class="cls-12" d="M183.38,300.22c.41-1.93,2.19-2.3,3.58-3.07,14.69-8.14,29.88-15.38,43.93-24.67a48.15,48.15,0,0,0,5.49-4.11c5.21-4.62,5.09-10.22,2.75-16.17,5,5.66,4.86,12.08-.33,17.4a51.18,51.18,0,0,1-11,8.11c-13.88,8.17-28.17,15.6-42.38,23.18C184.44,301.51,183.79,301.21,183.38,300.22Z"/><path class="cls-13" d="M183.38,300.22l2,.67c-6.25,21.66-21.23,36.76-38,50.53-.67.23-.83-.09-.72-.68,9.56-8.9,18.79-18.11,26.09-29a70.41,70.41,0,0,0,10-21.46Z"/><path class="cls-14" d="M146.7,350.74l.72.68a63.87,63.87,0,0,1-10.61,8.14C139.51,356,143.36,353.63,146.7,350.74Z"/><path class="cls-15" d="M210.37,268.66c1.41.14,2.43.73,2.43,2.19,0,1.62-1.12,2.32-2.59,2.31a2.15,2.15,0,0,1-2.36-2.2C207.83,269.36,208.91,268.7,210.37,268.66Z"/><path class="cls-15" d="M192.71,280.47c1.6,0,2.66.65,2.66,2.25a2.13,2.13,0,0,1-2.29,2.23,2.2,2.2,0,0,1-2.58-2.27C190.48,281.23,191.42,280.58,192.71,280.47Z"/><path class="cls-15" d="M230.23,258.83a2.46,2.46,0,0,1-4.9.38c-.12-1.44.75-2.19,2.14-2.32A2.29,2.29,0,0,1,230.23,258.83Z"/><path class="cls-16" d="M646.82,292.8c-.08-.3-.06-.71-.26-.9-4.81-4.61-16.51-3.19-20,2.46a4.37,4.37,0,0,0-.54,2.17q0,20.48,0,41a9,9,0,0,0,0,1,1.93,1.93,0,0,0,0,.23,2.85,2.85,0,0,0,.12.27,1.66,1.66,0,0,0,.76,1.19,6.3,6.3,0,0,0,6.32,2.65s-3.86-.4-4.69-6.1h0c.07-11.77,0-23.55.06-35.32,0-1.4-.26-2.85.55-4.15C634.23,292.66,640,290.45,646.82,292.8Z"/><path class="cls-16" d="M565.76,290.43s7.41-1.22,7.48,2.28a9.5,9.5,0,0,0-5.06-1.09C565.45,291.87,565.76,290.43,565.76,290.43Z"/></g></svg>