<svg id="Capa_1" data-name="Capa 1" xmlns="http://www.w3.org/2000/svg" viewBox="0 0 792 612"><defs><style>.cls-1{fill:#595959;}</style></defs><title>programa</title><g id="WVrIrC.tif"><path class="cls-1" d="M73.15,221.74c-2.38.63-4.82,1-7,2.5a13.35,13.35,0,0,1-3.28,1.67c-3.47,1.1-5.88-1.16-5.17-4.73a8.85,8.85,0,0,1,6.88-6.56,17.61,17.61,0,0,0,6.69-2.31,9.33,9.33,0,0,0,3.16-11.94,3.94,3.94,0,0,0-.94-1.06c-1.24-1.09-1.51-2.19-.46-3.46a34.47,34.47,0,0,1,3.64-3.61c2.09-1.89,4.39-3.56,6.28-5.62,2.29-2.49,1.91-4.85-.9-6.81a15.49,15.49,0,0,1-4.46-4,19.09,19.09,0,0,1-1.41-2.38c-1.62-3.51-.42-6.79,3-8.53a12.6,12.6,0,0,1,9.63-.75,7.25,7.25,0,0,1,5.31,8.45,16.08,16.08,0,0,1-.82,3.19c-1.53,4.29.43,7.37,5,7.48,2.55,0,5.1-.32,7.65-.38a31.83,31.83,0,0,1,6,.23c2,.34,2.78,1.59,2.72,3.63,0,1.13-.42,2.24-.5,3.37a2.15,2.15,0,0,0,.44,1.55c2.56,2.43,5.85,3.12,9.17,3.65,3.47.56,7,.94,10.42,1.66,3.24.68,5.46,2.57,5.7,6.18,0,.28.4.75.64.76,4.16.24,7.68,2.13,11.07,4.33a35.35,35.35,0,0,0,12.09,5c5.17,1.09,10.11,3.29,15.14,5.06a39.84,39.84,0,0,1,10.61,5.27,16.11,16.11,0,0,1,5.5,6.46c.43.95.11,1.32-.64,1.76a8.16,8.16,0,0,1-5.88,1c-4-.82-7.92-2-11.9-2.93a55.18,55.18,0,0,0-7.61-1.45c-3.31-.3-5.34,1.39-6.32,4.6s-.42,6.37-.07,9.55c.75,6.79,1.48,13.57,2.27,20.35,1,8.84,2,17.68,3.19,26.49A193.64,193.64,0,0,0,175,320.21c5.1,16.47,13,31.37,24.79,44.06,5,5.39,9.85,10.94,14.9,16.28,6.28,6.64,13.63,11.95,21.32,16.83,17.73,11.25,37.07,18.18,57.71,21.69,2,.33,4,.69,6,.93a2.15,2.15,0,0,0,1.59-.51c2.05-2.13,4-4.33,6-6.51,3-3.32,6-6.76,10-8.91,2.81-1.5,5.66-1.82,8.58-.2a1.45,1.45,0,0,1,.84,1.69,12.81,12.81,0,0,1-2.87,6c-1.14,1.52-2.34,3-3.49,4.49a13.78,13.78,0,0,0-1.17,1.76c-1,1.79-.63,2.69,1.38,2.9a17.63,17.63,0,0,0,6.15,0c3.91-1,7.58-.33,11.32.59,1.53.38,3.06.74,4.61,1,3.93.72,7.09-.67,9.66-3.61.2-.23.41-.45.62-.68a.8.8,0,1,0-.11.06,38.82,38.82,0,0,0,5.24,2.27c3.24.89,6.56.4,9.85.16,2.76-.2,5.53-.5,8.3-.48,4.52,0,6.44,2.69,6,7.2a5.09,5.09,0,0,1-4.23,4.91c-4,1-8,2-12.06,2.9-3.83.86-7.47,2.07-10.5,4.7a1.33,1.33,0,0,1-1.15.17c-4.84-2-9.65-1.56-14.43.18-3.61,1.31-7.19,2.66-10.8,4a35.26,35.26,0,0,1-10.1,1.79c-2.74.14-5.45.9-8.19,1.29-8,1.11-16,2.28-24.08,3.22-4.63.55-9.31.87-14,1s-9.24-.05-13.85-.27c-9.41-.44-18.83-.83-28.22-1.55a190.3,190.3,0,0,1-39.88-7.39A155.19,155.19,0,0,1,156,426.66a176.71,176.71,0,0,1-33.58-25.36c-4.94-4.8-9.22-10.29-13.62-15.62a253,253,0,0,1-27.31-40.62c-6.44-11.9-12.34-24.07-16.52-37-2.16-6.7-3.83-13.56-5.88-20.3-2.23-7.33-4.51-14.64-7-21.87a78.56,78.56,0,0,0-4.38-9.46,17.7,17.7,0,0,1,.21-17.55c3.71-6.7,9.63-10.55,16.76-12.89,2.66-.88,5.19-2.15,7.76-3.26a4.76,4.76,0,0,0,.92-.7ZM139.32,337c4.69.61,7.81,3,9.13,7.52a16.77,16.77,0,0,0,1.18,2.8c.39.77.85,1.84,1.9,1.39s.4-1.52.11-2.19c-1.14-2.63-2.4-5.2-3.59-7.8a11.86,11.86,0,0,1-.43-1.27,2.45,2.45,0,0,1,1.38.7c1.93,1.87,3.95,3.67,5.73,5.67a24.29,24.29,0,0,1,3.55,5c1.21,2.37.41,4.37-1.92,5.68a7.31,7.31,0,0,1-2.09.81c-1.44.31-2.92.49-4.23.7,2,1.63,4.09,3.34,6.19,5,1.85,1.45,3.8,2.9,6.24,2.91a8.25,8.25,0,0,1,5.84,2.65c2.34,2.21,4.35,4.66,4.69,8a2.56,2.56,0,0,1-2.62,3.08,10.46,10.46,0,0,1-6.29-1.61,36.62,36.62,0,0,0-10.38-4.52,14.72,14.72,0,0,0-2.31-.27l-.23.62a60.72,60.72,0,0,0,6.35,3.63c7.13,3,14.38,5.78,21.51,8.81,6.65,2.82,13.38,5.58,18.8,10.58,3.67,3.39,7.21,6.93,10.85,10.44a11.39,11.39,0,0,1-1.48.6,18.28,18.28,0,0,1-10.78-.59,7.45,7.45,0,0,1-1.63-.85c-1.45-1-1.43-2,.06-2.77.59-.33,1.23-.57,1.84-.84a57.88,57.88,0,0,0-7.92-1.38c-1.64-.17-2.15.67-1.37,2.11a9.51,9.51,0,0,0,5.36,5,41.87,41.87,0,0,0,11.42,1.89c2.67.13,5.34.24,8.32.37l-3.2,5.19,3.22.44-1,.74c-1.77,1.29-1.68,2.09.34,3.05a21.93,21.93,0,0,1,3.08,1.5,1.41,1.41,0,0,0,1.65.15c2.9-1.43,4.69-1,6.63,1.59.82,1.08,1.54,2.26,2.42,3.3,1.28,1.51,2.59,1.73,4.16.54,1.25-.95,2.26-2.21,3.43-3.26s2.23-1.82,3.35-2.72l.27.31q-1.92,2.64-3.82,5.29l.4.38c1.46-.87,2.94-1.72,4.37-2.63a15,15,0,0,1,8.92-2.34A39.67,39.67,0,0,1,257,422.65c5.83,1.84,11.18,5.12,17.51,5.56,2.46.17,4.88,1.13,7.29,1.8,3.68,1,6.95-.16,10.15-1.78.23-.12.36-.44.72-.9a31.78,31.78,0,0,0-3.33-1.2c-3.38-.8-6.8-1.43-10.16-2.28a28.23,28.23,0,0,1-5.17-1.93c-1.3-.63-1.35-1.4-.49-2.55A2.41,2.41,0,0,1,274,419a20.89,20.89,0,0,1-14-1.26c-4.41-2.05-7.88-5.28-11.07-8.85a3.83,3.83,0,0,0-1.72-1.07c-2.71-.75-5.48-1.29-8.16-2.13-6.8-2.15-13.27-5-18.9-9.51a31.32,31.32,0,0,1-7.43-8.34c-.4-.66-1.11-1.44.12-2.1.14-.07.16-.67,0-.9a8.32,8.32,0,0,0-1.19-1.57c-2.52-2.59-5.34-4.94-7.53-7.77-3.93-5.08-7.47-10.46-11.18-15.7-.25-.36-.47-.82-.83-1-2.23-1.23-3.74-3.18-5.27-5.12-.36-.45-.8-.85-1.21-1.28l-.38.1-.51,4.68a14.3,14.3,0,0,0-4.15-7.42c-1.56-1.49-3.23-2.94-5.74-2.15a5.5,5.5,0,0,1,2.78-5.33c1.79-1.11,1.76-1.48.35-3.11a7.29,7.29,0,0,1-1.38-2.46c-.58-1.75-.88-3.6-1.5-5.33a197.6,197.6,0,0,1-7.21-24.8,8.86,8.86,0,0,0-1.19-2.19,9.54,9.54,0,0,0-2.09,1.83c-1,1.63-1.82,3.41-2.74,5.18a20.15,20.15,0,0,1,.75-7.48,8.29,8.29,0,0,1,1.2-1.94l1.78,1.18a30.11,30.11,0,0,0,1.19-3.51c.44-2-.63-3-2.58-2.57l-.78.18c.18-.66.33-1.2.47-1.74a18.88,18.88,0,0,0,.35-9.64,2.34,2.34,0,0,0-.77-1.31c-.31-.2-.9,0-1.05.05.09-4.82.29-9.69.2-14.56a27.66,27.66,0,0,0-1.07-6.22c-.4-1.57-1.08-1.85-2.65-1.61a4.12,4.12,0,0,1,.06-.52,50.21,50.21,0,0,0,1.64-15,16.79,16.79,0,0,0-1.7-7.93c-1.25-2.25-2.82-2.81-5.19-1.83-.56.23-1.05.65-1.61.9a19.13,19.13,0,0,1-3.37,1.28c-3,.66-6,1-8.93,1.76-2.55.64-5,1.64-7.79,2.56,2.07,1.51,4.27,2,5.89,4.09-4.57.05-8.51-1.49-12.61-2-.08.3-.16.51-.2.72-.52,2.77-1.66,3.76-4.47,3.89-.57,0-1.15,0-1.72,0l-4.86-.24c2.23,1.29,2.56,2.22,1.29,3.64a11.33,11.33,0,0,1-2.84,2.32c-3.44,1.94-7,3.34-11.08,2a1.19,1.19,0,0,0-.83.15,3.09,3.09,0,0,0-1.76,3.38,11.55,11.55,0,0,0,1.08,3c1,1.79,2.12,3.46,3,5.27,1.07,2.15.91,2.62-.76,4.38-.09.09-.22.19-.23.3-.15,1.79-1.56,1.76-2.81,2-1.57.25-3.14.44-4.69.75a4.36,4.36,0,0,0-3.66,4.11c-.07.73-.07,1.46-.11,2.25-.48-.1-.86-.2-1.25-.25-1.46-.2-2.28.44-2.19,1.88a7.38,7.38,0,0,0,3.27,5.9c.59.39,1.89.58,2.28.23,1.11-1,2.1-.55,3.16-.23,5.9,1.78,8.38,5.11,8.4,11.23,0,2.25.06,4.49,0,6.74,0,.57-.31,1.45-.72,1.63a2.13,2.13,0,0,1-1.78-.44,10.1,10.1,0,0,1-3.59-7,2.84,2.84,0,0,1,2.45-3.24c.34-.08.68-.13,1.41-.27-1.57-1.75-2.89-3.39-4.4-4.81a2.22,2.22,0,0,0-3.43,0c-2,2.16-3.79,4.47-5.74,6.81.76.5,1.41.87,2,1.31A59,59,0,0,1,96,307.2c1.51,1.47,1.15,3-.59,4.21-.38.26-.8.48-1.26.76,5.81,1.39,7.69,4.18,9.49,9.33.45,1.28.85,2.59,1.34,3.85.87,2.26,3.1,2.62,4.67.84a6,6,0,0,1,2.14-1.86c.78-.26,1.79.18,2.83.33-2.12-1.85-4.21-3.65-6.28-5.47-1.65-1.45-3.32-2.9-4.9-4.43a6.06,6.06,0,0,1-.87-1.68,6.54,6.54,0,0,1,1.81-.5,34.22,34.22,0,0,1,3.48.33c-.1-.94-.17-1.81-.3-2.67-.23-1.61-.53-3.21-.71-4.83-.12-1.06-.13-2.17.93-2.85.83-.53,1.73-1,2.7-1.51,0,.36,0,.86,0,1.35-.13,2.72-.37,5.45-.36,8.17a9.72,9.72,0,0,0,1,2.86,11.34,11.34,0,0,0,2.7-1.34c1.32-1.14,2.44-2.52,3.66-3.78a1.71,1.71,0,0,1,2.76-.15,8.27,8.27,0,0,1,1,1c1.18,1.42,2.36,2.83,3.5,4.29a10.85,10.85,0,0,1,1.33,2.11c1.24,2.66-.16,4.79-3,4.36a38.35,38.35,0,0,1-5.89-1.8c-.32-.11-.63-.28-1-.42l-.29.39c1.19,1.21,2.32,2.48,3.59,3.6,1.71,1.52,3.58,2.87,5.28,4.4a7.79,7.79,0,0,1,2.85,6.69,7.88,7.88,0,0,0,1.47,5.05c1.09,1.84,2.31,2.25,4.37,1.62.74-.23,1.48-.49,2.2-.73L137.8,343C139.4,341,138.89,338.91,139.32,337ZM67.7,243.52a25.65,25.65,0,0,0-2.7,1.13c-2.11,1.18-2.69,2.9-1.35,4.86a12.09,12.09,0,0,0,9.93,5.62c2,.07,2.88-1,2.79-3,0-.69-.15-1.37-.23-2,1.37-.18,2.64-.32,3.89-.52,1.87-.31,3.72-.74,5.59-1,1.13-.14,1.52.44,1.24,1.56-.17.65-.41,1.29-.67,2.09,1.17-.27,2.16-.47,3.14-.73,5-1.36,9.46-4,14-6.53,4.24-2.36,8.49-4.75,13.39-5.44,3.57-.5,7.18-.65,10.73-1.2a129.91,129.91,0,0,0,21.26-4.77,46.52,46.52,0,0,1,5.6-2,17.64,17.64,0,0,0,10.85-6.5c1.61-2,2.76-4.34,2.23-7.08-.45-2.4-1.06-2.89-3.49-2.94-12.61-.28-24.93,1.79-37.09,4.87-6,1.51-11.81,3.5-17.66,5.43-8.32,2.73-16.55,5.74-25.14,7.56-1.59.34-3.18.72-4.73,1.21-.55.18-1,.75-1.44,1.15a7.24,7.24,0,0,0,1.31,1.34c.9.55,1.91.91,2.86,1.38.44.22.84.51,1.46.89a13.32,13.32,0,0,0-1.66.83c-.43.32-1,.73-1.07,1.18-.06.29.54.82,1,1.1.92.61,1.91,1.1,2.84,1.69.67.42,1,1.19.23,1.6a6.74,6.74,0,0,1-3.49,1.21,23,23,0,0,1-6.1-1.53c-3.4-1.33-5.19-3.35-4.13-7.53,0-.05-.07-.13-.16-.3l-2.28.45c-4.44.88-8.74,2.14-12.48,4.82-3.16,2.28-4.75,5.26-3.92,9.24.63,3,2.38,5.46,4.25,7.81.13.17.46.17.89.32A18.69,18.69,0,0,1,57,257.5c0-2.8-.37-5.66.07-8.4C57.94,243.59,62.2,241.42,67.7,243.52ZM161,425l-.2.38c.2.17.38.34.59.49s.57.41.87.6c6.95,4.35,14.53,7.34,22.16,10.2,8.79,3.3,17.66,6.38,27,7.59s18.7,2.14,28.07,3.08c14,1.4,27.91,2.2,41.87,0,2.21-.35,4.4-.79,6.61-1.18v-.41c-1.27-.3-2.53-.67-3.82-.89-4.22-.74-8.42-.12-12.62.31-5.23.53-10.45.93-15.48-1.21a3.17,3.17,0,0,0-1.4,0c-4.16.4-8.32,1.21-12.46,1.12-6.1-.13-12.2-.8-18.28-1.4-4.18-.41-8.45-.48-12.36-2.39a40.69,40.69,0,0,0-4.08-1.53c-12.79-4.62-25.83-8.59-37.85-15.15-1.74-.94-3.86-1.18-5.81-1.74l-.14.4a1.8,1.8,0,0,0,.3.37,11,11,0,0,0,1.16.87,107.91,107.91,0,0,0,17.84,8.56,30.89,30.89,0,0,1,3.61,1.87l-.19.41c-.92-.24-1.85-.43-2.74-.73a119.38,119.38,0,0,1-18.33-7.82C163.9,426.09,162.39,425.6,161,425ZM78,328.07l-.45.27a3.85,3.85,0,0,0,.08.47,9.22,9.22,0,0,0,.4,1.26,119.11,119.11,0,0,0,10.83,20.38c7.85,11.48,16.47,22.41,23.82,34.25a61.77,61.77,0,0,0,14.15,15.76c3.21,2.53,6.82,4.55,9.53,7.71.74.87,1.62,1.61,2.45,2.41a18.68,18.68,0,0,0,11.13,4.95c.58.07,1.52-.11,1.75-.5a2,2,0,0,0-.4-1.77c-2.81-3.55-6.2-6.22-10.89-6.78a1.53,1.53,0,0,1-.84-.27c-1.92-1.86-3.84-3.74-5.71-5.66a3.77,3.77,0,0,1-1.09-1.74,5.2,5.2,0,0,1,.44-1.94c-3,.68-5.24-.67-6.94-3.08-1.21-1.73-2.28-3.56-3.43-5.32-.81-1.23-1.62-2.5-3.46-2-.21.06-.5-.12-.75-.2a8.07,8.07,0,0,1-5.1-4.32c-1.06-2.31-1.9-4.74-2.82-7.12a15.38,15.38,0,0,0-5.32-7.4c-1.87-1.3-3.64-2.56-4.09-5a.56.56,0,0,0-.13-.22c-2-2.55-4-5.18-6.08-7.63-3.39-3.9-6.74-7.77-8.88-12.57-1.45-3.24-3.14-6.39-4.89-9.48A47.84,47.84,0,0,0,78,328.07Zm62.55,25.2-.16-.45c-1-.24-1.94-.5-2.91-.71-3.17-.7-6.34-1.41-9.52-2a3.85,3.85,0,0,0-1.44.29,6.66,6.66,0,0,0,.68,1.33,22.41,22.41,0,0,0,1.81,1.76c-1.49-.49-2.59-.88-3.71-1.21a1.16,1.16,0,0,0-1,.11c-.16.16,0,.63,0,.94.14.56.35,1.11.59,1.82l-4.06-.29c1.56,2.33,4,3.26,5.36,5.73l-2.94.05,8.77,6.74-.32.58-6.38-2.62-.27.34a8.25,8.25,0,0,0,1.25,1.54,15.6,15.6,0,0,0,2.47,1.52q6.3,3.17,12.64,6.28c1.81.89,3.64,1.76,5.49,2.58a10.58,10.58,0,0,0,1.8.48l.22-.41L144.7,374c.89-2.06.76-2.73-.89-4.23-.81-.74-1.69-1.4-2.54-2.1-1-.83-1.7-1.73-.68-3-1.89-1.19-3.71-2.33-5.51-3.52-.25-.16-.38-.53-.57-.81a3.65,3.65,0,0,1,1-.41c1.12-.11,2.25-.14,3.63-.21-1.23-.72-2.26-1.21-3.17-1.87-1.08-.79-1-1.61.17-2.24.81-.44,1.71-.73,2.52-1.16C139.31,354.13,139.92,353.67,140.55,353.27ZM128,215.75l.55-.51a36.86,36.86,0,0,0-2.45-3.35c-1.1-1.19-2-2.26-.47-3.72a1.17,1.17,0,0,0,.21-.48c.45-1.23.12-1.8-1.17-1.8a9.51,9.51,0,0,0-2.61.29Q111,209.44,100,212.77c-5.1,1.53-10.2,3-15.28,4.66-1.66.52-3.24,1.29-4.86,1.95L80,220a18.12,18.12,0,0,0,2.06-.36c3.79-1.15,7.54-2.45,11.36-3.48a23.55,23.55,0,0,1,10.58-.76,45.75,45.75,0,0,1,6,2,19.66,19.66,0,0,1-.45-2.88,2,2,0,0,1,.72-1.53,1.63,1.63,0,0,1,1.53.27c1.09,1.07,2,2.33,3,3.42a27,27,0,0,0,3.75,3.43,2.33,2.33,0,0,0,3.33-.85,8.08,8.08,0,0,0,1.14-3.16,26.56,26.56,0,0,0-.15-4.21Zm-10,109a21.59,21.59,0,0,1,1.1,1.92,29.1,29.1,0,0,1,1.47,3.79c.36,1.26-.31,2.06-1.63,2.12a5.09,5.09,0,0,1-1.82-.23c-2.11-.74-4.19-1.59-6.31-2.31a21.53,21.53,0,0,0-3.94-1c-1.46-.19-2.12.64-1.56,2s1.49,2.67,2.21,4a9.34,9.34,0,0,1,.51,1.49l-.34.37c2,.75,4,1.41,6,2.27,4.11,1.79,8.17,3.71,12.27,5.54a33.94,33.94,0,0,0,4,1.43,4.13,4.13,0,0,0,1.5-.12,4.28,4.28,0,0,0-.22-1.47,41.24,41.24,0,0,0-2.37-3.64,5.72,5.72,0,0,0-1.77-1.88,5.82,5.82,0,0,1-2.94-3.4c-.52-1.49-.87-3-1.31-4.56a51.79,51.79,0,0,0-1.69-5.52C120.55,324.1,119.44,323.93,118,324.71Zm39.86,67,1.77-1.63a9.62,9.62,0,0,0-2.23-1.61,98.46,98.46,0,0,0-10.32-3.2,42.18,42.18,0,0,0-8.34-.8c-1.62,0-2.09,1.14-1.12,2.42,1.35,1.75,2.83,3.38,5.27,3.56a3.26,3.26,0,0,1,1.25.39C148.45,393.09,152.91,392.7,157.88,391.72ZM100.82,195.09a4.68,4.68,0,0,0,0,4,15.22,15.22,0,0,0,5.8,7.16,5.62,5.62,0,0,0,4.2,1.23c1.58-.25,2.15-1,1.84-2.53-.18-.86-.51-1.68-.7-2.53-.09-.4-.18-1.11,0-1.19a2.2,2.2,0,0,1,1.35-.07,13.93,13.93,0,0,1,1.76.58l.19-.27a8.78,8.78,0,0,0-1.13-1.36C110.3,196.87,105.28,196.88,100.82,195.09ZM300.37,428.72c2.3-.1,4.43-.28,6.56-.28,3.57,0,7.13.14,10.69.23,3.38.08,6.8.55,10.09-.53a17.24,17.24,0,0,0,3-1.67l-.18-.4-4.72-.33c-5.65-.42-11.3-.95-17-1.18a20.7,20.7,0,0,0-5.95.94A3.26,3.26,0,0,0,300.37,428.72ZM67,299.48a4.56,4.56,0,0,0,0,1.18c.82,2.09,1.55,4.22,2.52,6.23,1.93,4,4,7.81,6,11.76s3.58,8,6.41,11.34c1.31,1.56,2.86,2.91,4.31,4.35l.3-.28a3.43,3.43,0,0,0-.27-.58,37,37,0,0,1-5.15-10.21,31.57,31.57,0,0,0-5.89-11,3.54,3.54,0,0,1-.57-1.17A36.79,36.79,0,0,0,68.77,301,16.68,16.68,0,0,0,67,299.48ZM81.28,175.8a3.66,3.66,0,0,0-.17-.51c-.63-1-1.81-2.1-1-3.14.54-.68,2-.74,3.12-.8,1.89-.1,3.78.07,5.67,0,.91,0,2-.46,1.59-1.55a9.52,9.52,0,0,0-2.45-3.76,4.67,4.67,0,0,0-5.58-.42,6.8,6.8,0,0,0-3.55,6.1A4.36,4.36,0,0,0,81.28,175.8ZM250.49,424.23l-.25-.29c-2,1.77-4.13,3.5-6.1,5.34a3.31,3.31,0,0,0-.68,1.81c-.17,1,.39,1.44,1.31,1a10.38,10.38,0,0,0,1.83-1.28c1.19-.94,1.52-.87,2.09.49a5.62,5.62,0,0,0,.58,1.18,1.05,1.05,0,0,0,.74.36c.83,0,3.51-2.51,3.48-3.34a24.5,24.5,0,0,0-.44-3.92C252.72,424.08,251.92,423.73,250.49,424.23Zm-48.8,10.84-.1.34c4.4,3.21,21.37,6.94,25.13,5.38a13.64,13.64,0,0,0-5.58-2.38c-3-.59-6-.91-9-1.42C208.67,436.39,205.18,435.71,201.69,435.07ZM93.19,265.8l-.11.49c-1.29,0-2.59-.12-3.88-.08a5.8,5.8,0,0,0-1.54.51c.37.44.65,1,1.11,1.3a6.62,6.62,0,0,0,7.5-1.45c1.44-1.57,1.06-3-1-3.73a4.13,4.13,0,0,0-1-.26q-4.14-.16-8.3-.27a2.8,2.8,0,0,0-.78.2l0,.31ZM70.71,296.52l-.49.19a7.43,7.43,0,0,0,.21,1.5c1.44,4.11,2.86,8.22,4.39,12.28a4.75,4.75,0,0,0,3.63,3.34C77.37,307.27,74.33,301.77,70.71,296.52Zm88.47,88.77c.16.37.18.58.3.67a58.51,58.51,0,0,0,6.43,4.71,12.77,12.77,0,0,0,7,1.57,11.2,11.2,0,0,0,2.15-.57c-.62-.47-1.18-1.23-1.86-1.36a18.77,18.77,0,0,1-7.1-2.91,3.64,3.64,0,0,0-.59-.3C163.52,386.28,161.59,385.28,159.18,385.29ZM84.52,207.1l.18.58c1-.21,2-.36,2.93-.65a23.24,23.24,0,0,1,4-1.29c2.39-.22,4.82-.09,7.23-.1l3.17,0,.16-.49A21.51,21.51,0,0,0,99.58,203a3.41,3.41,0,0,0-2.27-.51c-2.8.74-5.57,1.61-8.31,2.57C87.46,205.6,86,206.41,84.52,207.1Zm83.3,178.23,0,.4c2.65,1,5.25,2.17,8,2.93a14.55,14.55,0,0,0,8.4.1,17.82,17.82,0,0,0-3.72-1.05A12.16,12.16,0,0,1,176,386.3,10.78,10.78,0,0,0,167.82,385.33ZM375.11,424.7c-3.8-.92-15,0-16.65,1.34C364.35,427.49,369.71,425.83,375.11,424.7ZM184,224.39c.66,1.46,2,2,3.13,2.58s2.46,1.15,3,2.56c.14.34.68.51,1,.76l.46-.18a9.27,9.27,0,0,0-.21-2.86C190.62,225.09,186.53,223.52,184,224.39Zm-4,182.05c-1.7-2-8.74-4.83-10.4-4.19C170.74,404.6,176.39,406.92,180,406.44Zm81.8,20.42a2.94,2.94,0,0,0-.9-.25,7.14,7.14,0,0,0-5.33,2.8,2,2,0,0,0-.22,1.7c.16.4,1.15.92,1.31.8,1.65-1.3,3.21-2.71,4.77-4.13C261.64,427.61,261.66,427.25,261.81,426.86ZM80.76,267.6a3.74,3.74,0,0,0-.48-.49c-1-.71-3.81-.58-4.61.29-.25.27-.41,1.1-.25,1.22.89.72,1.91,1.81,2.84,1.77s1.62-1.38,2.39-2.18C80.78,268.09,80.73,267.8,80.76,267.6Zm23.54-80.08a5.62,5.62,0,0,0-5.53-.4,1.65,1.65,0,0,0-1.16,2A9.18,9.18,0,0,0,104.3,187.52ZM81,289.4c0-3.1-2.39-4.24-3.81-3.65-.46.19-1.05.67-1.12,1.09a1.53,1.53,0,0,0,.79,1.29C78.1,288.65,79.46,289,81,289.4Zm88.8,105c1.2,2.38,6.68,4.11,8.37,2.83A20.5,20.5,0,0,0,169.76,394.37ZM75.27,281a10.15,10.15,0,0,0,5.17,2.6c.37.08,1-.54,1.32-.93.11-.11-.09-.67-.29-.88C80.52,280.84,76.81,280.3,75.27,281Zm76.86,98.2c1.37,2.13,6.37,4,9,3.39A23.13,23.13,0,0,0,152.13,379.22ZM69.49,290.51a37.66,37.66,0,0,0-1.64-3.83c-.22-.41-1-.53-1.48-.78-.21.57-.65,1.17-.59,1.71C66,289.16,67.25,290.18,69.49,290.51ZM281.13,433.15l-.3-.41a32.5,32.5,0,0,0-3.22,1.49,6.77,6.77,0,0,0-1.82,1.68c-.22.29,0,.89,0,1.35.38-.07.84,0,1.12-.21,1.16-.87,2.28-1.79,3.37-2.74A6.81,6.81,0,0,0,281.13,433.15Zm-20.27-2.28c-1.21.88-2.45,1.73-3.61,2.66a1.14,1.14,0,0,0-.29,1c.13.25.65.39,1,.42C259.39,435.13,261.27,432.93,260.86,430.87Zm3.8,2.8c1.73-.32,3.66-2,3.82-3.38A3.21,3.21,0,0,0,264.66,433.67Zm-55.78-18.41c-1.47-.69-4.29-.24-5.22.84C205.28,417.51,207.47,417.19,208.88,415.26Zm-19.82,1,.54-.42c-.23-.57-.3-1.3-.71-1.67-.89-.82-3-.62-4.29.51ZM148,350.43c-.2-2.26-1.66-3.33-3.43-2.8-.26.08-.66.31-.67.49a1,1,0,0,0,.4.85C145.44,349.49,146.65,349.92,148,350.43ZM92.07,316c1.49,2.2,4.22,1.65,4.76-.42Zm26.34,41.79.22-.45c-1.57-1.47-3.15-2.95-5.49-3l-.27.52ZM271,433.6l-.55-.63c-.95.64-1.93,1.24-2.83,1.95a1,1,0,0,0-.07,1c.17.24.85.48,1,.36C269.38,435.45,270.17,434.51,271,433.6ZM109.31,352.14c-.44-2.33-2.42-3.76-4.46-3.18ZM178.59,426l.61-.13.5-2a9.21,9.21,0,0,0-1.85-.28c-.35,0-.68.44-1,.68Zm-17.21-12.27c1.76.87,3.81.76,4.36-1.46ZM65.26,256.07c-1,.2-1.83.34-2.66.58a.87.87,0,0,0-.48.68c0,.21.34.46.59.59C64,258.59,64.91,258,65.26,256.07Zm126.08,177c1.1.31,1.93.6,2.79.75.26,0,.83-.3.83-.47a1.32,1.32,0,0,0-.44-1A2.64,2.64,0,0,0,191.34,433.06ZM140.9,380l0-.47-5.34-.78-.06.43C137.29,379.75,138.91,381,140.9,380Zm36.26,32.22v.47c2.25,1.21,3.27,1.2,4.44-.36Zm-33.62-31.29-.12.37c1.71,1.44,3.32,1.85,4.58.77Zm20.25,23.41-.2.67c1,.3,1.94.66,2.93.87.18,0,.58-.48.68-.81.05-.14-.37-.62-.61-.64C165.66,404.34,164.73,404.37,163.79,404.35Zm56.81-13.06.33-.53c-.24-.69,0-1.82-1.17-1.72-.43,0-.8.95-1.19,1.46Zm90.57,21.37-.17-.4a3.75,3.75,0,0,0-1.39.07,6.48,6.48,0,0,0-1.33,1c.57.26,1.22.81,1.69.69S310.78,413.15,311.17,412.66Zm-236-121.61,4.23,1.79A3,3,0,0,0,75.19,291.05Zm7.69-20.13-.06.69a14.57,14.57,0,0,0,2.3.64c.23,0,.62-.5.77-.85.06-.14-.34-.69-.54-.69C84.53,270.71,83.71,270.84,82.88,270.92Zm-1.26,4.21.31-.32a13.53,13.53,0,0,0-.66-1.78,2,2,0,0,0-1.1.36,4,4,0,0,0-.55,1.21ZM272,434.76l.2.34c1.81-.08,2.95-1.19,3.94-2.52l-.24-.36ZM109.53,362.81l.26-.25a8.12,8.12,0,0,0-3.84-3.44l-.29.33Zm182.29,82.54c1.67,1.5,2.7,1.21,3.08-.72ZM181.71,403.57l.35-.5c-.4-.35-.75-.9-1.21-1a6.32,6.32,0,0,0-1.91.17v.61Zm63,22.07-.22-.35-3.54,2.48C242.73,427.9,243.7,426.77,244.67,425.64Zm92.92-.39-.54-.23-1,2c.4.09,1,.4,1.18.25A1.49,1.49,0,0,0,337.59,425.25ZM112.1,318.14a4.81,4.81,0,0,0-.09-1.27,6,6,0,0,0-.75-1.08c-.26.2-.74.4-.73.6a2.4,2.4,0,0,0,.41,1.37C111.13,318,111.64,318,112.1,318.14Zm94.11,102.4,0-.45-6-.22,0,.47Zm20.19,14.18c2.24-.5,2.57-1.07,1.56-2.62Zm127-11.08-.83-.15c-.2.64-.41,1.28-.62,1.92.4,0,1.07.1,1.14-.05A7.37,7.37,0,0,0,353.38,423.64Zm-125.5-26.8c-.89-1.78-1.89-2-2.91-.68ZM104.8,340l.06.81,2.1-.09,0-.95Zm219.47,64.81-.86-.4a9.43,9.43,0,0,0-.63,1.56c0,.14.53.39.81.59Zm-177.38-9.2-.18.51,3.28,1.12.17-.49ZM92.58,308.78l-3.11.32C91,310.06,91.23,310,92.58,308.78Zm9.12-55.92.1.51c.39.06.91.29,1.14.13s.36-.75.53-1.14l-.31-.27Z"/><path class="cls-1" d="M129.44,307.9c-1-2.27-2-4.54-3-6.82-.48-1.12-1.42-2.11-1.11-3.9a24.48,24.48,0,0,1,2.87,2.2c2.82,3,5.6,6,8.29,9,1.11,1.27.87,1.64-.53,2.54a2,2,0,0,0-.71,1.57c.07.8.48,1.58.59,2.51-.51-.47-1-1-1.54-1.41-1.08-.88-1.7-.8-2.56.27-1.37,1.7-1.88,1.71-3.35,0-2.68-3.07-3.91-6.87-5.21-10.61a44.66,44.66,0,0,1-1.36-5.76,4.79,4.79,0,0,1,.12-1.83,55.51,55.51,0,0,0,7,12.39Z"/><path class="cls-1" d="M150.62,298.19c2.29-.51,2.92,0,2.9,2.17,0,1.28-.11,2.55-.14,3.82s.38,2,2,2.14a54.75,54.75,0,0,1-1.38,5.34c-.51,1.41-1.61,1.53-2.29.24-1.29-2.48-3.77-4.17-4.32-7.13a25.69,25.69,0,0,1-.16-10,4.79,4.79,0,0,1,.5-1.35c.45-.8,1-.86,1.43,0a30.1,30.1,0,0,1,1,3C150.37,297,150.47,297.56,150.62,298.19Z"/><path class="cls-1" d="M155,261.88c2.12-2.84,1.26-6.4,3.45-9.26a7.8,7.8,0,0,1,.23,1.38,26.22,26.22,0,0,1-2.58,10.29c-.51,1.06-1.14,2.34-2.54,2.17s-1.95-1.39-2.29-2.63a16.37,16.37,0,0,1,.22-8,32.53,32.53,0,0,1,1.8-5.22c.2-.47.87-.74,1.33-1.11.31.45.83.88.89,1.36a13.5,13.5,0,0,1,0,3.36c-.21,1.95-.6,3.89-.85,5.84A7.45,7.45,0,0,0,155,261.88Z"/><path class="cls-1" d="M98.81,287.82l5.65,3.19c-.06-2.46-1.92-3.72-2.83-5.51.1-.05.2-.12.23-.1a31.86,31.86,0,0,0,5.61,3.09,5.13,5.13,0,0,1,2.39,6.56c-.73,1.71-2.38,2.43-3.7,1.22-2.65-2.43-5-5.14-7.51-7.74-.08-.07-.06-.24-.08-.36Z"/><path class="cls-1" d="M122.69,287a13.9,13.9,0,0,1-1.83-.26c-2.85-.85-5.71-1.69-8.53-2.62-2.41-.79-3.35-3-4.39-5-.37-.72.12-1.25.93-1.06a11.34,11.34,0,0,1,3.11,1c3.06,1.79,6.08,3.68,9.06,5.62a11.82,11.82,0,0,1,1.86,1.88Z"/><path class="cls-1" d="M113.3,264.43c.55.76,1.17,1.49,1.65,2.31A9.09,9.09,0,0,0,119,270a23.24,23.24,0,0,1,2.28,1.31,5.08,5.08,0,0,1,.87,1.06l-1.1.83c-.17.12-.37.21-.62.35l3.11,3.14-.31.42c-3.14-.68-5.71-2.5-8.26-4.38C115.8,269.62,114.12,267.15,113.3,264.43Z"/><path class="cls-1" d="M102.87,281.75a8.19,8.19,0,0,1,1.94.55c2.58,1.47,5.13,3,7.68,4.54a1.13,1.13,0,0,1,.4.35c.33.52.63,1.07.94,1.61a6.84,6.84,0,0,1-1.81.36,5.86,5.86,0,0,1-4.29-1.9c-1.25-1.4-2.76-2.57-4.12-3.88a8.35,8.35,0,0,1-1-1.32Z"/><path class="cls-1" d="M203.63,384.82c-3.15-.91-7.47-7.62-6.67-10.22C199.25,375.66,204.41,382.13,203.63,384.82Z"/><path class="cls-1" d="M124.62,281.85,111,277.09c2.77-1.14,12.09,2,13.83,4.34Z"/><path class="cls-1" d="M173.5,342.05c-.77-2.13-1.59-4.25-2.28-6.4-.13-.38.24-.93.37-1.4.44.23,1,.35,1.3.7,1.66,2.1,1.71,4.48,1.26,6.93Z"/><path class="cls-1" d="M122.5,305.22l-.39,2.59a12.5,12.5,0,0,1-2-1.43,2,2,0,0,1-.53-1.58c.13-.48,1-1.24,1.17-1.15A8.48,8.48,0,0,1,122.5,305.22Z"/><path class="cls-1" d="M124,266.91a9.55,9.55,0,0,1,0,1.26,1.37,1.37,0,0,1-.39.59,14.14,14.14,0,0,1-2.44-1.73,2.7,2.7,0,0,1,1-1.64C123.3,264.91,123.51,266,124,266.91Z"/><path class="cls-1" d="M187.35,362.75c1.52.14,3.75,2.37,3.7,3.41,0,.2-.27.56-.38.55-.55-.07-1.35-.06-1.56-.4A31.09,31.09,0,0,1,187.35,362.75Z"/><path class="cls-1" d="M160.74,300.33c0-2.62-.18-5.25.88-7.92C162.49,294,162.11,297.49,160.74,300.33Z"/><path class="cls-1" d="M158.61,297.35c-1-1.88-.13-3.75,0-5.62h.54l0,5.61Z"/><path class="cls-1" d="M115.57,292.16a6,6,0,0,1,2.88,3.42C116.93,295.77,116.33,295,115.57,292.16Z"/><path class="cls-1" d="M114.3,304.56c-1.44-.86-1.69-2.38-.63-3.88A3.69,3.69,0,0,1,114.3,304.56Z"/><path class="cls-1" d="M178.93,350.57l.19,4.09C177.39,353.4,177.34,352.14,178.93,350.57Z"/><path class="cls-1" d="M140.57,297c-.12-1.47-.23-2.93-.35-4.4l.44-.05a8.16,8.16,0,0,1,.51,4.4Z"/><path class="cls-1" d="M151.34,280.27l-2-4.14.44-.22c.71,1.35,1.43,2.69,2.15,4Z"/><path class="cls-1" d="M134.46,331.15c.43.25,1,.39,1.24.76s.08,1,.1,1.48l-.48.14-1.21-1.91Z"/><path class="cls-1" d="M167.25,316.3l.17,3-.61,0-.14-2.94Z"/><path class="cls-1" d="M113.68,293.12c-.2.42-.32,1-.65,1.23s-.76-.2-1.15-.32l0-.41,1.4-.87Z"/><path class="cls-1" d="M91.16,241.09c.5-2.65,1.57-3.87,3.37-3.89a3,3,0,0,1,1.15.18,9.52,9.52,0,0,1,5.64,5.39,1.47,1.47,0,0,1-.06,1.32,1.59,1.59,0,0,1-1.32.11,12.26,12.26,0,0,1-2.16-1C95.71,242.11,93.72,240.74,91.16,241.09Z"/><path class="cls-1" d="M145.3,221.44c.46,2.23-.47,3.46-2.63,3.35-3.85-.18-4.65-1.21-3.87-5,.48-2.33,2.1-3,3.9-1.42A25.63,25.63,0,0,1,145.3,221.44Z"/><path class="cls-1" d="M107.84,230.1c2.81-3.75,14.68-6.12,17.82-3.65a10.48,10.48,0,0,1-1.75,1.06c-1.36.48-2.77.85-4.17,1.21a1.22,1.22,0,0,1-.85-.15c-1.89-1.14-3.77-.86-5.67,0a30.92,30.92,0,0,1-2.91,1.23A15.3,15.3,0,0,1,107.84,230.1Z"/><path class="cls-1" d="M103.28,236.78c-1.65.22-3.43.63-4.92-1-.91-1-.84-2.08.42-2.62s4.91.59,5.65,1.94C105,236.12,104.23,236.45,103.28,236.78Z"/><path class="cls-1" d="M148.07,224.54c-.18-.43-.54-.87-.49-1.28.23-2,2.88-4.51,4.86-4.6a4.91,4.91,0,0,1,1.51.48c-.29.44-.48,1.06-.89,1.28a12,12,0,0,1-3.05,1.16c-.83.16-1.1.44-1.07,1.26a6.51,6.51,0,0,1-.33,1.6Z"/><path class="cls-1" d="M94.13,233.52c-.09,1.84-1,2.3-2.7,1.54Z"/><path class="cls-1" d="M106.76,232.37c-1.14-1.06-1.08-1.27.62-2Z"/></g><path class="cls-1" d="M676.71,323.59l28-23.78-1-2.34c-2.46-.75-5.11-1.16-7.32-2.37-1.67-.91-2.79-2.83-4.15-4.31,1.65-1,3.3-2.82,5-2.83,12.33-.07,24.67,0,37,.59,2.24.11,4.37,2.61,6.56,4-1.92,1.42-3.72,3.9-5.76,4.1-13.86,1.38-24.36,8.78-33.66,18.26-1.18,1.19-1.63,4.89-.69,6.08,9.23,11.78,18.43,23.63,28.56,34.61,2.9,3.13,8.89,3.33,13.34,5.17,1.93.8,3.55,2.34,5.32,3.54-1.78,1.63-3.39,4.42-5.35,4.68a141.86,141.86,0,0,1-22.08,1.34c-2.48-.06-5.54-2.24-7.23-4.35-7.84-9.79-15.19-20-23-29.84-1.74-2.22-5.62-5.68-6.45-5.18-3.52,2.14-7.86,5.09-8.88,8.61-1.36,4.69-.38,10.29.57,15.31.4,2.1,3.09,4,5.14,5.47,1.28.89,3.52.3,5,1a75.06,75.06,0,0,1,7.26,4.72c-2.68.86-5.32,2.33-8,2.48-10.32.58-20.66.74-31,1-2.41.07-4.83,0-9.8,0,2.52-3.61,3.52-6.75,5.39-7.4,6.33-2.18,8.12-7,8.14-12.64q.19-48.1,0-96.21c0-7-2.85-12.27-10.07-14.67-1.76-.59-3-2.79-4.44-4.25,1.56-1.42,2.91-3.21,4.71-4.2,5.59-3.07,11.41-5.73,17-8.73,6.83-3.65,9.54-2.12,9.5,5.61q-.19,31.08-.39,62.15c-.06,11,0,22,0,33Z"/><path class="cls-1" d="M325.41,304.3c0,16.82-.3,32.61.29,48.36.1,2.62,3.62,5.89,6.37,7.42s6.78,1.08,10,2.2c1.65.57,2.76,2.68,4.12,4.1-1.51,1-3,2.8-4.54,2.9-4.91.29-9.85-.15-14.79-.14-9.58,0-19.18.34-28.76.18-2.07,0-4.12-1.55-6.17-2.39,1.57-1.52,2.93-4,4.75-4.41,8.26-1.87,9.5-8.62,9.58-14.83.38-31.33.27-62.67.11-94,0-6.76-4-11.22-9.82-14.59-2.05-1.19-3.07-4.16-4.56-6.31,2.43-.41,4.85-1.17,7.28-1.18,25.4-.1,50.8-.08,76.2-.1h10.71c-.55,8.61-.95,16.62-1.69,24.6-.12,1.29-1.68,3.29-2.78,3.44-1.29.18-3.25-1-4.14-2.14-1.46-1.93-2.3-4.33-3.39-6.53a15,15,0,0,0-13.61-8.72c-9.86-.38-19.73-.23-29.6-.42-4-.08-5.7,1.38-5.65,5.62q.29,21.09,0,42.19c-.06,4.36,1.78,5.67,5.75,5.43,6.88-.42,13.78-.94,20.67-1,5.39,0,8.12-2.51,9.19-7.59.7-3.3-.18-8.58,5.68-7.34,6.11,1.29,2.17,5.91,2.09,9.09-.24,9.36-.52,18.72-1.16,28.06-.13,1.95-1.91,3.79-2.93,5.68-1.54-1.6-3.82-2.93-4.5-4.83-3.85-10.77-5.72-12.42-16.89-12.76C337.6,304.17,332,304.3,325.41,304.3Z"/><path class="cls-1" d="M532.78,326.16c0,7.15.17,14.3,0,21.45-.19,6.26,2.49,8.27,8.59,7.52,2.49-.31,5.2,1.21,7.81,1.9-1.62,2.21-2.85,5-5,6.49a41.49,41.49,0,0,1-10.48,5.3c-4.65,1.61-9.36,1.51-12.57-3.14-2.65-3.83-5.5-3.48-9.43-1.74a90.28,90.28,0,0,1-18,6.23c-11.28,2.34-21.07-3.31-24.27-13.08-3.14-9.61.55-18.29,11.51-23.27,8.42-3.82,17.5-6.29,26.46-8.75,9.23-2.54,10.57-4.38,9.5-16.47-.69-7.82-5.28-12.53-12.37-13.26-5.49-.56-8,2.8-10.22,6.85-3,5.41-6.72,10.11-13.65,9.35-2.29-.25-5.44-1.88-6.27-3.74s-.2-5.51,1.16-7.36c7.63-10.34,34.17-17.69,46.22-13.17,8.07,3,10.91,9.53,11.19,17.44.26,7.14.06,14.3.06,21.45Zm-15.87,17.3c0-2.71.46-5.54-.17-8.09-.4-1.64-2.93-4.32-3.64-4.07-7.75,2.73-16.12,4.79-22.72,9.35s-3.84,15.11,3.6,17.84C506,362.9,516.73,355.89,516.91,343.46Z"/><path class="cls-1" d="M435.81,288c0,19.48,0,39,0,58.45,0,10.45,2.05,12.7,12,15.51,2.36.67,4.27,2.93,6.39,4.45-2.45,1-4.88,2.75-7.37,2.85-11.08.46-22.18.57-33.27.46-2,0-4-1.61-6.06-2.48,1.28-1.62,2.25-4.14,3.88-4.68,6.5-2.17,7.59-7.22,7.6-12.89.06-30.84.11-61.69,0-92.53,0-8-2.07-15.17-10.93-18.22-1.36-.47-3.37-2.61-3.14-3.46a7.55,7.55,0,0,1,3.55-4.16c6.05-3.27,12.29-6.17,18.43-9.27,6.9-3.49,8.84-2.44,8.87,5.29C435.86,247.54,435.81,267.76,435.81,288Z"/><path class="cls-1" d="M568,343.62c2.24,2.53,4.1,4.36,5.64,6.42,7.59,10.17,18.21,12.21,29.68,10.06,3.08-.57,7.14-4.48,7.71-7.44s-1.71-8.08-4.35-9.84c-7.12-4.73-15.16-8-22.7-12.16-7.92-4.35-15.18-9.17-15.52-19.77-.38-11.93,5.55-21.74,17.63-23.64,10-1.57,20.43-.39,30.63.29,1.94.13,4.12,3.39,5.35,5.66a17,17,0,0,1,1.52,7.16,74.7,74.7,0,0,1-.49,8.56c-2.71-1.43-6.22-2.21-8-4.39-6-7.36-13.45-11-22.68-9.06-3.3.67-7.38,3.23-8.8,6.08-2.13,4.29.08,8.86,4.51,11.2,8,4.24,16.41,7.83,24.41,12.14,12.24,6.6,16.09,14.28,13.86,26.36-1.74,9.47-9.64,17.21-21.64,18-11.11.69-22.46-.49-33.54-2.07C564,366.11,562.14,353.8,568,343.62Z"/></svg>