<svg id="gris" xmlns="http://www.w3.org/2000/svg" viewBox="0 0 792 612"><defs><style>.cls-1{fill:#6d6d6d;}.cls-2{fill:#515151;}.cls-3{fill:#bcbcbc;}.cls-4{fill:#fff;}.cls-5{fill:#949494;}.cls-6{fill:#959595;}</style></defs><title>Tema</title><g id="N5UUrR.tif"><path class="cls-1" d="M152.82,310.65v-7.09c.35-2.12.37-4.26.59-6.38a27.1,27.1,0,0,1,3.67-10.63c11.31-19.89,22.84-39.66,34.27-59.48q17.27-30,34.55-59.89,14.63-25.34,29.25-50.67C258,111.6,261,106.89,265.26,103a42.35,42.35,0,0,1,18-10,36.94,36.94,0,0,1,9.57-.85H496.05c15.56-.16,26.88,7.44,34.88,20.06,7.54,11.88,14.21,24.31,21.25,36.5l26.11,45.23q18.47,32,36.91,63.95c5.5,9.54,11.15,19,16.44,28.67a34.68,34.68,0,0,1,4.48,15.91,93.62,93.62,0,0,1-.28,12.87c-.59,5.32-2.83,10.1-5.47,14.69l-47.54,82.38q-21.47,37.21-43,74.42c-2.84,4.93-5.59,9.92-8.59,14.76A43.5,43.5,0,0,1,501.9,522.1c-3.76.77-7.63.61-11.45.61q-95.94,0-191.88,0c-4.29,0-8.63.17-12.85-.83-12.52-3-22.18-9.92-28.68-21-9.83-16.79-19.47-33.68-29.2-50.52l-25.23-43.7q-17.43-30.15-34.82-60.31c-3.7-6.43-7.52-12.79-11-19.31A31.21,31.21,0,0,1,153,312.22C153,311.7,153.15,311.15,152.82,310.65Z"/><path class="cls-2" d="M472.26,255.25l-160.73,8.39v24.53l4.81,8.59,24.57,20.66-29.4,11.41L317.42,359,508.87,520.15s16.07-.11,35-40.23L610.48,364.5l2.39-4.14Z"/><path class="cls-3" d="M292.1,92.28c0-.1,0-.19,0-.29H496.61a2.54,2.54,0,0,0,0,.29l-4.83,0H293.55C293.07,92.33,292.58,92.3,292.1,92.28Z"/><path class="cls-4" d="M394.23,296.77H318.44c-.7,0-1.4,0-2.1,0-2.9-.11-4.78-1.87-4.8-4.77q-.07-16,0-31.93a4.6,4.6,0,0,1,4.64-4.8c.53,0,1.07,0,1.61,0h153c.49,0,1,0,1.45,0,3,.16,4.67,1.84,4.78,4.8.07,1.93,0,3.87,0,5.81q0,12.57,0,25.15c0,4.16-1.61,5.76-5.76,5.76Z"/><path class="cls-4" d="M394.26,317.43h75.95c.7,0,1.4,0,2.09,0a4.51,4.51,0,0,1,4.73,4.65c.09,2.31,0,4.63,0,6.94q0,12,0,24c0,4.33-1.59,5.91-6,5.91H317.42c-4.24,0-5.9-1.66-5.91-5.83q0-14.91,0-29.83c0-4.24,1.62-5.87,5.83-5.87Z"/><path class="cls-5" d="M448.24,266.74A9.2,9.2,0,0,1,457.6,276a9.3,9.3,0,0,1-9.24,9.39,9.31,9.31,0,1,1-.12-18.61Z"/><path class="cls-6" d="M448.48,347.47a9.32,9.32,0,1,1,9.48-9.3A9.2,9.2,0,0,1,448.48,347.47Z"/></g></svg>