<svg id="gris" xmlns="http://www.w3.org/2000/svg" viewBox="0 0 792 612"><defs><style>.cls-1{fill:#707070;}</style></defs><title>Tema</title><path class="cls-1" d="M88.1,347.22H56.4c-1.77,0-1.77,0-1.77-1.82,0-3.3.06-6.6,0-9.89,0-1.32.31-1.71,1.67-1.7,17.58.05,35.16,0,52.74,0a29,29,0,0,0,7.19-.8,11,11,0,0,0,5-2.74,6.55,6.55,0,0,0,2.25-5.13c-.09-3.21-.15-6.43,0-9.63.17-3.47-1.71-5.5-4.47-7a19.55,19.55,0,0,0-6.75-1.64,92.73,92.73,0,0,0-10.14-.26c-6.55-.11-13.1.31-19.64-.27-6.8-.6-13.35-2.18-19.26-5.78a20,20,0,0,1-5.77-5.15,12.59,12.59,0,0,1-2.63-7.85c0-3.78.06-7.56,0-11.34-.13-8.59,4-14.37,11.66-17.9a40.15,40.15,0,0,1,16.86-3.66c19.91-.05,39.82,0,59.74-.08,1.08,0,1.45.32,1.43,1.42-.06,3.39,0,6.77,0,10.16,0,1.73,0,1.74-1.74,1.74q-27.11,0-54.2,0a34.63,34.63,0,0,0-8.36.93c-3.56.9-5.27,3.07-5.3,6.72,0,3.16,0,6.33,0,9.49a8.56,8.56,0,0,0,6.64,8.61,25,25,0,0,0,6.78.78h23.74a46.05,46.05,0,0,1,21.53,4.8A22.16,22.16,0,0,1,141,305.1a11.88,11.88,0,0,1,2.71,7.67c0,4.35-.09,8.71,0,13.05.14,6.28-2.55,11-7.62,14.49A38.81,38.81,0,0,1,116,347C106.07,347.56,96.13,347.07,88.1,347.22Z"/><path class="cls-1" d="M268.79,290.56V256.41c0-1.72,0-1.73,1.74-1.73h16.61c1.69,0,1.69,0,1.69,1.77q0,33,0,65.92c0,.75,0,1.5,0,2.24.23,4.09,2.13,6.6,6,7.93a28.34,28.34,0,0,0,9.23,1.28q25.84,0,51.69,0c1.88,0,1.88,0,1.88,1.82,0,3.43,0,6.86,0,10.29,0,1-.33,1.28-1.29,1.28-17.18,0-34.37.06-51.55-.06a62.57,62.57,0,0,1-21-3.31,31.25,31.25,0,0,1-5-2.32,18.89,18.89,0,0,1-10-17.23c-.07-11.25,0-22.5,0-33.75Z"/><path class="cls-1" d="M262.66,359.74l-17.22-15.55c-1.13-1-1.13-1,.27-1.69,4.92-2.29,8.45-5.79,9.77-11.21a29.41,29.41,0,0,0,.69-6.94q0-23.53,0-47.07a24.2,24.2,0,0,0-.18-3.41c-1-7.37-5.4-12.12-11.93-15.09a46.38,46.38,0,0,0-19.09-4q-18.66-.12-37.32,0a45.24,45.24,0,0,0-20,4.48c-7.17,3.58-11.08,9.36-11.11,17.44-.07,16,0,31.91,0,47.87,0,9,4.26,15.26,12.41,18.93a42,42,0,0,0,16.56,4c12.7.22,25.4.29,38.06-.91a2.55,2.55,0,0,1,2.13.73c4.68,4.27,9.39,8.49,14.07,12.75a3.22,3.22,0,0,0,2.34.94c6.72,0,13.45,0,20.17,0a2.25,2.25,0,0,0,1.57-.33C263.34,360.28,263,360,262.66,359.74Zm-25.22-36.07a9.25,9.25,0,0,1-4.19,7.93,1.27,1.27,0,0,1-1.92-.13c-4.21-3.86-8.48-7.65-12.69-11.51a3.17,3.17,0,0,0-2.35-.91c-6.77,0-13.54,0-20.31,0h-1.17c-.05.09-.09.19-.14.29l8,7.23,8,7.19c-.33.46-.67.35-1,.35q-9,0-18.07,0a17.83,17.83,0,0,1-6.8-1.37,10,10,0,0,1-6.63-9.75c-.12-14.85,0-29.71,0-44.57a8.76,8.76,0,0,1,5.11-8.14,18.26,18.26,0,0,1,8.64-2q16.1-.09,32.18,0a17.05,17.05,0,0,1,8.38,2,9,9,0,0,1,5,8.34Q237.4,301.12,237.44,323.67Z"/><path class="cls-1" d="M453.08,287.94A33.13,33.13,0,0,1,466,274.86a37.54,37.54,0,0,1,18.79-4.69q12.88,0,22,6.8a32.64,32.64,0,0,1,12.26,18.54H499.74a15.66,15.66,0,0,0-6.13-6.9,17.24,17.24,0,0,0-9-2.37,16.83,16.83,0,0,0-13.19,5.67q-5,5.65-5,15.14t5,15.14a16.85,16.85,0,0,0,13.19,5.66,17.24,17.24,0,0,0,9-2.37,15.66,15.66,0,0,0,6.13-6.9H519.1a32.42,32.42,0,0,1-12.26,18.49q-9.16,6.75-22,6.74A37.53,37.53,0,0,1,466,339.13a33.2,33.2,0,0,1-12.93-13,41.63,41.63,0,0,1,0-38.16Z"/><path class="cls-1" d="M566.79,343.3l-15-27.29h-4.22V343.3H529.91V271h29.56a32.59,32.59,0,0,1,14.58,3,20.7,20.7,0,0,1,9,8.19,22.87,22.87,0,0,1,3,11.59A21.5,21.5,0,0,1,582,306.63q-4.07,5.67-12,8l16.69,28.63Zm-19.26-39.76h10.91c3.23,0,5.65-.78,7.27-2.37a8.94,8.94,0,0,0,2.42-6.69,8.67,8.67,0,0,0-2.42-6.49q-2.43-2.37-7.27-2.37H547.53Z"/><path class="cls-1" d="M614.37,271v43.26q0,6.48,3.19,10t9.38,3.5q6.16,0,9.47-3.5t3.3-10V271h17.61v43.15q0,9.69-4.12,16.38a26.4,26.4,0,0,1-11.07,10.09,34.8,34.8,0,0,1-15.5,3.4,33.87,33.87,0,0,1-15.3-3.35,24.91,24.91,0,0,1-10.66-10.09q-3.92-6.75-3.91-16.43V271Z"/><path class="cls-1" d="M716.75,275.53A32.44,32.44,0,0,1,730,288.25,40.33,40.33,0,0,1,730,326a32.22,32.22,0,0,1-13.29,12.77,42.12,42.12,0,0,1-19.93,4.53H669.68V271h27.08A42.11,42.11,0,0,1,716.75,275.53Zm-5.57,47.07q5.57-5.46,5.57-15.45t-5.57-15.55Q705.63,286,695.63,286h-8.34v42h8.34Q705.62,328.06,711.18,322.6Z"/><path class="cls-1" d="M420.78,315.35H403.87v17.29H388.13V315.35H371.22V300.48h16.91V283.09h15.74v17.39h16.91Z"/></svg>