<svg id="gris" xmlns="http://www.w3.org/2000/svg" viewBox="0 0 792 612"><defs><style>.cls-1{fill:#ececec;}.cls-2{fill:#a7a7a7;}.cls-3{fill:#8d8d8d;}.cls-4{fill:#515151;}</style></defs><title>Tema</title><g id="_1d4hXh.tif" data-name="1d4hXh.tif"><path class="cls-1" d="M624.88,271.62c-2.28-13.14-5.09-26.12-11.28-38.1-8.82-19.47-22.74-33-44.13-37.81h0a11,11,0,0,0-2.58-.63c-13.83-.08-27.66-.1-41.48-.17-2.39,0-3,1.28-3,3.42q.09,23,.12,46.09h0a95.5,95.5,0,0,1-3.28,27c-5.73,20.13-17.81,34.32-38.11,41.11-9,3-18.22,2.56-27.37,3.52H373.51c-7.33,0-14.65,0-22-.11a91.58,91.58,0,0,0-24.45,2.46c-24.82,6.39-40,22.93-43.16,48.31-1.77,14.43-.54,29-.58,43.51h0q-.06,36.83-.11,73.65a23.72,23.72,0,0,0,2.33,10.44h0C291.29,511,304,520.42,319.45,527c1.15.57,2.25,1.24,3.44,1.7,20.78,8,42.48,10.61,64.56,11h0c20.44.71,40.79-.16,60.93-4,14.73-2.8,29-7,41.41-15.83,9.14-6.44,16.59-14.61,17.31-26.11,1.19-18.94.68-38,.06-56.94a1.23,1.23,0,0,0-.12-.37h0c-1.75-1.2-3.74-.71-5.62-.71q-53.18-.06-106.35,0c-.75-4,0-8.14-.39-12.19-.24-2.8.58-3.74,3.55-3.69,11.36.18,22.73.09,34.09.05,1.24,0,2.56.42,3.71-.44a.28.28,0,0,1,0-.09,8.24,8.24,0,0,0,1.56.55h84.72a4.28,4.28,0,0,0,2.12-.34c3,.84,6,.32,9,.29,8.94-.08,17.9.5,26.83-.29a61.08,61.08,0,0,0,38.07-17.17c12.81-12.17,19-27.91,23.63-44.48,1.5-5.38,1.4-11.12,3.78-16.3V274.5C625,273.68,625.06,272.61,624.88,271.62ZM440.31,487.53c.71-1.44.57-3,.67-4.52.62-9.68,7.33-16.3,17.06-16.87,1.75-.11,3.58.16,5.13-1,.54,1.45,2.21,1.68,3.47,2.31,7.65,3.83,12.08,12.72,10.13,20.4-2.1,8.22-8.4,13.78-16.44,14.49-7.43.65-15.46-4.35-18.71-11.59-.46-1-.69-2.3-1.65-3Z"/><path class="cls-2" d="M395.07,435.7c-1.48-4.5-.64-9.13-.59-13.69,0-2.78,2.43-2.49,4.32-2.5q18.61-.06,37.23-.08l87.92,0,36.31.14c-1.81.87-3.77.65-5.68.65q-76.82,0-153.62-.07c-6,0-6,0-6,5.95C395,429.29,395.05,432.49,395.07,435.7Z"/><path class="cls-3" d="M326.53,302.1c5.29-1.11,10.59-.75,15.9-.23Z"/><path class="cls-4" d="M507,173.43h0V148h0c.09-2.83.08-5.66.27-8.48a39.5,39.5,0,0,0-5.91-23.9h0a33.12,33.12,0,0,0-6.32-8.67c-14.2-14.75-32.41-21.07-51.93-24.61h0c-3.92-1.28-8-1.56-12.06-2.26-5.78-1-11.75-.58-17.44-2.27H372c-.6.79-1.55.7-2.38.91h0c-15.58.89-30.9,3.18-45.8,8-9.24,3-18,6.9-25.61,13.07-8.12,6.6-14.57,14.51-14.93,25.46-.41,12.19,0,24.41.05,36.62h0c0,5.52,0,11.05-.12,16.56-.05,2.35.64,3.53,3.26,3.52,19-.1,38-.11,57-.15q21,.06,42,.12c10.35,0,10.35,0,10.32,10.28,0,5.71,0,5.72-5.73,5.74l-65.87.15h0c-2,0-4.11-.14-6.16-.14-26.32,0-52.65.37-79-.13-22.07-.42-39.73,7.78-53.35,24.83-11.2,14-16.57,30.57-19.62,48-1.22,6.91-2.08,13.89-3.11,20.84V327c.94,1.07.68,2.41.82,3.65,1,8.36,1.49,16.79,3.77,24.95h0c2.62,14.67,7.59,28.44,16,40.84,5.15,7.6,11.31,14.23,19.47,18.75a41.86,41.86,0,0,0,19.94,7.42c13.42,1.41,26.91.24,40.36.68,3.66.12,4.87-1,4.83-4.77-.2-18.59-.41-37.19,0-55.78.12-5.47.63-11.19,2.88-16.44h0c.5-1.31,1-2.62,1.5-3.94,3.81-10.89,9.71-20.33,18.84-27.61C297.2,310,304,307.12,311,304.55h0l15.49-2.45c5.3-.5,10.6-.08,15.9-.23.89.07,1.79.19,2.68.19q49.47,0,98.92,0a10.28,10.28,0,0,0,1.56-.14,5.39,5.39,0,0,0,2.23-.36c5.72.24,11.23-1.07,16.67-2.56,25.19-6.89,41.29-25.39,42.32-50.14C507.85,223.74,507.22,198.58,507,173.43ZM328.53,151.55c-8.18-1.49-12.92-6.81-15.66-14.28l-.16-.11a5.6,5.6,0,0,0,.3-2.35c.73-12.38,8.16-19.44,20.41-19.34a5.23,5.23,0,0,0,1.95-.23l.26.25c5.32,2.25,10.09,5.06,12.5,10.75,2.82,6.67,2,12.92-2.29,18.52S335.67,152.85,328.53,151.55Z"/></g></svg>