<svg id="gris" xmlns="http://www.w3.org/2000/svg" viewBox="0 0 792 612"><defs><style>.cls-1{fill:#515151;}.cls-2{fill:#ececec;}</style></defs><title>Tema</title><path class="cls-1" d="M390.63,219.16v85.3l-28.25-28.25a4.65,4.65,0,0,0-6.57,0l0,0a4.65,4.65,0,0,0,0,6.55L392,319a4.78,4.78,0,0,0,5.06,1,5.52,5.52,0,0,0,1.54-1l36.14-36.19a4.63,4.63,0,0,0-6.55-6.55l-28.25,28.25v-85.3a4.65,4.65,0,1,0-9.29,0Z"/><path class="cls-1" d="M390.63,439.77v85.3l-28.25-28.25a4.65,4.65,0,0,0-6.57,0l0,0a4.65,4.65,0,0,0,0,6.55L392,539.56a4.41,4.41,0,0,0,1.53,1,4.34,4.34,0,0,0,3.53,0,5.52,5.52,0,0,0,1.54-1l36.14-36.19a4.63,4.63,0,0,0-6.55-6.55l-28.25,28.25v-85.3a4.65,4.65,0,1,0-9.29,0Z"/><polygon class="cls-2" points="224.86 101.89 611.08 80.49 554.22 222.37 170.24 245.46 224.86 101.89"/><path class="cls-1" d="M164,250.07,221.88,97.82,617.47,75.9,557.14,226.43l-2.67.16ZM227.83,106,176.52,240.84l374.77-22.53L604.68,85.08Z"/><path class="cls-1" d="M269.9,117a177.29,177.29,0,0,1,29.81-3.79c14.27-.76,24.85,1.69,32,7.08,6.65,4.89,11.19,13.07,11.73,23.13s-2.19,18.66-7.83,24.72c-7.45,8.21-19.35,12.58-33.21,13.32a48.38,48.38,0,0,1-9.61-.24l2.14,40.38-19.4,1Zm22,48.85a39,39,0,0,0,9.62.38c14.61-.77,23.14-8.52,22.48-21.07-.63-11.79-9.22-17.69-22.75-17A56.7,56.7,0,0,0,290,129.72Z"/><path class="cls-1" d="M358.32,200.21a43,43,0,0,0,20,4.59c8.6-.46,12.25-4.27,12-9.34-.28-5.23-3.61-7.72-13.29-10.59-15.4-4.38-22.14-12.27-22.56-21.43-.72-13.6,10-24.79,28-25.74,8.52-.46,16.08,1.27,20.75,3.52l-3.15,13.93a35,35,0,0,0-16.58-3.58c-6.95.37-10.64,4-10.39,8.76s4.11,7.06,14.07,10.11c14.33,4.22,21.2,11.05,21.87,22.44.75,14.09-9.69,24.84-30.1,25.93-9.35.49-18-1.29-23.83-4.17Z"/><path class="cls-1" d="M438.45,180.65c1.26,14,12.42,19.52,24.93,18.86a59,59,0,0,0,21.14-4.71l3.61,13.29c-6.47,3.16-15.53,5.75-26.75,6.34-25.09,1.33-40.61-13.39-41.87-37.07-1.13-21.33,10.74-42.2,35.59-43.52,25.12-1.33,34.4,18.89,35.3,35.82a40.78,40.78,0,0,1-.26,8.25Zm33.26-15.43c-.29-7.16-4-18.67-17.12-18-12,.63-16.45,11.83-16.9,19.78Z"/><polygon class="cls-2" points="237.76 321.96 623.99 300.56 567.12 442.44 183.15 465.52 237.76 321.96"/><path class="cls-1" d="M176.87,470.14l57.92-152.25L630.38,296,570.05,446.5l-2.67.16ZM240.74,326,189.43,460.91,564.2,438.38l53.39-133.23Z"/><path class="cls-1" d="M314.71,332.64l6.43,106-19.36,1.18-6.44-106Z"/><path class="cls-1" d="M340.38,383.47c-.54-8.85-1.26-16.12-2-22.73l16.91-1,1.65,11.44.45,0c3-6.14,10.87-13.93,23.59-14.7,13.35-.81,27.73,6.94,29.2,31.15L412.93,433l-19.37,1.17L390.94,391c-.67-11-5.21-19.11-15.78-18.47-7.7.47-12.7,6.23-14.36,12.28a19.07,19.07,0,0,0-.52,6.19l2.73,45-19.36,1.17Z"/><path class="cls-1" d="M448.93,332,450.26,354l18.41-1.12.88,14.42-18.41,1.12,2.05,33.77c.57,9.37,3.35,14,10.76,13.53a29.36,29.36,0,0,0,7.46-1.3l1.28,14.7a43.35,43.35,0,0,1-14,2.84c-7.11.43-13.18-1.63-17-5.3-4.42-4.14-6.74-11.07-7.35-21.1l-2.19-36-10.92.66-.88-14.42,10.93-.66-1.06-17.34Z"/></svg>