<svg id="gris" xmlns="http://www.w3.org/2000/svg" viewBox="0 0 792 612"><defs><style>.cls-1{fill:#515151;}.cls-2{fill:#4c4c4c;}.cls-3{fill:#949494;}.cls-4{fill:#ececec;}.cls-5{fill:#fff;}</style></defs><title>Tema</title><g id="e9tLKE.tif"><path class="cls-1" d="M426.07,416.72c-14.84-.81-25.37-8.16-31.6-21.48a91.41,91.41,0,0,1-8.15-29.42c-1.19-11.48-1.63-23-1.86-34.53,0-1.24-.22-1.44-1.43-1a56.23,56.23,0,0,1-24.65,3.92,65.86,65.86,0,0,1-18.2-3.39,30.66,30.66,0,0,1-13-8.2c-.72-.79-1-.28-1.53.11a31.62,31.62,0,0,1-12.19,6.16c-9.3,2.27-17.64,0-25.21-5.56s-12.8-12.84-17.43-20.75C263.27,289.78,257.85,276,253.11,262a511.51,511.51,0,0,1-16.75-63.62c-1.56-7.83-3-15.68-3.88-23.61-.18-1.6-.22-3.21-.36-4.81,0-.43.21-.93-.27-1.27v-2.21a55.46,55.46,0,0,0,0-8.55v-1.66a30.46,30.46,0,0,0,.24-5.05,78.52,78.52,0,0,1,12.54-41.65,61,61,0,0,1,21.64-20.25c9.48-5.38,19.73-8.16,30.49-9.38a125,125,0,0,1,19.15-.42,153.38,153.38,0,0,1,28.32,4.17c5.39,1.24,10.69,2.75,15.94,4.44a5.15,5.15,0,0,0,4.33-.42A77.27,77.27,0,0,1,394,78.79a97.92,97.92,0,0,1,14.32-.45,152.8,152.8,0,0,1,20,1.94,6.73,6.73,0,0,0,3.12-.19,121.52,121.52,0,0,1,20-4.07c3.19-.36,6.4-.35,9.6-.51.5,0,1,.15,1.48-.13h14.63a26.67,26.67,0,0,0,5.05.23A77.37,77.37,0,0,1,502,78.7a98.65,98.65,0,0,1,29.9,13.81,89.07,89.07,0,0,1,11,8.92,106.33,106.33,0,0,1,10.79,11.77c4.23,5.45,6.3,11.8,7.38,18.5a96.09,96.09,0,0,1,.62,20.76,182.42,182.42,0,0,1-5.82,34.89,309.69,309.69,0,0,1-15.35,45c-3.28,7.7-6.86,15.26-10.68,22.71q-3.45,6.75-7.27,13.3c-.33.58-1,1.2-.59,1.87s1.35.39,2.05.33c5.41-.48,10.7-1.74,16.06-2.53s10.56-.41,15.31,2.49a17.66,17.66,0,0,1,6.23,6.5c.74,1.3.62,2.82,1,4.21v7.73c-.3,4.74-2.91,8.33-6,11.5a68.15,68.15,0,0,1-34.39,18.68,95.76,95.76,0,0,1-18,2.28,51.56,51.56,0,0,1-7.14,0c-1.82-.2-2.26.22-2.53,2.07a50.72,50.72,0,0,0-.42,5.9c-.42,13.43-1.66,26.77-4.85,39.85-2.25,9.27-5.68,18.05-11.39,25.81a47.93,47.93,0,0,1-20.8,16.24A69.42,69.42,0,0,1,436,416.63a48,48,0,0,1-5.5.2A41.44,41.44,0,0,1,426.07,416.72Z"/><path class="cls-2" d="M231.85,157.88c.38.37.28.84.28,1.28q0,3,0,6c0,.45.1.92-.28,1.28Z"/><path class="cls-3" d="M430.8,416.72a1,1,0,0,0,0,.24h-4.69a.65.65,0,0,0,0-.24Z"/><path class="cls-4" d="M487.1,309.15c-.37,3.09-.74,6.14-1.11,9.19-.86,7.16-1.67,14.32-2.59,21.47s-1.93,14.38-3,21.56a95.77,95.77,0,0,1-4.08,18.37c-3.67,10.4-10.47,17.88-20.61,22.24-8.42,3.62-17.18,5.94-26.42,5.85-12-.12-21.27-5.28-27.72-15.42A50.63,50.63,0,0,1,394,370.07c-1.92-18.27-2.15-36.6-2.15-54.95v-2.05l-2.16,1.71c-9.52,7.55-20.48,10.24-32.41,9.35-6.29-.47-12.49-1.53-18.17-4.53a17.08,17.08,0,0,1-5.62-4.36A7.92,7.92,0,0,1,335,303.58c3.31-2.5,7.21-3.53,11.16-4.43a105.58,105.58,0,0,0,12.64-3.26,14.33,14.33,0,0,0,6.46-4.53q2.39-2.94,4.76-5.9c.22-.28.59-.56.46-.94s-.63-.25-1-.27a41.5,41.5,0,0,1-16.63-4.45,1.59,1.59,0,0,0-2.29.43c-9,9.67-17.64,19.62-26.15,29.71a29.52,29.52,0,0,1-9.36,7.59c-7,3.47-13.7,2.73-20.12-1.44-6.07-3.95-10.39-9.55-14.2-15.56-7.1-11.19-12.17-23.33-16.62-35.75A483.39,483.39,0,0,1,247,203.49c-1.95-9-3.68-18.07-4.9-27.22a117.68,117.68,0,0,1-.4-25.86,84.69,84.69,0,0,1,5.84-25.52c7.6-18.32,21.39-29.27,40.5-33.77,11.46-2.7,23-2.74,34.67-1.44A174.52,174.52,0,0,1,362.57,99a2.42,2.42,0,0,0,2.4-.29,64.33,64.33,0,0,1,27.18-9.86,99.81,99.81,0,0,1,35.71,2.06,3.41,3.41,0,0,0,2-.11A127.45,127.45,0,0,1,458.66,85a117.94,117.94,0,0,1,23.54,0c23.52,2.49,43.57,11.84,59.64,29.57,6.49,7.16,9.08,15.42,9.52,24.71.64,13.24-1.29,26.22-4.29,39-8.2,35-22.46,67.45-41.79,97.71-1.1,1.73-1.13,1.76.79,2.58a29.31,29.31,0,0,0,11.6,1.95,99.65,99.65,0,0,0,20.22-2.32,28.12,28.12,0,0,1,8.07-.72c6,.52,8.91,5.79,6,11.14a26.59,26.59,0,0,1-7.39,8.09A62.2,62.2,0,0,1,514,309.67a86.18,86.18,0,0,1-19.78.8A48.84,48.84,0,0,1,487.1,309.15Z"/><path class="cls-1" d="M401.48,325.31c0-10.76.16-19.87.26-29a19.3,19.3,0,0,0-8.9-16.84,14.78,14.78,0,0,0-10.58-2.71c-1.27.19-1.39-.2-1.06-1.26a173.72,173.72,0,0,1,8.54-22.26c6.27-13.49,8.47-27.67,7.46-42.45a165,165,0,0,0-3.7-25.21c-1.42-6.28-4.31-11.71-9.72-15.53a25.27,25.27,0,0,0-13.85-4.46c-9.07-.39-17.55,2-25.76,5.64-1.77.78-3.49,1.66-5.21,2.53-.73.37-1.08.43-1-.59,1.78-17.82,5.82-34.94,15.89-50.09C363.49,108.63,377,100,394.31,98.29c27-2.73,50.94,4.87,71.24,23.06a106.73,106.73,0,0,1,28.27,41.11c.73,1.85.71,1.91-1.29,1.76a62.56,62.56,0,0,0-19.2,1.1c-11.14,2.62-18.17,10.73-19.13,22.1-.63,7.38.84,14.46,3,21.44,3.39,11.09,8.45,21.45,13.9,31.64,3.51,6.56,7.31,13,10.42,19.75,2.51,5.48,6.33,10.12,10.06,14.79,1.11,1.38,1.08,1.4-.58,2-7.68,2.74-12.08,8.54-12.4,17-.51,13.49-2.51,26.8-4.1,40.17-1.28,10.72-2.7,21.43-4.5,32.08a55.7,55.7,0,0,1-3.4,12.33,25.52,25.52,0,0,1-12.65,13.66c-8.26,4-17,6.35-26.22,5.92a20.87,20.87,0,0,1-16.16-8.28,38.41,38.41,0,0,1-7.81-19.31C401.85,355,401.62,339.33,401.48,325.31Z"/><path class="cls-1" d="M250.84,162.13c-.09-10.62,1-20.51,4.21-30.06,3.38-10,9-18.38,17.87-24.35a53.93,53.93,0,0,1,22.58-8.33c15.78-2.34,31.25-.26,46.59,3.41,4,1,7.9,2.11,11.81,3.32.94.3,1.13.59.39,1.35-12,12.3-18.41,27.41-22.39,43.78a139.46,139.46,0,0,0-4,32.22c0,5.1.4,10.19.62,15.29a150.63,150.63,0,0,1-1.12,27.52c-1.53,10.87-.74,21.36,4,31.39a48,48,0,0,0,11.25,15.2c.76.69.85,1.06.12,1.83-8.82,9.38-17.24,19.12-25.54,29a22,22,0,0,1-5.95,5.07,9.51,9.51,0,0,1-9.73.17,28,28,0,0,1-8.59-7.65c-5.69-7.15-9.76-15.23-13.41-23.54-7.95-18.06-13.6-36.9-18.45-56A436.93,436.93,0,0,1,251.6,175,83.35,83.35,0,0,1,250.84,162.13Z"/><path class="cls-1" d="M445.27,96.65a60.26,60.26,0,0,1,7.25-1.32c12.93-1.82,25.84-1.92,38.68.76,18.63,3.9,34.07,13.09,46,28,2.68,3.34,3.63,7.28,4.18,11.36,1.13,8.32.51,16.61-.69,24.86-3.7,25.37-12,49.33-22.59,72.54a288.53,288.53,0,0,1-18.52,34.31c-.27.43-.39,1.54-1.23.95s-1.52-1.21-.78-2.42a46.78,46.78,0,0,0,4.9-11.51c2.23-7.8,2.48-15.75,1.81-23.78-.59-7.1-1.73-14.14-2.16-21.25a86.46,86.46,0,0,1,1.35-18.94,128.92,128.92,0,0,0,1.82-20.85,20.67,20.67,0,0,0-1.23-6.33c-4.37-13.52-11.47-25.54-20.41-36.49A103.68,103.68,0,0,0,445.86,97C445.74,97,445.64,96.89,445.27,96.65Z"/><path class="cls-1" d="M387.83,218.93c.4,10.66-2.78,22-7.91,32.95a147.8,147.8,0,0,0-8.05,21.69c-.28,1-.76,1.16-1.67,1.11-11.52-.68-20.33-6.18-26.84-15.46a39.29,39.29,0,0,1-6.78-28.56,195.84,195.84,0,0,0,1.29-37.42c-.11-1.74-.1-3.5-.32-5.23a2.94,2.94,0,0,1,1.54-3.18,62.73,62.73,0,0,1,20.71-8.75,35,35,0,0,1,10.4-.87c7.17.56,11.95,4.32,13.66,11.36A131.67,131.67,0,0,1,387.83,218.93Z"/><path class="cls-1" d="M487.41,173.53c1.48,0,4.18.2,6.88.47,1,.11,1.39.5,1.33,1.56a123.59,123.59,0,0,1-1.51,12.72,99.08,99.08,0,0,0-1.49,21.54c.34,5.64,1.15,11.24,1.76,16.85.93,8.58,1.31,17.15-1.25,25.56-.43,1.4-1,2.77-1.51,4.14-.14.36-.21.92-.67.95s-.56-.55-.72-.89c-1.65-3.44-3.26-6.9-5.13-10.22-5.82-10.33-11.48-20.75-15.86-31.8-2.58-6.51-4.74-13.14-5.47-20.15a23.9,23.9,0,0,1,1-10.88,13.11,13.11,0,0,1,8-7.84C477.09,173.84,481.61,173.5,487.41,173.53Z"/><path class="cls-1" d="M342.34,310.3a25.16,25.16,0,0,1,5.6-1.76c4.17-.92,8.35-1.8,12.43-3.08a25.25,25.25,0,0,0,12.89-8.76c1.84-2.4,3.82-4.71,5.75-7.05.37-.46.79-.89,1.2-1.32,2.55-2.63,4.3-3,8-.38a9.84,9.84,0,0,1,3.9,7.05,6.45,6.45,0,0,1-1.28,4.93c-7.88,10.64-18.48,15.41-31.63,14.73a47.23,47.23,0,0,1-13-2.33A12,12,0,0,1,342.34,310.3Z"/><path class="cls-1" d="M540.38,287.76a10.94,10.94,0,0,1-2.34,2.07,54,54,0,0,1-27.68,10.71c-6.05.67-12.12,1.19-18.13,0-5.06-1-4.43-.82-4.19-5.67a16.76,16.76,0,0,1,.44-2.72,7.51,7.51,0,0,1,5.34-5.95l.52-.19a6.09,6.09,0,0,1,6.23.47c4.14,2.68,9,3.33,13.87,3.59a101.88,101.88,0,0,0,24.93-2.26C539.67,287.72,540,287.53,540.38,287.76Z"/><path class="cls-5" d="M371.51,191.9a10.54,10.54,0,0,1-9-6.27,3.21,3.21,0,0,1,2.18-4.48,16.09,16.09,0,0,1,10.28.24,9.92,9.92,0,0,1,3.2,1.56c2.1,1.62,2.34,3.57.6,5.56A9.2,9.2,0,0,1,371.51,191.9Z"/><path class="cls-5" d="M480.72,178a10.8,10.8,0,0,1,4.18.72c1.74.69,2.32,2,1.51,3.63-2.36,4.94-9.15,8.28-14.56,2.69-1.78-1.85-1.6-3.49.58-4.88A16,16,0,0,1,480.72,178Z"/></g><g id="tnsOHD.tif"><path class="cls-1" d="M328.57,544c-1.82-.16-3.65-.3-5.46-.51a37.89,37.89,0,0,1-10.49-2.5,15.66,15.66,0,0,1-9.19-10.23c-.38-1.19-.62-2.41-.94-3.71.34,0,.58-.06.81-.06,2.25,0,4.5,0,6.75,0,.63,0,.85.22,1,.79a14.2,14.2,0,0,0,3.38,6.59,13.07,13.07,0,0,0,7.06,3.49,52.58,52.58,0,0,0,22.06,0,16,16,0,0,0,13-15.49c.12-3.41.08-6.83.11-10.24,0-.13,0-.26,0-.15-.82.72-1.73,1.51-2.63,2.32a27,27,0,0,1-13.25,6.19A54.31,54.31,0,0,1,324,521a32.81,32.81,0,0,1-13.93-4.66,20.39,20.39,0,0,1-8.4-10.36,30.44,30.44,0,0,1-.09-21.2,19.84,19.84,0,0,1,6.29-8.75,29.83,29.83,0,0,1,14.83-6.28,52.78,52.78,0,0,1,16.26-.17c4.39.67,8.68,1.71,12.15,4.75,1.61,1.4,3.12,2.92,4.67,4.39a8.23,8.23,0,0,1,.59.71l.23-.08v-8.56h8.07a2.41,2.41,0,0,1,.07.43q0,25.16,0,50.32a22,22,0,0,1-2.63,10.72,18.94,18.94,0,0,1-7.91,7.65c-4.87,2.61-10.17,3.54-15.61,4-.44,0-.87.11-1.31.17Zm3.76-28c5.31,0,10-.73,14.35-3a17.48,17.48,0,0,0,8-8.17,24,24,0,0,0,1.75-13.35c-1-7.88-6.3-13.47-13.78-15.6a38.12,38.12,0,0,0-13.28-1.14,26.45,26.45,0,0,0-12.77,3.84A17.44,17.44,0,0,0,308.87,489a25.82,25.82,0,0,0-.51,10.32c1,7.46,5.12,12.4,12.2,14.87A38.16,38.16,0,0,0,332.33,516Z"/><path class="cls-4" d="M733.67,519.86c-.06.6-.17,1.21-.17,1.81s-.18.71-.68.66H666.67c-1.14,0-1.14,0-1.14-1.11V444.65c0-1.09,0-1.08,1.07-1.09,2.45-.05,4.89-.07,7.33-.18.84,0,1.08.18,1.07,1.05q0,15.74,0,31.49v39.66h57.54a11.21,11.21,0,0,1,1.15.12Z"/><path class="cls-4" d="M644,514.23l14.17,9.61-6.21,5.7-8-5.53-6.12-4.26a.94.94,0,0,0-1.12-.08,40.21,40.21,0,0,1-12.32,3.68,92,92,0,0,1-16.5.94,65.2,65.2,0,0,1-17.5-2.67,42.88,42.88,0,0,1-19.77-12.29,35.35,35.35,0,0,1-7.37-12.49,41.58,41.58,0,0,1-2-10.12,45.12,45.12,0,0,1,2.18-18.49,34.91,34.91,0,0,1,7-11.83,39.84,39.84,0,0,1,13-9.59,52.49,52.49,0,0,1,14.31-4.27,80.06,80.06,0,0,1,15-.94,65.33,65.33,0,0,1,19.55,3.29,42.12,42.12,0,0,1,14.17,8.22,36.2,36.2,0,0,1,10.86,16.68A37,37,0,0,1,659,480c0,2.16.11,4.33,0,6.48a35.93,35.93,0,0,1-7.27,20.46,36.37,36.37,0,0,1-7.43,7.07Zm-33.78-66.39,0-.21c-3.44.36-6.91.53-10.3,1.12a37.48,37.48,0,0,0-17.76,7.89,30.66,30.66,0,0,0-6.3,7,32.9,32.9,0,0,0-4.94,15.47,42.42,42.42,0,0,0,.46,10.85,30.54,30.54,0,0,0,6.89,14.94,34.82,34.82,0,0,0,15.32,10.32,52.74,52.74,0,0,0,22.35,2.38,44.48,44.48,0,0,0,13.87-3.39,32.12,32.12,0,0,0,12.64-9.27,32.58,32.58,0,0,0,6.92-18.24,58,58,0,0,0-.14-8.54,30.15,30.15,0,0,0-2.74-10.62,30.82,30.82,0,0,0-8-10.36,35,35,0,0,0-11.27-6.67A50.48,50.48,0,0,0,610.19,447.84Z"/><path class="cls-4" d="M520.68,524.18a81,81,0,0,1-17.09-1.51,38.31,38.31,0,0,1-13.53-5.21,20.6,20.6,0,0,1-9-12.74,32.09,32.09,0,0,1-1-7.55c0-.61.16-.81.79-.8,2.78,0,5.55,0,8.33,0,.81,0,1,.33,1,1a19.75,19.75,0,0,0,1.51,7.58,16.43,16.43,0,0,0,5.5,7,23.44,23.44,0,0,0,9.32,4.17,72.09,72.09,0,0,0,9,1.34,81.62,81.62,0,0,0,9.64.15,41.09,41.09,0,0,0,13.48-2.46,13.1,13.1,0,0,0,7.27-6,14.67,14.67,0,0,0,1.62-5.28,16,16,0,0,0-.68-7.44,11.15,11.15,0,0,0-5.44-6,28.24,28.24,0,0,0-8-2.46c-4.21-.88-8.45-1.63-12.69-2.38s-8.66-1.41-13-2.2a86.36,86.36,0,0,1-13.24-3.32,18.23,18.23,0,0,1-6.94-4.25,15.93,15.93,0,0,1-4.52-9.47,23.86,23.86,0,0,1,.59-9.77,16.54,16.54,0,0,1,7.17-9.63,28.26,28.26,0,0,1,10.57-4,93.58,93.58,0,0,1,9.29-1.18c3.37-.25,6.76-.37,10.14-.31a59,59,0,0,1,19.09,2.95,24.42,24.42,0,0,1,9.92,6.17,19.16,19.16,0,0,1,5,10.37c.2,1.31.23,2.64.36,4,0,.56-.13.79-.73.78q-4.34,0-8.67,0c-.6,0-.74-.23-.75-.79a15.45,15.45,0,0,0-3.57-10.1,16.44,16.44,0,0,0-6.34-4.44,35.38,35.38,0,0,0-9.62-2.36,70.11,70.11,0,0,0-12.12-.28c-4.65.26-9.27.84-13.56,2.81a11.76,11.76,0,0,0-7,9.34A14.81,14.81,0,0,0,493,466a10.34,10.34,0,0,0,4.49,6.31c3,2,6.38,2.74,9.78,3.45q6.24,1.29,12.51,2.44c3.45.63,6.92,1.13,10.37,1.73a88.91,88.91,0,0,1,14.23,3.45,22.51,22.51,0,0,1,9,5.27,15,15,0,0,1,4.06,7.93,23.18,23.18,0,0,1-.88,12.51,18.51,18.51,0,0,1-8.17,9.52A36.85,36.85,0,0,1,535.65,523,81.61,81.61,0,0,1,520.68,524.18Z"/><path class="cls-1" d="M70.2,488.83v33.36H60.85V443.71h.77c13.25-.07,26.49-.16,39.73-.2,3.66,0,7.34-.06,11,.26,5.76.5,11,2.49,15.08,6.76a19.38,19.38,0,0,1,5.17,10.34,26.85,26.85,0,0,1-.31,11.56,19.4,19.4,0,0,1-9.1,12,31.26,31.26,0,0,1-14.56,4.22c-1.69.12-3.39.15-5.08.15q-16.11,0-32.23,0Zm.08-6.14H71c10.63,0,21.27,0,31.9,0A30,30,0,0,0,115,480.58a12.85,12.85,0,0,0,7.56-7.94,20.64,20.64,0,0,0,0-12.77,12.62,12.62,0,0,0-6.91-7.9,22.05,22.05,0,0,0-9.53-2.06c-11.77-.06-23.54,0-35.32-.05-.16,0-.31,0-.5.06Z"/><path class="cls-1" d="M473,497.87h-57.4c.17,1.55.22,3,.52,4.48,1.41,6.87,5.61,11.42,12,14.09,5,2.1,10.26,2.48,15.6,2.15a27.36,27.36,0,0,0,9.6-2.19,17.08,17.08,0,0,0,9.31-9.81,1.45,1.45,0,0,1,1.67-1.12c2.16.07,4.33,0,6.49,0h1a20.54,20.54,0,0,1-3.45,7.33c-3.5,4.72-8.26,7.55-13.79,9.23A49.92,49.92,0,0,1,434,523.58a34.56,34.56,0,0,1-13.05-4c-8.77-4.9-13.24-12.42-13.53-22.44a27.8,27.8,0,0,1,2.37-12.82,24.1,24.1,0,0,1,11.72-11.59c6.08-3,12.6-3.73,19.27-3.72a44.79,44.79,0,0,1,14.58,2.2,25,25,0,0,1,14.55,12.34,26.7,26.7,0,0,1,2.8,9.69C472.83,494.76,472.9,496.26,473,497.87Zm-8.57-4.68a13.39,13.39,0,0,0-1.18-5.89,21.7,21.7,0,0,0-13.9-11.91A32.16,32.16,0,0,0,431,475.3a20.5,20.5,0,0,0-9.33,5.21,20.93,20.93,0,0,0-5.06,9c-.36,1.2-.61,2.43-.93,3.71Z"/><path class="cls-1" d="M200.83,506.22h8.78c.06.64.1,1.28.17,1.9.49,3.91,2.73,6.51,6.17,8.19a26.53,26.53,0,0,0,8.92,2.22,63.93,63.93,0,0,0,13.55,0,23.05,23.05,0,0,0,9.13-2.6,7.92,7.92,0,0,0,2.66-11.62,9.13,9.13,0,0,0-6.19-3.58c-5.46-.82-10.94-1.48-16.41-2.21-5.28-.7-10.6-1.24-15.74-2.69a12,12,0,0,1-7.71-5.79,12.71,12.71,0,0,1-1.15-8.26c.86-5.23,4.05-8.5,8.92-10.22a46.83,46.83,0,0,1,12.9-2.35,72.62,72.62,0,0,1,14.29.35c4.47.59,8.8,1.63,12.58,4.24a13.7,13.7,0,0,1,6.07,11c0,.41,0,.82.07,1.3h-8.19a35.12,35.12,0,0,0-1-4.16c-1.23-3.38-4-5.15-7.21-6.28a32,32,0,0,0-10.25-1.52,44.29,44.29,0,0,0-12.3,1.2,11.53,11.53,0,0,0-6.64,4c-2,2.64-1.9,6.65.19,8.77a11,11,0,0,0,6,3c3.74.66,7.5,1.19,11.27,1.69,5.82.78,11.74,1,17.47,2.38a31.31,31.31,0,0,1,6.32,2.26c5.4,2.7,7.59,7.4,6.46,13.33a12.85,12.85,0,0,1-7.24,9.3,34.93,34.93,0,0,1-12.88,3.38,95,95,0,0,1-15.64.14,46,46,0,0,1-11.84-2.1c-6.89-2.33-10.58-7.17-11.46-14.3C200.91,507,200.88,506.65,200.83,506.22Z"/><path class="cls-1" d="M164.08,524c-5.59-.06-10.58-.42-15.34-2.12-10.11-3.62-16.11-10.67-17.48-21.43a30.44,30.44,0,0,1,1.1-13.17c2.2-6.95,6.81-11.77,13.3-14.88a37.4,37.4,0,0,1,13.83-3.35,56.81,56.81,0,0,1,14.84.84c6,1.2,11.55,3.52,15.91,8.09a22.53,22.53,0,0,1,5.93,11.35c1.33,6.53,1.13,13-1.55,19.19-2.49,5.74-6.85,9.59-12.49,12.09A41.65,41.65,0,0,1,168,523.84C166.51,523.94,165,524,164.08,524Zm0-5.43c4.7,0,9.81-.62,14.49-3.14a17.64,17.64,0,0,0,9.35-12,30.53,30.53,0,0,0,0-13.78,17.5,17.5,0,0,0-11.63-13.17,36.41,36.41,0,0,0-12.85-2,28.44,28.44,0,0,0-13.74,3.05,18.56,18.56,0,0,0-9.16,10.65,25.74,25.74,0,0,0-.45,15.17,18.91,18.91,0,0,0,11.67,13.2A31.56,31.56,0,0,0,164.12,518.59Z"/><path class="cls-1" d="M294.82,516.92v5.48c-1.29.17-2.62.41-4,.51A30.07,30.07,0,0,1,279,521.69c-3.93-1.31-5.75-4.22-6.08-8.2-.1-1.13-.11-2.28-.11-3.41V475.94H262.45V470.7h10.31V453.77h8.1v16.86h14V476H280.89v34.54a13.19,13.19,0,0,0,.05,1.41c.34,3.34,1.89,4.95,5.26,5.42A17.35,17.35,0,0,0,294.82,516.92Z"/><path class="cls-1" d="M373.69,470.76h7.46c.56,0,.52.35.52.72v8.45l.26.08a8.68,8.68,0,0,0,.46-.85,15.53,15.53,0,0,1,5.88-7.26,18.13,18.13,0,0,1,6.9-2.31c4.24-.72,8.52-.55,12.79-.54.05,0,.1,0,.2.08v6.74c-1.49-.15-2.94-.34-4.39-.43a25.27,25.27,0,0,0-12.07,1.74,15.16,15.16,0,0,0-8.21,8.74,30.93,30.93,0,0,0-1.82,11.6q0,11.84,0,23.66v1h-8Z"/></g></svg>