<svg id="gris" xmlns="http://www.w3.org/2000/svg" xmlns:xlink="http://www.w3.org/1999/xlink" viewBox="0 0 792 612"><defs><style>.cls-1{fill:#515151;}.cls-2{fill:url(#Degradado_sin_nombre_40);}.cls-3{fill:url(#Degradado_sin_nombre_7);}.cls-4{fill:url(#Degradado_sin_nombre_35);}.cls-5{fill:url(#Degradado_sin_nombre_6);}</style><linearGradient id="Degradado_sin_nombre_40" x1="116.57" y1="293.12" x2="315.62" y2="293.12" gradientUnits="userSpaceOnUse"><stop offset="0.51" stop-color="#515151"/><stop offset="0.92" stop-color="#3c3c3b"/></linearGradient><linearGradient id="Degradado_sin_nombre_7" x1="72.52" y1="370.78" x2="315.69" y2="370.78" gradientUnits="userSpaceOnUse"><stop offset="0.48" stop-color="#ececec"/><stop offset="0.92" stop-color="#515151"/></linearGradient><linearGradient id="Degradado_sin_nombre_35" x1="164.98" y1="218.28" x2="295.56" y2="218.28" gradientUnits="userSpaceOnUse"><stop offset="0.37" stop-color="#515151"/><stop offset="0.92" stop-color="#3c3c3b"/></linearGradient><linearGradient id="Degradado_sin_nombre_6" x1="131.73" y1="274.37" x2="295.56" y2="274.37" gradientUnits="userSpaceOnUse"><stop offset="0.37" stop-color="#ececec"/><stop offset="0.92" stop-color="#515151"/></linearGradient></defs><title>Tema</title><g id="o7qhdX.tif"><path class="cls-1" d="M475.17,381.68c0,3.7-.08,7.41,0,11.11.06,1.75-.43,2.36-2.26,2.34-7.91-.09-15.83-.08-23.75,0-1.71,0-2.16-.57-2.16-2.23q.06-72.66,0-145.34c0-1.77.62-2.13,2.23-2.12q12.5.1,25,0c1.81,0,2.29.55,2.29,2.31-.06,16.51,0,33,0,49.53,0,.9.14,1.81.22,2.71l.71.39a11.53,11.53,0,0,1,.76-1.38c6.07-8.17,14.49-12.34,24.26-14.14,24.22-4.45,43.33,10,50.33,32.05,3.14,9.89,3.71,20,3.2,30.25s-2.77,19.79-7.82,28.65c-6.85,12-16.92,20-30.78,21.8-12.33,1.63-24.33.12-34.56-7.93-2.23-1.77-3.89-4.27-5.79-6.45a16.42,16.42,0,0,1-1.22-1.74Zm51.5-40.37c.23-8-1.09-15.76-5-22.85C517,310,509.73,305.7,500,306.12c-9.22.39-15.69,5.21-19.83,13.3a43.4,43.4,0,0,0-4.3,15.7c-.92,9.24-.12,18.23,3.83,26.71,4.11,8.82,10.95,14,20.88,14.23s17.11-4.57,21.59-13.39A43.61,43.61,0,0,0,526.67,341.31Z"/><path class="cls-1" d="M435,395c-.63,0-1.29.09-2,.09-8.33,0-16.65-.05-25,.05-1.87,0-2.67-.59-3-2.39-.41-2.5-1-5-1.58-7.62a4.85,4.85,0,0,0-1.05.59c-7.47,7-16.52,10.49-26.56,11.8-8.76,1.14-17.36.81-25.76-2.14a28.72,28.72,0,0,1-19.74-26.8c-.19-4.75-.09-9.46,1.4-14,2.85-8.8,9.16-14.09,17.5-17.36,6.27-2.46,12.86-3.45,19.48-4.44,8.31-1.25,16.61-2.67,24.91-4a4.29,4.29,0,0,0,.77-.24c6.63-2.41,9.09-6.91,7.73-13.85-1-5.34-4.15-8.75-9.38-10a36.62,36.62,0,0,0-17.26-.16c-6.83,1.63-10.86,6-12.1,12.89-.34,1.88-1,2.65-3.08,2.61-8.05-.14-16.11-.05-24.16-.06-2.69,0-2.72-.15-2.36-2.74,2.4-17.35,13.53-26.37,29.44-30.59a86.75,86.75,0,0,1,28.33-2.27c8.2.55,16.25,1.63,23.82,5,8.72,3.91,14.46,10.27,16,19.94a31.56,31.56,0,0,1,.29,5.05c0,17.53-.09,35.05.06,52.58.06,6.4.55,12.8,1.14,19.18C433.29,389,434.29,391.81,435,395Zm-32.55-52.85c-5.69,3.59-11.63,4.05-17.46,5.05a116.16,116.16,0,0,0-15.71,3.61c-5.44,1.73-9.82,6.15-9.54,14.14.23,6.57,3.23,10.76,9.62,12.56a36.82,36.82,0,0,0,14,.77,20.39,20.39,0,0,0,17.74-14.48C403.32,356.83,402,349.73,402.49,342.14Z"/><path class="cls-1" d="M670.69,362c-1.73,3.86-3.07,7.39-4.83,10.69-7.8,14.64-20.11,22.7-36.5,24.78a65.41,65.41,0,0,1-29.19-2.39c-15.39-5.07-26.08-15.29-31.44-30.49-6.42-18.21-5.93-36.33,3.49-53.51,8.23-15,21.29-23.56,38.15-26.28A55,55,0,0,1,640.79,288c14,5.79,22.63,16.49,27.69,30.4a75.1,75.1,0,0,1,4.08,27.89c0,1.21-.41,1.77-1.64,1.69-.61,0-1.22,0-1.83,0H597.21c-3.25,0-3.43.07-3,3.31a53.36,53.36,0,0,0,1.82,8.7c3.1,9.63,10.53,15,20.84,15.89a30.78,30.78,0,0,0,19.41-4.21,20.13,20.13,0,0,0,7.92-8.48,2.24,2.24,0,0,1,1.61-1.13C653.88,362,661.93,362,670.69,362Zm-28-32.58c.32-7.61-5.44-18-12.16-20.87-9.82-4.26-19.46-3.66-28,3.14-5.55,4.41-7.91,10.62-8.38,17.73Z"/><path class="cls-1" d="M687.86,320V248.13c0-2.67,0-2.67,2.63-2.67,8.19,0,16.38,0,24.57,0,1.7,0,2.18.5,2.17,2.18q-.06,72.58,0,145.18c0,1.75-.44,2.36-2.26,2.34q-12.39-.13-24.77,0c-1.88,0-2.39-.57-2.39-2.43Q687.91,356.36,687.86,320Z"/><path class="cls-2" d="M116.57,303.81l12.17-56.65s198.52,7,186.35,66.83c0,0-.75,10.94-24.35,25.1C290.74,339.09,274.34,315,116.57,303.81Z"/><path class="cls-3" d="M85.3,374.27s133.39,8.3,205.44-35.18c0,0,26.38-15.33,24.88-31.41l.07,64.88s-5.48,59.37-243.17,61.31Z"/><path class="cls-4" d="M165,231.65l9.82-47.53s86.87,3.87,115.55,30.22c0,0,22.29,20-25.33,38.1A500.2,500.2,0,0,0,165,231.65Z"/><path class="cls-5" d="M142.08,268.71l-10.35,53.18s139.39,1.95,163.83-37.52c0,0,0-38.65,0-57.54,0,0,3.23,20.25-59.45,34.1C236.08,260.93,189.49,269.5,142.08,268.71Z"/></g></svg>