<svg id="gris" xmlns="http://www.w3.org/2000/svg" viewBox="0 0 792 612"><defs><style>.cls-1{fill:#515151;}.cls-2{fill:#ececec;}</style></defs><title>Tema</title><g id="RzHjcQ.tif"><path class="cls-1" d="M395.64,303.48V411c0,14.41-8.72,23.38-19.65,30.64-15.66,10.4-33.35,15.58-51.67,18.42-32.79,5.08-65.39,4.28-97.42-5.24-14.15-4.2-27.58-10-38.4-20.49a33.27,33.27,0,0,1-10.56-25.1c.14-69.42.34-138.85-.18-208.27-.12-16.66,7-27.91,20.2-36.42,15.13-9.76,32-14.79,49.59-17.57,33.71-5.33,67.18-4.67,100.11,5,13.86,4.07,27,9.72,37.55,20.15a33.6,33.6,0,0,1,10.5,25.14C395.53,232.69,395.64,268.08,395.64,303.48ZM290.27,230.91c5.35-.43,14.55-1,23.72-1.93,15.55-1.62,30.8-4.9,44.87-11.84a72.47,72.47,0,0,0,17.67-12.33c6.55-6.22,6.16-13.78.26-20.63a36.2,36.2,0,0,0-5-4.62c-9.79-7.79-21.22-12.49-33.21-14.88a320.93,320.93,0,0,0-44.77-6.1c-25.54-1.39-50.74,1.6-74.67,11.33a77.62,77.62,0,0,0-17.62,10c-12.16,9.27-12.13,19.65-.22,29.06a65.1,65.1,0,0,0,13.48,8.24C237.56,227.5,261.78,230.36,290.27,230.91Zm-97.72,62.31c-.08,1.91-.2,3.35-.2,4.8,0,11.94.49,23.91-.16,35.82-.57,10.38,3.73,18,12.18,22.54,9.48,5.15,19.38,10.19,29.72,12.91a206.36,206.36,0,0,0,101.35,1.08c13.26-3.16,26.15-7.42,37.05-16.14,6-4.82,9.18-10.73,8.93-18.79-.41-12.68-.09-25.39-.11-38.09,0-1.25-.19-2.51-.31-4-28.78,19.35-60.86,24.43-94.05,24.38S221.38,312.88,192.55,293.22Zm0,72.61c-.09,1.61-.19,2.74-.2,3.88,0,13.46.08,26.91,0,40.36a18.28,18.28,0,0,0,5.45,13.45c6.56,6.79,14.69,11,23.37,14.29,19.59,7.5,40.05,10.2,60.81,10.68,24.48.56,48.56-2.19,71.6-11.13,8.21-3.19,16-7.17,22.24-13.6,3.39-3.49,5.48-7.57,5.49-12.54q0-21.54,0-43.07a13.75,13.75,0,0,0-.36-2.17c-28.71,19.36-60.8,24.37-94,24.34S221.39,385.46,192.54,365.83Zm0-145.09c-.09,2-.21,3.3-.2,4.6,0,13,.13,26,0,39-.07,6,1.94,11.05,6.35,14.91a64.08,64.08,0,0,0,11,7.94c17.83,9.8,37.43,13.49,57.35,15.3a207.06,207.06,0,0,0,71.08-5.36c12.48-3.23,24.57-7.49,34.75-15.83,5.7-4.67,8.79-10.36,8.58-18.05-.35-12.55-.09-25.1-.11-37.65,0-1.43-.14-2.86-.23-4.54C336.6,254.46,232.31,252,192.55,220.74Z"/><path class="cls-1" d="M454,317.62V477.51h28.51v14.26H439.59V390.64H410.71V376.22h28.34V245.38H410.64V231.1h28.54V136.8h43.3v13.8H454.06V303.36h28.5v14.26Z"/><path class="cls-2" d="M555.25,317.66c-13.75,0-27.51,0-41.26,0-10.49,0-16.24-5.73-16.32-16.29q-.14-20.17,0-40.36c.08-9,5.95-15.3,15-15.35q43.08-.26,86.14,0a14,14,0,0,1,14.41,14q.49,22,0,44c-.19,8.38-6.57,13.95-15.31,14C583.66,317.74,569.46,317.66,555.25,317.66Zm-43.37-14.3h87V259.88h-87Z"/><path class="cls-2" d="M497.71,325.68h13.94v28.46H599V325.83h14.07c0,10.07.49,20.17-.16,30.2-.47,7.24-6.53,12.33-13.94,12.37q-43.54.25-87.08,0a13.86,13.86,0,0,1-14.1-13.74C497.42,345.17,497.71,335.65,497.71,325.68Z"/><path class="cls-2" d="M555.25,489.61c-13.75,0-27.51,0-41.26,0-10.49,0-16.24-5.72-16.32-16.29q-.14-20.18,0-40.35c.08-9,5.95-15.3,15-15.36q43.08-.25,86.14,0c8.08.05,14.22,5.9,14.41,14q.49,22,0,44c-.19,8.38-6.57,13.95-15.31,14C583.66,489.69,569.46,489.61,555.25,489.61Zm-43.37-14.3h87V431.83h-87Z"/><path class="cls-2" d="M497.71,497.63h13.94v28.46H599V497.78h14.07c0,10.07.49,20.17-.16,30.2-.47,7.24-6.53,12.33-13.94,12.37q-43.54.25-87.08,0a13.86,13.86,0,0,1-14.1-13.74C497.42,517.12,497.71,507.6,497.71,497.63Z"/><path class="cls-2" d="M555.13,148.84c-13.75,0-27.51,0-41.26,0-10.49,0-16.25-5.73-16.32-16.29q-.15-20.17,0-40.36c.07-9,5.95-15.3,15-15.35q43.07-.26,86.14,0a14,14,0,0,1,14.4,14q.51,22,0,44c-.19,8.38-6.57,13.95-15.31,14C583.54,148.92,569.33,148.84,555.13,148.84Zm-43.37-14.3h87V91.06h-87Z"/><path class="cls-2" d="M497.59,156.86h13.94v28.46h87.35V157H613c0,10.07.48,20.17-.16,30.2-.47,7.24-6.53,12.33-13.94,12.37q-43.54.25-87.08,0a13.87,13.87,0,0,1-14.11-13.74C497.3,176.35,497.59,166.83,497.59,156.86Z"/><path class="cls-2" d="M540.73,449v13.74H526.91V449Z"/><path class="cls-2" d="M526.67,513.5V499.79h13.87V513.5Z"/><path class="cls-2" d="M540.58,339.43H526.75V325.55h13.83Z"/><path class="cls-2" d="M540.65,172.51H526.87V158.66h13.78Z"/><path class="cls-2" d="M526.69,121.5V107.81h13.93V121.5Z"/><path class="cls-2" d="M309.26,340.11h13.29v13.61H309.26Z"/><path class="cls-2" d="M280,340.14h13.55v13.5H280Z"/><path class="cls-2" d="M264.58,340.22v13.51H251.12V340.22Z"/><path class="cls-2" d="M322.54,426.43H309.2v-13.6h13.34Z"/><path class="cls-2" d="M280,412.74h13.58v13.52H280Z"/><path class="cls-2" d="M264.5,426.37H251.07V412.94H264.5Z"/><path class="cls-2" d="M322.59,281.15H309.16V267.73h13.43Z"/><path class="cls-2" d="M280.19,267.57h13.4v13.48h-13.4Z"/><path class="cls-2" d="M264.61,267.65v13.46H251.17V267.65Z"/><path class="cls-2" d="M526.83,274.63h13.66v13.9H526.83Z"/></g></svg>