<svg id="gris" xmlns="http://www.w3.org/2000/svg" viewBox="0 0 792 612"><defs><style>.cls-1{fill:#515151;}</style></defs><title>Tema</title><g id="sO8Ilg.tif"><path class="cls-1" d="M520.47,425.86c-5-.79-10-1.33-14.83-2.45-5.36-1.24-10.61-3-15.86-4.63a3,3,0,0,1-1.78-2.13c-.11-10.56-.08-21.12-.08-31.85,4.7,1.81,9.08,3.81,13.65,5.19,12.49,3.77,25.18,5.72,38.24,3.3s20.18-10,21.62-23.34c.3-2.81.79-5.59,1.27-8.95-5.61,1.17-10.76,2.34-16,3.3-26.17,4.89-58.29-9-61.86-45.94-1.68-17.37,1.54-33.63,12.14-47.9,9.11-12.25,21.92-18.73,36.29-22.43a133.36,133.36,0,0,1,44.07-3.79c13,1,25.88,2.83,38.81,4.3a10.84,10.84,0,0,1,1.23.37c-.79,2.14-1.43,4.28-2.37,6.29-2.86,6.17-5.88,12.27-8.73,18.44-.92,2-2.35,2-4.15,1.74-6.09-.76-5.79-1.32-5.6,4.89.55,18.17,1.32,36.34,1.85,54.51.44,14.93.17,29.83-3.13,44.5-5.49,24.5-21.08,38.73-45.17,44.17-4.88,1.1-9.89,1.62-14.83,2.41ZM562,274.62c-7.46-2-14.59-1.76-21.49,1.42-13.79,6.36-21.51,23.36-17.89,38.85,2.36,10.08,7.89,17.07,18.27,19.5a34.55,34.55,0,0,0,18.95-1c2.08-.69,2.94-1.61,2.87-3.95-.35-11.64-.53-23.29-.69-34.94C561.89,288,562,281.52,562,274.62Z"/><path class="cls-1" d="M174.1,189.22c0,1.08-.12,2.16-.12,3.24v168c-8.62,1.22-17,2.79-25.37,3.48-10.22.84-20.49,1.2-30.75,1.28A80,80,0,0,1,92.58,361C74,355,63.63,341.66,59.14,323.24c-1.22-5-1.67-10.26-2.47-15.41v-4.15c.6-4.47.94-9,1.85-13.4,3.11-15,9.86-27.87,23.38-36.2a68.76,68.76,0,0,1,35.38-10.2c6.43-.12,12.87.6,19.49,1v-3q0-24.62,0-49.21a21.25,21.25,0,0,1,.53-3.43Zm-37.33,86c-2.59-.56-5-1.31-7.54-1.6-10.91-1.3-20.7.84-27.93,9.89-6.4,8-7.77,17.41-6.57,27.17,1.32,10.74,6.71,18.9,17.07,23.05,7.59,3.05,15.46,2.73,23.31,1.16.69-.13,1.59-1.62,1.59-2.49C136.79,313.55,136.77,294.68,136.77,275.25Z"/><path class="cls-1" d="M736.35,304.87c-.79,5.25-1.22,10.59-2.46,15.73-3.52,14.6-10.43,27.29-22.71,36.4-10.4,7.71-22.51,10-35.2,10.23-14.2.28-27.46-2.46-39-11.31-13.32-10.24-20.37-24.07-22.74-40.45-1.62-11.24-.23-22.26,3.12-33,6.64-21.33,21.44-33.36,43.1-37.43,11.79-2.22,23.56-2.45,35.18.89,21.64,6.22,34.3,20.76,38.83,42.59.87,4.22,1.25,8.54,1.85,12.82Zm-38.18.14c-.12-7.28-1.24-14.33-4.91-20.77-3.9-6.83-9.52-10.85-17.66-10.94-8.42-.09-14.54,3.69-18.68,10.84-3.55,6.13-4.9,12.85-5,19.85-.16,9.13,1.38,17.83,6.57,25.64,6.11,9.18,22.56,12.5,31.47,1.37C696,323.38,697.87,314.45,698.17,305Z"/><path class="cls-1" d="M232.82,189.22q-.09,17-.16,34.05c0,1.17,0,2.33,0,3.69H196V189.22Z"/><path class="cls-1" d="M400.59,363.45H364.41c-.05-1.05-.15-2.08-.15-3.12q0-52.63-.07-105.27c0-2.43.69-3.4,3.06-4,19.06-4.5,38.25-8,58-7.27,10,.37,19.84,1.92,28.91,6.56,12.09,6.21,18.38,16.43,18.76,29.74.45,16.19,0,32.39,0,48.59,0,11.46,0,22.91,0,34.62H436.52v-3.51c.11-21.55.28-43.1.28-64.64a53.84,53.84,0,0,0-1.14-10.27c-1.5-7.54-5.36-11.36-13-11.32-6.84,0-13.69,1.34-20.51,2.23-.61.08-1.23,1.16-1.55,1.91a5.37,5.37,0,0,0-.06,2.05v83.66Z"/><path class="cls-1" d="M255.78,282.07V260.84c0-6.74,0-6.78,6.24-9,15.14-5.5,30.73-8.94,46.87-8.37A69.76,69.76,0,0,1,328.23,247c10.47,3.48,15.88,11.64,17.18,22.39a139.19,139.19,0,0,1,1,16.83c0,24-.25,48-.39,72,0,4,0,3.82-4,4.15-9.44.8-18.85,1.88-28.29,2.64-13.78,1.12-27.58,2.21-41.27-.86-18.7-4.18-25.4-16.67-25-33.88.24-10.18,3.19-19.48,11.57-26.19,7.1-5.69,15.46-8.71,24.22-10.39,8.31-1.58,16.75-2.55,25.15-3.66,2.12-.28,3.65-.76,3.52-3.29-.13-2.74.09-5.54-.4-8.2-.86-4.61-1.72-5.06-6.4-5.76-15.95-2.38-30.66,2.08-45.11,8-1.1.45-2.19.91-3.29,1.33C256.49,282.23,256.27,282.13,255.78,282.07ZM313.42,314c-5.3.54-10.34.78-15.28,1.65a44.74,44.74,0,0,0-11.78,3.43c-4.41,2.15-6.27,6.43-6.11,11.32.13,4,2.89,6.2,6.19,7.56,8.85,3.65,17.86,3.06,27,.74Z"/><path class="cls-1" d="M196.32,246.31h36.34v3.31c0,24.2.33,48.41-.18,72.6-.36,17.24-.79,34.52-3.72,51.62-2.35,13.69-8.45,24.9-20,32.92-3,2.08-6,4.21-9,6.29a9.35,9.35,0,0,1-10,.82c-5.76-2.81-11.54-5.55-17.3-8.37-3.95-1.93-7.86-3.94-11.92-6,4.3-2.74,8.51-5.48,12.77-8.12,13.67-8.5,20.56-21.19,21.44-36.85,1-17.53,1.16-35.11,1.4-52.67s.12-35,.16-52.45Z"/></g></svg>