<svg id="gris" xmlns="http://www.w3.org/2000/svg" viewBox="0 0 792 612"><defs><style>.cls-1{fill:#6d6d6d;}.cls-2{fill:#515151;}.cls-3{fill:#adadad;}.cls-4{fill:#fbfbfb;}</style></defs><title>Tema</title><g id="SFesEN.tif"><path class="cls-1" d="M638.55,304.27v8.64c-.43,18.48-12.11,32.15-20.27,47.31a72.46,72.46,0,0,1-5.64,9.54c-1.13,1.49-1.62,4.05-4.43,3.48-3.68-1.2-6.12-4.06-8.72-6.67q-25.74-25.74-51.5-51.46c-1.4-1.4-2.44-3.3-4.65-3.91-1,2.66,0,5.41-.72,8-.82,3-2.18,5.14-5.6,2.5-3-2.87-1.41-6.53-1.48-9.78-.15-6-2.09-10.62-7.63-13.38-.63-6.46-6.48-8.69-10.3-12.49q-40.17-40-80.07-80.27c-10-10.06-20.9-19.28-29.42-30.73-1.4-1.88-3.05-1.19-4.65-1.51-1.6-.94-2.57-2.64-4.18-3.57-3.35-2-7-1.78-8.58,1.61-5.24,11.25-9.4,22.93-11.12,35.34,5.15,6.39,11.65,9.66,20,9.21,3.1-.17,6.92-.37,6.19,4.8-1.6,4.07-5.21,2.44-7.88,2.42-17.54-.12-33.71,4.25-48.44,13.87-21.47,14-33.05,34.24-37.36,59.1-.41,2.39.52,5.72-3.47,6.15-2.77.6-3.79-1.48-5.3-3.17-2.78-3.13-5.18-7.06-10.28-6.75-5.08-1.49-9.64.61-14.34,2-4.91,1.41-9.82,2.84-14.63,4.59-9.65,3.5-12,13.22-5,21a13.74,13.74,0,0,1,2,2.27c.32,1.39-.34,3,1.48,4,6.7,3.69,10.77,10.2,16,15.43Q363.28,426.31,447.88,511c2.33,2.33,4.72,4.6,6.85,7.11,2.82,3.34,2.08,5.17-2.38,5.33q-77,0-154,0c-2.21,0-4.52-.62-6.64.59h-2.47c-5.38-1.94-11.41-1-16.6-4a44.29,44.29,0,0,1-16.63-17c-21.46-37-42.74-74.13-64.2-111.14-10.11-17.43-19.62-35.24-30.42-52.25-7-11-8.93-22.77-8.45-35.2.34-8.67,2-17,6.6-24.88,32.18-55.27,63.94-110.79,96.07-166.1a66.06,66.06,0,0,1,6.3-9.12c8.53-10.27,20.1-13,32.58-13,67.27-.09,134.54.09,201.8-.13,18.87-.06,31.94,7.75,41.36,24.26,31.08,54.49,62.57,108.74,94,163C636.32,286.65,637.36,295.39,638.55,304.27Z"/><path class="cls-2" d="M454.63,522.73c-2.37-2.56-4.66-5.2-7.13-7.66Q361.49,429,275.44,343q-7.17-7.19-14.32-14.4c-1.32-1.32-2.62-2.65-2.42-4.75,1.12-3,3.73-2.78,6.17-2.84,4.52-.13,9,0,13.55-.1,8.9-.3,11.08-2.53,11.35-11.59.13-4.11-.23-8.24.2-12.31.28-2.7.27-6,4.31-6.29,1.23-1.8,2.77-2.49,4.48-.76,3.34,3.4,7.65,6,9.11,11,3.45,1.1,2.79,4.07,2.95,6.61,1.27,19.52,6.63,37.55,19,53.15,21.65,27.39,58.82,39,92.06,27.61,34.13-11.71,53.76-36.07,58-72,5-42.11-24.21-82-64.21-90.57a67.87,67.87,0,0,1-9-2.21c-1.72-.62-3-1.32-2.66-3.41-2.42-.35-4.89-1.17-7.26-1-9.89.87-15.66-4.51-19.91-12.47.33-2.91,2.35-3.8,4.89-4.26a86.6,86.6,0,0,1,22.68-.95c5.79.47,7.12-1.23,5.2-6.84-2-5.82-4.15-11.6-6.2-17.41-.8-2.29-1.8-4.83,1.69-6,2.87-.09,4.34,2.1,6,3.8q56.67,56.63,113.27,113.29c2.14,2.15,4.67,4.11,5.23,7.42-1.15,3.54-3.74,2.43-6,1.75-5.1-1.51-10.24-2.89-15.31-4.51-4.08-1.3-6.34-.13-6.19,4.53.15,5.11-.18,10.24.15,15.34.37,5.73,2.23,7.78,8,7.91,8,.19,16,1,23.79-1.29a4.31,4.31,0,0,1,4.52.84c2.23-5,.44-10.52,1.83-15.46,1.63-.45,2.28.44,3,1.14q30.72,30.64,61.39,61.33a39.21,39.21,0,0,1,3,3.86c4.28,1.85,1.59,4.47.43,6.45-5.58,9.57-11,19.25-16.55,28.83-18.35,31.57-36.41,63.31-54.86,94.83a58.86,58.86,0,0,1-11.35,14.44c-6.91,6.2-15.61,6.54-23.94,8.27h-2.47c-12.39-1.43-24.83-.2-37.24-.65C459.42,523.27,456.92,524.08,454.63,522.73Z"/><path class="cls-3" d="M454.63,522.73l35.41.06c3.06,0,6.12,0,9,1.22H291.66c3.73-1.58,7.66-1.23,11.55-1.23Q378.92,522.74,454.63,522.73Z"/><path class="cls-4" d="M404,220.13c46.36,5.53,72.4,39.53,78.38,71.94,9,48.74-24.07,95-73.76,102.82-47.93,7.54-93.77-27.16-99.86-75.52a167.65,167.65,0,0,1-.9-18.46c.53-3,1-6.06,1.6-9.09a87.56,87.56,0,0,1,85.92-71.69C398.26,220.11,401.14,220.13,404,220.13Z"/><path class="cls-4" d="M294.28,290.7c-2.09,8.92-1.82,18-1.18,27,.31,4.34-1.22,6-5.47,5.94-9.64-.05-19.29.13-28.93.22-9.28-3.91-5.55-12.09-6-18.77-.38-5.81,4.2-7.3,8.68-8.68q13.8-4.25,27.56-8.66C291.89,286.78,294.34,286.44,294.28,290.7Z"/><path class="cls-4" d="M538.57,320.32a11.83,11.83,0,0,1-8.41,3.22c-8.63,0-17.26-.05-25.89,0-4.09.05-6-1.31-5.56-5.83a90.63,90.63,0,0,0-.83-25.79c-.94-5.05.84-5.65,5.24-4.22,8.78,2.86,17.68,5.35,26.53,8,8.34,1.94,10.24,7.74,9.36,15.35C538.66,314.15,538.71,317.25,538.57,320.32Z"/><path class="cls-4" d="M405.1,171.24c3.35,9.67,6.55,19.4,10.09,29,1.66,4.5,1.44,6.37-4.19,5.49-11.4-1.78-22.85-2-34.16,1a4.27,4.27,0,0,1-.38-4.11c3.39-10.77,6.76-21.55,10.19-32.31,1.12-3.49,3.51-5.2,7.27-5.6C399.42,164.11,403,166.23,405.1,171.24Z"/><path class="cls-2" d="M329.61,307.87a66.31,66.31,0,1,1,66.1,66.61A66.21,66.21,0,0,1,329.61,307.87Z"/><path class="cls-4" d="M440,310.24c-.69,17.22-8.34,30.42-23.71,38.3s-30.56,6.34-45-3.2c-4.28-2.83-5.9-5.6-1-9.31,3.18-2.43,2.44-4.81.46-7.89-8.91-13.8-7.42-29.83,3.46-40.65s27-12.39,40.64-3.35c3.54,2.35,5.86,2.19,8.29-.95,3.44-4.43,6-2.62,8.52,1A43.33,43.33,0,0,1,440,310.24Z"/><path class="cls-2" d="M376,307.11a19.92,19.92,0,1,1,18.66,20.64A19.81,19.81,0,0,1,376,307.11Z"/></g></svg>