<svg id="gris" xmlns="http://www.w3.org/2000/svg" viewBox="0 0 792 612"><defs><style>.cls-1{fill:#ececec;}.cls-2{fill:#515151;}</style></defs><title>Tema</title><path class="cls-1" d="M368.62,449.48H339.37l-4.69,13.84h-20L343.05,385h22.11l28.36,78.37H373.31Zm-4.91-14.74L354,406.05l-9.6,28.69Z"/><path class="cls-1" d="M458.71,422.63a23,23,0,0,1-9.6,9.1q-6.47,3.47-16.07,3.46H421.2v28.13H402.11V385H433q9.38,0,15.85,3.24a22.22,22.22,0,0,1,9.71,8.93,26,26,0,0,1,3.24,13.06A25.19,25.19,0,0,1,458.71,422.63Zm-19-5.19q2.67-2.56,2.67-7.26a9.63,9.63,0,0,0-2.67-7.26q-2.69-2.57-8.15-2.56H421.2V420h10.39Q437.05,420,439.74,417.44Z"/><path class="cls-1" d="M490.87,385v78.37H471.78V385Z"/><g id="ZIp9qh"><path class="cls-2" d="M274.45,434.82c-5.19,0-10.08-.08-15,0a82.86,82.86,0,0,1-42.25-10.08c-25-13.76-39.91-34.83-44.74-63-.38-2.19-.71-4.39-1.06-6.59v-13c.56-3.51.89-7.07,1.71-10.52,7.88-33.29,28-55.38,60.65-65.82a3.59,3.59,0,0,0,2.82-2.93,58.7,58.7,0,0,1,19.34-31.35c16.67-14.11,35.77-18.33,56.95-13.07,1.72.43,2.63.23,3.64-1.37a130.19,130.19,0,0,1,22.12-26.59,134.88,134.88,0,0,1,69.51-34.31c4.89-.85,9.84-1.37,14.76-2h16c4.36.55,8.73,1,13.07,1.67,31.27,4.86,57.68,19,79.11,42.17,21.65,23.39,33.31,51.27,35.66,83,.15,2,.91,2.6,2.57,3.22,24.54,9.12,41,26,48.82,51.1,1.55,5,2.2,10.21,3.27,15.33v13.5c-1.17,5.44-1.8,11.06-3.59,16.29-10.49,30.57-31.79,48.57-63.77,53.64a95,95,0,0,1-13.93.66,6.75,6.75,0,0,1-7.13-7c0-4.21,2.92-7.07,7.36-7,16.51.26,31.42-4.24,44.17-15a63.13,63.13,0,0,0-1.91-98.41,62.26,62.26,0,0,0-22.5-11c-5.91-1.57-7.35-3.39-7.49-9.42-.7-29.14-10.85-54.72-29.94-76.53-21.13-24.13-47.83-38.26-79.87-41.28-35.15-3.31-66.05,7.18-92.65,30.31A117.75,117.75,0,0,0,325.3,230.2c-2.73,4.78-5.6,5.91-10.76,3.88-11.93-4.68-24-5-35.76.06-16.46,7-26.39,19.51-29.38,37.28-.65,3.85-2.31,5.89-6.25,6.77C221.89,283,205.62,294.71,195,313.67c-11.66,20.84-12.66,42.64-2.89,64.36,9.37,20.87,25.57,34.45,47.78,40.23,6.13,1.59,12.64,2.05,19,2.39,7.48.39,15,.09,22.49.09,4.35,0,7.11,2.59,7.11,6.9v6.68"/></g><path class="cls-1" d="M379.84,284.84V347H364.71V284.84Z"/><path class="cls-1" d="M429.48,336H406.3l-3.72,11H386.74l22.48-62.12h17.52L449.21,347h-16Zm-3.89-11.68-7.7-22.74-7.61,22.74Z"/></svg>