<svg id="gris" xmlns="http://www.w3.org/2000/svg" viewBox="0 0 792 612"><defs><style>.cls-1{fill:#ececec;}.cls-2{fill:#515151;}</style></defs><title>Tema</title><g id="ZIp9qh"><path class="cls-1" d="M274.71,366.92c-5.18,0-10.08-.08-15,0a82.82,82.82,0,0,1-42.26-10.08c-25-13.75-39.9-34.82-44.74-63-.37-2.19-.7-4.39-1.05-6.58v-13c.55-3.51.89-7.08,1.71-10.53,7.87-33.28,28-55.38,60.65-65.81a3.61,3.61,0,0,0,2.82-2.94,58.68,58.68,0,0,1,19.34-31.35c16.67-14.1,35.77-18.33,56.94-13.06,1.73.43,2.64.22,3.65-1.37a130.24,130.24,0,0,1,22.12-26.6,134.93,134.93,0,0,1,69.5-34.31c4.89-.84,9.84-1.36,14.77-2h16c4.35.55,8.73,1,13.07,1.66,31.26,4.86,57.67,19,79.1,42.18,21.65,23.39,33.31,51.26,35.66,83,.15,2,.91,2.6,2.58,3.22,24.54,9.11,41,26,48.82,51.09,1.55,5,2.2,10.22,3.27,15.34v13.5c-1.17,5.43-1.8,11.06-3.59,16.28-10.49,30.58-31.8,48.57-63.77,53.64a93.81,93.81,0,0,1-13.94.66,6.74,6.74,0,0,1-7.13-7c0-4.21,2.92-7.08,7.37-7,16.5.26,31.41-4.24,44.16-14.95a63.14,63.14,0,0,0-1.9-98.42,62.46,62.46,0,0,0-22.51-11c-5.91-1.57-7.34-3.39-7.48-9.42-.7-29.14-10.85-54.71-29.94-76.53-21.13-24.13-47.83-38.25-79.87-41.27-35.15-3.31-66.06,7.18-92.66,30.3a117.71,117.71,0,0,0-24.86,30.73c-2.73,4.78-5.6,5.91-10.76,3.89-11.94-4.69-24-5-35.76.05-16.46,7-26.39,19.51-29.38,37.28-.65,3.85-2.32,5.89-6.26,6.77-21.25,4.78-37.52,16.52-48.13,35.49-11.67,20.83-12.66,42.63-2.9,64.35,9.38,20.87,25.58,34.45,47.79,40.23,6.13,1.6,12.63,2.06,19,2.39,7.47.4,15,.09,22.49.09,4.35,0,7.1,2.59,7.11,6.9v6.69"/></g><path class="cls-2" d="M498.24,400.71q0,44.81,0,89.61c0,12-7.26,19.47-16.37,25.52-13,8.67-27.79,13-43.06,15.35-27.32,4.23-54.48,3.56-81.17-4.37-11.79-3.5-23-8.32-32-17.07a27.72,27.72,0,0,1-8.8-20.91c.11-57.85.29-115.7-.15-173.54-.1-13.88,5.82-23.26,16.83-30.35,12.61-8.12,26.66-12.32,41.32-14.64,28.09-4.44,56-3.89,83.42,4.19,11.54,3.4,22.51,8.11,31.28,16.79a28,28,0,0,1,8.75,20.95C498.14,341.73,498.24,371.22,498.24,400.71Zm-87.8-60.46c4.46-.36,12.12-.81,19.76-1.61,13-1.35,25.66-4.09,37.39-9.86a60.67,60.67,0,0,0,14.72-10.28c5.46-5.19,5.14-11.48.22-17.19a30.14,30.14,0,0,0-4.13-3.85,64,64,0,0,0-27.68-12.4,266.87,266.87,0,0,0-37.3-5.08c-21.28-1.16-42.28,1.33-62.22,9.44a64.84,64.84,0,0,0-14.68,8.36c-10.13,7.73-10.11,16.38-.18,24.22a54.49,54.49,0,0,0,11.23,6.86C366.52,337.41,386.7,339.79,410.44,340.25ZM329,392.17c-.07,1.58-.17,2.79-.17,4,0,9.95.41,19.92-.13,29.84-.47,8.65,3.11,15,10.15,18.79,7.9,4.28,16.15,8.49,24.77,10.75a171.91,171.91,0,0,0,84.44.9c11.06-2.63,21.79-6.18,30.87-13.45,5-4,7.66-8.94,7.44-15.65-.33-10.57-.07-21.16-.09-31.74,0-1.05-.15-2.09-.26-3.34-24,16.12-50.71,20.35-78.36,20.31S353,408.55,329,392.17Zm0,60.5c-.07,1.33-.16,2.28-.16,3.23,0,11.21.07,22.42,0,33.63a15.27,15.27,0,0,0,4.54,11.21c5.47,5.65,12.25,9.13,19.48,11.9,16.32,6.25,33.37,8.5,50.67,8.9,20.4.47,40.46-1.82,59.66-9.28,6.84-2.65,13.32-6,18.53-11.33a14.68,14.68,0,0,0,4.58-10.44q0-17.94,0-35.89a11.08,11.08,0,0,0-.31-1.81c-23.91,16.13-50.66,20.31-78.31,20.29S353,469,329,452.67Zm0-120.89c-.08,1.65-.18,2.74-.18,3.83,0,10.84.12,21.67,0,32.51a15.43,15.43,0,0,0,5.29,12.42,52.73,52.73,0,0,0,9.14,6.61c14.85,8.18,31.19,11.25,47.79,12.76a172.23,172.23,0,0,0,59.22-4.47c10.4-2.69,20.47-6.24,29-13.19,4.74-3.89,7.32-8.63,7.14-15-.29-10.45-.07-20.92-.08-31.37,0-1.19-.12-2.38-.2-3.78C449,359.87,362.15,357.85,329,331.78Z"/></svg>