<svg id="gris" xmlns="http://www.w3.org/2000/svg" viewBox="0 0 792 612"><defs><style>.cls-1{fill:#515151;}</style></defs><title>Tema</title><g id="ZIp9qh"><path class="cls-1" d="M621.47,295.21c-1.17,5.44-1.8,11.06-3.59,16.28-10.49,30.58-31.8,48.58-63.77,53.65a93.67,93.67,0,0,1-13.93.65,6.73,6.73,0,0,1-7.13-7c0-4.21,2.92-7.07,7.36-7,16.51.25,31.41-4.24,44.17-15a63.13,63.13,0,0,0-1.91-98.41,62.4,62.4,0,0,0-22.51-11c-5.91-1.57-7.34-3.38-7.48-9.42-.7-29.14-10.85-54.71-29.94-76.52-21.13-24.14-47.83-38.26-79.87-41.28-35.15-3.31-66.05,7.18-92.66,30.31a117.92,117.92,0,0,0-24.86,30.73c-2.73,4.77-5.6,5.91-10.76,3.88-11.94-4.69-24-5-35.76.06-16.46,7-26.39,19.5-29.38,37.27-.65,3.85-2.31,5.89-6.25,6.78-21.26,4.77-37.53,16.51-48.14,35.48-11.66,20.84-12.66,42.63-2.9,64.36,9.38,20.86,25.58,34.44,47.79,40.23,6.13,1.59,12.63,2.05,19,2.38,7.48.4,15,.1,22.49.09,4.35,0,7.11,2.59,7.11,6.91q0,48.61,0,97.23a9.32,9.32,0,0,1-1,4.27c-1.2,2.22-3.32,3.13-5.86,3.12-6.5,0-13,.08-19.5-.07-2.25,0-3.14.77-3.81,2.84-7.19,22.08-35.45,28.58-51.72,11.95A31.1,31.1,0,0,1,242,428.11a29.69,29.69,0,0,1,16.42,18.77c.59,1.89,1.46,2.45,3.35,2.37,3.33-.16,6.67-.14,10,0,2,.08,2.75-.41,2.74-2.59-.08-20.5-.05-41-.05-61.5q0-8.25,0-16.5v-2.82c-5.19,0-10.09-.08-15,0a82.75,82.75,0,0,1-42.25-10.07c-25-13.76-39.91-34.83-44.74-63-.38-2.19-.71-4.39-1.06-6.59v-13c.56-3.51.89-7.07,1.71-10.52,7.88-33.29,28-55.39,60.65-65.82a3.59,3.59,0,0,0,2.82-2.93A58.73,58.73,0,0,1,256,162.58c16.67-14.1,35.77-18.33,56.94-13.06,1.73.43,2.64.22,3.65-1.37a129.92,129.92,0,0,1,22.12-26.59,134.81,134.81,0,0,1,69.5-34.31c4.9-.85,9.85-1.37,14.77-2h16c4.36.55,8.73,1,13.07,1.66,31.27,4.86,57.68,19,79.11,42.18,21.65,23.39,33.3,51.26,35.66,83,.14,2,.9,2.6,2.57,3.22,24.54,9.11,41,26,48.82,51.1,1.55,5,2.2,10.21,3.27,15.33ZM245.72,456.31a16.81,16.81,0,0,0-33.62-.41,16.81,16.81,0,1,0,33.62.41Z"/><path class="cls-1" d="M353.47,535.21c-.69-.23-1.37-.52-2.08-.69-13.66-3.21-23.83-15.18-24.25-28.56-.47-14.84,8.15-27.26,22-31.51,1.63-.49,2-1.26,2-2.81q0-51.6,0-103.2c0-.73-.08-1.47-.15-2.6H340.17l-29.24,0c-4.51,0-7.7-2.84-7.75-7s3.15-7.15,7.8-7.15q23,0,46,0c5.9,0,8.36,2.43,8.36,8.28q0,55.47,0,111c0,2,.48,3.07,2.57,3.72a30.61,30.61,0,0,1,21.4,30.89c-.58,14.36-10.95,26.15-25.16,29.09a15.56,15.56,0,0,0-1.64.51Zm4.61-14.35A16.63,16.63,0,0,0,375,504.48c0-9.43-7.65-17.29-16.76-17.24a17.31,17.31,0,0,0-16.84,17A16.8,16.8,0,0,0,358.08,520.86Z"/><path class="cls-1" d="M430.47,535.21c-5-1.28-9.93-2.78-14.1-6-9.76-7.63-14.11-17.66-12.19-29.85s9.11-20.46,20.8-24.61c1.77-.62,2.69-1.18,2.68-3.36q-.12-51.36-.06-102.74v-2.5c-1.2-.09-2.24-.23-3.27-.23q-18.49,0-37,0c-3.25,0-5.72-1.31-6.92-4.34-1.08-2.71-.9-5.56,1.35-7.62a7.67,7.67,0,0,1,4.57-2.09c16.41-.14,32.83-.11,49.25,0,3.75,0,6.34,3.19,6.36,7.54,0,11.92,0,23.83,0,35.75,0,25.5,0,51-.05,76.49,0,2.18,1.11,2.57,2.68,3.11a31,31,0,0,1,14.26,49.14,30.36,30.36,0,0,1-17.55,10.76,17.29,17.29,0,0,0-1.84.62Zm4.29-14.35a16.77,16.77,0,0,0,16.84-16.74c0-9.14-7.85-17-16.88-16.88A17.19,17.19,0,0,0,418,504.29,16.84,16.84,0,0,0,434.76,520.86Z"/><path class="cls-1" d="M518.44,402.63c0,14.57,0,29.15-.06,43.73,0,2.36.71,3,3,2.9,3.32-.18,6.66-.15,10,0,1.78.07,2.6-.47,3.17-2.24,5-15.37,19.46-24,35.34-21.26,15.18,2.65,26.54,17.22,25.28,32.43-1.37,16.5-14.39,29-30.3,29.09-14.43.09-25.82-8-30.33-21.79-.59-1.8-1.49-2.26-3.22-2.23-6.5.08-13,.07-19.5,0-4.79,0-7.38-2.6-7.39-7.42q0-42.86,0-85.72a9.44,9.44,0,0,0-.1-2.72,2.43,2.43,0,0,0-1.47-1.44,16.2,16.2,0,0,0-3.49-.13c-11.74,0-23.49.06-35.23,0-5.73,0-9-4.59-7.13-9.75a6.56,6.56,0,0,1,6.09-4.36q24.24,0,48.48,0c4.25,0,6.93,2.83,6.93,7.13q0,21.86,0,43.73Zm45.71,36.92a17,17,0,0,0-16.93,16.75c-.09,8.94,7.87,16.88,16.91,16.87,9.23,0,16.68-7.71,16.7-17.26C580.85,447,573.25,439.57,564.15,439.55Z"/></g></svg>