<svg id="gris" xmlns="http://www.w3.org/2000/svg" viewBox="0 0 792 612"><defs><style>.cls-1{fill:#515151;}.cls-2{fill:#ececec;}</style></defs><title>Tema</title><g id="ZIp9qh"><path class="cls-1" d="M274.45,434.82c-5.19,0-10.08-.08-15,0a82.86,82.86,0,0,1-42.25-10.08c-25-13.76-39.91-34.83-44.74-63-.38-2.19-.71-4.39-1.06-6.59v-13c.56-3.51.89-7.07,1.71-10.52,7.88-33.29,28-55.38,60.65-65.82a3.59,3.59,0,0,0,2.82-2.93,58.7,58.7,0,0,1,19.34-31.35c16.67-14.11,35.77-18.33,56.95-13.07,1.72.43,2.63.23,3.64-1.37a130.19,130.19,0,0,1,22.12-26.59,134.88,134.88,0,0,1,69.51-34.31c4.89-.85,9.84-1.37,14.76-2h16c4.36.55,8.73,1,13.07,1.67,31.27,4.86,57.68,19,79.11,42.17,21.65,23.39,33.31,51.27,35.66,83,.15,2,.91,2.6,2.57,3.22,24.54,9.12,41,26,48.82,51.1,1.55,5,2.2,10.21,3.27,15.33v13.5c-1.17,5.44-1.8,11.06-3.59,16.29-10.49,30.57-31.79,48.57-63.77,53.64a95,95,0,0,1-13.93.66,6.75,6.75,0,0,1-7.13-7c0-4.21,2.92-7.07,7.36-7,16.51.26,31.42-4.24,44.17-15a63.13,63.13,0,0,0-1.91-98.41,62.26,62.26,0,0,0-22.5-11c-5.91-1.57-7.35-3.39-7.49-9.42-.7-29.14-10.85-54.72-29.94-76.53-21.13-24.13-47.83-38.26-79.87-41.28-35.15-3.31-66.05,7.18-92.65,30.31A117.75,117.75,0,0,0,325.3,230.2c-2.73,4.78-5.6,5.91-10.76,3.88-11.93-4.68-24-5-35.76.06-16.46,7-26.39,19.51-29.38,37.28-.65,3.85-2.31,5.89-6.25,6.77C221.89,283,205.62,294.71,195,313.67c-11.66,20.84-12.66,42.64-2.89,64.36,9.37,20.87,25.57,34.45,47.78,40.23,6.13,1.59,12.64,2.05,19,2.39,7.48.39,15,.09,22.49.09,4.35,0,7.11,2.59,7.11,6.9v6.68"/></g><path class="cls-2" d="M268.13,331A30.61,30.61,0,0,1,280.05,319a34.64,34.64,0,0,1,17.34-4.32q11.88,0,20.34,6.27A30.09,30.09,0,0,1,329,338H311.17a14.42,14.42,0,0,0-5.65-6.37,15.88,15.88,0,0,0-8.32-2.19A15.53,15.53,0,0,0,285,334.7q-4.65,5.22-4.66,14t4.66,14a15.52,15.52,0,0,0,12.16,5.22,15.87,15.87,0,0,0,8.32-2.18,14.42,14.42,0,0,0,5.65-6.37H329a29.91,29.91,0,0,1-11.31,17.06q-8.46,6.22-20.34,6.22a34.64,34.64,0,0,1-17.34-4.32,30.62,30.62,0,0,1-11.92-12,38.35,38.35,0,0,1,0-35.21Z"/><path class="cls-2" d="M355.26,315.41v66.71H339V315.41Z"/><path class="cls-2" d="M403.25,291.84,377.78,399.89H362.1l25.47-108Z"/><path class="cls-2" d="M411.61,331A30.64,30.64,0,0,1,423.54,319a34.62,34.62,0,0,1,17.34-4.32q11.88,0,20.33,6.27A30.09,30.09,0,0,1,472.52,338H454.66a14.44,14.44,0,0,0-5.66-6.37,15.87,15.87,0,0,0-8.31-2.19,15.55,15.55,0,0,0-12.17,5.23q-4.65,5.22-4.65,14t4.65,14a15.54,15.54,0,0,0,12.17,5.22,15.86,15.86,0,0,0,8.31-2.18,14.44,14.44,0,0,0,5.66-6.37h17.86a29.91,29.91,0,0,1-11.31,17.06q-8.46,6.22-20.33,6.22a34.62,34.62,0,0,1-17.34-4.32,30.64,30.64,0,0,1-11.93-12,38.35,38.35,0,0,1,0-35.21Z"/><path class="cls-2" d="M525.92,319.59a29.93,29.93,0,0,1,12.22,11.74,37.24,37.24,0,0,1,0,34.82,29.78,29.78,0,0,1-12.26,11.79,39,39,0,0,1-18.39,4.18h-25V315.41h25A38.85,38.85,0,0,1,525.92,319.59ZM520.79,363q5.13-5,5.13-14.26t-5.13-14.34q-5.13-5.15-14.35-5.14h-7.69v38.77h7.69Q515.67,368.05,520.79,363Z"/></svg>