<svg id="Capa_1" data-name="Capa 1" xmlns="http://www.w3.org/2000/svg" viewBox="0 0 274 130"><defs><style>.cls-1{fill:#9c9b9b;}.cls-2{fill:#b1b1b1;}.cls-3{fill:#c6c6c5;}</style></defs><title>Logo</title><g id="KjZgqW"><path class="cls-1" d="M114.38,82.14a1.59,1.59,0,0,1-1.67-1.62,1.64,1.64,0,0,1,1.71-1.71,1.69,1.69,0,0,1,1.66,1.7A1.64,1.64,0,0,1,114.38,82.14Z"/><path class="cls-2" d="M111.48,80.49a1.62,1.62,0,0,1-1.61,1.66,1.67,1.67,0,0,1-1.66-1.72,1.71,1.71,0,0,1,1.61-1.63A1.69,1.69,0,0,1,111.48,80.49Z"/><path class="cls-2" d="M116,60.12a13,13,0,0,0-2.5-7.67,12.7,12.7,0,0,0-5-4.21A13.63,13.63,0,0,0,104,47c-1.17-.12-2.34,0-3.51-.06a16.28,16.28,0,0,0-3.75.23A14,14,0,0,0,93.3,48.3a13.67,13.67,0,0,0-6.94,8.38,5.38,5.38,0,0,0-.23,1.26.65.65,0,0,1,0,.13l-.15.49v.52l0,1c0,1.52,0,3,0,4.57,0,2.28-.11,4.56,0,6.83l0,.17a5.75,5.75,0,0,0,.2,1.49c.1.37.2.72.33,1.08a17.52,17.52,0,0,0,1,2.27,13.44,13.44,0,0,0,6.81,6,13.16,13.16,0,0,0,3.54.85c1.28.1,2.57,0,3.85,0,.27,0,.33-.16.33-.39,0-.73,0-1.45,0-2.18,0-1.14,0-2.28,0-3.42,0-.47,0-.47.49-.48h2.74a23.3,23.3,0,0,0,2.51-.08,9.34,9.34,0,0,0,3.92-1.4,9.13,9.13,0,0,0,4.35-7.8C116.09,65.12,116.05,62.62,116,60.12Zm-15.91,20.8c0,.31-.09.47-.45.43a13,13,0,0,1-2.16-.09,9.46,9.46,0,0,1-4.06-1.43,11.38,11.38,0,0,1-4.63-5.19,16.36,16.36,0,0,1-.89-3,9.73,9.73,0,0,1-.12-2.29c0-.19,0-.39,0-.59,0-3,0-6.05,0-9.08a8.25,8.25,0,0,1,.77-3.54,12.16,12.16,0,0,1,3.25-4.55,10.79,10.79,0,0,1,2.89-1.8c.15-.07.32-.14.43,0s-.06.28-.15.4a7.59,7.59,0,0,0-1.6,4.67c0,1.27.06,2.53-.05,3.79,0,.42-.1.84-.15,1.26-.08,3.13-.06,6.27,0,9.4a7.31,7.31,0,0,0,3.5,6.2,7,7,0,0,0,1.83.92,5.82,5.82,0,0,0,1.11.28c.32,0,.48.22.48.58C100.1,78.52,100.11,79.72,100.11,80.92Zm.26-7a1.48,1.48,0,0,1,0,.21c0,.76-.07.81-.81.63a.57.57,0,0,0-.25,0c-.32-.13-.63-.27-1-.38a5.78,5.78,0,0,1-3.17-3.86c-.17-.18,0-.44-.15-.63V61.2a.87.87,0,0,1,.09-.57c.12-.2.3-.19.49-.15a5.69,5.69,0,0,1,2.6,1.31,6.26,6.26,0,0,1,2.15,4.85C100.38,69.06,100.37,71.49,100.37,73.91Zm6.49.46c0,.16,0,.31,0,.47a3.71,3.71,0,0,1-.94,0h-3.38c-.66,0-.69,0-.69-.7,0-1.73,0-3.46,0-5.18a25.1,25.1,0,0,0-.08-3.68A7.6,7.6,0,0,0,99,60.48a8,8,0,0,0-2.85-1.41c-.53-.17-.55-.27-.28-.77A5.47,5.47,0,0,1,99,55.69a5.91,5.91,0,0,1,7.9,5.63C106.85,65.67,106.86,70,106.86,74.37Zm7.25-6.85a7.49,7.49,0,0,1-5,7c-.27.1-.35,0-.35-.25,0-4.27,0-8.54,0-12.8a7.85,7.85,0,0,0-5.07-7.51,8.18,8.18,0,0,0-5-.15,7.93,7.93,0,0,0-3.38,2c-.31,0-.28-.22-.29-.41a9.51,9.51,0,0,0,0-1.31,3.43,3.43,0,0,1,.43-1.76,6.4,6.4,0,0,1,3.06-3.1,3,3,0,0,1,1.24-.31,35.77,35.77,0,0,1,4,0,11,11,0,0,1,6.31,2.67,11.33,11.33,0,0,1,3.25,4.58,9.2,9.2,0,0,1,.64,2.54,2.88,2.88,0,0,1,.08,1,3.4,3.4,0,0,0,.07.46C114.11,62.64,114.12,65.08,114.11,67.52Z"/><path class="cls-3" d="M102.08,74.68a1.25,1.25,0,0,1,0-.45c0-2.61,0-5.22,0-7.83a7.4,7.4,0,0,0-.46-2.63,7.59,7.59,0,0,0-5.39-4.92c-.37-.1-.43-.24-.32-.55-.35.22-.29.64-.46,1a2.26,2.26,0,0,0-.29,1.38,5.32,5.32,0,0,1,2.78,1.2,5.7,5.7,0,0,1,2.23,4.51c.07,2.6,0,5.21,0,7.82,0,.28,0,.44-.07.51a.43.43,0,0,1,.07.25h2A.54.54,0,0,1,102.08,74.68Z"/><path class="cls-3" d="M102.29,48.82h0Z"/><path class="cls-3" d="M100.4,48.86h-1a10.41,10.41,0,0,0-2.55.24,8.19,8.19,0,0,0-2.09.71l.32,0A6.69,6.69,0,0,0,93.26,54c-.15,2,0,4,0,6,.09-.34.18-.69.28-1A8.76,8.76,0,0,1,95.18,56a5.22,5.22,0,0,1,0-2,5.84,5.84,0,0,1,2-3.67,5.23,5.23,0,0,1,3-1.39A.29.29,0,0,1,100.4,48.86Z"/><path class="cls-2" d="M95.18,56a.3.3,0,0,1-.16-.28v-1.4a.32.32,0,0,1,.16-.29c0,.44,0,.87,0,1.3a.55.55,0,0,0,.16.5C95.34,55.92,95.27,56,95.18,56Z"/><path class="cls-3" d="M106.86,80.49a1.61,1.61,0,0,1-1.61,1.66,1.68,1.68,0,0,1-1.66-1.72,1.71,1.71,0,0,1,1.61-1.63A1.68,1.68,0,0,1,106.86,80.49Z"/></g><path class="cls-3" d="M127.05,57.42a3,3,0,0,1,2.25.81,3.25,3.25,0,0,1,.79,2.37v3.56a.26.26,0,0,1-.29.3q-.27,0-.27-.3v-2h-5v2q0,.3-.27.3c-.19,0-.28-.1-.28-.3V60.6a3.25,3.25,0,0,1,.79-2.37A3,3,0,0,1,127.05,57.42Zm2.48,3.17a2.81,2.81,0,0,0-.64-2,2.44,2.44,0,0,0-1.85-.66,2.48,2.48,0,0,0-1.86.66,2.81,2.81,0,0,0-.64,2v1.08h5Z"/><path class="cls-3" d="M131.47,60.91a.65.65,0,0,0,.08.35.66.66,0,0,0,.26.23,1.8,1.8,0,0,0,.5.13,7.64,7.64,0,0,0,.77.05,6.92,6.92,0,0,1,1,.09,2.15,2.15,0,0,1,.68.25,1,1,0,0,1,.37.42,1.4,1.4,0,0,1,.11.6,1.26,1.26,0,0,1-.56,1.11,2.75,2.75,0,0,1-1.59.39,3,3,0,0,1-2.18-.73.29.29,0,0,1-.09-.21.29.29,0,0,1,.07-.19.28.28,0,0,1,.18-.06.25.25,0,0,1,.19.07,1.71,1.71,0,0,0,.74.46,3.13,3.13,0,0,0,1.05.16,2.34,2.34,0,0,0,1.23-.26.84.84,0,0,0,.43-.75.8.8,0,0,0-.09-.39.58.58,0,0,0-.28-.25,2,2,0,0,0-.53-.16,8,8,0,0,0-.82-.06,6.34,6.34,0,0,1-1-.08,1.77,1.77,0,0,1-.65-.23.91.91,0,0,1-.35-.38,1.33,1.33,0,0,1-.11-.56,1.28,1.28,0,0,1,.57-1.1,2.6,2.6,0,0,1,1.54-.4,2.8,2.8,0,0,1,1.92.64.32.32,0,0,1,.08.21.29.29,0,0,1-.07.18.21.21,0,0,1-.17.07.26.26,0,0,1-.2-.07,1.81,1.81,0,0,0-.67-.4,2.61,2.61,0,0,0-.85-.14,2.17,2.17,0,0,0-1.18.28A.83.83,0,0,0,131.47,60.91Z"/><path class="cls-3" d="M136.36,62a2.91,2.91,0,0,1,.19-1,2.64,2.64,0,0,1,.53-.81,2.45,2.45,0,0,1,.81-.52,2.68,2.68,0,0,1,1-.19,2.71,2.71,0,0,1,1,.19,2.26,2.26,0,0,1,1.33,1.33,2.71,2.71,0,0,1,.19,1,2.68,2.68,0,0,1-.19,1A2.26,2.26,0,0,1,140,64.34a2.91,2.91,0,0,1-1,.19,2.87,2.87,0,0,1-1-.19,2.45,2.45,0,0,1-.81-.52,2.64,2.64,0,0,1-.53-.81A2.87,2.87,0,0,1,136.36,62Zm.54,0a2.55,2.55,0,0,0,.14.84,1.92,1.92,0,0,0,.42.65,1.76,1.76,0,0,0,.64.43,2.53,2.53,0,0,0,1.66,0,1.76,1.76,0,0,0,.64-.43,2.06,2.06,0,0,0,.41-.65A2.32,2.32,0,0,0,141,62a2.16,2.16,0,0,0-.56-1.5,1.87,1.87,0,0,0-.64-.42,2.37,2.37,0,0,0-1.66,0,1.87,1.87,0,0,0-.64.42,2.06,2.06,0,0,0-.42.66A2.47,2.47,0,0,0,136.9,62Z"/><path class="cls-3" d="M147,63.44a.23.23,0,0,1-.06.16,2.1,2.1,0,0,1-.84.69,2.78,2.78,0,0,1-1.17.24,3,3,0,0,1-1-.19,2.31,2.31,0,0,1-.8-.52,2.47,2.47,0,0,1-.53-.81,2.68,2.68,0,0,1-.19-1,2.71,2.71,0,0,1,.19-1,2.47,2.47,0,0,1,.53-.81,2.31,2.31,0,0,1,.8-.52,2.76,2.76,0,0,1,1-.19,2.46,2.46,0,0,1,1.91.8.27.27,0,0,1,.07.18.24.24,0,0,1-.06.18.29.29,0,0,1-.18.07.28.28,0,0,1-.21-.1,1.85,1.85,0,0,0-.66-.47,2.21,2.21,0,0,0-.87-.17,2.24,2.24,0,0,0-.84.15,2,2,0,0,0-.64.42,2.16,2.16,0,0,0-.56,1.5,2.32,2.32,0,0,0,.15.84,2.06,2.06,0,0,0,.41.65,1.85,1.85,0,0,0,.64.43,2.47,2.47,0,0,0,.84.14,1.94,1.94,0,0,0,1.62-.75.14.14,0,0,1,.07-.06.25.25,0,0,1,.13,0,.23.23,0,0,1,.18.08A.27.27,0,0,1,147,63.44Z"/><path class="cls-3" d="M148.33,58.34c-.23,0-.34-.11-.34-.33s.11-.36.34-.36.34.12.34.36S148.56,58.34,148.33,58.34Zm0,1.13q.27,0,.27.3v4.41c0,.19-.09.28-.27.28s-.26-.09-.26-.28V59.77C148.07,59.57,148.16,59.47,148.33,59.47Z"/><path class="cls-3" d="M154.53,59.47q.27,0,.27.3v4.41c0,.19-.09.28-.27.28s-.26-.09-.26-.28v-.72h0a2,2,0,0,1-.83.79,2.78,2.78,0,0,1-1.26.28,2.66,2.66,0,0,1-1-.19,2.25,2.25,0,0,1-1.3-1.33,2.87,2.87,0,0,1-.18-1,2.93,2.93,0,0,1,.18-1,2.28,2.28,0,0,1,.51-.81,2.41,2.41,0,0,1,.79-.52,2.66,2.66,0,0,1,1-.18,2.78,2.78,0,0,1,1.26.27,2,2,0,0,1,.83.79h0v-.7C154.27,59.57,154.36,59.47,154.53,59.47ZM152.24,64a2.18,2.18,0,0,0,.82-.15,1.87,1.87,0,0,0,.64-.42,1.92,1.92,0,0,0,.42-.65,2.32,2.32,0,0,0,.15-.84,2.24,2.24,0,0,0-.15-.84,2.06,2.06,0,0,0-.42-.66,1.87,1.87,0,0,0-.64-.42,2.34,2.34,0,0,0-1.65,0,1.87,1.87,0,0,0-.64.42,2,2,0,0,0-.41.66,2.24,2.24,0,0,0-.15.84,2.32,2.32,0,0,0,.15.84,1.89,1.89,0,0,0,.41.65,1.76,1.76,0,0,0,.64.43A2.41,2.41,0,0,0,152.24,64Z"/><path class="cls-3" d="M160.52,63.44a.28.28,0,0,1-.05.16,2.2,2.2,0,0,1-.85.69,2.78,2.78,0,0,1-1.17.24,2.87,2.87,0,0,1-1-.19,2.26,2.26,0,0,1-.81-.52,2.47,2.47,0,0,1-.53-.81,2.68,2.68,0,0,1-.19-1,2.71,2.71,0,0,1,.19-1,2.47,2.47,0,0,1,.53-.81,2.26,2.26,0,0,1,.81-.52,2.68,2.68,0,0,1,1-.19,2.46,2.46,0,0,1,1.91.8.27.27,0,0,1,.07.18.24.24,0,0,1-.06.18.29.29,0,0,1-.18.07.28.28,0,0,1-.21-.1,1.85,1.85,0,0,0-.66-.47,2.21,2.21,0,0,0-.87-.17,2.16,2.16,0,0,0-.83.15,1.78,1.78,0,0,0-.64.42,2.06,2.06,0,0,0-.42.66,2.24,2.24,0,0,0-.15.84,2.32,2.32,0,0,0,.15.84,1.92,1.92,0,0,0,.42.65,1.68,1.68,0,0,0,.64.43,2.37,2.37,0,0,0,.83.14,1.94,1.94,0,0,0,1.62-.75.14.14,0,0,1,.07-.06.25.25,0,0,1,.13,0,.22.22,0,0,1,.18.08A.27.27,0,0,1,160.52,63.44Z"/><path class="cls-3" d="M161.74,58.34c-.23,0-.34-.11-.34-.33s.11-.36.34-.36a.32.32,0,0,1,.35.36C162.09,58.23,162,58.34,161.74,58.34Zm0,1.13q.27,0,.27.3v4.41c0,.19-.09.28-.27.28s-.26-.09-.26-.28V59.77C161.48,59.57,161.57,59.47,161.74,59.47Z"/><path class="cls-3" d="M163.21,62a2.71,2.71,0,0,1,.19-1,2.26,2.26,0,0,1,1.33-1.33,2.68,2.68,0,0,1,1-.19,2.71,2.71,0,0,1,1,.19,2.26,2.26,0,0,1,1.33,1.33,2.71,2.71,0,0,1,.19,1,2.68,2.68,0,0,1-.19,1,2.26,2.26,0,0,1-1.33,1.33,2.91,2.91,0,0,1-1,.19,2.87,2.87,0,0,1-1-.19A2.26,2.26,0,0,1,163.4,63,2.68,2.68,0,0,1,163.21,62Zm.53,0a2.32,2.32,0,0,0,.15.84,1.89,1.89,0,0,0,.41.65,1.76,1.76,0,0,0,.64.43,2.53,2.53,0,0,0,1.66,0,1.76,1.76,0,0,0,.64-.43,1.89,1.89,0,0,0,.41-.65,2.32,2.32,0,0,0,.15-.84,2.24,2.24,0,0,0-.15-.84,2,2,0,0,0-.41-.66,1.87,1.87,0,0,0-.64-.42,2.37,2.37,0,0,0-1.66,0,1.87,1.87,0,0,0-.64.42,2,2,0,0,0-.41.66A2.24,2.24,0,0,0,163.74,62ZM167,57.32a.3.3,0,0,1-.09.2l-1.25,1.19a.2.2,0,0,1-.15.06.17.17,0,0,1-.14-.06.2.2,0,0,1-.06-.14.23.23,0,0,1,.09-.18l1.2-1.21a.25.25,0,0,1,.19-.07.24.24,0,0,1,.15.06A.2.2,0,0,1,167,57.32Z"/><path class="cls-3" d="M171.9,59.41a2.06,2.06,0,0,1,1.59.58,2.43,2.43,0,0,1,.55,1.7v2.49a.24.24,0,0,1-.28.28c-.17,0-.26-.09-.26-.28V61.73q0-1.83-1.71-1.83a1.75,1.75,0,0,0-1.36.55,2.17,2.17,0,0,0-.5,1.5v2.23c0,.19-.09.28-.27.28s-.26-.09-.26-.28V59.76c0-.19.09-.29.26-.29s.27.1.27.29v.66h0a1.82,1.82,0,0,1,.78-.75A2.52,2.52,0,0,1,171.9,59.41Z"/><path class="cls-3" d="M182,57.18c.18,0,.27.1.27.29v6.71c0,.19-.09.28-.27.28s-.26-.09-.26-.28v-.72h0a2.1,2.1,0,0,1-.83.79,2.78,2.78,0,0,1-1.26.28,2.75,2.75,0,0,1-1-.19,2.32,2.32,0,0,1-1.3-1.33,2.87,2.87,0,0,1-.17-1,2.93,2.93,0,0,1,.17-1,2.3,2.3,0,0,1,.52-.81,2.48,2.48,0,0,1,.78-.52,2.75,2.75,0,0,1,1-.18,2.78,2.78,0,0,1,1.26.27,2.1,2.1,0,0,1,.83.79h0v-3C181.77,57.28,181.86,57.18,182,57.18ZM179.73,64a2.23,2.23,0,0,0,.83-.15,1.87,1.87,0,0,0,.64-.42,1.92,1.92,0,0,0,.42-.65,2.32,2.32,0,0,0,.15-.84,2.24,2.24,0,0,0-.15-.84,2.06,2.06,0,0,0-.42-.66,1.87,1.87,0,0,0-.64-.42,2.23,2.23,0,0,0-.83-.15,2.18,2.18,0,0,0-.82.15,1.79,1.79,0,0,0-1,1.08,2.24,2.24,0,0,0-.15.84,2.32,2.32,0,0,0,.15.84,1.86,1.86,0,0,0,1,1.08A2.39,2.39,0,0,0,179.73,64Z"/><path class="cls-3" d="M188.53,61.84a.3.3,0,0,1-.08.23.36.36,0,0,1-.23.08H184a2.13,2.13,0,0,0,.19.77,1.83,1.83,0,0,0,.43.59,1.92,1.92,0,0,0,.63.39,2.45,2.45,0,0,0,.83.13,2,2,0,0,0,1.66-.75.24.24,0,0,1,.19-.11.23.23,0,0,1,.2.09.32.32,0,0,1,.07.19.31.31,0,0,1-.07.17,2.59,2.59,0,0,1-.86.67,2.84,2.84,0,0,1-1.19.24,3,3,0,0,1-1.07-.19,2.44,2.44,0,0,1-.83-.52,2.32,2.32,0,0,1-.53-.81,2.68,2.68,0,0,1-.19-1,2.71,2.71,0,0,1,.19-1A2.26,2.26,0,0,1,185,59.6a3,3,0,0,1,2.06,0,2.39,2.39,0,0,1,.79.51,2.06,2.06,0,0,1,.52.77A2.54,2.54,0,0,1,188.53,61.84ZM186,59.9a2.11,2.11,0,0,0-.77.13,1.94,1.94,0,0,0-.61.35,2,2,0,0,0-.43.56,2.08,2.08,0,0,0-.21.72h4a2.08,2.08,0,0,0-.21-.72,1.82,1.82,0,0,0-.43-.56,1.74,1.74,0,0,0-.61-.35A2,2,0,0,0,186,59.9Z"/><path class="cls-3" d="M124.63,65.83c.23,0,.34.13.34.38v7.71c0,.25-.11.37-.34.37s-.34-.12-.34-.37V66.21C124.29,66,124.4,65.83,124.63,65.83Z"/><path class="cls-3" d="M129.73,68.17a2.53,2.53,0,0,1,1.94.7,2.91,2.91,0,0,1,.65,2.06v3c0,.23-.1.34-.32.34s-.32-.11-.32-.34V71c0-1.48-.69-2.22-2.08-2.22a2.08,2.08,0,0,0-1.64.67,2.58,2.58,0,0,0-.61,1.81V74c0,.23-.11.34-.33.34s-.31-.11-.31-.34V68.59c0-.23.1-.35.31-.35s.33.12.33.35v.8h0a2.26,2.26,0,0,1,.93-.91A3,3,0,0,1,129.73,68.17Z"/><path class="cls-3" d="M137.8,73.12a.47.47,0,0,1,0,.17,1.81,1.81,0,0,1-.75.8,2.3,2.3,0,0,1-1.17.28,2.08,2.08,0,0,1-1.58-.6,2.34,2.34,0,0,1-.57-1.68v-5.4q0-.36.33-.36c.21,0,.31.12.31.36v1.62h2.8c.21,0,.32.1.32.3s-.11.3-.32.3h-2.8V72.1a1.74,1.74,0,0,0,.41,1.23,1.46,1.46,0,0,0,1.13.44,1.53,1.53,0,0,0,.83-.21,1.28,1.28,0,0,0,.51-.57.3.3,0,0,1,.29-.18.25.25,0,0,1,.21.08A.3.3,0,0,1,137.8,73.12Z"/><path class="cls-3" d="M144.69,71.12a.35.35,0,0,1-.1.27.39.39,0,0,1-.28.1H139.2a2.55,2.55,0,0,0,.23.93,2.19,2.19,0,0,0,.51.72,2.42,2.42,0,0,0,.78.47,2.86,2.86,0,0,0,1,.16,2.58,2.58,0,0,0,1.17-.25,2.29,2.29,0,0,0,.84-.66.3.3,0,0,1,.24-.13.27.27,0,0,1,.24.1.33.33,0,0,1,.08.24.43.43,0,0,1-.08.21,2.91,2.91,0,0,1-1,.8,3.46,3.46,0,0,1-1.44.29,3.79,3.79,0,0,1-1.29-.22,2.79,2.79,0,0,1-1.65-1.62,3.57,3.57,0,0,1,0-2.52,2.79,2.79,0,0,1,1.62-1.61,3.56,3.56,0,0,1,2.49,0,3,3,0,0,1,1,.61,2.73,2.73,0,0,1,.63.93A3.07,3.07,0,0,1,144.69,71.12Zm-3-2.36a2.52,2.52,0,0,0-.93.16,2.28,2.28,0,0,0-.74.43,2.32,2.32,0,0,0-.52.67,2.44,2.44,0,0,0-.25.88h4.87a2.44,2.44,0,0,0-.26-.88,2.13,2.13,0,0,0-.51-.67,2.18,2.18,0,0,0-.74-.43A2.51,2.51,0,0,0,141.65,68.76Z"/><path class="cls-3" d="M148.92,68.2a.28.28,0,0,1,.32.31c0,.21-.1.31-.32.31a2.12,2.12,0,0,0-1.71.71,3.17,3.17,0,0,0-.6,2.1V74c0,.23-.11.34-.32.34S146,74.18,146,74V68.6c0-.24.1-.36.32-.36s.32.12.32.36v1h0A2.26,2.26,0,0,1,148.92,68.2Z"/><path class="cls-3" d="M153.28,68.17a2.51,2.51,0,0,1,1.93.7,2.91,2.91,0,0,1,.66,2.06v3c0,.23-.11.34-.33.34s-.32-.11-.32-.34V71q0-2.22-2.07-2.22a2.09,2.09,0,0,0-1.65.67,2.62,2.62,0,0,0-.61,1.81V74c0,.23-.11.34-.32.34s-.32-.11-.32-.34V68.59c0-.23.1-.35.32-.35s.32.12.32.35v.8h0a2.23,2.23,0,0,1,.94-.91A3,3,0,0,1,153.28,68.17Z"/><path class="cls-3" d="M163.25,71.12a.35.35,0,0,1-.11.27.37.37,0,0,1-.28.1h-5.11a2.76,2.76,0,0,0,.23.93,2.22,2.22,0,0,0,.52.72,2.37,2.37,0,0,0,.77.47,3,3,0,0,0,1,.16,2.58,2.58,0,0,0,1.17-.25,2.29,2.29,0,0,0,.84-.66.3.3,0,0,1,.24-.13.28.28,0,0,1,.24.1.38.38,0,0,1,.08.24.37.37,0,0,1-.09.21,2.87,2.87,0,0,1-1,.8,3.46,3.46,0,0,1-1.44.29,3.79,3.79,0,0,1-1.29-.22,2.77,2.77,0,0,1-1-.64,2.73,2.73,0,0,1-.64-1,3.57,3.57,0,0,1,0-2.52,2.74,2.74,0,0,1,1.61-1.61,3.59,3.59,0,0,1,2.5,0,3,3,0,0,1,1,.61,2.73,2.73,0,0,1,.63.93A3.27,3.27,0,0,1,163.25,71.12Zm-3-2.36a2.52,2.52,0,0,0-.93.16,2.18,2.18,0,0,0-.74.43A2.32,2.32,0,0,0,158,70a2.25,2.25,0,0,0-.25.88h4.87a2.66,2.66,0,0,0-.26-.88,2.13,2.13,0,0,0-.51-.67,2.28,2.28,0,0,0-.74-.43A2.51,2.51,0,0,0,160.21,68.76Z"/><path class="cls-3" d="M168.47,73.12a.33.33,0,0,1,0,.17,1.74,1.74,0,0,1-.74.8,2.32,2.32,0,0,1-1.18.28,2.06,2.06,0,0,1-1.57-.6,2.34,2.34,0,0,1-.57-1.68v-5.4c0-.24.1-.36.32-.36s.32.12.32.36v1.62h2.79c.22,0,.32.1.32.3s-.1.3-.32.3H165V72.1a1.74,1.74,0,0,0,.41,1.23,1.44,1.44,0,0,0,1.13.44,1.53,1.53,0,0,0,.83-.21,1.41,1.41,0,0,0,.51-.57.29.29,0,0,1,.28-.18.27.27,0,0,1,.22.08A.34.34,0,0,1,168.47,73.12Z"/><path class="cls-3" d="M170,74.29a.49.49,0,0,1-.34-.12.51.51,0,0,1,0-.66.49.49,0,0,1,.34-.12.45.45,0,0,1,.33.12.51.51,0,0,1,0,.66A.45.45,0,0,1,170,74.29Z"/><path class="cls-2" d="M179,68.17a2.09,2.09,0,0,1,1.7.67,3,3,0,0,1,.57,2V74c0,.23-.11.34-.32.34s-.33-.11-.33-.34V70.88a2.49,2.49,0,0,0-.43-1.59,1.55,1.55,0,0,0-1.27-.53,1.64,1.64,0,0,0-1.36.63,2.7,2.7,0,0,0-.51,1.73V74c0,.23-.11.34-.32.34s-.32-.11-.32-.34V70.88a2.49,2.49,0,0,0-.44-1.59,1.55,1.55,0,0,0-1.27-.53,1.66,1.66,0,0,0-1.37.63,2.76,2.76,0,0,0-.5,1.73V74c0,.23-.11.34-.33.34s-.31-.11-.31-.34V68.6c0-.24.1-.36.31-.36s.33.12.33.36v.65h0a2,2,0,0,1,.79-.8,2.29,2.29,0,0,1,1.16-.28,2.26,2.26,0,0,1,1.24.32,1.93,1.93,0,0,1,.75,1h0a2.29,2.29,0,0,1,.84-.93A2.41,2.41,0,0,1,179,68.17Z"/><path class="cls-2" d="M187.92,73.71A.39.39,0,0,1,188,74a.29.29,0,0,1-.1.23.36.36,0,0,1-.23.08.26.26,0,0,1-.14,0l-.12-.1-2.25-2.51-2.27,2.52a.32.32,0,0,1-.25.12.29.29,0,0,1-.22-.09.32.32,0,0,1-.09-.23.31.31,0,0,1,.09-.22l2.31-2.51-2.22-2.42a.36.36,0,0,1-.11-.27.27.27,0,0,1,.1-.22.32.32,0,0,1,.23-.09.2.2,0,0,1,.14,0,.53.53,0,0,1,.12.1l2.19,2.45,2.19-2.47a.35.35,0,0,1,.25-.12.29.29,0,0,1,.22.09.34.34,0,0,1,0,.46l-2.23,2.44Z"/></svg>