<svg id="Capa_1" data-name="Capa 1" xmlns="http://www.w3.org/2000/svg" viewBox="0 0 274 130"><defs><style>.cls-1{fill:#9c9b9b;}.cls-2{fill:#c6c6c5;}.cls-3{fill:#8e8e8e;}.cls-4{fill:#8c8c8c;}</style></defs><title>Logo</title><g id="MtN4d8"><path class="cls-1" d="M24.59,51.12c0-.2.08-.29.28-.28a2.16,2.16,0,0,0,.84.06H52c.49,0,.83,0,.81.63v.17a2.12,2.12,0,0,0-.05.83q0,12.73,0,25.47c0,1,0,1-.95,1H25.46c-.91,0-.81.08-.81-.84q0-13.09,0-26.17A2.17,2.17,0,0,0,24.59,51.12Z"/><path class="cls-2" d="M120.23,61c0-3.19,0-6.39,0-9.59,0-.48.11-.66.62-.63.94,0,1.88,0,2.82,0,.39,0,.53.1.53.51,0,6.32.06,12.65,0,19a8.51,8.51,0,0,1-3.9,7.21A10.24,10.24,0,0,1,116,79.07a17,17,0,0,1-2.94.11,9.37,9.37,0,0,1-7.77-3.91A8,8,0,0,1,103.86,71c-.31-6.47,0-13-.15-19.43,0-.68.2-.83.82-.79a16.47,16.47,0,0,0,2.33,0c.58,0,.69.18.69.71,0,5.65,0,11.29,0,16.93a11,11,0,0,0,.56,4.18A5.84,5.84,0,0,0,112.55,76a9.21,9.21,0,0,0,4.3-.44,5.16,5.16,0,0,0,3.24-3.87,11.4,11.4,0,0,0,.14-2.86C120.24,66.22,120.23,63.63,120.23,61Z"/><path class="cls-2" d="M129.83,64.8c0-4.4,0-8.79,0-13.19,0-.57.07-.8.74-.8q8.12,0,16.22,0c.56,0,.74.15.7.71a10.34,10.34,0,0,0,0,1.76c0,.53-.14.67-.67.66-3.92,0-7.85,0-11.77,0-1.4,0-1.4,0-1.4,1.39,0,2.26,0,4.51,0,6.77,0,.57.13.75.73.74,3.58,0,7.15,0,10.72,0,.53,0,.77.1.71.69a10.34,10.34,0,0,0,0,1.76c.06.59-.19.68-.71.68-3.58,0-7.15,0-10.72,0-.51,0-.73.07-.73.67,0,2.82,0,5.64,0,8.46,0,.5.15.62.63.62,4.26,0,8.51,0,12.76,0,.6,0,.79.16.74.74a17.37,17.37,0,0,0,0,1.91c0,.36-.1.49-.48.48-.65,0-1.31,0-2,0-4.89,0-9.78,0-14.67,0-.62,0-.82-.13-.82-.8C129.84,73.59,129.83,69.19,129.83,64.8Z"/><path class="cls-2" d="M84.26,64.76q0-6.53,0-13.05c0-1-.1-.87.91-.88.75,0,1.51.05,2.26,0s.64.28.64.76q0,11.35,0,22.71c0,1.38,0,1.38,1.41,1.38,3.71,0,7.43,0,11.14,0,.53,0,.78.09.72.68a9.41,9.41,0,0,0,0,1.76c.06.6-.2.69-.72.68-5.22,0-10.44,0-15.66,0-.61,0-.72-.19-.72-.76C84.27,73.6,84.26,69.18,84.26,64.76Z"/><path class="cls-2" d="M210.39,64.76c0-4.41,0-8.83,0-13.25,0-.58.18-.7.71-.69,5.22,0,10.44,0,15.66,0,.41,0,.75-.06.75.58s-.4.55-.78.55c-4.82,0-9.64,0-14.46,0-.57,0-.75.13-.75.73,0,3.48,0,7,0,10.44,0,.62.21.71.76.71,4.19,0,8.37,0,12.56,0,.41,0,.69,0,.69.57s-.26.57-.69.57c-4.13,0-8.27,0-12.41,0-.74,0-.92.2-.91.92,0,3.72,0,7.43,0,11.14,0,.53.14.67.66.67,4.87,0,9.73,0,14.6,0,.46,0,.74,0,.71.62s-.2.52-.59.52h-7.27c-2.82,0-5.64,0-8.46,0-.68,0-.79-.22-.78-.83C210.4,73.56,210.39,69.16,210.39,64.76Z"/><path class="cls-2" d="M184,78.75c2.08-2.93,4.05-5.73,6-8.52l3.77-5.32c.24-.34.12-.61-.11-.92-1.93-2.71-3.84-5.43-5.76-8.15l-3.49-4.93a1.78,1.78,0,0,1,2.21.92c2.54,3.77,5.19,7.47,7.8,11.2.24.36.4.46.73,0,2.7-3.92,5.44-7.81,8.17-11.72.35-.5.67-.56,1.87-.39q-4.69,6.65-9.38,13.24a.55.55,0,0,0,0,.75l6.9,9.81,2.53,3.56a.84.84,0,0,1,.19.43c-1.11.4-1.63-.26-2.19-1.07-2.56-3.76-5.18-7.49-7.78-11.22-.21-.3-.46-.57-.7-.87-2.12,3-4.21,6-6.3,9-.91,1.3-1.8,2.62-2.73,3.92C185.38,79,184.75,78.69,184,78.75Z"/><path class="cls-2" d="M232.68,64.72V51.54c0-.66.46-.94,1.08-.7.18.07.18.19.19.33v.56q0,12.56,0,25.1c0,.61.12.83.79.82,4.28,0,8.55,0,12.83,0,.46,0,.68.06.66.6s-.15.55-.57.54c-2,0-4,0-5.92,0-2.78,0-5.55,0-8.32,0-.58,0-.75-.14-.74-.73C232.69,73.61,232.68,69.16,232.68,64.72Z"/><path class="cls-2" d="M177.09,64.8c0-4.44,0-8.88,0-13.32,0-.6.22-.68.73-.67.36,0,.42.17.42.48,0,.75,0,1.5,0,2.26q0,12.26,0,24.52c0,.46,0,.73-.62.72s-.52-.29-.52-.67V64.8Z"/><path class="cls-3" d="M24.59,51.12a2.22,2.22,0,0,1,.12,1.11q0,12.77,0,25.53c0,1.14,0,1.14,1.12,1.14H51.43c1.21,0,1.22,0,1.22-1.21V52.8a2.2,2.2,0,0,1,.13-1.11q0,5.31,0,10.64V78.12c0,.93,0,.93-.93.93H25.57c-1,0-1,0-1-1V51.9C24.57,51.64,24.59,51.38,24.59,51.12Z"/><path class="cls-4" d="M52.78,51.52c-.17-.62-.67-.55-1.14-.55H26a2.22,2.22,0,0,1-1.11-.13H52C52.5,50.82,52.91,50.84,52.78,51.52Z"/><path class="cls-2" d="M78.9,70.28a6.43,6.43,0,0,0-2.45-5.06A8.91,8.91,0,0,0,74.25,64a6.91,6.91,0,0,0,3.18-2.77A7.08,7.08,0,0,0,78,56.19,5.85,5.85,0,0,0,76.36,53a8.1,8.1,0,0,0-5.55-2.19c-3.43-.09-6.86,0-10.29,0-.51,0-.69.09-.69.65q0,13.32,0,26.65c0,.54.16.66.68.66q4.93,0,9.87,0a9.4,9.4,0,0,0,2.48-.29,7.7,7.7,0,0,0,4.93-3.33A8.37,8.37,0,0,0,78.9,70.28ZM63.64,62c0-1.22,0-2.44,0-3.66s0-2.54,0-3.81c0-.4.07-.58.53-.58,1.93,0,3.86-.07,5.78,0,1.43.08,2.9.38,3.72,1.76a4.4,4.4,0,0,1-2.19,6.53,7,7,0,0,1-2.52.43c-1.52,0-3,0-4.58,0C63.83,62.71,63.62,62.58,63.64,62ZM74.71,72.72A4.4,4.4,0,0,1,71.1,75.5a41,41,0,0,1-6.17.15c-1.27,0-1.27,0-1.27-1.29,0-2.65,0-5.31,0-8,0-.49.13-.64.63-.63,1,0,2.06,0,3.32,0a28.11,28.11,0,0,1,3.69.14c2.71.55,3.54,2,3.79,4.28A5.19,5.19,0,0,1,74.71,72.72Z"/><path class="cls-2" d="M170.42,56.76c-.89-3.83-3.64-5.67-7.38-5.89-3.18-.19-6.39,0-9.58-.06-.6,0-.8.11-.79.76,0,4.4,0,8.79,0,13.19v7.89c0,1.83,0,3.67,0,5.5,0,.2-.14.48.19.6.64.24,1.07,0,1.07-.71,0-3.43,0-6.86,0-10.29,0-.53.12-.72.69-.71,1.93,0,3.86,0,5.78,0a17,17,0,0,0,4.57-.43A7,7,0,0,0,169.81,63,9.11,9.11,0,0,0,170.42,56.76Zm-6.69,8.89a45.75,45.75,0,0,1-4.69.13c-1.73,0-3.09,0-4.45,0-.47,0-.65-.09-.65-.61q0-6.32,0-12.62c0-.52.18-.62.65-.61,2.65,0,5.32-.1,8,0,3.14.16,5.92,1.7,6.69,5.21C170.11,61.1,168.35,64.87,163.73,65.65Z"/></g></svg>