<svg id="Capa_1" data-name="Capa 1" xmlns="http://www.w3.org/2000/svg" viewBox="0 0 274 130"><defs><style>.cls-1{fill:#c6c6c5;}</style></defs><title>Logo</title><g id="_0VBfrd.tif" data-name="0VBfrd.tif"><path class="cls-1" d="M199.81,70.31l-.13,0v-6.6h.14Z"/><path class="cls-1" d="M199.66,76.25h.15v6.57h-.15Z"/><path class="cls-1" d="M191.2,45.74s0,.1,0,.14h-6s0-.09,0-.14Z"/><path class="cls-1" d="M155.21,45.74s0,.1,0,.14h-6a.75.75,0,0,0,0-.15Z"/><path class="cls-1" d="M106.54,84.08a.66.66,0,0,0,0-.14h2.53a.57.57,0,0,0,0,.13Z"/><path class="cls-1" d="M82.6,84.08s0-.09,0-.13H85a.65.65,0,0,0,0,.14Z"/><path class="cls-1" d="M198.53,75a5,5,0,0,0-1.09-.07,22.85,22.85,0,0,1-2.34-.05,2.62,2.62,0,0,1-2.23-1.5c-.55-1.21-.16-1.86,1.16-1.89s2.86,0,4.29,0c1.08,0,1.32-.24,1.41-1.32V63.75c-.16-1-.45-1.29-1.46-1.33s-2.29,0-3.44,0c-2.09,0-2.29-.21-2.29-2.27,0-4.25,0-8.5,0-12.75,0-1.11-.25-1.37-1.35-1.57h-5.83c-1.11.13-1.39.43-1.42,1.51,0,.29,0,.58,0,.86,0,4.17,0,8.34,0,12.51,0,1.4-.3,1.69-1.71,1.7-1.59,0-3.18,0-4.77,0a5.43,5.43,0,0,0-2.84.74,3.36,3.36,0,0,0-1.79,3c0,1.87,0,3.75,0,5.63a5.29,5.29,0,0,1-.23,1.77,1.7,1.7,0,0,1-.94,1.09A.74.74,0,0,1,170.5,74a10.45,10.45,0,0,1,0-1.48,11.36,11.36,0,0,0-6.72-10,13.07,13.07,0,0,0-5.5-.89c-1.4,0-1.68-.29-1.71-1.7V58.66c0-3.75,0-7.51,0-11.26,0-1.14-.3-1.45-1.43-1.58h-5.76c-1.26.24-1.4.42-1.41,1.7,0,.42,0,.84,0,1.25,0,4.15,0,8.3,0,12.44a2.37,2.37,0,0,1-1.62,2.53c-2.2.93-4.36,2-6.56,2.95-.8.36-1,.21-1.06-.67,0-.26,0-.52,0-.78V48.18c0-.28,0-.57,0-.86,0-.9-.39-1.35-1.28-1.42a38.32,38.32,0,0,0-5.77,0c-1,.07-1.27.44-1.37,1.39a7.38,7.38,0,0,0,0,.94V74.27a4.07,4.07,0,0,1-.21,1.62.86.86,0,0,1-.8.63.88.88,0,0,1-.81-.63,3.59,3.59,0,0,1-.21-1.38c0-1.62,0-3.24,0-4.85a12.37,12.37,0,0,0-.73-4.22,8.55,8.55,0,0,0-4.5-5.06,11.51,11.51,0,0,0-5.12-.79,8.58,8.58,0,0,0-8.93,8.29c-.17,1.88-.08,3.75-.13,5.62a4.77,4.77,0,0,1-.11,1.25c-.1.37-.29.69-.72.71s-.66-.27-.81-.62a4,4,0,0,1-.23-1.61c0-2.22,0-4.44,0-6.65a3.85,3.85,0,0,0-3.4-4,8.91,8.91,0,0,0-1.63-.15c-1.8,0-3.6,0-5.4,0-1.27,0-1.57-.33-1.61-1.57,0-.34,0-.68,0-1,0-4.12,0-8.24,0-12.36,0-1.24-.25-1.42-1.48-1.62a3.35,3.35,0,0,0-.55,0H88.79c-2.05,0-2.36.3-2.36,2.36,0,3.88,0,7.77,0,11.65,0,1.31-.32,1.62-1.63,1.63a26.34,26.34,0,0,0-2.65.16c-4.39.5-8.86,4.7-9.21,8.94a9.06,9.06,0,0,1-.19,1.63v1.88a19.2,19.2,0,0,0,.46,3.13c1.31,3.41,4.69,7,9.51,6.8h2.14a9.06,9.06,0,0,0,3.58-.6,11.17,11.17,0,0,0,6.32-8,19.57,19.57,0,0,0,.13-3.59c.05-1.25.63-1.68,1.83-1.32A1.88,1.88,0,0,1,98.07,72a8.32,8.32,0,0,1,.1,1.4,15.46,15.46,0,0,0,.93,5c1.3,3.28,3.42,5.7,7.58,5.56H109a6.46,6.46,0,0,0,6.15-3.23,11.23,11.23,0,0,0,1.59-5.58c0-1.59,0-3.18,0-4.77a3.41,3.41,0,0,1,.18-1.31,1.32,1.32,0,0,1,2.49.06,4.21,4.21,0,0,1,.14,1.32c0,2.45,0,4.9,0,7.35a7.1,7.1,0,0,0,1.57,4.5,3.48,3.48,0,0,0,2.81,1.4c3.25.06,6.5-.08,9.75.07a4.27,4.27,0,0,0,3.95-1.47c.75-1,.94-1,1.94-.32a11.31,11.31,0,0,0,6.29,1.84c4.45,0,8.91,0,13.37,0q8.28,0,16.58,0c.81,0,1.61,0,2.42-.09a3.37,3.37,0,0,0,3-3.51c0-1.85,0-3.7,0-5.55,0-.66,0-1.31,0-2a1.16,1.16,0,0,1,1.39-1.21c.84,0,1.17.41,1.24,1.38a13.51,13.51,0,0,0,1.15,4.93,9.66,9.66,0,0,0,7.68,5.88,38.73,38.73,0,0,0,5.7.13c.89,0,1.07-.24,1.28-1.1V76.39C199.63,75.32,199.51,75.19,198.53,75ZM86.83,70.88a11.61,11.61,0,0,0,0,1.18c0,.41,0,.83,0,1.25A2.89,2.89,0,0,1,85,76a2.82,2.82,0,0,1-3.14-.47A2.93,2.93,0,0,1,81,72.41,3.13,3.13,0,0,1,84.08,70c.62,0,1.25,0,1.87,0S86.89,70.22,86.83,70.88Zm60.9,4.91h-.39a5.92,5.92,0,0,1-3.29-.83c-.92-.65-.89-1,.09-1.51,1.13-.54,2.25-1.1,3.38-1.63.78-.37.81-.35.8.53a15,15,0,0,0,.2,2.5C148.66,75.76,148.64,75.77,147.73,75.79Zm14.33-2.72a3.05,3.05,0,0,1-2.81,2.86,3,3,0,0,1-3.12-2.4,16.28,16.28,0,0,1-.1-3c0-.4.23-.56.59-.57s.89,0,1.33,0v0c.55,0,1.1,0,1.64.13A3,3,0,0,1,162.06,73.07Z"/><path class="cls-1" d="M106.25,55.63a3.87,3.87,0,1,1-3.9-3.83A3.84,3.84,0,0,1,106.25,55.63Z"/><path class="cls-1" d="M173.37,55.61a3.75,3.75,0,1,1,3.74,3.73A3.73,3.73,0,0,1,173.37,55.61Z"/></g></svg>