<svg id="Capa_1" data-name="Capa 1" xmlns="http://www.w3.org/2000/svg" viewBox="0 0 274 130"><defs><style>.cls-1{fill:#c6c6c5;}.cls-2{fill:#9c9b9b;}</style></defs><title>Logo</title><g id="FyC9AA.tif"><path class="cls-1" d="M69.84,47.1c.7.19,1.41.36,2.1.58,7.6,2.34,12.11,7.45,13.58,15.25.09.5.43,1.28-.58,1.36-.74.06-1.33.13-1.53-1C82.19,56.4,78.2,51.86,71.5,49.74c-1.44-.46-1.46-.42-1.46,1.07,0,2.24,0,4.48,0,6.72,0,1.3-.36,1.68-1.69,1.7-1.88,0-3.78.06-5.66,0-1.21,0-1,.74-1,1.46s-.08,1.38,1,1.34c1.92-.07,3.85,0,5.77,0,1.23,0,1.57.34,1.58,1.55,0,1.4,0,2.8,0,4.2,0,1-.43,1.41-1.41,1.4-1.92,0-3.85,0-5.77,0-1,0-1.33.34-1.21,1.27a3.31,3.31,0,0,1,0,.63c-.09.77.23,1.06,1,1,2,0,3.92,0,5.88,0,1.19,0,1.48.29,1.49,1.5,0,2.38,0,4.76,0,7.14,0,.87.23,1.06,1.1.86A16.69,16.69,0,0,0,83.47,67.78c.16-1.27.35-1.45,1.43-1.31s.71,1.09.63,1.64A18.34,18.34,0,0,1,75.89,82,17.67,17.67,0,0,1,69.33,84c-1.3.15-1.41,0-1.41-1.24,0-2.52,0-5,0-7.55,0-.83-.27-1.12-1.09-1.1-1.89,0-3.78,0-5.67,0-1.33,0-1.64-.34-1.65-1.7s0-2.51,0-3.77.35-1.6,1.64-1.61c1.89,0,3.78,0,5.67,0,.8,0,1.11-.22,1.11-1.07,0-1.89,0-1.89-1.84-1.9-1.65,0-3.29,0-4.94,0-1.31,0-1.63-.32-1.64-1.59s0-2.59,0-3.89S59.91,57,61.11,57C63,57,65,57,66.88,57c.83,0,1.09-.29,1.08-1.1,0-2.94,0-5.88,0-8.82Z"/><path class="cls-1" d="M65.85,47.1c-.12,2-.12,2-2,2.37a16.45,16.45,0,0,0,.44,32.31c.79.14,1.72.09,1.59,1.4-.07.79-.41.95-1.08.85a18.41,18.41,0,0,1-9.64-4.29,18.21,18.21,0,0,1-6.49-13,.71.71,0,0,0-.2-.57v-1a28.33,28.33,0,0,0,.22-3.32,13.14,13.14,0,0,1,2.19-6.13,18.66,18.66,0,0,1,9.36-7.91,13.89,13.89,0,0,1,3.8-.59c.2,0,.42,0,.6-.11Z"/><path class="cls-2" d="M225.24,72.93c-3.25,0-6.5,0-9.75,0-.72,0-1-.18-1-.93,0-4.62,0-9.23,0-13.85,0-.67.11-1,.9-1,2.83,0,5.66.06,8.49,0,1,0,.85.52.88,1.12s-.07,1-.88,1c-2.06-.06-4.13,0-6.19,0-.81,0-1,.26-1,1a17.63,17.63,0,0,1,0,2.62c-.08.87.3,1,1.08,1,1.85-.05,3.71,0,5.56,0,.92,0,.78.51.79,1.06s.09,1.09-.81,1.06c-1.92-.06-3.85,0-5.77,0-.63,0-.87.18-.85.83.05,1.08.05,2.17,0,3.25,0,.67.25.82.87.81,2.13,0,4.26,0,6.39,0a2.13,2.13,0,0,1,1.22.19Z"/><path class="cls-2" d="M98.35,65c0-2.28,0-4.55,0-6.82,0-.75.16-1,1-1,2.77,0,5.53.06,8.29,0,.87,0,1,.37,1,1.06s-.06,1.09-.94,1.06c-2.06-.07-4.13,0-6.19,0-.71,0-.91.24-.88.9a26.9,26.9,0,0,1,0,2.84c-.05.76.27.93,1,.91,1.88,0,3.78,0,5.66,0,.89,0,.83.47.83,1.06s0,1.08-.84,1.06c-1.92-.06-3.85,0-5.77,0-.63,0-.87.18-.85.83,0,1.08,0,2.17,0,3.25,0,.68.27.82.87.81,2.2,0,4.41,0,6.61,0,.87,0,1,.37,1,1.06S108.91,73,108,73c-2.93-.06-5.87,0-8.81,0-.69,0-.9-.2-.89-.88C98.37,69.71,98.35,67.37,98.35,65Z"/><path class="cls-2" d="M197.86,69.84l3.66-9.74c.29-.75.58-1.5.84-2.26a.85.85,0,0,1,.91-.65c1.81,0,1.81-.08,1.16,1.59-1.74,4.42-3.51,8.82-5.21,13.25-.3.79-.73.92-1.48.93a1.2,1.2,0,0,1-1.35-.92c-1.75-4.64-3.54-9.25-5.35-13.87-.31-.77-.2-1,.67-1a1.75,1.75,0,0,1,2.08,1.43c1.12,3.41,2.4,6.77,3.63,10.15C197.53,69.06,197.67,69.37,197.86,69.84Z"/><path class="cls-2" d="M181.14,65.16c0,2.31,0,4.61,0,6.91,0,1-.5.85-1.1.87s-1.1,0-1.1-.89q.07-7,0-13.93c0-1,.52-.9,1.18-.94s1,.14,1,1C181.1,60.49,181.14,62.83,181.14,65.16Z"/><path class="cls-1" d="M122.35,65.15a1.63,1.63,0,0,1-1.65,1.65A1.74,1.74,0,0,1,119,65.11a1.66,1.66,0,0,1,1.7-1.62A1.57,1.57,0,0,1,122.35,65.15Z"/><path class="cls-2" d="M146.93,64.72c-.23-4.15-2.52-6.76-6.62-7.39a55.15,55.15,0,0,0-6.17-.14c-.73,0-1,.21-.95.94,0,2.31,0,4.61,0,6.92s0,4.68,0,7c0,.34-.16.87.46.85,2.47-.09,5,.34,7.41-.3A7.58,7.58,0,0,0,146.93,64.72Zm-5.47,5.46c-1.82.87-3.75.66-5.66.66-.56,0-.43-.45-.44-.76,0-1.68,0-3.36,0-5s0-3.28,0-4.92c0-.6.1-.91.79-.86a33,33,0,0,1,4,.16,5.42,5.42,0,0,1,4.47,5A5.5,5.5,0,0,1,141.46,70.18Z"/><path class="cls-2" d="M166.72,69.39l-2.18-3.51.56-.17a4.25,4.25,0,0,0,3.2-4.47,4,4,0,0,0-3.69-3.91,52.39,52.39,0,0,0-6.39-.13c-.68,0-.58.46-.58.87,0,4.65,0,9.31,0,14,0,1,.56.88,1.19.91s1.18,0,1.13-1c-.08-1.68,0-3.36,0-5,0-.29-.13-.64.23-.84a2.31,2.31,0,0,1,2.47.72l3.14,5.44c.19.33.31.7.82.68.72,0,1.43,0,2.33,0Zm-6.34-5.28c-.47,0-.47-.31-.47-.64V61.59c0-2.52,0-2.53,2.53-2.46a10.19,10.19,0,0,1,1.56.16,2.2,2.2,0,0,1,2,2.22,2.22,2.22,0,0,1-1.84,2.43A17.34,17.34,0,0,1,160.38,64.11Z"/></g></svg>