<svg id="Capa_1" data-name="Capa 1" xmlns="http://www.w3.org/2000/svg" viewBox="0 0 274 130"><defs><style>.cls-1{fill:#dde5ec;}.cls-2{fill:#c6c6c5;}.cls-3{fill:#d9d9d9;}.cls-4{fill:#b1b1b1;}.cls-5{fill:#6f6f6e;}.cls-6{fill:#868686;}.cls-7{fill:#a9aaae;}.cls-8{fill:#b2b5b9;}.cls-9{fill:#9c9b9b;}.cls-10{fill:#f4de9c;}</style></defs><title>Logo</title><g id="HNOTIo.tif"><path class="cls-1" d="M112.27,84.15a2.49,2.49,0,0,0-.72-.08c-1.19-.08-2.39-.14-3.59-.24-.73-.07-1.46-.13-2.18-.24a8.33,8.33,0,0,1-2.21-.49c-.12,0-.28-.1-.26-.27s.15-.21.28-.26a11.29,11.29,0,0,1,1.72-.4c.7-.12,1.42-.15,2.12-.28.08,0,.09,0,.11.1a2.2,2.2,0,0,0,0,.36.2.2,0,0,1,0,.15.31.31,0,0,1-.26.06,3.21,3.21,0,0,0-1.79.29l.61-.15a2.79,2.79,0,0,1,.64-.07,3.68,3.68,0,0,1,1.67.38.85.85,0,0,0,.63.06,1.54,1.54,0,0,1,1.25.26,1.65,1.65,0,0,0-.8-.37c-.06,0-.14,0-.16-.09s0-.14.09-.19a1.64,1.64,0,0,1,.74-.41l.07,0a.75.75,0,0,1,.23,0,.54.54,0,0,0-.28,0l-.07,0a.67.67,0,0,0-.36.09.91.91,0,0,0-.46.38.52.52,0,0,1-.85.09,1.24,1.24,0,0,1,0-.27,5.1,5.1,0,0,1,0-.68c.13-.15.31-.11.47-.12,1-.06,2-.13,3-.17l2.78-.1c2.68-.12,5.35-.07,8-.08.79,0,1.58,0,2.37.05,1,0,1.9,0,2.86.1s2.2.11,3.3.2a41.71,41.71,0,0,1,4.16.48,4.91,4.91,0,0,1,1.11.29c.15.06.36.11.37.33s-.21.3-.39.36a12.87,12.87,0,0,1-2.38.48c-.87.12-1.74.2-2.62.27-.69.06-1.4.1-2.1.13-.93.05-1.87.1-2.8.13-.63,0-1.27.06-1.9.07-2.09,0-4.19.06-6.28,0-1.29,0-2.58,0-3.87-.06C113.81,84.22,113,84.21,112.27,84.15Z"/><path class="cls-2" d="M133.31,62.35l.12-.1a3,3,0,0,1,.75-.46,5.57,5.57,0,0,1,1-.27.23.23,0,0,1,.11,0,1.8,1.8,0,0,0,.4,0h.08c.47,0,.94,0,1.4,0a4.83,4.83,0,0,1,1.31.32c.33.16.37.22.26.59a11.8,11.8,0,0,1-.3,1.17c-.17.21-.37.09-.56,0a4.09,4.09,0,0,0-2.61.06,1.51,1.51,0,0,0-.17.1l-.07,0a1.44,1.44,0,0,0-.61.7l0,.07a3.73,3.73,0,0,0-.34,1.57,5.46,5.46,0,0,0,.16,1.76,4.71,4.71,0,0,0,.21.52,2.37,2.37,0,0,0,.32.46,1.75,1.75,0,0,0,1.28.51,4.5,4.5,0,0,0,.82,0c.21,0,.28-.12.27-.33,0-.39,0-.78,0-1.18s0-.28-.29-.28h-.65c-.3,0-.43-.14-.43-.44s0-.72,0-1.08.1-.36.37-.36c.9,0,1.81,0,2.71,0,.27,0,.37.1.37.37,0,1.43,0,2.86,0,4.29a.48.48,0,0,1-.28.45,1.51,1.51,0,0,1-.29.13c-.11.09-.25.09-.37.15a8,8,0,0,1-1.68.31,9.48,9.48,0,0,1-1.18-.08l-.27,0a5,5,0,0,1-.86-.23,3.22,3.22,0,0,1-2-2c-.09-.43-.22-.84-.29-1.27a14.43,14.43,0,0,1,0-2.46,5.15,5.15,0,0,1,.35-1.48,2.64,2.64,0,0,1,.54-1A1.3,1.3,0,0,1,133.31,62.35Z"/><path class="cls-2" d="M150.56,75.65l0,0a2.77,2.77,0,0,0,0,.41h0a.94.94,0,0,0,.66.23,1.19,1.19,0,0,1,.83.25A.93.93,0,0,1,152,78a2.11,2.11,0,0,1-1.83.19.24.24,0,0,1-.2-.25c0-.21.08-.28.29-.23a2.37,2.37,0,0,0,1.06,0,.5.5,0,0,0,.39-.64.33.33,0,0,0-.28-.25l-.52-.09a1,1,0,0,1-.82-.37.92.92,0,0,1,.54-1.38A2.17,2.17,0,0,1,152,75a.27.27,0,0,1,.19.37c0,.19-.19.14-.31.11a2.22,2.22,0,0,0-.77-.07A.63.63,0,0,0,150.56,75.65Z"/><path class="cls-3" d="M102.91,68.14c0-.28-.07-.56-.09-.85s0-.26.26-.24c.49,0,1,0,1.47.12s.78.1,1.17.15a.14.14,0,0,1,0,.07c-.13.11-.07.26-.06.39,0,.35,0,.35-.31.4a.25.25,0,0,0-.12,0,1.09,1.09,0,0,0-.34.13.34.34,0,0,1-.35,0c-.08,0,.11-.1,0-.11a2.53,2.53,0,0,0-.68.07,3.15,3.15,0,0,0-.61.13c-.24,0-.26,0-.31-.19A.25.25,0,0,0,102.91,68.14Z"/><path class="cls-4" d="M103.21,70.06a6.14,6.14,0,0,1-.51-.81c-.08-.13,0-.23.09-.27.31-.11.59-.28.9-.36.51,0,1-.11,1.52-.12l.35,0c.29,0,.33,0,.34.36-.26.13-.53.22-.79.34a9,9,0,0,0-1.38.88l-.09,0C103.4,70.3,103.4,70.3,103.21,70.06Z"/><path class="cls-5" d="M105.73,66.58c-.11-.81-.16-1.63-.23-2.44-.12-1.36-.25-2.71-.37-4.07,0-.48-.06-1-.1-1.44a.1.1,0,0,1,.09,0,1.35,1.35,0,0,1,.13.63c0,.67.1,1.35.17,2,0,.46.08.93.12,1.4.06.73.12,1.46.19,2.19,0,.44,0,.88.11,1.32a.53.53,0,0,1,0,.35S105.76,66.6,105.73,66.58Z"/><path class="cls-5" d="M105.07,58.63h0c-.08-.9-.15-1.8-.23-2.7s-.16-1.84-.25-2.75a.42.42,0,0,0,0-.15.12.12,0,0,1,0-.12.07.07,0,0,1,.07,0,.18.18,0,0,1,.07.05.5.5,0,0,1,.1.31c0,.54.11,1.06.12,1.6s.07.9.12,1.34,0,1.17.16,1.75A1,1,0,0,1,105.07,58.63Z"/><path class="cls-5" d="M105.73,66.58h0a.93.93,0,0,1,.07.81.09.09,0,0,1-.12,0v-.07C105.78,67.08,105.69,66.83,105.73,66.58Z"/><path class="cls-4" d="M103.7,70.05v.06l-.1.07c-.22.2-.28.18-.4-.12C103.38,70.3,103.54,70.16,103.7,70.05Z"/><path class="cls-2" d="M172.9,77a.88.88,0,0,0-.68-.25,2,2,0,0,1-.59-.13.81.81,0,0,1-.26-1.29l.17-.18a2.27,2.27,0,0,1,1.52-.09.29.29,0,0,1,.18.4c0,.08-.1.07-.17,0a2.44,2.44,0,0,0-1-.07.46.46,0,0,0-.43.42.41.41,0,0,0,.31.45c.27.1.56,0,.83.14s.7.28.65,1a.83.83,0,0,1-.7.74,2,2,0,0,1-1.16,0h0c-.17,0-.38,0-.33-.31,0-.13.07-.16.18-.1h0a2.68,2.68,0,0,0,1.26,0l.24-.21A.7.7,0,0,0,172.9,77Z"/><path class="cls-2" d="M105.82,67.39c.09-.27-.07-.53,0-.81,0-.7-.11-1.41-.17-2.11,0-.47-.09-.95-.13-1.42,0-.69-.12-1.38-.17-2.06s-.13-1.1-.13-1.65a2.44,2.44,0,0,0-.1-.71c0-.8-.13-1.6-.18-2.39,0-.54-.11-1.08-.13-1.62s-.09-1-.14-1.57c0,0,0-.11-.05-.16a.23.23,0,0,1-.11-.19c0-.33-.09-.65,0-1v0a11.69,11.69,0,0,0-.11-1.56c0-.5-.1-1-.11-1.49,0-.19,0-.32.21-.39l.08,0c.23,0,.45-.13.68,0l.25.1c.11.14.07.31.09.46.12,1.13.19,2.27.3,3.41.06.59.09,1.18.16,1.77s.08,1,.13,1.53c.07.67.12,1.34.17,2s.11,1.09.14,1.63.06.89.11,1.33c.1,1,.17,2,.26,3s.17,1.89.24,2.83c0,.61.1,1.22.15,1.83.08,1,.17,1.9.25,2.85,0,.59.08,1.17.15,1.76.05.32,0,.4-.34.45l-.44.08h-.05c-.43,0-.44,0-.47-.46-.12-1.24-.22-2.49-.33-3.74l0-.19c-.06-.29-.12-.59-.15-.88S105.7,67.57,105.82,67.39Z"/><path class="cls-6" d="M105.17,48.2l-.71,0c0-.2,0-.41-.07-.62s.06-.19.17-.24a2.78,2.78,0,0,0,.5,0h.07s0,0,0,0a1.67,1.67,0,0,1,.06.5C105.19,48,105.25,48.1,105.17,48.2Z"/><path class="cls-7" d="M107.53,82.49h.06v0c0,.09-.14.06-.22.06h-.88a3.79,3.79,0,0,1,1.6.18c.22.09.42.3.66.27a4,4,0,0,1,.69,0,2.3,2.3,0,0,0-.64,0,.36.36,0,0,1-.42-.2.05.05,0,0,1,0-.06.06.06,0,0,1,.07,0,.5.5,0,0,0,.71-.08l.1-.08c.12,0,.18-.11.27-.17s.39-.26.64-.17a.19.19,0,0,1-.16.09,1.22,1.22,0,0,0-.71.49,1.45,1.45,0,0,1,.67.18.71.71,0,0,1,.47.46,1.89,1.89,0,0,0-1.23-.42h-.09c-.4.23-.71,0-1-.16a3.4,3.4,0,0,0-2-.17c-.28.08-.56.13-.84.2a1.29,1.29,0,0,1,.7-.37A4.16,4.16,0,0,1,107.53,82.49Z"/><path class="cls-8" d="M110.25,82.29l.13-.1h-.23c.18-.13.32,0,.48,0C110.51,82.32,110.38,82.28,110.25,82.29Z"/><path class="cls-8" d="M110.15,82.19c-.12.09-.27,0-.4.1C109.85,82.12,110,82.21,110.15,82.19Z"/><path class="cls-6" d="M105.82,68a4.81,4.81,0,0,1,.09.85h0c0-.26-.16-.31-.38-.29-.48,0-1,.07-1.45.14-.11,0-.23.06-.33,0h0c.08,0,.19,0,.25-.11l.6-.2a.48.48,0,0,0,.41-.11.31.31,0,0,1,.3,0s0,0,.07,0A.52.52,0,0,0,105.82,68Z"/><path class="cls-6" d="M105.82,68c0,.17-.11.23-.28.21a1.22,1.22,0,0,0-.27,0s0-.06,0-.07c.35-.06.34-.06.29-.45,0-.11-.11-.26.11-.28h.1Z"/><path class="cls-2" d="M150.13,65.23c0,.1.13.06.19.06.73,0,1.46,0,2.19,0,.2,0,.26-.06.26-.26,0-.93,0-1.86,0-2.79,0-.36,0-.41.41-.41s.87,0,1.31,0c.23,0,.33.09.33.33v8.66c0,.27-.07.34-.34.34h-1.36c-.28,0-.35-.08-.35-.37,0-1.11,0-2.23,0-3.35,0-.22-.06-.29-.28-.28-.71,0-1.43,0-2.14,0-.07,0-.17,0-.22.06s0,.18,0,.27v3.3c0,.32,0,.36-.37.37s-.89,0-1.33,0c-.23,0-.34-.08-.34-.32,0-2.9,0-5.79,0-8.69,0-.23.1-.33.34-.33q.69,0,1.38,0c.24,0,.32.1.32.34,0,.93,0,1.86,0,2.79C150.1,65.05,150.07,65.15,150.13,65.23Z"/><path class="cls-2" d="M159,71.21a2.78,2.78,0,0,0-.5.11,5.59,5.59,0,0,1-1.58-.1c-.13,0-.23-.14-.38-.11l-.4-.3a2.13,2.13,0,0,1-.53-1.47v-4.2c0-.3,0-.34.34-.34h1.44c.2,0,.23.16.23.34v3.72a.78.78,0,0,0,.33.74,1.62,1.62,0,0,0,1.31-.12.31.31,0,0,0,.2-.33c0-1.32,0-2.63,0-4,0-.36.05-.41.4-.41h1.28c.24,0,.33.1.33.34v5.73a.3.3,0,0,1,0,.22.52.52,0,0,1-.3.08,3.75,3.75,0,0,0-.67,0c-.2,0-.36,0-.4-.25s-.08-.16-.19-.1A5.59,5.59,0,0,1,159,71.21Z"/><path class="cls-2" d="M153.45,75.84c0-.71,0-1.41,0-2.12,0-.2.07-.28.28-.28.76,0,1.53,0,2.29,0,.2,0,.23.09.24.26s-.06.24-.23.23h-1.87c-.17,0-.23,0-.23.22,0,.37,0,.74,0,1.11,0,.18,0,.25.24.25.5,0,1,0,1.51,0,.17,0,.36,0,.35.25s-.22.19-.36.19c-.51,0-1,0-1.53,0-.17,0-.22,0-.21.21,0,.46,0,.92,0,1.38,0,.19.08.23.24.22H156c.16,0,.23,0,.23.2s-.05.25-.23.25h-2.34c-.19,0-.24-.08-.24-.26C153.45,77.25,153.45,76.54,153.45,75.84Z"/><path class="cls-2" d="M144.44,70.82a2.45,2.45,0,0,1-.5-.66,4.41,4.41,0,0,1-.15-1.25c0-.73,0-1.45,0-2.18,0-.19-.05-.26-.24-.25H143c-.18,0-.27-.07-.28-.24v-.93a.24.24,0,0,1,.21-.25c.21-.06.43-.13.65-.17s.19-.11.18-.25c0-.45,0-.9,0-1.35,0-.23.07-.33.31-.32h1.41c.23,0,.31.1.31.32,0,.42,0,.84,0,1.26,0,.19.07.24.25.24s.59,0,.88,0,.32.1.32.32v1c0,.22-.09.33-.32.32H146c-.15,0-.2,0-.2.21,0,.78,0,1.56,0,2.34a.64.64,0,0,0,.19.47.87.87,0,0,0,.81.23c.41,0,.44,0,.44.41v.71a.3.3,0,0,1-.22.32,3.48,3.48,0,0,1-2.14-.09A2.91,2.91,0,0,1,144.44,70.82Z"/><path class="cls-2" d="M139,75.05c.05.18.15.22.32.11a1.26,1.26,0,0,1,.29-.12,1.29,1.29,0,0,1,1.2.21.17.17,0,0,0,.21,0,1.53,1.53,0,0,1,1.61,0,1.1,1.1,0,0,1,.29.78c0,.66,0,1.33,0,2,0,.21-.1.25-.28.25s-.26-.07-.26-.27V76c0-.43-.12-.55-.55-.55h-.35c-.36,0-.43.14-.43.48,0,.69,0,1.38,0,2.06,0,.18-.08.24-.25.23s-.29,0-.29-.24c0-.68,0-1.37,0-2.06,0-.37-.09-.47-.45-.48a1.65,1.65,0,0,0-.69.09.24.24,0,0,0-.18.27v2.12c0,.16,0,.31-.23.31s-.28-.1-.28-.31c0-.86,0-1.72,0-2.59C138.7,75.09,138.76,75,139,75.05Z"/><path class="cls-2" d="M142.13,68c0,1,0,1.92,0,2.87,0,.23-.09.3-.3.3-.48,0-1,0-1.43,0-.21,0-.31-.07-.31-.29V65.11c0-.23.1-.33.34-.33h1.36c.27,0,.33.06.33.34Z"/><path class="cls-4" d="M127.48,60.94a4,4,0,0,0-.61.4l-1.71,1.21a1.43,1.43,0,0,0-.56.41l-3,2.21-.4.31-1.35,1c-.32.21-.61.46-.94.67a6.41,6.41,0,0,0-.52.39c-.15.12-.31.22-.46.35l-.1.09a2.12,2.12,0,0,0-.71.5L114.92,70a1.84,1.84,0,0,1-.28.15c-.16,0-.13,0-.06-.12a3.46,3.46,0,0,1,.44-.34A35.1,35.1,0,0,0,118.2,67c.81-.75,1.58-1.54,2.34-2.35s1.67-1.81,2.49-2.74,1.67-1.88,2.51-2.81c.5-.55,1-1.12,1.52-1.64a9.1,9.1,0,0,1,3.37-2.19,8.16,8.16,0,0,1,1.87-.48,5.86,5.86,0,0,1,2.13-.06,4.73,4.73,0,0,1,.6.29,18.78,18.78,0,0,1,2.57,1.66.52.52,0,0,1,.11.1c.06.07.21.09.18.18s-.19.07-.29.07c-.47,0-.93.06-1.39.12a17.44,17.44,0,0,0-5.74,2c-.11.09-.25.14-.37.22s-.37.18-.53.3a.38.38,0,0,0-.18.09C128.75,60.14,128.1,60.51,127.48,60.94Z"/><path class="cls-6" d="M108.45,82.55l0,.24h0a2.1,2.1,0,0,1-.8-.3h0c-.1-1.24-.21-2.49-.32-3.73a.32.32,0,0,0,0-.09c-.17-1.81-.33-3.63-.5-5.44h0a2.34,2.34,0,0,1,.79-.13s0,0,0,0c.08.84.15,1.68.23,2.52s.16,1.67.25,2.51.12,1.48.19,2.22S108.38,81.82,108.45,82.55Z"/><path class="cls-2" d="M133.57,54.3l.86.45a8.49,8.49,0,0,0-.88,0,12.48,12.48,0,0,0-2.64.46,9.37,9.37,0,0,0-2.87,1.5,12.66,12.66,0,0,0-1.85,1.81l-1,1.16-2,2.27c-.73.83-1.47,1.64-2.22,2.45s-1.25,1.33-1.91,2a32.3,32.3,0,0,1-4,3.41l-.38.28c-.07,0-.08.09,0,.1a2.43,2.43,0,0,1-.46.3,2.72,2.72,0,0,0-.65.35c-.1.12-.24.15-.36.23-.57.31-1.15.58-1.72.85-.08,0-.17,0-.24.08a14,14,0,0,1-1.87.7c-.07,0-.15,0-.19.1L108,73l-.19,0a.08.08,0,0,1,0-.07c.37-.17.37-.17.31-.59,0,0,0-.08,0-.11a.54.54,0,0,0,0-.25l0-.06a1.13,1.13,0,0,1-.09-.65,1.06,1.06,0,0,0,0-.19,2.37,2.37,0,0,0,0-.53l0-.07a1.4,1.4,0,0,1-.09-.81,1.65,1.65,0,0,0-.1-.79,1.46,1.46,0,0,1,0-.83.56.56,0,0,0,0-.36,1.65,1.65,0,0,0-.06-.32,1,1,0,0,1-.09-.74,1.89,1.89,0,0,0,0-.67s0,0,0-.08a1.39,1.39,0,0,1-.1-.83,1.44,1.44,0,0,0-.1-.79,1.22,1.22,0,0,1,0-.78.59.59,0,0,0,0-.37,1.44,1.44,0,0,0-.07-.36.92.92,0,0,1-.09-.67,2.49,2.49,0,0,0,0-.72l0-.08a1.23,1.23,0,0,1-.11-.86,1.64,1.64,0,0,0-.09-.79,1,1,0,0,1,0-.77.59.59,0,0,0,0-.35.19.19,0,0,1,0-.07c0-.09,0-.19,0-.28l0-.06a1,1,0,0,1-.06-.64s0-.06,0-.08c.06-.44,0-.89.07-1.33a8.83,8.83,0,0,1,1.88-4.89,5,5,0,0,1,.79-.73.66.66,0,0,1,.27-.12h.09l1.52.49a8.16,8.16,0,0,0,1,.28c.37.09.73.17,1.1.24.55.1,1.11.21,1.68.26l.91.12c.57.08,1.14.12,1.7.15.74.05,1.49.14,2.23.14a10,10,0,0,1,1.1.05,2.07,2.07,0,0,1,.5,0c1.57,0,3.12.18,4.67.32a3.07,3.07,0,0,0,.67.08,4.51,4.51,0,0,0,.89.11,10,10,0,0,0,1.32.29,22.82,22.82,0,0,1,3,.88l.54.19Z"/><path class="cls-2" d="M121.18,52.08c-1.15,0-2.31-.06-3.45-.17-.8-.07-1.61-.14-2.41-.26l-2.1-.33c-.57-.11-1.14-.28-1.71-.43,0,0-.06,0-.1-.07l.39.07a.83.83,0,0,0,.41.1.79.79,0,0,0,.4.1,1,1,0,0,0,.45.1,1.11,1.11,0,0,0,.51.1,5.38,5.38,0,0,0,1.2.2,5,5,0,0,0,1.09.17c.62.09,1.24.13,1.87.17,1.06.07,2.11.16,3.18.17a1.26,1.26,0,0,1,.27,0s0,0,0,0Z"/><path class="cls-2" d="M169.36,76.54c0-.3,0-.6,0-.9s-.05-.21-.2-.2a2.09,2.09,0,0,1-.25,0c-.08,0-.15,0-.15-.11s0-.15.11-.19c.49-.15.49-.16.49-.67,0-.3.07-.38.36-.42.12,0,.14,0,.14.14s0,.45,0,.68,0,.18.17.17h.63c.14,0,.2,0,.2.19s-.05.22-.2.21-.41,0-.61,0-.19,0-.19.18v1.76c0,.29.24.47.59.48.13,0,.27,0,.27.17s-.09.24-.27.24a1,1,0,0,1-1-.58.62.62,0,0,1,0-.27v-.88Z"/><path class="cls-2" d="M159.54,78c0,.06.12.16,0,.18s-.37.1-.5-.09-.37-.53-.55-.8a.25.25,0,0,1,0-.07c-.08-.08-.11-.25-.24-.22s-.15.17-.18.28l-.54.78a.55.55,0,0,1-.57.17c-.13-.07,0-.14,0-.21l.82-1.13a.36.36,0,0,0,0-.56,6.46,6.46,0,0,0-.54-.75s-.1-.09-.12-.15-.25-.19-.16-.34.52,0,.61.13l.58.86c.09.12.16.1.23,0s.36-.52.53-.79a.38.38,0,0,1,.21-.2c.15,0,.37-.08.44,0s-.12.24-.21.36c-.21.32-.43.64-.67.94a.26.26,0,0,0,0,.37C159,77.16,159.25,77.56,159.54,78Z"/><path class="cls-2" d="M147.22,78.06a.79.79,0,0,1-.26-.45V75.3c0-.16,0-.25.21-.25s.21.08.21.24v1.89c0,.48.21.69.69.67a2.45,2.45,0,0,0,.54-.1.28.28,0,0,0,.22-.32c0-.66,0-1.32,0-2,0-.39,0-.39.38-.4.08.06.06.15.06.23v2.66c0,.08,0,.19-.07.22A.15.15,0,0,1,149,78c0-.12-.12-.05-.18,0a1.92,1.92,0,0,1-.91.23A3.2,3.2,0,0,1,147.22,78.06Z"/><path class="cls-3" d="M101.49,52.89l-.19,0c-.37.15-.39.15-.49-.23s-.12-.56-.19-.84c0-.12,0-.18.14-.19a15.75,15.75,0,0,1,3.5,0c0,.16,0,.31,0,.47s0,.27-.27.28a2.13,2.13,0,0,0-.79.08,3.65,3.65,0,0,0-.54.23c-.1,0-.19.07-.29,0a.1.1,0,0,1,0,0s.07-.08,0-.06-.13.07-.2.09a.78.78,0,0,0-.34,0h0A2,2,0,0,0,101.49,52.89Z"/><path class="cls-4" d="M104.51,52.93a6.63,6.63,0,0,0-2.19,1.21c-.29.24-.29.24-.52,0s-.29-.47-.42-.71-.08-.31.14-.37c0,0,.08,0,.13-.07s.13-.08.21-.11h0c.07,0,.1-.14.21-.13s.15-.1.24,0h0c0,.1-.06.12-.12.13a12.05,12.05,0,0,1,2.08-.14c.1,0,.21,0,.21.16A.06.06,0,0,1,104.51,52.93Z"/><path class="cls-6" d="M103.21,52.48c.15-.19.37-.09.55-.11.47,0,.47,0,.45-.49,0-.08,0-.15.05-.2h.16a3,3,0,0,0,0,.52c0,.11,0,.23-.12.25a9.77,9.77,0,0,1-1.07.07S103.22,52.5,103.21,52.48Z"/><path class="cls-2" d="M133.16,77.67l.1.09a2.6,2.6,0,0,0,1.41,0c.33-.11.37-.07.3.29A2.5,2.5,0,0,1,132.8,78a1.56,1.56,0,0,1-.72-1.08,4.12,4.12,0,0,1,.07-2.28,1.62,1.62,0,0,1,.86-1,3,3,0,0,1,1.82,0,.24.24,0,0,1,.19.32c-.05.18-.19.1-.29.07s-.22-.07-.34-.09a1.41,1.41,0,0,0-1.67.51l-.06.09a3.8,3.8,0,0,0-.23,1.86,4.9,4.9,0,0,0,.13.55.91.91,0,0,1,.07.14.72.72,0,0,0,.24.41C133,77.52,133,77.63,133.16,77.67Z"/><path class="cls-2" d="M167.15,75.7v2.41c-.34.17-.48.09-.48-.27,0-.84,0-1.68,0-2.51,0-.09-.06-.22.08-.27a.2.2,0,0,1,.25.11c.05.09.11.06.19,0a2,2,0,0,1,1-.21c.2,0,.25.1.25.28s-.13.16-.25.15a1.79,1.79,0,0,0-.89.12C167.21,75.56,167.13,75.58,167.15,75.7Z"/><path class="cls-6" d="M103.21,52.48l1,0c.18,0,.25-.07.2-.27s-.1-.31,0-.47a3.36,3.36,0,0,1,.09.7,1.67,1.67,0,0,0,.06.5h0c-.06-.12-.16-.1-.26-.1a13.09,13.09,0,0,0-2,.13h-.21c.07-.13.24-.05.28-.18a1.21,1.21,0,0,0,.61-.21A.25.25,0,0,1,103.21,52.48Z"/><path class="cls-4" d="M107,58.48a.37.37,0,0,1,0,.4c-.15.27,0,.5,0,.75a1,1,0,0,0,.1.81,1.28,1.28,0,0,0,.1.86c-.09,0-.11.07-.09.16a1.65,1.65,0,0,0,0,.32c0-.17-.06-.33,0-.48a1.47,1.47,0,0,1,0,.75,1,1,0,0,0,.08.71c-.09.19,0,.39,0,.59,0-.08,0-.18.09-.24a.41.41,0,0,1,0,.4c-.14.27,0,.51,0,.76a.94.94,0,0,0,.1.8,1.25,1.25,0,0,0,.1.81c-.12,0-.1.14-.09.23a1.64,1.64,0,0,0,0,.25c0-.13-.07-.29,0-.43a1.14,1.14,0,0,1,0,.66,1.22,1.22,0,0,0,.07.8l0,0a1.63,1.63,0,0,0,0,.54c0-.08,0-.17.05-.25l0,0a.36.36,0,0,1,0,.36,1.63,1.63,0,0,0,0,.85,1,1,0,0,0,.1.8,1.5,1.5,0,0,0,.1.81c-.1,0-.12,0-.1.14s.06.41.1.62a1.39,1.39,0,0,0,.1.7,2,2,0,0,0,0,.65c.05-.12,0-.23.09-.3.16.43.08.57-.4.69l-.23.12a4.37,4.37,0,0,0-.81.09c.13-.16.33-.11.5-.14s.29-.08.25-.33c0-.43-.07-.85-.12-1.27-.08-.89-.13-1.78-.23-2.66-.05-.46-.08-.91-.12-1.37q-.07-1.1-.18-2.19l-.12-1.32c-.06-.72-.13-1.44-.18-2.16s-.1-1.23-.15-1.85-.09-1.1-.15-1.66-.09-1-.12-1.46c0-.73-.14-1.45-.19-2.17,0-.45-.09-.89-.12-1.34,0-.73-.11-1.46-.18-2.18,0-.42-.09-.84-.11-1.25s-.14-1-.11-1.57a2.18,2.18,0,0,1,1.12.46,19.63,19.63,0,0,0,3.1,1.49l.16.07a6.13,6.13,0,0,0-2.21,2.93,10.36,10.36,0,0,0-.61,2.39,9.63,9.63,0,0,0-.1,1.52c0,.09,0,.19,0,.26a2.92,2.92,0,0,1-.09-.66,2.44,2.44,0,0,0,.09.66c0,.23-.1.49.1.7-.09.2,0,.4,0,.6C106.94,58.64,106.9,58.54,107,58.48Z"/><path class="cls-5" d="M118.92,67.14a6.23,6.23,0,0,1,1-.65,4.08,4.08,0,0,1-.66.52l-.21.17-.09,0a0,0,0,0,1,0,0S118.91,67.14,118.92,67.14Z"/><path class="cls-2" d="M140.21,63.81a1.19,1.19,0,0,1-.19-.9,2.12,2.12,0,0,1,.4-.59,1.06,1.06,0,0,1,1.14-.18,1,1,0,0,1,.67.92,1,1,0,0,1-.1.6A1.11,1.11,0,0,1,140.21,63.81Z"/><path class="cls-6" d="M104,68.54c0,.13-.15.11-.25.11Z"/><path class="cls-5" d="M118.92,67.14v.06c-.07.1-.21.12-.26.23l-.19.11s0,0-.07,0A2.53,2.53,0,0,1,118.92,67.14Z"/><path class="cls-5" d="M118.4,67.53h.07a1.53,1.53,0,0,1-.51.36A1.3,1.3,0,0,1,118.4,67.53Z"/><path class="cls-6" d="M104.62,47.41h.45C104.92,47.54,104.77,47.45,104.62,47.41Z"/><path class="cls-2" d="M165.88,75.75a.64.64,0,0,0-.2-.4,1.13,1.13,0,0,0-.89-.36,2.54,2.54,0,0,0-.81.16l-.29.25a2.66,2.66,0,0,0-.26,1.66,1.26,1.26,0,0,0,.64,1.07,2,2,0,0,0,1.26.08.83.83,0,0,0,.4-.11c.15-.1.1-.24.08-.37s-.11-.08-.16,0a1.61,1.61,0,0,1-.68.13c-.67.07-1.05-.23-1-1,.07-.06.16,0,.23,0h1.56c.09,0,.2,0,.2-.12A3.42,3.42,0,0,0,165.88,75.75Zm-.82.7a8.61,8.61,0,0,0-.88,0c-.26,0-.31-.09-.25-.31a.66.66,0,0,1,.35-.61h0a.8.8,0,0,1,.91,0,.56.56,0,0,1,.25.51C165.47,76.45,165.47,76.45,165.06,76.45Z"/><path class="cls-9" d="M117.15,64.77c-.33,0-.42-.11-.45-.43,0-.49-.09-1-.16-1.47a1.15,1.15,0,0,0-.29-.63c-.15-.16-.07-.2.08-.24a6.34,6.34,0,0,0,.74-.23A2,2,0,0,0,118.26,60a2.4,2.4,0,0,0-.63-2.05.27.27,0,0,1-.07-.28,1.49,1.49,0,0,0-.09-.86c-.14-.4-.26-.47-.64-.29a3,3,0,0,0-.76.44.39.39,0,0,1-.34.09,6.87,6.87,0,0,0-2.35.06.59.59,0,0,1-.45-.07,3.73,3.73,0,0,0-1-.42c-.28-.08-.39,0-.4.3a2.1,2.1,0,0,0,.11,1,.22.22,0,0,1,0,.22,1.85,1.85,0,0,0-.33,1.51,2.74,2.74,0,0,0,1.26,2,2.67,2.67,0,0,0,1.1.38,1.43,1.43,0,0,1,.22,0c.12,0,.16.08.08.19a.84.84,0,0,0-.14.4c0,.18-.12.23-.27.27a1.3,1.3,0,0,1-1.44-.6,1.11,1.11,0,0,0-.78-.51c-.08,0-.21-.05-.25,0s.09.15.16.2a1.88,1.88,0,0,1,.7.8,1.16,1.16,0,0,0,.42.46,1.57,1.57,0,0,0,1.26.26c.18,0,.27,0,.29.2s0,.5.06.75-.14.36-.39.28a6,6,0,0,1-1.9-1,6.83,6.83,0,0,1-2.13-3.05,5.25,5.25,0,0,1-.29-1.79,4.35,4.35,0,0,1,1-2.86,2.5,2.5,0,0,1,.53-.5,4.92,4.92,0,0,1,2.34-1.1,6,6,0,0,1,4.64.91,5.53,5.53,0,0,1,2.38,5.28,4.74,4.74,0,0,1-.59,1.78,2.64,2.64,0,0,1-.61.93A4.93,4.93,0,0,1,117.15,64.77Z"/><path class="cls-9" d="M119.62,62.51a6.56,6.56,0,0,0,.44-1.19,4.21,4.21,0,0,0,.16-.86,6.36,6.36,0,0,0-.1-1.69,5.59,5.59,0,0,0-.62-1.54,5.68,5.68,0,0,0-1.56-1.71,6.39,6.39,0,0,0-2.29-1,6.61,6.61,0,0,0-1.88-.08,5.14,5.14,0,0,0-2.1.65c-.29.16-.54.37-.81.55,0,0,0,0,0,0s0,0,0,0a2.36,2.36,0,0,1,.72-.53,5.78,5.78,0,0,1,3.31-.72,5.85,5.85,0,0,1,4,1.91,5.2,5.2,0,0,1,1.38,2.86,5.05,5.05,0,0,1-.59,3.38S119.64,62.53,119.62,62.51Z"/><path class="cls-5" d="M119.62,62.51h0a1,1,0,0,1-.27.5,5.1,5.1,0,0,1-2.06,1.73.41.41,0,0,1-.19,0,1.6,1.6,0,0,1,.49-.28A5,5,0,0,0,119.62,62.51Z"/><path class="cls-5" d="M107.94,69.7c-.06,0-.13,0-.14-.06a2.05,2.05,0,0,1-.06-.65.11.11,0,0,1,.1-.09A1.23,1.23,0,0,1,107.94,69.7Z"/><path class="cls-5" d="M107.54,65.07s-.06,0-.08,0a.73.73,0,0,1,0-.8A1.46,1.46,0,0,1,107.54,65.07Z"/><path class="cls-5" d="M107.13,60.44H107a.79.79,0,0,1,0-.8A1.5,1.5,0,0,1,107.13,60.44Z"/><path class="cls-5" d="M107.39,63.11c0,.11,0,.21,0,.32s0,.09-.06.09-.08,0-.08-.08c0-.21,0-.42,0-.64,0,0,.08,0,.13,0S107.36,63,107.39,63.11Z"/><path class="cls-5" d="M108,71.27a1.31,1.31,0,0,1-.18-.77c0-.14.12,0,.18,0h0c.07.2,0,.41,0,.6Z"/><path class="cls-5" d="M108.19,72.32v.33a.11.11,0,0,1-.07.09.08.08,0,0,1-.06,0,2.12,2.12,0,0,1,0-.71l.07,0h0c.06.08,0,.18,0,.25Z"/><path class="cls-5" d="M107,58.48c0,.11,0,.23,0,.34a.09.09,0,0,1-.06.07s-.06,0-.06,0q0-.35,0-.69l.11,0h0c.06.1,0,.21,0,.31Z"/><path class="cls-5" d="M107.64,65.93a1.67,1.67,0,0,1-.08.66c0-.22-.09-.43-.1-.65s.1-.1.18-.06Z"/><path class="cls-5" d="M110.86,55.6v.06l-.51.45A1.1,1.1,0,0,1,110.86,55.6Z"/><path class="cls-5" d="M108.09,71.11c-.1-.19,0-.4,0-.6C108.14,70.7,108.06,70.91,108.09,71.11Z"/><path class="cls-5" d="M107,58.43c-.09-.09,0-.2,0-.31C107,58.21,107,58.33,107,58.43Z"/><path class="cls-5" d="M107.74,67.39c.09.09,0,.2.05.3h0c-.17-.08-.11-.19-.05-.3Z"/><path class="cls-5" d="M108.19,72.22c-.08-.07,0-.16,0-.25C108.22,72,108.18,72.14,108.19,72.22Z"/><path class="cls-10" d="M102.1,52.79v-.07a.47.47,0,0,1,.42-.13c0,.15-.13.08-.18.14S102.2,52.82,102.1,52.79Z"/><path class="cls-2" d="M138,76a.93.93,0,0,0-.43-.83,1.7,1.7,0,0,0-1.17-.14,1.16,1.16,0,0,0-.48.11.28.28,0,0,0-.08.36c0,.11.16,0,.24,0a2.53,2.53,0,0,1,.95-.06.52.52,0,0,1,.5.57c0,.12,0,.18-.16.19s-.49.06-.73.07a1.13,1.13,0,0,0-.93.44,1.19,1.19,0,0,0,0,1.17.46.46,0,0,0,.2.19,1.56,1.56,0,0,0,1.47,0c.09,0,.17-.08.24,0a.2.2,0,0,0,.24.08c.11-.05.09-.15.09-.24C138,77.28,138,76.63,138,76Zm-.47.8a1.29,1.29,0,0,0,0,.28c0,.6,0,.61-.61.73a.83.83,0,0,1-.6-.07c-.27-.16-.22-.43-.2-.68a.45.45,0,0,1,.38-.38c.26,0,.53-.07.8-.11S137.52,76.58,137.5,76.78Z"/><path class="cls-2" d="M146,75.44a1.22,1.22,0,0,0-1-.48,1.91,1.91,0,0,0-.81.21c-.07,0-.15.1-.18,0a.18.18,0,0,0-.24-.11c-.14,0-.08.15-.09.23v4.25c0,.08,0,.17.05.24.41,0,.41,0,.41-.44V78.27c0-.17,0-.24.23-.15a1.44,1.44,0,0,0,1.31,0,1.39,1.39,0,0,0,.6-1.23A2.69,2.69,0,0,0,146,75.44Zm-.31,1.83a.71.71,0,0,1-.81.54c-.66,0-.75-.1-.75-.75v-.45c0-.25,0-.49,0-.73s.05-.35.27-.4a1.68,1.68,0,0,1,.89,0,.73.73,0,0,1,.45.7A2.73,2.73,0,0,1,145.69,77.27Z"/><path class="cls-5" d="M106.14,50.63s-.07-.21,0-.22.12.18.13.28.1.29.06.44,0,.11-.09.1-.07,0-.08-.08A.85.85,0,0,1,106.14,50.63Z"/><path class="cls-5" d="M106.53,55.32c0-.08-.07-.27.06-.29s.08.2.13.3a1.43,1.43,0,0,1,.06.37.13.13,0,0,1-.08.14c-.07,0-.1,0-.12-.1A1,1,0,0,1,106.53,55.32Z"/><path class="cls-5" d="M106.48,52.47c0,.08.07.27-.06.29s-.07-.18-.11-.28a1.45,1.45,0,0,1-.08-.36c0-.08,0-.14.1-.15s.08.05.1.11A.82.82,0,0,1,106.48,52.47Z"/><path class="cls-5" d="M106.63,54.13c0,.08,0,.15-.09.16s-.11,0-.11-.13a2,2,0,0,0,0-.54c0-.06,0-.12.08-.12a.09.09,0,0,1,.11.1A1.84,1.84,0,0,0,106.63,54.13Z"/><path class="cls-5" d="M106.2,49.46c0,.06.09.18-.06.2s-.11-.11-.11-.2a1.5,1.5,0,0,0,0-.42.11.11,0,0,1,.07-.16c.09,0,.11.06.11.13Z"/><path class="cls-5" d="M106.83,57.42c-.21-.21-.11-.5-.19-.75,0,0,0-.07.09-.07s.1.06.1.12v.7Z"/><path class="cls-5" d="M107.23,61.3a3.49,3.49,0,0,1,0,.71,1.7,1.7,0,0,1-.15-.67c0-.21.11-.07.18,0Z"/><path class="cls-5" d="M107.74,67.39c0,.1,0,.21.05.3s0,.22,0,.32,0,.09-.06.1-.07,0-.08-.08c0-.2,0-.4,0-.6C107.6,67.39,107.69,67.39,107.74,67.39Z"/><path class="cls-2" d="M162.78,75.88a1.14,1.14,0,0,0-1.3-.86,1.93,1.93,0,0,0-.67.2c-.09,0-.19.09-.24,0s-.1-.13-.19-.1-.06.14-.06.21c0,1.39,0,2.79,0,4.18,0,.13,0,.24.19.24s.21-.09.21-.25c0-.41,0-.83,0-1.25,0-.13,0-.24.19-.17a2,2,0,0,0,1.22.11.76.76,0,0,0,.45-.31A2.77,2.77,0,0,0,162.78,75.88Zm-.61,1.73h0a.78.78,0,0,1-.73.23c-.69-.11-.69-.11-.69-.82,0-.39,0-.77,0-1.15s.07-.36.27-.4a1.79,1.79,0,0,1,.92,0,.3.3,0,0,1,.24.2c.13.1.14.26.2.4A2,2,0,0,1,162.17,77.61Z"/><path class="cls-2" d="M168.15,65.94a1.86,1.86,0,0,0-1.2-1.18,3.21,3.21,0,0,0-2.3.16c-.25.1-.25.11-.25-.16,0-.87,0-1.73,0-2.59,0-.23-.08-.32-.31-.32h-1.38a.28.28,0,0,0-.29.15c0,1.72,0,3.44,0,5.15,0,1.22,0,2.44,0,3.65,0,.23.08.32.31.31s.52,0,.78,0,.36,0,.37-.29.06-.19.19-.09a3.38,3.38,0,0,0,2.17.54,2.09,2.09,0,0,0,1.26-.41,1.64,1.64,0,0,0,.5-.61,4.3,4.3,0,0,0,.4-1.64A6.7,6.7,0,0,0,168.15,65.94ZM166.3,69a.66.66,0,0,1-.67.56,2.2,2.2,0,0,1-1-.13.29.29,0,0,1-.21-.32c0-.39,0-.79,0-1.18V66.78a.25.25,0,0,1,.18-.28,1.84,1.84,0,0,1,1.08-.15,1.06,1.06,0,0,1,.69,1.09A5.74,5.74,0,0,1,166.3,69Z"/></g></svg>