<svg id="Capa_1" data-name="Capa 1" xmlns="http://www.w3.org/2000/svg" viewBox="0 0 274 130"><defs><style>.cls-1{fill:#c6c6c5;}</style></defs><title>Logo</title><g id="aSsqwZ.tif"><path class="cls-1" d="M157.47,62a9.75,9.75,0,0,0-.61-3.42,1.91,1.91,0,0,0-.86-1.09,1.88,1.88,0,0,0-2.41.64,6.75,6.75,0,0,0-.92,2.28c-.28,1.1-.42,2.22-.61,3.34a18.28,18.28,0,0,1-1.4,5.12,5.26,5.26,0,0,1-2.35,2.49,4,4,0,0,1-2.69.4,6.08,6.08,0,0,1-2.38-.95,5.14,5.14,0,0,1-2-2.89,9.66,9.66,0,0,1-.25-3.51,25.58,25.58,0,0,1,1.82-7.15c.48-1.27,1-2.5,1.63-3.71.11-.21.2-.25.41-.14.69.38,1.4.74,2.1,1.1.16.08.18.16.1.31a36.3,36.3,0,0,0-1.68,3.84,26.28,26.28,0,0,0-1.36,4.83c-.09.51-.13,1-.19,1.55,0,0,0,.06,0,.09a3.48,3.48,0,0,0,0,.79,2.8,2.8,0,0,0,1.58,2.81,2.85,2.85,0,0,0,.95.21,1.38,1.38,0,0,0,1-.43,3.8,3.8,0,0,0,1-1.67,17.43,17.43,0,0,0,.79-3.28,39.08,39.08,0,0,1,.79-4.27,8.45,8.45,0,0,1,1.49-3.11,4.77,4.77,0,0,1,6.36-1,4.61,4.61,0,0,1,1.44,1.66,9.82,9.82,0,0,1,1,3.4c.07.55,0,1.11.17,1.66v1.58c-.06.24,0,.48,0,.71-.07,1.06-.13,2.11-.23,3.16s-.22,2-.29,3c0,.14-.05.24-.22.21-.35-.06-.7,0-1-.07s-1-.08-1.46-.1c-.18,0-.18-.12-.17-.24,0-.44.09-.89.14-1.34.08-.66.12-1.32.19-2,.09-1,.19-2,.18-3A13.22,13.22,0,0,0,157.47,62Z"/><path class="cls-1" d="M148.18,47.34a.52.52,0,0,0,.21.18l1.93,1.27c.16.1.21.18.09.36-.6.88-1.18,1.78-1.75,2.67-.11.17-.19.2-.37.08q-1-.67-2-1.32c-.16-.1-.17-.17-.07-.32.59-.88,1.16-1.75,1.73-2.63a.67.67,0,0,0,.15-.29Z"/><path class="cls-1" d="M160.38,64.15a2.13,2.13,0,0,1,0-.71v.7Z"/><path class="cls-1" d="M137.12,56.16a6,6,0,0,1-1.68-.23c-.27-.07-.28-.06-.28.21,0,1.34,0,2.67-.06,4,0,1.84-.13,3.68-.3,5.52,0,.2-.09.26-.29.24l-2.37-.22c-.16,0-.23,0-.21-.23.08-1.14.16-2.28.22-3.42,0-.9.06-1.79.07-2.68,0-1.23.07-2.45.05-3.67a10.24,10.24,0,0,0-.3-2.4c-.05-.18,0-.25.18-.29l2.32-.71c.17-.06.25,0,.27.16a.35.35,0,0,0,.28.3,8.91,8.91,0,0,0,1.65.49,2,2,0,0,0,2.27-1,8.47,8.47,0,0,0,.84-2c.05-.19.12-.24.31-.18l2.34.64c.11,0,.22.05.17.21a9.32,9.32,0,0,1-1.86,3.75A4.68,4.68,0,0,1,137.12,56.16Z"/><path class="cls-1" d="M157.47,62a4.74,4.74,0,0,1,0,1.13,1.43,1.43,0,0,1,0,.65Z"/><path class="cls-1" d="M143.88,65.87a1.76,1.76,0,0,1,0-.79Z"/><path class="cls-1" d="M137.44,76.34a5.89,5.89,0,0,0-2.85-4.53,5.42,5.42,0,0,0-6.13.43,8.61,8.61,0,0,0-1.68,2c-.5.8-.93,1.65-1.49,2.42a4.09,4.09,0,0,1-3.76,1.79,3.13,3.13,0,0,1-2.79-1.79,5.3,5.3,0,0,1,0-4.84c.43-.88,1-1.68,1.54-2.53a.31.31,0,0,1,.3-.12,8.37,8.37,0,0,0,4.65-1.42,7,7,0,0,0,3.31-6,6.82,6.82,0,0,0-1.66-4.51c-.22-.27-.22-.27.06-.5L129,55c.23-.19.23-.19,0-.43l-1.49-1.8c-.12-.15-.2-.16-.35,0-.84.71-1.69,1.4-2.52,2.12a.59.59,0,0,1-.73.1,6.57,6.57,0,0,0-6,.1,7.91,7.91,0,0,0-4.13,5.77c0,.09,0,.19-.1.25v2a.24.24,0,0,1,0,.16A6,6,0,0,0,115,66.44,6.59,6.59,0,0,0,117,68.32c.25.16.26.22.11.47s-.28.47-.43.7a8.22,8.22,0,0,0-1.4,4,8.61,8.61,0,0,0,.47,3.83,6.16,6.16,0,0,0,4,3.84,6.85,6.85,0,0,0,3.91.14,6.93,6.93,0,0,0,3.31-1.86,11.11,11.11,0,0,0,1.58-2.1c.45-.74.85-1.51,1.37-2.2a2.37,2.37,0,0,1,1.93-1.05A2.46,2.46,0,0,1,134,75.44a4.32,4.32,0,0,1,.51,2,8.48,8.48,0,0,1-.56,3,15.36,15.36,0,0,1-.74,1.72c-.07.15-.1.3.09.39a15.49,15.49,0,0,0,2.35,1.15h.14a15.26,15.26,0,0,0,.77-1.7A11.52,11.52,0,0,0,137.44,76.34ZM116.87,63.51a5,5,0,0,1,2.44-5.93,3.76,3.76,0,0,1,3.08-.16,4.92,4.92,0,0,1,3,2.95,4.16,4.16,0,0,1-1.5,4.81,5.85,5.85,0,0,1-3.35,1.12A3.73,3.73,0,0,1,116.87,63.51Z"/></g></svg>