<svg id="Capa_1" data-name="Capa 1" xmlns="http://www.w3.org/2000/svg" viewBox="0 0 274 130"><defs><style>.cls-1{fill:#c6c6c5;}</style></defs><title>Logo</title><g id="WzWAFi.tif"><path class="cls-1" d="M127.26,45.38c.44.07.88.14,1.32.23a10.15,10.15,0,0,1,4.58,2.27c.05,0,.12.07.12.15a.55.55,0,0,1-.31,0h-25.8c-.3,0-.36-.08-.36-.37,0-.75,0-1.51,0-2.26a.66.66,0,0,1,.34,0h19.39a.82.82,0,0,0,.35,0Z"/><path class="cls-1" d="M85.46,75.94h18.36c.3,0,.37.08.36.37,0,.68,0,1.36,0,2,0,.24-.06.31-.31.31h-18a.92.92,0,0,1-.37,0Z"/><path class="cls-1" d="M85.51,48.05h-.05c0-.82,0-1.65,0-2.47,0-.17,0-.21.21-.21h18.48v0c-.06.12-.18.13-.3.14H86.48c-.78,0-.82,0-.82.83,0,.41,0,.83,0,1.25A.42.42,0,0,1,85.51,48.05Z"/><path class="cls-1" d="M126.91,45.38c-.14.1-.3,0-.46,0H106.83v-.06Z"/><path class="cls-1" d="M181.57,45.38v2.38c0,.1.06.21-.06.29a.48.48,0,0,1-.14-.39v-1.4c0-.59-.09-.68-.67-.68H166.83c-.2,0-.42.07-.57-.14v0Z"/><path class="cls-1" d="M138.85,45.44v-.06h15.31v.06a.31.31,0,0,1-.27.13H139.48C139.26,45.58,139,45.64,138.85,45.44Z"/><path class="cls-1" d="M85.46,81.06h.05a.38.38,0,0,1,.14.36c0,.65,0,1.29,0,1.94a.41.41,0,0,1-.13.36h-.06Z"/><path class="cls-1" d="M85.52,53.17h-.06V50.5h.05a.4.4,0,0,1,.14.37c0,.64,0,1.29,0,1.93A.42.42,0,0,1,85.52,53.17Z"/><path class="cls-1" d="M168.13,61.15l-.58,1.65c-.2.57-.2.57-.78.57H153.41c-.27,0-.4-.06-.49-.34-.19-.62-.42-1.24-.65-1.89a.28.28,0,0,0-.06.25c0,.59,0,1.17,0,1.75,0,.18-.05.23-.23.23h-7.57c-.18,0-.23-.06-.23-.23,0-.73,0-1.46,0-2.18,0-.24.08-.29.3-.29h14.69a.34.34,0,0,1,.39.28c.2.59.41,1.18.67,1.77.21-.59.42-1.18.61-1.77a.35.35,0,0,1,.39-.28h14.69c.25,0,.31.07.3.31,0,.71,0,1.42,0,2.12,0,.2,0,.27-.25.27h-7.54c-.21,0-.25-.08-.24-.27,0-.65,0-1.29,0-1.94Z"/><path class="cls-1" d="M121.61,76H136c.45,0,.46,0,.32.45a10.88,10.88,0,0,1-.82,2,.42.42,0,0,1-.43.25H107.2c-.45,0-.37,0-.38-.39,0-.65,0-1.3,0-2,0-.28.06-.37.36-.37Z"/><path class="cls-1" d="M136.39,53.18H107.18c-.29,0-.38-.06-.37-.36,0-.68,0-1.37,0-2.06,0-.22.05-.28.27-.27H135a.5.5,0,0,1,.53.33A10.67,10.67,0,0,1,136.39,53.18Z"/><path class="cls-1" d="M133.28,81.05a9,9,0,0,1-3.7,2.21,10,10,0,0,1-3.11.48h-19.3c-.3,0-.36-.08-.36-.37q0-1,0-2c0-.28.09-.32.35-.32,4.59,0,9.19,0,13.79,0h12.33Z"/><path class="cls-1" d="M135.32,68.46H112.54c-.37,0-.37,0-.37-.37,0-.7,0-1.4,0-2.1,0-.17,0-.26.23-.23h20.37a.73.73,0,0,1,.56.23A10.18,10.18,0,0,1,135.32,68.46Z"/><path class="cls-1" d="M135.3,60.68a8.64,8.64,0,0,1-1.22,1.71c-.88,1-.89,1-2.2,1H112.53c-.28,0-.38,0-.37-.35,0-.68,0-1.36,0-2,0-.24.06-.31.3-.31H135.3Z"/><path class="cls-1" d="M85.52,83.73V81.07l.32,0c6,0,12,0,18,0,.29,0,.39.06.37.36,0,.69,0,1.38,0,2.07,0,.18,0,.27-.25.27H85.52Z"/><path class="cls-1" d="M85.52,53.17V50.5h18.3c.29,0,.39.06.37.37,0,.68,0,1.37,0,2.06,0,.19,0,.27-.25.27H85.52Z"/><path class="cls-1" d="M85.51,48.05V45.87c0-.43,0-.44.44-.44h18.2c.06.82,0,1.65,0,2.47,0,.13-.07.17-.18.16H85.51Z"/><path class="cls-1" d="M172.57,53.18h-8.7c-.32,0-.32,0-.21-.31.24-.72.5-1.43.74-2.14a.28.28,0,0,1,.32-.24h16.59c.2,0,.26,0,.26.26,0,.71,0,1.43,0,2.15,0,.24-.08.28-.29.28Z"/><path class="cls-1" d="M147.84,53.18h-8.7c-.23,0-.31,0-.31-.29,0-.68,0-1.36,0-2,0-.28.06-.37.36-.37h16.47a.3.3,0,0,1,.35.24c.24.73.49,1.46.76,2.19.08.23,0,.26-.2.26Z"/><path class="cls-1" d="M138.85,45.44h15.29c.3.82.59,1.63.88,2.45,0,.12,0,.19-.13.17h-15.7c-.3,0-.36-.08-.36-.37C138.86,47,138.85,46.19,138.85,45.44Z"/><path class="cls-1" d="M166.26,45.43h14.79c.46,0,.46,0,.46.47v2.15H165.67c-.34,0-.34,0-.23-.3C165.71,47,166,46.21,166.26,45.43Z"/><path class="cls-1" d="M169,58.28h-6.87c-.35,0-.35,0-.23-.35.24-.7.49-1.4.73-2.11a.3.3,0,0,1,.34-.25h13c.22,0,.28.06.27.27q0,1.08,0,2.16c0,.24-.08.28-.29.28Z"/><path class="cls-1" d="M151.39,58.28h-6.78c-.42,0-.42,0-.42-.44,0-.65,0-1.3,0-2,0-.25.06-.33.32-.33h12.91c.22,0,.3.06.37.26.23.72.49,1.42.74,2.14.1.3.1.31-.24.31Z"/><path class="cls-1" d="M145.54,76h6.37c.24,0,.31.07.3.31,0,.69,0,1.38,0,2.07,0,.26-.07.34-.34.34H141.43c-.76,0-1.51,0-2.27,0-.24,0-.34,0-.33-.32,0-.69,0-1.39,0-2.09,0-.24,0-.31.3-.31Z"/><path class="cls-1" d="M174.88,76h6.37c.26,0,.33.07.32.33,0,.69,0,1.39,0,2.09,0,.23-.06.3-.29.3H168.53c-.28,0-.36-.08-.35-.36,0-.68,0-1.36,0-2,0-.26.06-.33.32-.33Z"/><path class="cls-1" d="M145.51,81.05c2.12,0,4.24,0,6.37,0,.28,0,.34.08.33.34q0,1,0,2c0,.25-.06.32-.32.32H141.33c-.73,0-1.46,0-2.18,0-.28,0-.32-.08-.31-.33,0-.66,0-1.33,0-2,0-.29,0-.38.36-.37C141.3,81.06,143.4,81.05,145.51,81.05Z"/><path class="cls-1" d="M174.86,83.74h-6.38c-.24,0-.3-.07-.3-.31q0-1,0-2c0-.27.06-.36.35-.35,1.86,0,3.72,0,5.58,0,2.38,0,4.76,0,7.13,0,.28,0,.34.08.33.34,0,.68,0,1.36,0,2,0,.25,0,.33-.31.33Z"/><path class="cls-1" d="M160.2,65.76h6c.26,0,.28.06.2.29-.27.73-.53,1.47-.78,2.21-.06.16-.12.22-.29.22q-5.15,0-10.29,0a.27.27,0,0,1-.3-.21c-.25-.75-.51-1.5-.79-2.24-.09-.25,0-.27.21-.26Z"/><path class="cls-1" d="M132.17,55.57c1.39,0,2.79,0,4.19,0,.28,0,.34.09.32.35a13.85,13.85,0,0,1-.29,2.12.27.27,0,0,1-.32.25h-8.14c-.2,0-.27-.06-.26-.26,0-.73,0-1.46,0-2.18,0-.24.08-.27.29-.27Z"/><path class="cls-1" d="M132.17,73.55H128c-.22,0-.3,0-.3-.29,0-.72,0-1.45,0-2.18,0-.18,0-.23.23-.23q4.11,0,8.23,0c.16,0,.21.07.25.21a13.52,13.52,0,0,1,.31,2.21c0,.24-.08.28-.3.28Z"/><path class="cls-1" d="M94.8,68.46H91.1c-.21,0-.3,0-.29-.29,0-.72,0-1.45,0-2.18,0-.18,0-.25.24-.24h7.54c.2,0,.26.07.25.27,0,.72,0,1.44,0,2.15,0,.23-.06.3-.29.3Z"/><path class="cls-1" d="M94.8,58.28H91.11c-.25,0-.31-.07-.3-.31,0-.71,0-1.41,0-2.12,0-.21,0-.29.26-.28h7.48c.23,0,.3.06.29.29,0,.7,0,1.4,0,2.09,0,.25-.06.33-.32.33Z"/><path class="cls-1" d="M172.21,68.46h-3.72c-.25,0-.31-.08-.31-.31,0-.72,0-1.44,0-2.16,0-.19.05-.25.24-.24H176c.18,0,.22.06.22.23,0,.75,0,1.49,0,2.24,0,.21-.08.24-.25.24Z"/><path class="cls-1" d="M148.2,68.46h-3.73c-.23,0-.29-.06-.29-.29,0-.72,0-1.44,0-2.16,0-.19,0-.27.26-.27h7.5c.21,0,.27,0,.27.26,0,.72,0,1.45,0,2.18,0,.23-.08.27-.29.27Z"/><path class="cls-1" d="M116.18,58.28h-3.73c-.23,0-.29-.07-.29-.29,0-.72,0-1.44,0-2.16,0-.19,0-.26.26-.26h7.51c.2,0,.26.06.26.26,0,.73,0,1.45,0,2.18,0,.23-.08.27-.29.27Z"/><path class="cls-1" d="M160.21,70.87h4.22c.24,0,.29,0,.2.27-.27.73-.52,1.46-.77,2.19a.28.28,0,0,1-.32.24q-3.34,0-6.67,0a.29.29,0,0,1-.33-.23c-.24-.72-.49-1.44-.76-2.16-.09-.24-.06-.31.21-.31Z"/><path class="cls-1" d="M172.2,73.55h-3.72c-.22,0-.3,0-.3-.28,0-.73,0-1.46,0-2.18,0-.18,0-.24.22-.24q3.79,0,7.59,0c.16,0,.22,0,.22.21,0,.76,0,1.52,0,2.27,0,.2-.08.22-.24.22Z"/><path class="cls-1" d="M148.2,73.55h-3.72c-.21,0-.31,0-.3-.28,0-.72,0-1.43,0-2.15,0-.2,0-.27.26-.27q3.75,0,7.5,0c.23,0,.27.08.27.28q0,1.06,0,2.13c0,.22-.05.29-.29.29Z"/><path class="cls-1" d="M116.16,73.55h-3.72c-.22,0-.28-.06-.28-.28,0-.71,0-1.43,0-2.15,0-.19,0-.27.25-.27q3.77,0,7.53,0c.2,0,.25.06.25.25,0,.74,0,1.47,0,2.21,0,.2-.07.24-.25.24Z"/><path class="cls-1" d="M94.83,73.55H91.08c-.22,0-.28,0-.27-.27,0-.73,0-1.46,0-2.18,0-.19,0-.25.24-.25q3.77,0,7.53,0c.2,0,.27.06.26.26,0,.73,0,1.46,0,2.18,0,.21-.06.26-.26.26Z"/><path class="cls-1" d="M94.83,63.37H91.08c-.21,0-.28,0-.27-.27,0-.73,0-1.45,0-2.18,0-.19,0-.25.24-.25h7.53c.2,0,.27,0,.26.26,0,.73,0,1.46,0,2.18,0,.21-.06.26-.26.26Z"/><path class="cls-1" d="M157.47,76h5.25c.16,0,.21,0,.15.2-.28.79-.55,1.57-.83,2.35a.2.2,0,0,1-.23.16h-3.23a.2.2,0,0,1-.22-.14C158.07,77.67,157.78,76.83,157.47,76Z"/><path class="cls-1" d="M161.14,81.05l-.94,2.71c-.29-.82-.54-1.55-.8-2.29-.14-.42-.14-.42.29-.42Z"/><path class="cls-1" d="M187.77,80.12a1.9,1.9,0,0,0-2.25-.25,2.14,2.14,0,0,0,.26,3.87c.09,0,.21,0,.28.12h.69s.08,0,.13-.06a1.92,1.92,0,0,0,1.55-1.5A2,2,0,0,0,187.77,80.12Zm-1.3,3.27a1.53,1.53,0,0,1-1.57-1.65,1.56,1.56,0,1,1,3.12,0A1.53,1.53,0,0,1,186.47,83.39Z"/><path class="cls-1" d="M187.06,82.19c-.07-.11-.07-.18.05-.28a.69.69,0,0,0,.19-.79.61.61,0,0,0-.62-.43c-.29,0-.59,0-.88,0-.12,0-.16,0-.16.18v1.8c0,.06,0,.13.08.16.28.09.44,0,.45-.3a1.92,1.92,0,0,1,0-.24c0-.06,0-.16.09-.17s.17,0,.23.07l.12.23c.25.44.25.44.81.39C187.29,82.57,187.18,82.38,187.06,82.19Zm-.63-.49c-.27,0-.29-.11-.26-.31s0-.29.25-.28.38,0,.38.28S186.65,81.69,186.43,81.7Z"/></g></svg>