<svg id="Capa_1" data-name="Capa 1" xmlns="http://www.w3.org/2000/svg" viewBox="0 0 274 130"><defs><style>.cls-1{fill:#c6c6c5;}.cls-2{fill:#868686;}.cls-3{fill:#b1b1b1;}.cls-4{fill:#6f6f6e;}.cls-5{fill:#9c9b9b;}.cls-6{fill:#922492;}</style></defs><title>Logo</title><g id="cjOrYB.tif"><path class="cls-1" d="M168.06,68.64c-.49.08-.64-.11-.64-.61,0-3.34,0-6.68,0-10,0-.23-.15-.55.21-.66s.55.13.75.39L175.07,67l.27.33V65.82q0-3.91,0-7.83c0-.26-.15-.67.38-.64s.31.39.32.63c0,3.31,0,6.63,0,9.94,0,.24.18.6-.23.71s-.54-.16-.73-.42q-3.36-4.65-6.73-9.31c-.39.1-.2.42-.2.63,0,2.78,0,5.57,0,8.36C168.14,68.14,168.22,68.4,168.06,68.64Z"/><path class="cls-1" d="M138.73,63c0-1.68,0-3.35,0-5,0-.44.12-.61.59-.6,1.7,0,3.39,0,5.09,0,.24,0,.54-.08.52.35s-.33.32-.56.33c-1.42,0-2.83,0-4.24,0-.5,0-.71.1-.69.66,0,1.1,0,2.21,0,3.31,0,.46.13.62.6.61,1.11,0,2.21,0,3.32,0,.26,0,.6-.1.58.37s-.36.3-.57.3c-1.13,0-2.26,0-3.39,0-.39,0-.54.11-.54.52,0,1.2,0,2.4,0,3.59,0,.5.2.59.63.58h4.51c.25,0,.61-.14.63.33s-.36.34-.6.34c-1.74,0-3.48,0-5.22,0-.55,0-.67-.18-.66-.68C138.75,66.3,138.73,64.63,138.73,63Z"/><path class="cls-1" d="M131.81,63.35c0-1.58,0-3.15,0-4.73,0-.46-.14-.61-.6-.6-1,0-2,0-3,0-.27,0-.53,0-.51-.39s.3-.29.51-.29h8c.21,0,.49-.09.5.3s-.25.38-.51.38c-1,0-2,0-3,0-.53,0-.68.14-.68.67,0,3,0,6,0,9v.49c0,.21,0,.42-.31.43s-.4-.15-.4-.43c0-.85,0-1.69,0-2.54Z"/><path class="cls-1" d="M125,63c0-1.67,0-3.34,0-5,0-.24-.14-.62.35-.6s.31.34.31.57c0,3.38,0,6.77,0,10.15,0,.23.11.56-.32.57S125,68.27,125,68C125,66.34,125,64.65,125,63Z"/><path class="cls-1" d="M196.28,57.18a5.63,5.63,0,0,0-5.74,5.71,5.7,5.7,0,0,0,5.7,5.91A5.64,5.64,0,0,0,202,63,5.57,5.57,0,0,0,196.28,57.18Zm0,11a5,5,0,0,1-4.94-5.24,5,5,0,1,1,9.92.05A5,5,0,0,1,196.24,68.14Z"/><path class="cls-1" d="M154.69,67.88,152.59,64c-.15-.27-.2-.4.15-.58a3.24,3.24,0,0,0,1.74-3.77,2.82,2.82,0,0,0-3-2.26c-1.05,0-2.11,0-3.17,0-.5,0-.64.14-.64.63,0,3.36,0,6.73,0,10.09,0,.26-.09.6.38.58s.32-.33.33-.56c0-1.25,0-2.5,0-3.74,0-.54.18-.7.69-.67a18.68,18.68,0,0,0,2,0,.78.78,0,0,1,.82.5c.67,1.32,1.41,2.61,2.07,3.93.25.49.55.66,1.06.48A1.75,1.75,0,0,0,154.69,67.88Zm-3-4.9c-.94.05-1.88,0-2.81,0-.34,0-.46-.14-.46-.46,0-.68,0-1.36,0-2s0-1.32,0-2c0-.35.12-.51.49-.5.94,0,1.88,0,2.81,0a2.25,2.25,0,0,1,2.13,2.42A2.35,2.35,0,0,1,151.65,63Z"/><path class="cls-1" d="M188.58,62.26A4.94,4.94,0,0,0,184,57.43a37,37,0,0,0-3.94-.09c-.52,0-.62.18-.61.65,0,1.66,0,3.33,0,5s0,3.38,0,5.07c0,.33,0,.6.46.59,1.25,0,2.5,0,3.74-.05a4.89,4.89,0,0,0,4.41-2.89A6.47,6.47,0,0,0,188.58,62.26Zm-.93,2.49a4.31,4.31,0,0,1-3.92,3.16c-1,.09-2.06,0-3.1,0-.48,0-.44-.3-.44-.61V63c0-1.44,0-2.87,0-4.31,0-.47.1-.68.62-.65a19.59,19.59,0,0,1,3.59.17,4.23,4.23,0,0,1,3.31,3.28A6.4,6.4,0,0,1,187.65,64.75Z"/><path class="cls-1" d="M165.09,68c-1.25-3.39-2.53-6.78-3.79-10.17-.11-.3-.2-.54-.62-.53s-.44.27-.54.53q-1.32,3.57-2.66,7.13c-.45,1.19-.89,2.37-1.33,3.56.57.23.8,0,1-.48.31-.93.7-1.84,1-2.78a.68.68,0,0,1,.77-.54c1.19,0,2.4,0,3.59,0a.73.73,0,0,1,.81.59c.33,1,.74,1.94,1.07,2.91a.5.5,0,0,0,.71.36C165.46,68.47,165.15,68.2,165.09,68Zm-2.82-3.93c-1.06,0-2.11,0-3.17,0-.45,0-.45-.18-.32-.51.64-1.69,1.27-3.38,1.94-5.18.68,1.81,1.3,3.51,1.93,5.19C162.8,64,162.64,64.1,162.27,64.1Z"/><g id="cjOrYB.tif-2" data-name="cjOrYB.tif"><path class="cls-2" d="M89.27,55.67c-.14.13-.31.08-.47.08h-13c-.18,0-.38.06-.54-.08a.57.57,0,0,1,.51-.18c1.34,0,2.67,0,4,0a.46.46,0,0,1,.4.12c-.84-.87-1.64-1.77-2.55-2.55C76.34,52,75.2,50.71,74,49.53A13.92,13.92,0,0,1,72.42,48l-.17-.14v-.28l8.35,0a1.46,1.46,0,0,1,.2,1v5.63a2.66,2.66,0,0,0,.08,1,.75.75,0,0,0,.2.15,18.07,18.07,0,0,0,2.44,0c1.59,0,3.18,0,4.76,0C88.63,55.44,89,55.38,89.27,55.67Z"/><path class="cls-3" d="M80.61,70.36c-1.22-3.29-2.47-6.57-3.59-9.9.34-.23.64,0,.94.09,1.73.5,3.39,1.24,5.14,1.71a4.67,4.67,0,0,1,.81.31l8.21,2.74a1.8,1.8,0,0,1,.76.34c.14.54-.35.55-.62.66-1.5.57-3,1.11-4.5,1.66-2.13.78-4.27,1.55-6.41,2.35C81.11,70.4,80.87,70.53,80.61,70.36Z"/><path class="cls-2" d="M102,57a24.13,24.13,0,0,1,2.82,0c2.44,0,4.89,0,7.33,0,.23,0,.47-.09.68.09a2.07,2.07,0,0,1-.59.78c-1.79,1.79-3.58,3.57-5.36,5.37-1.62,1.63-3.37,3.12-4.94,4.8a5.3,5.3,0,0,1-.67.5l0,0-.05,0a1,1,0,0,1-.22-.92c.24-2.53.42-5.08.64-7.62.07-.9.14-1.81.27-2.71A1.76,1.76,0,0,1,102,57Z"/><path class="cls-1" d="M94.09,68.53l3.16,8.72a1.47,1.47,0,0,1-1.28.19c-1.47-.19-3-.15-4.42-.21-2.69-.12-5.38-.26-8.07-.35a1.35,1.35,0,0,1-.28,0,1.14,1.14,0,0,1-.23-.15h0c0-.46.37-.57.63-.75Q88.37,72.5,93.12,69a6.12,6.12,0,0,0,.5-.39A.45.45,0,0,1,94.09,68.53Z"/><path class="cls-4" d="M83,76.69h.16a23.5,23.5,0,0,1,4.26,1.66C91.19,80,95,81.57,98.76,83.18c.28.12.66.14.73.55l-14,0C84.63,81.41,83.71,79.09,83,76.69Z"/><path class="cls-3" d="M102,57v.17A21.55,21.55,0,0,1,100,61c-1.29,2.29-2.57,4.59-3.9,6.85-.14.25-.21.6-.62.57L93.12,62c-.29-.79-.55-1.59-.83-2.38,0-.28.24-.34.43-.39,2.91-.71,5.78-1.59,8.73-2.17a.72.72,0,0,1,.48,0S102,57,102,57Z"/><path class="cls-2" d="M99.49,83.73l-5.86-2.52L83.13,76.7l10.11.4,4,.15c.86,2.14,1.63,4.31,2.37,6.49h-.13Z"/><path class="cls-2" d="M93.72,68.65c-.24.49-.75.68-1.15,1l-9.18,6.7a2.86,2.86,0,0,0-.41.37c-.91-2.07-1.61-4.22-2.37-6.34l.67-.16c2.58-.62,5.22-.78,7.82-1.2,1.25-.19,2.51-.29,3.76-.51A.88.88,0,0,1,93.72,68.65Z"/><path class="cls-1" d="M83.81,62.71l-.67-.27c-2.35-1.57-4.59-3.29-6.9-4.91-.16-.11-.39-.21-.35-.48,1,0,1.93,0,2.89,0H89a1.52,1.52,0,0,1,.76.07,8.56,8.56,0,0,1-1.93,2.05c-1.11,1-2.17,2.06-3.29,3A1.8,1.8,0,0,1,83.81,62.71Z"/><path class="cls-5" d="M83.81,62.71c1.45-1.58,3.13-2.93,4.67-4.43.41-.41.84-.8,1.27-1.2a.26.26,0,0,1,.26.19l3,8.4a.11.11,0,0,1-.17,0c-1.71-.41-3.33-1.07-5-1.6C86.5,63.65,85.16,63.17,83.81,62.71Z"/><path class="cls-4" d="M106.84,63.11l6-6c0,.26.06.51.06.77v9.91a1.21,1.21,0,0,1-.09.75,4.56,4.56,0,0,1-1.43-1.11c-1.39-1.21-2.75-2.46-4.14-3.67C107.08,63.56,106.86,63.4,106.84,63.11Z"/><path class="cls-5" d="M95.52,68.4A12.76,12.76,0,0,0,97,66c1.66-2.87,3.28-5.77,4.92-8.66a.9.9,0,0,1,.1-.09c-.17,2.21-.39,4.41-.51,6.63-.09,1.56-.37,3.11-.31,4.68h0c-1.87.09-3.73.08-5.59,0Z"/><path class="cls-1" d="M106.84,63.11l6,5.4a7.21,7.21,0,0,1-1.61,0c-3.31,0-6.62,0-9.92,0C103.07,66.63,105,64.87,106.84,63.11Z"/><path class="cls-1" d="M80.73,55.5c-.22-.15-.13-.38-.13-.58q0-3.64,0-7.28c1.92,0,3.84-.07,5.76,0a1.7,1.7,0,0,1-.49,1c-1.5,2.11-3,4.2-4.52,6.3A1.27,1.27,0,0,1,80.73,55.5Z"/><path class="cls-5" d="M72.42,48a3.64,3.64,0,0,1,1.26,1c2.17,2.07,4.3,4.18,6.45,6.28.08.07.14.17.33.39H75.25a11.07,11.07,0,0,1-.88-2.21C73.7,51.66,73.07,49.84,72.42,48Z"/><path class="cls-3" d="M80.73,55.5l5.63-7.84a35.58,35.58,0,0,1,1.7,4.59c-.14.28-.43.36-.68.48-1.9.92-3.84,1.77-5.75,2.67a1.15,1.15,0,0,1-.75.15Z"/><path class="cls-5" d="M92.86,65.68H93c.35,1,.7,1.91,1.06,2.86l-.37.12c-1.64.1-3.25.39-4.87.6-2,.26-4,.54-6,.81a6.7,6.7,0,0,1-1.61.14c1.45-.67,3-1.14,4.46-1.69,2.14-.8,4.28-1.55,6.41-2.36C92.4,66.06,92.8,66.09,92.86,65.68Z"/><path class="cls-4" d="M80.88,55.55l7.18-3.3a21.07,21.07,0,0,1,1.21,3.42c-2.55,0-5.1,0-7.65,0C81.38,55.65,81.11,55.74,80.88,55.55Z"/><path class="cls-1" d="M101.93,57.05l-9.33,2.4a1.77,1.77,0,0,0-.31.15l-.86-2.22c-.1-.24-.13-.4.22-.39C95.08,57,98.5,56.92,101.93,57.05Z"/><path class="cls-4" d="M75.89,57.05l6.67,4.82c.22.16.51.25.58.57-1.7-.41-3.31-1.12-5-1.63L77,60.46c-.4-1.06-.81-2.12-1.22-3.18A.17.17,0,0,1,75.89,57.05Z"/><path class="cls-6" d="M95.61,68.53h5.59A43.45,43.45,0,0,1,95.61,68.53Z"/></g></g></svg>