<svg id="Capa_1" data-name="Capa 1" xmlns="http://www.w3.org/2000/svg" viewBox="0 0 274 130"><defs><style>.cls-1{fill:#c6c6c5;}.cls-2{fill:#9c9b9b;}</style></defs><title>Logo</title><g id="CWSh5T"><path class="cls-1" d="M164.19,59.49c3,3.74,6.09,7.33,10.48,9.87-.08-1.46-.65-2.64-.57-4,.4.08.39.4.49.63A10.8,10.8,0,0,0,177,69.86a5,5,0,0,0,5.34,1.08.85.85,0,0,0,.68-1,8.43,8.43,0,0,1,1.05-4.34c0,1,0,1.78,0,2.54,0,.39.13.86.58,1s.57-.37.75-.67c.65-1.09.84-2.15-.18-3.15a5.32,5.32,0,0,1-.56-.84c1.61.35,1.61.35,1.59-1.34-.08-7.37-3-13.58-8-18.84-7.2-7.64-16.25-11.84-26.45-13.7a38.39,38.39,0,0,0-19.52,1c-.58.2-1.14.48-1.72.66-.88.28-1,.63-.46,1.45,4.06,5.72,9.25,9.65,16.43,10.42a39.9,39.9,0,0,0,12.08-.87c1.12-.22,2.23-.44,3.37-.57a23.69,23.69,0,0,1-13,4.42,38.92,38.92,0,0,1,8.23,3.82c-.43.43-.65.21-.85.11-10.22-5.42-20.66-5-31.21-1.13a32.24,32.24,0,0,0-5,2.32c-.7.4-1,.33-1.39-.42a7.36,7.36,0,0,0-5.37-4.32c-4-.71-6.82,2.43-5.91,6.64a10.1,10.1,0,0,0,.89,2.56c.19.38.23.66-.32.79-2.37.56-4.07,2.15-5.62,3.89a36.27,36.27,0,0,0-6.12,10c-.13.3-.28.59-.43.87,0,0-.12.07-.31.16C97,66.44,99,61,104,57.25c.81-.62.91-1,.23-1.8-4.69-5.8-.31-11.84,5.17-13,4.36-.89,7.94,1.15,10,5.59.64,1.37.64,1.37,2,.79a41.14,41.14,0,0,1,17.68-3.31,4.45,4.45,0,0,0,.57-.06C129.31,42,121,35.67,112.74,28.7c.86-.22,1.47-.4,2.08-.52a109.1,109.1,0,0,1,27.08-2.41c9,.41,17.69,2.08,25.71,6.4,10.75,5.78,17.08,14.89,19.91,26.62a19.83,19.83,0,0,1,.69,5c-.09,5.38-3.52,8.61-8.85,7.88-7.24-1-12.13-5.23-15.08-11.82A1.92,1.92,0,0,1,164.19,59.49Z"/><path class="cls-1" d="M168.24,81.11V91.53c0,1.29,0,2.53,1.78,2.7.5,0,.45.47.42.85s-.4.63-.84.63h-8.47c-.44,0-.91,0-1-.59a.76.76,0,0,1,.74-1c1.06-.16,1.42-.89,1.42-1.87V73.38c0-1-.37-1.59-1.42-1.69-.46,0-.95-.11-.93-.79s.52-.71,1-.79c2-.33,4.08-.61,6.1-1,1-.18,1.22.1,1.21,1C168.22,73.79,168.24,77.45,168.24,81.11Z"/><path class="cls-1" d="M95.88,86.27c-.09,2.08.24,4.66-.23,7.21-.85,4.64-3.77,7.78-7.54,10.29a1.23,1.23,0,0,1-1.76-.16,2.16,2.16,0,0,1-.56-2.39c.24-.56.82-.5,1.33-.52,1.95-.08,2.23-.32,2.43-2.26A152.85,152.85,0,0,0,90,82.71,1.52,1.52,0,0,0,88.54,81c-.47-.06-1-.11-.93-.8s.57-.67,1-.74c2.06-.36,4.14-.67,6.2-1,.77-.14,1.07.09,1.06.87C95.87,81.44,95.88,83.61,95.88,86.27Z"/><path class="cls-1" d="M157.91,82.74a7.16,7.16,0,0,0-9.68-3.68c-1,.43-1.08.36-1.09-.77,0-2.75,0-5.5,0-8.25,0-.42.15-1.1-.62-1-2.36.34-4.71.75-7.07,1.14a.65.65,0,0,0-.57.78c0,.39.23.54.58.65,1.71.55,1.77.62,1.77,2.41,0,3.18,0,6.37,0,9.55,0,3.37,0,6.73,0,10.1,0,.62.09,1.1.78,1.36a15.35,15.35,0,0,0,8.95.81A9.45,9.45,0,0,0,157.91,82.74Zm-6.43,9.61a3.1,3.1,0,0,1-.93,1.31,1.88,1.88,0,0,1-3.21-1,9.34,9.34,0,0,1-.2-2.58V86.85c0-1.52,0-3,0-4.56,0-1.09.28-1.32,1.38-1.23a3.29,3.29,0,0,1,2.92,2.27A12.74,12.74,0,0,1,151.48,92.35Z"/><path class="cls-2" d="M108.54,78.26c-5.57,0-9.46,3.76-9.48,9.24,0,5.1,3.64,8.64,9,8.67,5.47,0,9.29-3.66,9.33-9S113.82,78.29,108.54,78.26Zm1.89,13.88c-.25,1-.45,2-1.64,2.17s-1.72-.94-2.07-1.89a19.71,19.71,0,0,1-1-8,7.82,7.82,0,0,1,.71-3.15c.31-.6.69-1.15,1.45-1.16a1.71,1.71,0,0,1,1.52,1.06,12.94,12.94,0,0,1,1.18,5.26c.06.72,0,1.44,0,2.17A13.37,13.37,0,0,1,110.43,92.14Z"/><path class="cls-2" d="M129,78.26a9.06,9.06,0,0,0-9.48,9.29c0,5,3.75,8.6,9.06,8.62,5.49,0,9.31-3.73,9.32-9.15C137.94,81.88,134.29,78.28,129,78.26Zm2,13.57a4.07,4.07,0,0,1-.6,1.72,1.42,1.42,0,0,1-2.5.12,6.89,6.89,0,0,1-1.21-3,20.25,20.25,0,0,1-.47-4.73,10.65,10.65,0,0,1,.62-4.47c.28-.68.65-1.35,1.49-1.39a1.79,1.79,0,0,1,1.71,1.29,8.85,8.85,0,0,1,.65,1.94A26.14,26.14,0,0,1,131,91.83Z"/><path class="cls-1" d="M185.42,91.3c-3.52,1.79-7,.32-7.79-3.34-.25-1.11-.07-1.32,1.08-1.39,2.31-.15,4.62-.3,6.92-.5,1.47-.13,1.79-.59,1.62-2.06a6.43,6.43,0,0,0-6.53-5.74,9.23,9.23,0,0,0-8.72,7c-1.08,4.12.56,8.16,4,9.93a8.36,8.36,0,0,0,10.5-2.48c.42-.53.71-1,.19-1.62S185.82,91.1,185.42,91.3Zm-7.61-8.84c.26-.94.54-2,1.69-2.15s1.57,1,1.94,1.9c.74,1.83.3,2.34-2,2.38C177.39,84.62,177.26,84.47,177.81,82.46Z"/><path class="cls-1" d="M179.23,62.29a6.21,6.21,0,0,1-1-7.17s4.34-.5,4.79,2.46c0,0,.48,2-1.05,5.37l.07-3.31a2.12,2.12,0,0,1-2.14.33,1.64,1.64,0,0,1-.66-1.89s.85.55,1.37.06a.62.62,0,0,0-.24-1.06v0s.55.19.63-.24c0,0-.21-.46-1.11-.54a6.19,6.19,0,0,0-1.53,0S177.51,58.54,179.23,62.29Z"/></g></svg>