<svg id="Capa_1" data-name="Capa 1" xmlns="http://www.w3.org/2000/svg" viewBox="0 0 274 130"><defs><style>.cls-1{fill:#c6c6c5;}.cls-2{fill:#c7c6c5;}.cls-3{fill:#b1b1b1;}.cls-4{fill:#ececec;}.cls-5{fill:#9c9b9b;}</style></defs><title>Logo</title><path class="cls-1" d="M126.41,75.79H129V56.9h6.21s3.44-.35,3.44,2.73a4.79,4.79,0,0,1-3,3.93,10.83,10.83,0,0,1-3.17.94v1.73l6.76,9.56h3.77l-7.5-10.23s6.48-.85,6-6.8a4.81,4.81,0,0,0-5-4.09H126.41Z"/><path class="cls-1" d="M158.21,68.74s1.44-6.2-2.51-7.85c0,0-4.52-2.14-8.47.78,0,0-4.15,2.88-1.39,10.77,0,0,1.27,4.65,11.92,2.84l.16-2.1,0-.22s-6.3,1.61-8.85-.8A3.87,3.87,0,0,1,147.52,69ZM152,62.52c3.86-.33,3.71,4,3.71,4h-8.11A3.8,3.8,0,0,1,152,62.52Z"/><path class="cls-1" d="M162.52,76h2.86V62.38h4.73V60.14h-4.84V57.76S165.35,56,168.7,56a7.15,7.15,0,0,1,3.14.63V54.32s-8.21-2.81-9.32,4Z"/><rect class="cls-1" x="173.29" y="54.67" width="2.77" height="21.13"/><path class="cls-1" d="M178.78,60.14h3L186,72l4.71-11.89h2.92L187.51,75.7s-2.12,4.89-5.53,5.75l-1.12-1.85a10.64,10.64,0,0,0,3.89-3.81Z"/><rect class="cls-1" x="116.04" y="68.46" width="2.11" height="1.5" rx="0.75" ry="0.75" transform="translate(36.22 -40.15) rotate(22.93)"/><path class="cls-2" d="M117.1,68.48c.06-.14.28-.33.44-.26s.1.39,0,.49a0,0,0,1,0,.07.07.48.48,0,0,0,.13-.35.41.41,0,0,0-.14-.31.43.43,0,0,0-.35,0,.59.59,0,0,0-.25.29c0,.06.07.08.1,0Z"/><rect class="cls-1" x="85.24" y="62.2" width="4.16" height="2.51" rx="1.26" ry="1.26" transform="translate(195.24 65.02) rotate(144.82)"/><path class="cls-2" d="M88.51,64.3c.16.21.24.69,0,.86s-.63-.21-.69-.44a.09.09,0,0,0-.17,0,.81.81,0,0,0,.38.49.6.6,0,0,0,.56.08.64.64,0,0,0,.24-.54,1,1,0,0,0-.18-.61c-.07-.09-.19,0-.13.12Z"/><rect class="cls-1" x="93.68" y="59.78" width="3.3" height="2.21" rx="1.11" ry="1.11" transform="translate(192.33 2.69) rotate(116.47)"/><path class="cls-2" d="M95.68,59.35c.06-.2.32-.49.55-.4s.17.49,0,.64,0,.16.11.09a.59.59,0,0,0,.12-.48c0-.14-.07-.33-.21-.39a.52.52,0,0,0-.46.11.77.77,0,0,0-.29.4c0,.09.1.11.13,0Z"/><rect class="cls-1" x="95.65" y="55.3" width="1.99" height="1.2" rx="0.6" ry="0.6" transform="translate(62.56 -50.42) rotate(42.18)"/><path class="cls-2" d="M96.91,55.25c.08-.09.3-.18.4-.08s0,.32-.13.37,0,.09,0,.07a.36.36,0,0,0,.19-.23.26.26,0,0,0,0-.27.29.29,0,0,0-.27,0,.46.46,0,0,0-.27.15s0,.08.07,0Z"/><rect class="cls-1" x="79.42" y="67.79" width="2.12" height="1.42" rx="0.71" ry="0.71" transform="translate(-22.75 45.86) rotate(-28.03)"/><path class="cls-2" d="M79.73,69.18c-.11.08-.35.13-.44,0s.1-.33.21-.36a0,0,0,1,0,0-.09.39.39,0,0,0-.24.21.29.29,0,0,0,0,.28.38.38,0,0,0,.28.12.49.49,0,0,0,.31-.11s0-.09-.06-.06Z"/><rect class="cls-1" x="91.72" y="82.21" width="1.32" height="0.88" rx="0.44" ry="0.44" transform="translate(-28.01 53.11) rotate(-28.03)"/><path class="cls-2" d="M91.91,83.07c-.07.05-.22.08-.27,0s0-.21.13-.23a0,0,0,1,0,0,0,.24.24,0,0,0-.15.13.22.22,0,0,0,0,.18s.12.06.17.07a.32.32,0,0,0,.19-.07s0-.06,0,0Z"/><rect class="cls-1" x="103.48" y="81.57" width="1.45" height="1.03" rx="0.51" ry="0.51" transform="translate(29.83 -27.76) rotate(17.67)"/><path class="cls-2" d="M104.16,81.59c0-.1.17-.25.28-.21s.09.26,0,.34,0,.08,0,0a.32.32,0,0,0,.07-.25c0-.07,0-.17-.11-.2a.27.27,0,0,0-.24.06.41.41,0,0,0-.15.21s.06,0,.07,0Z"/><rect class="cls-1" x="106.22" y="61.28" width="1.92" height="1.58" rx="0.79" ry="0.79" transform="translate(-2.95 5.4) rotate(-2.85)"/><path class="cls-2" d="M107,61.42a.51.51,0,0,1,.21-.44c.12-.07.21.06.26.15a.39.39,0,0,1,0,.3c0,.07.09.1.11,0a.47.47,0,0,0,0-.4c-.06-.11-.16-.23-.29-.23s-.42.37-.4.59a.06.06,0,1,0,.12,0Z"/><rect class="cls-1" x="99.3" y="59.46" width="0.9" height="0.43" rx="0.22" ry="0.22" transform="translate(169.06 -33.64) rotate(95.71)"/><path class="cls-2" d="M99.72,59.24s0-.11.07-.11.07.08.06.12,0,0,0,0a.11.11,0,0,0,0-.1s0-.06-.06-.06-.06,0-.08,0a.17.17,0,0,0,0,.1s0,0,0,0Z"/><path class="cls-2" d="M92.56,62.55a.47.47,0,0,1,0-.17c0-.06.07-.16.12-.08a.53.53,0,0,1,0,.33s0,.06,0,0a.72.72,0,0,0,0-.29c0-.07,0-.14-.09-.16s-.1,0-.13.07a.66.66,0,0,0,0,.28s.06.05.06,0Z"/><path class="cls-1" d="M93.12,63.41l-.31-.87h-.33l-.34.85h0s0,0,0,0v.74a.11.11,0,0,0,.11.11H93a.1.1,0,0,0,.1-.11v-.77Z"/><path class="cls-3" d="M98.81,82.9a2.33,2.33,0,0,1,0,.46c0,.17-.21.42-.33.2a1.43,1.43,0,0,1,0-.87c0-.13-.12-.18-.14-.06a2.1,2.1,0,0,0,0,.79c0,.17.09.37.24.42s.27-.07.35-.2A1.52,1.52,0,0,0,99,82.9c0-.13-.15-.13-.15,0Z"/><path class="cls-3" d="M97,80.56l1,2.37h1.09l1.08-2.31h0a.2.2,0,0,0,0-.11v-2a.32.32,0,0,0-.34-.3H97.41a.32.32,0,0,0-.34.3v2a.14.14,0,0,0,0,.06Z"/><path class="cls-3" d="M97.56,47.94a.83.83,0,0,1,0-.41c.08-.15.45-.38.7-.18s.13.55,0,.79.25.15.3,0a.84.84,0,0,0,.1-.7.6.6,0,0,0-.5-.38,1.09,1.09,0,0,0-.74.18.66.66,0,0,0-.24.66c0,.12.32.12.31,0Z"/><path class="cls-3" d="M100.81,50.05,99,47.92H97.11L95.21,50h.08a.18.18,0,0,0,0,.1v1.81c0,.15.27.27.59.27h4.32c.33,0,.59-.12.59-.27V50.1a.08.08,0,0,0,0-.05Z"/><rect class="cls-3" x="97.05" y="61.09" width="3.36" height="3.15" rx="1.58" ry="1.58" transform="translate(0.92 -1.42) rotate(0.83)"/><path class="cls-3" d="M98.2,61.28a.78.78,0,0,1,.44-.69c.2-.07.32.14.39.29a.58.58,0,0,1,0,.48c0,.08.09.11.12,0a.73.73,0,0,0,0-.63c-.07-.14-.19-.31-.36-.32a.62.62,0,0,0-.48.29.9.9,0,0,0-.18.54.06.06,0,1,0,.11,0Z"/><rect class="cls-4" x="96.74" y="75.52" width="2.7" height="1.92" rx="0.96" ry="0.96" transform="translate(-22.39 45.56) rotate(-23.55)"/><path class="cls-4" d="M97.42,75.83c-.09-.18-.07-.56.14-.64s.44.25.45.43a.07.07,0,0,0,.13,0,.59.59,0,0,0-.21-.43.46.46,0,0,0-.41-.14c-.15,0-.22.22-.26.36a.75.75,0,0,0,0,.49c0,.07.15,0,.12-.07Z"/><rect class="cls-4" x="100.37" y="80.59" width="3.17" height="1.92" rx="0.96" ry="0.96" transform="translate(18.86 -19.15) rotate(11.82)"/><path class="cls-4" d="M101.8,80.64c0-.2.26-.5.49-.44s.21.46.11.61.07.15.11.08a.61.61,0,0,0,.08-.47c0-.14-.11-.31-.25-.36a.5.5,0,0,0-.42.15.7.7,0,0,0-.25.42c0,.08.11.09.13,0Z"/><rect class="cls-4" x="112.77" y="65.13" width="1.41" height="0.66" rx="0.33" ry="0.33" transform="translate(141.47 193.44) rotate(-132.32)"/><path class="cls-4" d="M113.39,65.79c-.08.07-.26.12-.34,0s0-.26.14-.29,0-.08,0-.06a.28.28,0,0,0-.18.17.24.24,0,0,0,0,.23.24.24,0,0,0,.22.06.33.33,0,0,0,.23-.1s0-.07,0,0Z"/><rect class="cls-4" x="95.82" y="69.84" width="1.41" height="0.66" rx="0.33" ry="0.33" transform="translate(-7.35 128.91) rotate(-65.51)"/><path class="cls-4" d="M96.19,70.22c-.09,0-.22-.19-.16-.3s.26-.06.32,0,.08,0,.05,0a.25.25,0,0,0-.23-.09c-.07,0-.17,0-.21.08a.27.27,0,0,0,0,.23.33.33,0,0,0,.18.17s.06,0,0-.06Z"/><rect class="cls-4" x="99.29" y="67.32" width="1.2" height="0.56" rx="0.26" ry="0.26" transform="translate(24.42 161.69) rotate(-85.35)"/><path class="cls-4" d="M99.82,67c0-.07,0-.21.12-.22s.13.15.12.22,0,0,0,0a.23.23,0,0,0,0-.18s-.08-.11-.13-.11-.11.06-.14.11a.31.31,0,0,0,0,.19s0,0,0,0Z"/><rect class="cls-4" x="88.96" y="64.26" width="3.37" height="1.88" rx="0.26" ry="0.26" transform="translate(25.44 155.84) rotate(-90)"/><path class="cls-4" d="M90.35,63.61c0-.2.08-.56.31-.57s.35.38.31.56a.07.07,0,0,0,.13,0,.61.61,0,0,0-.09-.47c-.08-.12-.2-.27-.35-.27s-.28.15-.35.27a.8.8,0,0,0-.09.48c0,.09.14.06.13,0Z"/><path class="cls-4" d="M102,57l-.59,0a.27.27,0,0,1-.29-.23l0-.68a.27.27,0,0,1,.27-.26l.59,0a.27.27,0,0,1,.29.23l0,.68A.27.27,0,0,1,102,57Z"/><path class="cls-4" d="M101.48,55.92a.26.26,0,0,1,.12-.23c.07,0,.13,0,.16.08a.18.18,0,0,1,0,.16s0,0,.06,0a.23.23,0,0,0,0-.21.26.26,0,0,0-.18-.12c-.15,0-.24.2-.23.31s.07,0,.07,0Z"/><rect class="cls-1" x="100.58" y="57.59" width="4.16" height="2.51" rx="1.26" ry="1.26" transform="translate(53.21 -48.65) rotate(35.47)"/><path class="cls-2" d="M103.06,57.44c.14-.22.57-.45.81-.27s0,.66-.18.8a.08.08,0,0,0,.09.14.71.71,0,0,0,.33-.52A.59.59,0,0,0,104,57a.65.65,0,0,0-.59,0,.91.91,0,0,0-.51.37c-.07.09.09.17.15.08Z"/><path class="cls-5" d="M112.33,66.54H108.1a.41.41,0,0,1-.43-.38V64.23a.41.41,0,0,1,.43-.38h4.24a.41.41,0,0,1,.43.38v1.94A.41.41,0,0,1,112.33,66.54Z"/><path class="cls-5" d="M109.6,63.72c0-.28.25-.76.62-.74s.5.56.39.81.14.17.19.06a.7.7,0,0,0,0-.66.69.69,0,0,0-.5-.42.82.82,0,0,0-.62.33.93.93,0,0,0-.24.64c0,.12.21.1.2,0Z"/><path class="cls-5" d="M96.46,65.42l-3.18,1a.33.33,0,0,1-.41-.18l-.47-1.46a.32.32,0,0,1,.23-.39l3.18-1a.31.31,0,0,1,.41.18L96.69,65A.31.31,0,0,1,96.46,65.42Z"/><path class="cls-5" d="M93.73,64c-.07-.21,0-.63.29-.71s.51.31.48.52.15.1.16,0a.55.55,0,0,0-.18-.49.58.58,0,0,0-.48-.19.65.65,0,0,0-.39.39.75.75,0,0,0,0,.55c0,.09.18,0,.15-.07Z"/><path class="cls-5" d="M101.71,62.47a1.2,1.2,0,0,1,0-.33c0-.12.16-.31.24-.15a1,1,0,0,1,0,.64c0,.09.09.13.1,0a1.57,1.57,0,0,0,0-.57c0-.13-.07-.28-.17-.31s-.2.05-.26.15a1,1,0,0,0-.08.53c0,.1.11.1.11,0Z"/><path class="cls-5" d="M102.82,64.18l-.61-1.73h-.66l-.65,1.69h0a.19.19,0,0,0,0,.08v1.47a.21.21,0,0,0,.2.22h1.49a.21.21,0,0,0,.2-.22V64.18Z"/><rect class="cls-5" x="99.7" y="59.82" width="1.79" height="0.84" rx="0.42" ry="0.42" transform="translate(2.51 -4) rotate(2.31)"/><path class="cls-5" d="M100.38,59.88c0-.13.11-.35.27-.34s.19.27.14.39.06.08.08,0a.42.42,0,0,0,0-.31c0-.09-.1-.19-.2-.21a.36.36,0,0,0-.27.14.49.49,0,0,0-.11.31s.08,0,.09,0Z"/><path class="cls-5" d="M91.56,59.44a1.13,1.13,0,0,1-.12-.18c0-.07,0-.21.09-.17a.57.57,0,0,1,.24.31c0,.06.09,0,.07,0a.85.85,0,0,0-.19-.3c-.06,0-.14-.11-.21-.08a.17.17,0,0,0-.09.18.51.51,0,0,0,.15.3,0,0,0,1,0,.06,0Z"/><path class="cls-5" d="M92.58,59.45l-.74-.24-.38.28v.76l.27.34a3.55,3.55,0,0,1-.23-.31l.79,1.09a.13.13,0,0,0,.19,0l.85-.62a.14.14,0,0,0,0-.2l-.53-.73-.27-.38Z"/><path class="cls-4" d="M93.17,59.54a1.13,1.13,0,0,1-.31.21c-.12,0-.38,0-.31-.14s.36-.35.55-.44.05-.17,0-.13a1.49,1.49,0,0,0-.53.35c-.09.11-.19.26-.14.38a.34.34,0,0,0,.33.16,1.08,1.08,0,0,0,.54-.28.07.07,0,1,0-.09-.11Z"/><path class="cls-4" d="M93.16,57.72l-.4,1.33.52.66,1.34,0,.62-.48-.56.41,1.92-1.44a.26.26,0,0,0,0-.36l-1.16-1.49a.25.25,0,0,0-.35-.06l-1.28,1-.67.48Z"/><path class="cls-5" d="M107,60.62l-1.66.93a.19.19,0,0,1-.26,0l-.43-.76a.2.2,0,0,1,.09-.25l1.66-.93a.2.2,0,0,1,.26,0l.43.76A.2.2,0,0,1,107,60.62Z"/><path class="cls-5" d="M105.34,60.11a.35.35,0,0,1,.08-.43c.15-.08.32.11.33.23s.1,0,.09,0a.32.32,0,0,0-.16-.26.36.36,0,0,0-.29,0,.38.38,0,0,0-.17.27.39.39,0,0,0,0,.3c0,.05.1,0,.07,0Z"/><rect class="cls-5" x="96.86" y="74.37" width="0.96" height="0.45" rx="0.22" ry="0.22" transform="translate(-10.9 132.25) rotate(-65.51)"/><path class="cls-5" d="M97.11,74.63c-.06,0-.15-.13-.11-.2s.18,0,.22,0,.06,0,0,0a.25.25,0,0,0-.16-.06s-.12,0-.14.06a.18.18,0,0,0,0,.16.37.37,0,0,0,.13.12s0,0,0-.05Z"/><rect class="cls-5" x="93.26" y="80.93" width="1.46" height="1.37" rx="0.69" ry="0.69" transform="translate(-25.75 47.61) rotate(-25.12)"/><path class="cls-5" d="M93.55,81.15c0-.09,0-.26.06-.3s.08,0,.13,0a.24.24,0,0,1,.09.16c0,.07.12.07.12,0s-.19-.39-.38-.34-.19.37-.12.51.13,0,.1-.06Z"/><path class="cls-1" d="M115.36,69.34l-2.94-.82a.33.33,0,0,1-.21-.4l.45-1.6a.31.31,0,0,1,.38-.23l2.94.82a.32.32,0,0,1,.21.4l-.45,1.6A.31.31,0,0,1,115.36,69.34Z"/><path class="cls-1" d="M114.3,66.69c0-.13.23-.33.41-.27s.16.34.07.44,0,.11.09.06a.38.38,0,0,0,.07-.33.37.37,0,0,0-.19-.27.41.41,0,0,0-.34.08.43.43,0,0,0-.21.28s.09.07.1,0Z"/><path class="cls-1" d="M105.41,66.75l-2.28-.64a.24.24,0,0,1-.16-.31l.34-1.24a.24.24,0,0,1,.3-.18l2.28.64a.23.23,0,0,1,.16.3l-.34,1.25A.26.26,0,0,1,105.41,66.75Z"/><path class="cls-1" d="M104.59,64.69c0-.1.17-.25.31-.21s.13.27.06.35,0,.08.07,0a.28.28,0,0,0,0-.25.24.24,0,0,0-.14-.21.32.32,0,0,0-.27,0,.38.38,0,0,0-.16.22s.07.06.08,0Z"/><rect class="cls-5" x="105.17" y="63.23" width="1.79" height="0.84" rx="0.42" ry="0.42" transform="translate(2.65 -4.22) rotate(2.31)"/><path class="cls-5" d="M105.84,63.28c0-.13.12-.35.27-.34s.19.28.15.39a0,0,0,1,0,.07,0,.34.34,0,0,0,0-.31.32.32,0,0,0-.2-.21.35.35,0,0,0-.26.15.46.46,0,0,0-.11.3c0,.05.08.05.08,0Z"/><rect class="cls-4" x="103.65" y="61.93" width="1.92" height="2.22" rx="0.96" ry="0.96" transform="translate(-3 5.28) rotate(-2.85)"/><path class="cls-4" d="M104.36,62.06a.49.49,0,0,1,.21-.43c.12-.08.22,0,.27.15a.36.36,0,0,1,0,.29c0,.07.09.1.12,0a.51.51,0,0,0,0-.4c-.06-.1-.16-.23-.29-.22s-.41.37-.4.58a.06.06,0,1,0,.12,0Z"/><rect class="cls-4" x="105.72" y="66.59" width="1.2" height="0.56" rx="0.26" ry="0.26" transform="matrix(0.08, -1, 1, 0.08, 31.06, 167.42)"/><path class="cls-4" d="M106.24,66.3c0-.08,0-.21.12-.22s.14.15.12.22,0,0,0,0a.23.23,0,0,0,0-.18s-.08-.11-.14-.11-.1.06-.13.11a.28.28,0,0,0,0,.18,0,0,0,1,0,0,0Z"/><path class="cls-1" d="M100,66.76l-1.63-.46a.19.19,0,0,1-.12-.22l.25-.89a.18.18,0,0,1,.22-.13l1.63.46a.18.18,0,0,1,.12.22l-.25.89A.2.2,0,0,1,100,66.76Z"/><path class="cls-1" d="M99.39,65.28c0-.07.12-.18.22-.15s.09.19,0,.25,0,.06,0,0a.19.19,0,0,0,0-.18.18.18,0,0,0-.1-.15.23.23,0,0,0-.2,0,.31.31,0,0,0-.11.16s0,0,.06,0Z"/><rect class="cls-5" x="96.5" y="67.11" width="3.11" height="2.12" rx="0.26" ry="0.26" transform="translate(-8.22 122.63) rotate(-61.94)"/><path class="cls-5" d="M98.46,66.75c.05-.2.29-.49.5-.41s.18.49.07.64,0,.15.1.08a.61.61,0,0,0,.11-.47A.51.51,0,0,0,99,66.2a.46.46,0,0,0-.43.12.74.74,0,0,0-.27.4.07.07,0,0,0,.13,0Z"/><path class="cls-1" d="M97.55,66.71l-1.25-.09a.13.13,0,0,1-.12-.14l0-.69a.12.12,0,0,1,.13-.12l1.25.09a.13.13,0,0,1,.12.14l0,.69A.12.12,0,0,1,97.55,66.71Z"/><path class="cls-1" d="M96.9,65.73c0-.06.07-.15.14-.14s.1.12.07.17,0,0,0,0a.17.17,0,0,0,0-.14.14.14,0,0,0-.1-.1.2.2,0,0,0-.13.06.18.18,0,0,0-.06.13,0,0,0,1,0,0,0Z"/><rect class="cls-1" x="108.13" y="61.92" width="1.42" height="0.66" rx="0.33" ry="0.33" transform="translate(133.49 185.18) rotate(-131.11)"/><path class="cls-1" d="M108.75,62.57c-.08.07-.27.13-.35,0s.06-.26.15-.29,0-.08,0-.06a.28.28,0,0,0-.18.17c0,.06-.06.16,0,.22a.27.27,0,0,0,.22.08.43.43,0,0,0,.24-.1s0-.07,0,0Z"/><rect class="cls-1" x="88.89" y="60.51" width="2.95" height="2.57" rx="1.28" ry="1.28" transform="translate(3.68 -5.06) rotate(3.27)"/><path class="cls-2" d="M90.23,60.53c0-.11.11-.34.24-.3s.14.25.1.34.07.1.1,0a.35.35,0,0,0,0-.3.29.29,0,0,0-.18-.19c-.2,0-.37.23-.37.4s.1.08.11,0Z"/><path class="cls-1" d="M95.76,52.93l1.77-.64a.18.18,0,0,1,.24.12l.36,1a.22.22,0,0,1-.11.26l-1.77.64a.19.19,0,0,1-.24-.12l-.36-1A.21.21,0,0,1,95.76,52.93Z"/><path class="cls-1" d="M97.24,53.88a.23.23,0,0,1-.1.28c-.11,0-.2-.12-.2-.2s-.06,0-.06,0a.2.2,0,0,0,.08.19.23.23,0,0,0,.19.07.25.25,0,0,0,.14-.16.3.3,0,0,0,0-.21s-.07,0-.06,0Z"/><rect class="cls-1" x="98.15" y="52.52" width="1.29" height="0.87" rx="0.43" ry="0.43" transform="translate(-13.29 52.64) rotate(-28.03)"/><path class="cls-2" d="M98.33,53.36c-.06,0-.21.08-.27,0s.06-.2.13-.22a0,0,0,1,0,0,0,.2.2,0,0,0-.15.12c0,.05,0,.12,0,.17s.11.07.17.07a.33.33,0,0,0,.19-.06s0-.06,0,0Z"/><path class="cls-1" d="M100.29,56.21a.59.59,0,0,1,0,.19c0,.07-.1.17-.16.08a.5.5,0,0,1,0-.36s-.06-.07-.07,0a.7.7,0,0,0,0,.32c0,.07,0,.16.11.18a.17.17,0,0,0,.16-.08.51.51,0,0,0,.06-.3c0-.06-.07-.06-.07,0Z"/><path class="cls-1" d="M99.57,55.64l.4.58h.42l.42-.54v-.4s0,.37,0,.35l0-1.21a.13.13,0,0,0-.13-.13l-.95,0a.14.14,0,0,0-.14.12v.82l0,.42Z"/><rect class="cls-4" x="99.26" y="53.1" width="1.95" height="1.09" rx="0.26" ry="0.26" transform="translate(46.59 153.88) rotate(-90)"/><path class="cls-4" d="M100.07,52.73c0-.12,0-.33.18-.34s.2.22.18.33.06.07.07,0a.32.32,0,0,0,0-.28c0-.07-.11-.16-.2-.15a.26.26,0,0,0-.2.15.39.39,0,0,0,0,.28s.08,0,.07,0Z"/><path class="cls-5" d="M98.2,54.85a1.88,1.88,0,0,1-.12-.18c0-.07,0-.22.09-.17s.19.2.23.31.1,0,.08,0a.85.85,0,0,0-.19-.3c-.06-.05-.14-.11-.21-.08a.16.16,0,0,0-.09.18.54.54,0,0,0,.15.3,0,0,0,1,0,.06,0Z"/><path class="cls-5" d="M99.22,54.86l-.74-.24-.38.28v.75l.26.35-.22-.31.79,1.09a.13.13,0,0,0,.19,0l.85-.63a.13.13,0,0,0,0-.19l-.54-.73-.26-.38Z"/><path class="cls-4" d="M99.22,53.81a.31.31,0,0,1,.07-.09s.1,0,.1,0-.07.13-.12.17,0,.06,0,0a.39.39,0,0,0,.11-.15.13.13,0,0,0,0-.12.09.09,0,0,0-.11,0c-.06,0-.09.08-.12.12s0,0,0,0Z"/><path class="cls-4" d="M99.39,54.32v-.41l-.2-.14-.38.13-.13.2.12-.17-.4.58a.09.09,0,0,0,0,.11l.47.31a.08.08,0,0,0,.1,0l.27-.4a2.43,2.43,0,0,1,.14-.2Z"/><path class="cls-1" d="M97.59,59.64l.58.76a.11.11,0,0,1,0,.14l-.42.32a.1.1,0,0,1-.14,0L97,60.08a.11.11,0,0,1,0-.14l.42-.32A.11.11,0,0,1,97.59,59.64Z"/><path class="cls-1" d="M97.35,60.5a.11.11,0,0,1-.15,0s0-.11.06-.12,0,0,0,0a.13.13,0,0,0-.08.07.12.12,0,0,0,0,.1.16.16,0,0,0,.1.05.17.17,0,0,0,.1,0s0,0,0,0Z"/><path class="cls-1" d="M99.44,59.83l-1,.05a.09.09,0,0,1-.1-.09l0-.53a.1.1,0,0,1,.09-.1l1,0a.09.09,0,0,1,.1.09l0,.53A.1.1,0,0,1,99.44,59.83Z"/><path class="cls-1" d="M98.86,59.15A.11.11,0,0,1,99,59c.06,0,.08.08.07.12s0,0,0,0a.12.12,0,0,0,0-.1A.11.11,0,0,0,99,59s-.07,0-.09,0a.15.15,0,0,0,0,.11,0,0,0,0,0,0,0Z"/><path class="cls-1" d="M100.05,56.92l.79.55a.11.11,0,0,1,0,.14l-.3.43a.11.11,0,0,1-.14,0l-.78-.55a.09.09,0,0,1,0-.14l.3-.43A.09.09,0,0,1,100.05,56.92Z"/><path class="cls-1" d="M100.09,57.81a.11.11,0,0,1-.15,0s0-.12,0-.14,0,0,0,0a.16.16,0,0,0-.06.08s0,.08,0,.1a.11.11,0,0,0,.11,0,.15.15,0,0,0,.09-.06s0,0,0,0Z"/><path class="cls-5" d="M100.07,58.93l-2.61.48a.25.25,0,0,1-.31-.15l-.23-1c0-.11.07-.23.22-.25l2.61-.48a.26.26,0,0,1,.31.15l.23,1A.24.24,0,0,1,100.07,58.93Z"/><path class="cls-5" d="M98.05,57.74a.42.42,0,0,1,.3-.47c.23,0,.37.25.33.39s.11.08.13,0a.38.38,0,0,0-.1-.35.45.45,0,0,0-.36-.16.5.5,0,0,0-.35.24.46.46,0,0,0-.07.37c0,.06.14,0,.12,0Z"/><path class="cls-1" d="M86.27,67.86l-3.16,1a.39.39,0,0,1-.46-.29L82,66.54a.4.4,0,0,1,.19-.51l3.17-1a.38.38,0,0,1,.45.3l.68,2.06A.39.39,0,0,1,86.27,67.86Z"/><path class="cls-1" d="M83.16,66a.82.82,0,0,1,.4-1c.39-.12.68.4.65.68,0,.13.21.13.22,0a.73.73,0,0,0-.25-.66.74.74,0,0,0-.65-.24.89.89,0,0,0-.53.54,1,1,0,0,0,0,.74c0,.12.25,0,.21-.1Z"/><path class="cls-5" d="M87.65,67.66l-2.05,0a.2.2,0,0,1-.21-.18l0-.94a.21.21,0,0,1,.21-.19l2,0a.2.2,0,0,1,.21.18l0,.94A.21.21,0,0,1,87.65,67.66Z"/><path class="cls-5" d="M86.47,66.4c0-.09.08-.25.2-.25s.17.19.14.27,0,.06.06,0a.22.22,0,0,0,0-.22c0-.06-.09-.14-.17-.14a.26.26,0,0,0-.21.11.28.28,0,0,0-.08.22s.07,0,.07,0Z"/><rect class="cls-1" x="88.1" y="66.05" width="1.84" height="1.23" rx="0.26" ry="0.26" transform="translate(22.35 155.69) rotate(-90)"/><path class="cls-1" d="M88.83,65.8c0-.11,0-.3.2-.31s.23.21.2.3.07.07.09,0a.31.31,0,0,0-.06-.26.33.33,0,0,0-.23-.14.31.31,0,0,0-.23.15.34.34,0,0,0,0,.26c0,.05.09,0,.08,0Z"/><rect class="cls-1" x="98.58" y="69.06" width="1.84" height="1.23" rx="0.26" ry="0.26" transform="translate(207.37 13.84) rotate(117.63)"/><path class="cls-1" d="M99.26,70.53c0,.11-.19.25-.32.18s-.11-.29,0-.36,0-.09-.07-.06a.33.33,0,0,0-.07.26.35.35,0,0,0,.14.24.32.32,0,0,0,.27,0,.39.39,0,0,0,.17-.21s-.06-.07-.08,0Z"/><rect class="cls-1" x="96.53" y="70.67" width="3.36" height="3.15" rx="1.58" ry="1.58" transform="translate(49.28 -39.43) rotate(30)"/><path class="cls-2" d="M98.51,70.68c.14-.25.69-.69,1-.42s0,.76-.18.94.06.33.21.21a1,1,0,0,0,.36-.72.85.85,0,0,0-.19-.68c-.44-.37-1.2.11-1.42.52a.15.15,0,0,0,.26.15Z"/><rect class="cls-1" x="94.91" y="80.02" width="2.54" height="1.7" rx="0.26" ry="0.26" transform="translate(15.31 177.05) rotate(-90)"/><path class="cls-1" d="M95.91,79.67c0-.16.07-.43.28-.44s.32.29.29.42a.06.06,0,0,0,.11,0,.37.37,0,0,0-.08-.36.44.44,0,0,0-.32-.2.39.39,0,0,0-.31.21.46.46,0,0,0-.08.36c0,.06.12,0,.11,0Z"/><rect class="cls-1" x="99.24" y="74.67" width="1.05" height="0.42" rx="0.21" ry="0.21" transform="translate(24.88 174.64) rotate(-90)"/><path class="cls-1" d="M99.67,74.34c0-.06,0-.15.1-.15s.11.1.1.14,0,0,0,0a.11.11,0,0,0,0-.12s-.06-.07-.11-.07a.14.14,0,0,0-.11.07.17.17,0,0,0,0,.12s0,0,0,0Z"/><rect class="cls-1" x="100.2" y="79.02" width="1.45" height="1.03" rx="0.51" ry="0.51" transform="translate(111.32 207.61) rotate(-132.88)"/><path class="cls-2" d="M100.72,80c-.08.07-.27.13-.35,0s0-.27.14-.31,0-.08,0-.06a.35.35,0,0,0-.18.18c0,.07,0,.17,0,.23s.16.07.23.07a.41.41,0,0,0,.24-.11s0-.07,0,0Z"/><path class="cls-1" d="M98.83,77.82v-.35s.09-.09.18-.09h.37c.1,0,.18,0,.18.09v.35s-.08.09-.18.09H99C98.9,77.91,98.82,77.87,98.83,77.82Z"/><path class="cls-2" d="M99.13,77.4a.1.1,0,0,1,.07-.1.08.08,0,0,1,.07.09s0,0,0,0a.12.12,0,0,0,0-.08.12.12,0,0,0-.08,0,.09.09,0,0,0-.07,0,.08.08,0,0,0,0,.08s0,0,0,0Z"/></svg>