<svg id="Capa_1" data-name="Capa 1" xmlns="http://www.w3.org/2000/svg" viewBox="0 0 274 130"><defs><style>.cls-1{fill:#9c9b9b;}.cls-2{fill:#c6c6c5;}</style></defs><title>Logo</title><path class="cls-1" d="M198.52,65.11l-1,3-2.13,6.8c-.19.62-.2.63-.83.63-1.06,0-2.13,0-3.19,0-.65,0-.66,0-.82-.62q-1.26-4.56-2.51-9.13-.86-3.1-1.7-6.22c-.18-.64-.16-.67.52-.67h3.3c.6,0,.61,0,.75.61q1.1,4.62,2.17,9.22a1.84,1.84,0,0,0,.21.68,1.09,1.09,0,0,0,.23-.55c.88-3.07,1.74-6.14,2.62-9.22.23-.78.11-.74,1-.74h3.13c.62,0,.62,0,.79.58l2.61,9.05c.07.27.16.54.25.85.24-.18.22-.43.26-.62q1.05-4.49,2.09-9l.06-.28c.16-.63.16-.63.79-.63h3.26c.53,0,.55,0,.41.56q-1.26,4.62-2.54,9.25-.8,2.94-1.61,5.88l-.15.55a.46.46,0,0,1-.48.4h-3.77c-.31,0-.41-.2-.49-.45-.22-.71-.45-1.42-.67-2.13q-1.14-3.61-2.29-7.23A1.26,1.26,0,0,0,198.52,65.11Z"/><path class="cls-1" d="M258.78,75.44c-.18.19-.38.13-.56.13-1.31,0-2.62,0-3.94,0a1,1,0,0,1-1-.52c-1.1-1.72-2.22-3.41-3.33-5.11-.38-.58-.38-.58-.83-.06-.28.32-.54.65-.83.94a1.62,1.62,0,0,0-.5,1.33c0,.87,0,1.75,0,2.63,0,.15,0,.3,0,.45a.3.3,0,0,1-.32.32h-.23c-1.11,0-2.21,0-3.31,0-.54,0-.59,0-.59-.59,0-1.14,0-2.28,0-3.42V53.76c0-.94,0-.87.87-.87h2.85c.74,0,.74,0,.74.72q0,3,0,6c0,1.63,0,3.27,0,4.9a1.25,1.25,0,0,0,.08.63c.25,0,.34-.24.47-.39,1.55-1.8,3.1-3.6,4.64-5.42a1,1,0,0,1,.87-.41c1.37,0,2.74,0,4.11,0,.16,0,.34,0,.5.08,0,.2-.15.3-.26.42L253,65.52c-.39.46-.39.46-.06,1l5.41,8.18A3.48,3.48,0,0,1,258.78,75.44Z"/><path class="cls-1" d="M143.26,60.9c.29-.33.52-.62.78-.86a5.12,5.12,0,0,1,2.39-1.28,6.89,6.89,0,0,1,3.66.06,5.39,5.39,0,0,1,3.83,4.54,8.72,8.72,0,0,1,.15,1.76v9.71a1.85,1.85,0,0,1,0,.23c0,.45-.05.5-.48.51q-1.74,0-3.48,0c-.46,0-.49,0-.51-.49,0-.15,0-.31,0-.46V66.06a6,6,0,0,0-.23-1.69,2.34,2.34,0,0,0-2.24-1.79,7.07,7.07,0,0,0-1,0,2.58,2.58,0,0,0-2.32,1.83,6.19,6.19,0,0,0-.32,2.13v8.22c0,.8,0,.8-.78.8-1,0-2,0-3,0-.63,0-.66,0-.66-.63q0-7.71,0-15.41c0-.57,0-.6.57-.6h2.86c.49,0,.49,0,.58.5A8.61,8.61,0,0,0,143.26,60.9Z"/><path class="cls-1" d="M175.14,67.07V63.19c0-.74,0-.74-.72-.74h-1A.37.37,0,0,1,173,62c0-.87,0-1.75,0-2.62,0-.36.07-.42.45-.43s.8,0,1.2,0,.5-.06.5-.5c0-.89,0-1.79,0-2.68,0-1.05,0-.94,1-1h2.8c.6,0,.63,0,.63.66,0,.95,0,1.9,0,2.85,0,.58,0,.61.61.62h2.74c.61,0,.64,0,.64.66s0,1.48,0,2.22c0,.55,0,.6-.58.6h-3c-.26,0-.37.14-.38.39v.4c0,2,0,4.07,0,6.11a7.75,7.75,0,0,0,.07,1,1.48,1.48,0,0,0,1.22,1.34,7.42,7.42,0,0,0,1.64.16h1a.32.32,0,0,1,.35.36c0,1,0,2,0,3,0,.27-.15.37-.4.37a19.4,19.4,0,0,1-4.93-.32,4.21,4.21,0,0,1-2.65-1.75,4.5,4.5,0,0,1-.71-2.38c0-1.35,0-2.7,0-4.05Z"/><path class="cls-1" d="M234.7,61.18c.1,0,.14-.07.18-.13a5.51,5.51,0,0,1,3.43-2.19,9.49,9.49,0,0,1,1.76-.2c.34,0,.39,0,.4.38,0,1.13,0,2.25,0,3.37,0,.42-.07.48-.52.49a10.21,10.21,0,0,0-2,.15,3.54,3.54,0,0,0-3,3.08,5.88,5.88,0,0,0-.07,1V75c0,.47-.06.53-.53.54-1.14,0-2.29,0-3.43,0-.46,0-.51-.06-.52-.54a2.62,2.62,0,0,1,0-.28v-15c0-.86,0-.86.84-.86h2.57c.5,0,.55,0,.61.54s.09.8.14,1.19C234.57,60.84,234.53,61.05,234.7,61.18Z"/><path class="cls-1" d="M40.81,61.05c.45-.58.47-.67.09-1.26-1.12-1.75-2.25-3.48-3.36-5.24a1,1,0,0,0-.93-.52c-1.64-.07-3.27-.18-4.9-.25a1.2,1.2,0,0,1-1-.59c-1.16-1.72-2.35-3.41-3.52-5.13a1.1,1.1,0,0,0-1-.54c-1.6,0-3.2-.07-4.79-.15a1.42,1.42,0,0,0-1.27.58c-1.29,1.55-2.61,3.08-3.9,4.62a.82.82,0,0,1-.78.34c-.91-.06-1.82-.09-2.74-.14v0H12a.93.93,0,0,0-.84.37c-1.45,1.74-2.92,3.46-4.38,5.19-.34.41-.34.56,0,1l1.62,2.21c.26.36.26.4,0,.74L7.07,63.85c-.37.45-.38.58,0,1.05L8.6,67.08c.27.37.27.38,0,.72-.46.53-.94,1-1.41,1.58s-.48.67-.07,1.23c1,1.43,2.09,2.85,3.13,4.29a1.19,1.19,0,0,0,.79.49c1.25.24,2.5.51,3.75.73a1.51,1.51,0,0,1,1.05.68c1,1.34,2,2.65,3,4a1.25,1.25,0,0,0,.94.55c1.38.16,2.75.33,4.13.53A1.1,1.1,0,0,0,25,81.36c1.07-1.46,2.18-2.88,3.26-4.33a.79.79,0,0,1,.87-.34c1.82.33,3.64.61,5.46.92a.87.87,0,0,0,.94-.35c1.4-1.8,2.82-3.58,4.23-5.38.38-.47.38-.6,0-1.12l-1.33-2c-.4-.6-.41-.51,0-1.08.29-.4.57-.81.87-1.2a.71.71,0,0,0,0-.94c-.23-.35-.45-.71-.67-1.06s-.25-.42,0-.8ZM30.22,55.69c.28-.33.46-.79.85-1s.82,0,1.25,0c1,.07,2.11.12,3.17.21.38,0,.41.12.17.41l-3.15,3.91c-.22.26-.28.26-.47,0l-1.88-2.86a.43.43,0,0,1,0-.61ZM26.37,49a.21.21,0,0,1,.34,0c.08.11.16.21.23.32l2.91,4.22c.39.58.39.58,0,1.12l-.13.18c-.24.29-.29.29-.51,0a7.74,7.74,0,0,1-.44-.67,1,1,0,0,0-.92-.53c-1.52-.06-3-.14-4.55-.22a.59.59,0,0,1-.41-.1c0-.18.1-.26.19-.36q1.53-1.87,3.08-3.73A3,3,0,0,1,26.37,49ZM8,59.43a17,17,0,0,1,2.59.11A10.44,10.44,0,0,1,9.43,61c-.12.14-.24,0-.33-.08Zm.39,4.26c.64-.78,1.29-1.55,1.94-2.32l1.72-2.06c0-.06.11-.11.15-.17.16-.25.1-.39-.21-.42l-1.53-.12-2-.13c-.13,0-.29,0-.36-.12s.06-.25.14-.34c1.13-1.34,2.27-2.67,3.39-4a.81.81,0,0,1,.74-.33,4.51,4.51,0,0,0,.52,0h0c.91.05,1.82.06,2.73.16a1.11,1.11,0,0,0,1.08-.45c1.21-1.44,2.44-2.87,3.66-4.31.67-.8.67-.81,1.72-.78l2.85.11c.15,0,.37-.07.45.13s-.11.26-.21.38l-3.31,4c-.24.3-.5.58-.72.89s-.13.41.21.44.87.07,1.31.1l3.53.15h.17c.22,0,.52,0,.62.17s-.17.36-.29.52c-1,1.29-2,2.56-3,3.86a1,1,0,0,1-1,.44c-1.75-.14-3.49-.24-5.24-.39a1.1,1.1,0,0,0-1.07.45c-1.26,1.51-2.55,3-3.8,4.49a.89.89,0,0,1-.88.37c-1.06-.13-2.12-.23-3.18-.35C8.23,64,8.19,64,8.41,63.69Zm9.78,6.63c.94-1.23,1.89-2.44,2.8-3.68a.92.92,0,0,1,.92-.41c1.49.17,3,.32,4.48.48.32,0,.34.12.13.41-.76,1-1.53,2-2.3,3-.25.34-.51.67-.76,1a.56.56,0,0,1-.53.27c-1.64-.2-3.28-.38-4.94-.57A.63.63,0,0,1,18.19,70.32Zm-1-.27c-.24.3-.29.3-.54,0l-3-4.06c-.15-.21-.3-.44-.46-.64a.43.43,0,0,1,0-.65c.51-.58,1-1.18,1.51-1.77l1.85-2.17c.3-.34.33-.34.58,0,1.05,1.53,2.09,3.08,3.13,4.62a.49.49,0,0,1,.13.31.66.66,0,0,1-.15.3Zm8.67-4.3-4-.43a.87.87,0,0,1-.73-.36c-1-1.52-2-3-3.06-4.54a2.35,2.35,0,0,1-.1-.22c.16-.18.36-.11.53-.1l4.27.31a.71.71,0,0,1,.61.34c1,1.55,2,3.09,3,4.64a.57.57,0,0,1,.12.33A1.22,1.22,0,0,1,25.9,65.75ZM9.26,68.42a.21.21,0,0,1,.34,0,13.54,13.54,0,0,1,1,1.5,8.66,8.66,0,0,1-2.39-.34A9.17,9.17,0,0,1,9.26,68.42ZM22.9,80.78c-.89-.09-1.78-.2-2.67-.28a1.22,1.22,0,0,1-.94-.54c-1-1.36-2-2.69-3-4a1.46,1.46,0,0,0-1-.62c-1.24-.22-2.46-.49-3.7-.71a1.4,1.4,0,0,1-1-.61c-.62-.91-1.29-1.79-1.93-2.69a1,1,0,0,1-.29-.54,1.6,1.6,0,0,1,.81,0c.85.09,1.71.15,2.55.3a2.69,2.69,0,0,0,.4,0c.24,0,.32-.12.21-.32a4,4,0,0,0-.3-.42l-3.4-4.65a2.23,2.23,0,0,1-.36-.6A.89.89,0,0,1,9,65c.87.1,1.74.22,2.61.29a1.13,1.13,0,0,1,.94.52c1.25,1.75,2.52,3.47,3.77,5.22a1.27,1.27,0,0,0,1,.59c1.6.16,3.21.36,4.81.53,1,.1,1,.09,1.5.95.69,1.15,1.37,2.29,2,3.44.1.17.27.33.24.56-.2.14-.4,0-.6,0l-4-.77-.12,0c-.19,0-.44-.15-.57.07s.08.35.18.5c.73,1.11,1.48,2.22,2.21,3.33a1,1,0,0,1,.26.49C23.12,80.86,23,80.79,22.9,80.78Zm2.94-2.09-1.27,1.67c-.16.21-.29.22-.44,0l-1.69-2.56a.3.3,0,0,1,0-.16c.12-.12.25-.07.38,0l2.85.55C26.09,78.23,26.12,78.31,25.84,78.69Zm7.52-2.21-3.42-.56-.33-.07c-.3-.08-.33-.13-.14-.37.38-.52.79-1,1.19-1.53.2-.25.39-.5.6-.75s.3-.33.53,0c.49.74,1,1.48,1.46,2.23a3.9,3.9,0,0,1,.58,1A.65.65,0,0,1,33.36,76.48Zm5-10.22a3,3,0,0,1-.26.36c-.19.21-.29.64-.56.57s-.52-.52-.71-.84c-.07-.11,0-.23.08-.32l.73-.94c.08-.09.2-.18.28-.06.2.28.37.57.55.86,0,0,0,.08,0,.14A1.42,1.42,0,0,1,38.34,66.26Zm-2.21-.77-.31.41a.53.53,0,0,0,0,.68c.16.22.3.44.46.65.88,1.18,1.66,2.42,2.48,3.63.28.43.28.44,0,.84Q37,73.86,35.31,76c-.31.4-.33.4-.62,0q-1.32-2-2.62-4c-.45-.69-.47-.69-1-.05l-3.65,4.68-.24.32c-.12.14-.22.13-.32,0s-.12-.19-.17-.29l-2.44-4.13c-.3-.51-.29-.51.08-1L27.8,67c.41-.53.41-.59,0-1.16-1.11-1.71-2.22-3.41-3.32-5.12-.5-.77-.49-.58,0-1.26q1.53-1.95,3.08-3.89a1.92,1.92,0,0,1,.18-.22c.27-.31.32-.31.55,0,.08.1.15.22.23.33l3,4.62c.1.16.2.33.31.48s.29.26.5,0,.31-.38.47-.58l3.57-4.44c.12-.14.2-.33.4-.39s.24.24.33.38l2.66,4.12c.3.46.3.47,0,.89Z"/><path class="cls-1" d="M171.19,65.48a8.79,8.79,0,0,0-.13-1.7A5.75,5.75,0,0,0,166.83,59a10.66,10.66,0,0,0-6.08,0A5.7,5.7,0,0,0,158,60.74a6.34,6.34,0,0,0-1.53,4.14c0,1.59,0,3.19,0,4.79a6.55,6.55,0,0,0,.2,1.53,5.53,5.53,0,0,0,3.68,4.17,11.42,11.42,0,0,0,4.89.52,9.08,9.08,0,0,0,3-.71A4.64,4.64,0,0,0,171,70.91c0-.5,0-.57-.53-.58-1,0-2.09,0-3.14,0-.44,0-.47,0-.52.43a1.82,1.82,0,0,1-1.44,1.58,5,5,0,0,1-2.71,0,2.21,2.21,0,0,1-1.55-1.24,4.74,4.74,0,0,1-.31-2.3.3.3,0,0,1,.32-.32h9.53c.45,0,.49,0,.5-.5C171.2,67.16,171.19,66.32,171.19,65.48ZM166.84,65a.3.3,0,0,1-.32.32h-2.68c-.8,0-1.6,0-2.4,0-.51,0-.55-.06-.57-.55a2.56,2.56,0,0,1,2.6-2.89A4.35,4.35,0,0,1,165,62,2.62,2.62,0,0,1,166.84,65Z"/><path class="cls-1" d="M227.68,64.91a6,6,0,0,0-4.74-6,11.46,11.46,0,0,0-5.7,0,5.84,5.84,0,0,0-4.72,5.23,28.94,28.94,0,0,0,0,6A5.87,5.87,0,0,0,217,75.55a11.13,11.13,0,0,0,6,0,5.88,5.88,0,0,0,4.56-5.18,27.54,27.54,0,0,0,.09-2.93C227.69,66.47,227.72,65.69,227.68,64.91Zm-4.46,2.47a19.3,19.3,0,0,1-.08,2.47,2.64,2.64,0,0,1-2.36,2.34,4.42,4.42,0,0,1-1.58,0A2.64,2.64,0,0,1,217,69.66c0-.51,0-1,0-1.54,0-1.06,0-2.12,0-3.19a2.58,2.58,0,0,1,2.35-2.63,4.37,4.37,0,0,1,1.87.07,2.54,2.54,0,0,1,2,2.08,4.79,4.79,0,0,1,.1,1.07C223.21,66.09,223.22,66.66,223.22,67.38Z"/><path class="cls-2" d="M127.19,67.07V63.19c0-.74,0-.74-.72-.74h-1c-.28,0-.42-.13-.41-.42,0-.87,0-1.75,0-2.62,0-.36.07-.42.45-.43s.8,0,1.2,0,.5-.06.51-.5c0-.89,0-1.79,0-2.68,0-1.05,0-.94,1-1H131c.61,0,.63,0,.64.66,0,.95,0,1.9,0,2.85,0,.58,0,.61.62.62H135c.61,0,.64,0,.64.66s0,1.48,0,2.22c0,.55-.05.6-.58.6h-3c-.27,0-.38.14-.38.39s0,.27,0,.4v6.11a7.75,7.75,0,0,0,.07,1,1.49,1.49,0,0,0,1.22,1.34,7.54,7.54,0,0,0,1.64.16h1a.32.32,0,0,1,.35.36v3c0,.27-.15.37-.4.37a19.4,19.4,0,0,1-4.93-.32,4.21,4.21,0,0,1-2.65-1.75,4.6,4.6,0,0,1-.71-2.38c0-1.35,0-2.7,0-4.05Z"/><path class="cls-2" d="M54,67.07V63.19c0-.74,0-.74-.72-.74h-1a.37.37,0,0,1-.42-.42c0-.87,0-1.75,0-2.62,0-.36.07-.42.45-.43s.8,0,1.2,0,.5-.06.5-.5c0-.89,0-1.79,0-2.68,0-1.05,0-.94,1-1h2.8c.6,0,.63,0,.63.66,0,.95,0,1.9,0,2.85,0,.58,0,.61.61.62h2.74c.61,0,.64,0,.64.66s0,1.48,0,2.22c0,.55,0,.6-.58.6h-3c-.26,0-.37.14-.38.39v.4c0,2,0,4.07,0,6.11a7.75,7.75,0,0,0,.07,1,1.48,1.48,0,0,0,1.22,1.34,7.42,7.42,0,0,0,1.64.16h1a.32.32,0,0,1,.35.36c0,1,0,2,0,3,0,.27-.15.37-.4.37a19.4,19.4,0,0,1-4.93-.32,4.21,4.21,0,0,1-2.65-1.75A4.5,4.5,0,0,1,54,71.12c0-1.35,0-2.7,0-4.05Z"/><path class="cls-2" d="M112.18,60.9c.29-.33.52-.62.78-.86a5.12,5.12,0,0,1,2.39-1.28,6.93,6.93,0,0,1,3.67.06,5.42,5.42,0,0,1,3.83,4.54,9.5,9.5,0,0,1,.14,1.76v9.94c0,.45-.06.5-.49.51q-1.74,0-3.48,0c-.46,0-.49,0-.51-.49,0-.15,0-.31,0-.46V66.06a6,6,0,0,0-.23-1.69A2.34,2.34,0,0,0,116,62.58a7.08,7.08,0,0,0-1,0,2.59,2.59,0,0,0-2.32,1.83,6.44,6.44,0,0,0-.32,2.13v8.22c0,.8,0,.8-.77.8q-1.51,0-3,0c-.63,0-.66,0-.66-.63V59.53c0-.57,0-.6.57-.6h2.86c.49,0,.49,0,.58.5A8.61,8.61,0,0,0,112.18,60.9Z"/><path class="cls-2" d="M104.9,65.48a8.07,8.07,0,0,0-.13-1.7A5.75,5.75,0,0,0,100.54,59a10.66,10.66,0,0,0-6.08,0,5.7,5.7,0,0,0-2.77,1.75,6.34,6.34,0,0,0-1.53,4.14c0,1.59,0,3.19,0,4.79a6.55,6.55,0,0,0,.2,1.53A5.53,5.53,0,0,0,94,75.37a11.46,11.46,0,0,0,4.9.52,9,9,0,0,0,3-.71,4.64,4.64,0,0,0,2.84-4.27c0-.5,0-.57-.53-.58-1,0-2.09,0-3.14,0-.43,0-.46,0-.52.43a1.82,1.82,0,0,1-1.44,1.58,5,5,0,0,1-2.71,0,2.23,2.23,0,0,1-1.55-1.24,4.86,4.86,0,0,1-.31-2.3.3.3,0,0,1,.32-.32h9.53c.45,0,.49,0,.5-.5C104.91,67.16,104.9,66.32,104.9,65.48ZM100.56,65a.31.31,0,0,1-.33.32H97.55c-.8,0-1.6,0-2.4,0-.51,0-.55-.06-.57-.55a2.56,2.56,0,0,1,2.61-2.89,4.29,4.29,0,0,1,1.47.12A2.63,2.63,0,0,1,100.56,65Z"/><rect class="cls-2" x="82.46" y="52.93" width="4.58" height="22.44"/><path class="cls-2" d="M77.24,60.07A8.87,8.87,0,0,0,71,58.54s-6.48.46-6,5.51h4.2s-.39-2.19,3.16-2.09c0,0,2.72-.08,2.17,3.71H70.25s-5.53-.26-5.78,4.68c0,0-.75,5.44,5.29,5.4,0,0,3.9.18,5-2L75,75.41l4,0V64.73S78.84,61.07,77.24,60.07Zm-4.59,12c-3.4.88-3.6-1.08-3.6-1.08-.35-2.37,1.79-2.17,1.79-2.17h3.65A2.81,2.81,0,0,1,72.65,72.08Z"/><path class="cls-2" d="M265.46,56s.93-.31.79-1a1,1,0,0,0-1.12-.9h-1.82v3.49h1V56.35h.42s.55.1.54.51l.07.71h.94l-.12-.24S266.34,56,265.46,56Zm-.19-.81c0,.56-1,.5-1,.5v-1C265.37,54.69,265.27,55.18,265.27,55.18Z"/><path class="cls-2" d="M264.65,52.61a3.25,3.25,0,1,0,3.25,3.25A3.24,3.24,0,0,0,264.65,52.61Zm0,5.71a2.51,2.51,0,1,1,2.51-2.51A2.5,2.5,0,0,1,264.69,58.32Z"/></svg>