<svg id="Capa_1" data-name="Capa 1" xmlns="http://www.w3.org/2000/svg" viewBox="0 0 274 130"><defs><style>.cls-1{fill:#c6c6c5;}</style></defs><title>Logo</title><g id="cp89IT.tif"><path class="cls-1" d="M165.16,83.77c0-.35-.09-.7-.09-1.06q0-17,0-33.95c0-1.1,0-1.1,1.07-1.1,2,0,4,0,6.05,0,.69,0,.89.23.88.9,0,2.07,0,4.14,0,6.21,0,.66.21.86.85.84,1.28,0,2.56,0,3.85,0,.53,0,.7.19.7.72,0,2.18,0,4.36,0,6.54,0,.61-.24.75-.77.74-1.28,0-2.56,0-3.85,0-.55,0-.78.18-.77.76q0,5.36,0,10.71c0,.55.22.71.73.7,1.15,0,2.29,0,3.44,0s1.21,0,1.21,1.18v6.87Z"/><path class="cls-1" d="M122.07,83.57l0,.2h-8l0-.18a1.2,1.2,0,0,1,1-.38q2.94,0,5.88,0A1.23,1.23,0,0,1,122.07,83.57Z"/><path class="cls-1" d="M70.39,63.64a2,2,0,0,0-.13,1.12q0,8.83,0,17.68c0,1.19,0,1.19-1.15,1.19-2,0-3.93,0-5.89,0-.64,0-.85-.2-.85-.85q0-17.19,0-34.37c0-.66.22-.84.85-.84,2.05,0,4.09,0,6.14,0,.74,0,.93.27.91,1,0,2,0,3.92,0,5.89a2.05,2.05,0,0,0,.12,1,9.76,9.76,0,0,0,2.59.11c.87,0,1.74,0,2.61,0,.46,0,.64.17.63.62,0,2.23,0,4.47,0,6.7,0,.58-.3.66-.77.67C73.76,63.6,72.07,63.48,70.39,63.64Z"/><path class="cls-1" d="M122.07,83.57l-8,0q0-13.66,0-27.33c0-.48.15-.68.65-.68q6.63,0,13.25,0c.55,0,.71.22.7.73q0,3.28,0,6.55c0,.53-.19.72-.71.71h-4.42c-1.65,0-1.47-.12-1.47,1.43,0,5.81,0,11.62,0,17.43C122.09,82.81,122.07,83.19,122.07,83.57Z"/><path class="cls-1" d="M211.4,66.24a14.55,14.55,0,1,0-1.2,9.24A25.19,25.19,0,0,0,211.65,71V67.07C211.38,66.85,211.46,66.52,211.4,66.24ZM197.15,76.4a7.3,7.3,0,0,1-7.3-7.36,7.21,7.21,0,0,1,7.31-7.23,7.3,7.3,0,0,1,7.29,7.28A7.37,7.37,0,0,1,197.15,76.4Z"/><path class="cls-1" d="M94.23,54.54a14.54,14.54,0,1,0,14.46,14.59A14.53,14.53,0,0,0,94.23,54.54ZM94.14,76.4A7.3,7.3,0,1,1,101.46,69,7.33,7.33,0,0,1,94.14,76.4Z"/><path class="cls-1" d="M145.44,54.54A14.55,14.55,0,1,0,160,69.05,14.55,14.55,0,0,0,145.44,54.54Zm0,21.86a7.3,7.3,0,0,1-.05-14.59,7.24,7.24,0,0,1,7.34,7.29A7.33,7.33,0,0,1,145.46,76.4Z"/></g></svg>