<svg id="Capa_1" data-name="Capa 1" xmlns="http://www.w3.org/2000/svg" viewBox="0 0 274 130"><defs><style>.cls-1{fill:#c6c6c5;}</style></defs><title>Logo</title><g id="vzCE8c.tif"><path class="cls-1" d="M221.37,76.37h-5.52V48.87l5.52.62Z"/><path class="cls-1" d="M73.62,46c7.46,12.91,14.62,25.3,22,38.07h-44Z"/><path class="cls-1" d="M146,73A13.11,13.11,0,0,1,129.35,75a10.57,10.57,0,0,1-3.59-13.55c2.4-5,8.74-7.2,14.6-5.19,5.17,1.78,7.76,6.34,6.61,12.17H130.83c1.82,3.5,5.19,5.08,8.34,3.3C142.07,70.14,143.87,71.11,146,73Zm-4.43-8.88A5.52,5.52,0,0,0,136,60.41c-2.45.05-4.44.94-5.29,3.67Z"/><path class="cls-1" d="M195.1,68.5c2.59,3.61,5.67,5,8.64,3.28s4.7-.68,6.74,1c-2.52,3.94-8.59,5.48-13.92,3.56a10.46,10.46,0,0,1-7.19-11.44c.55-5,4.27-8.53,9.54-9.15,7.21-.85,12.68,3.28,13.11,9.77.14,2.13-.38,3.11-2.76,3C204.73,68.39,200.19,68.5,195.1,68.5Zm11.27-4.4c-1.53-2.78-3.43-3.82-6-3.7a5.49,5.49,0,0,0-5.26,3.7Z"/><path class="cls-1" d="M112.42,77.74,96,49.34c5.72-.86,5.72-.86,8.19,3.42,2.65,4.58,5.31,9.16,8.21,14.18,2.87-4.94,5.83-9.37,8.08-14.14,1.77-3.76,4.27-4.5,8.33-3.45Z"/><path class="cls-1" d="M187.4,72.05c-3.71,4.8-9.21,6.3-14.53,4.26-4.48-1.72-6.94-5.77-6.61-10.88A10.19,10.19,0,0,1,174.05,56c5.44-1.42,10.49.35,13.16,4.72L183.46,63c-5.21-3.23-8.51-3.33-10.72-.36a6.42,6.42,0,0,0,.64,8.19c2.56,2.38,6.13,2,9.71-1.25Z"/><path class="cls-1" d="M156.5,76.4h-5.22v-20h4.85L156.7,59l7.46-3.33v5.75c-6.83,1.11-7.66,2.09-7.66,9.05Z"/></g></svg>